<?xml version="1.0" encoding="utf-8"?>
<!-- Generator: Adobe Illustrator 16.0.0, SVG Export Plug-In . SVG Version: 6.00 Build 0)  -->
<!DOCTYPE svg PUBLIC "-//W3C//DTD SVG 1.1//EN" "http://www.w3.org/Graphics/SVG/1.1/DTD/svg11.dtd">
<svg version="1.1" id="圖層_1" xmlns="http://www.w3.org/2000/svg" xmlns:xlink="http://www.w3.org/1999/xlink" x="0px" y="0px"
	 width="106.047px" height="51.719px" viewBox="0 0 106.047 51.719" enable-background="new 0 0 106.047 51.719"
	 xml:space="preserve">
<g>
	<g>
		<path fill-rule="evenodd" clip-rule="evenodd" fill="#5E6248" d="M82.086,46.957c2.775-1.367,5.641-2.584,8.312-4.135
			c6.127-3.562,10.193-8.68,11.047-15.914c0.59-4.973-0.594-9.512-3.807-13.436c-2.799-3.42-6.719-4.436-10.836-4.867
			c-1.977-0.205-2.461,0.561-2.33,2.592c0.178,2.736,0.662,5.549,0.248,8.207c-1.213,7.824-5.068,14.377-10.617,19.965
			c-0.422,0.424-0.879,0.824-1.375,1.154c-2.748,1.822-5.592,1.385-7.586-1.238c-1.865-2.459-2.662-5.348-2.963-8.363
			C61.057,19.688,69.814,8.74,81.035,6.988c4.467-0.697,8.748-0.637,13.123,0.59c6.254,1.752,11.33,8.273,11.83,15.625
			c0.732,10.799-5.412,20.289-17.619,23.314c-2.055,0.508-4.189,0.701-6.289,1.041C82.082,47.357,82.084,47.156,82.086,46.957z
			 M83.404,13.266c0.09-4.18-0.84-4.924-4.105-3.736c-6.893,2.504-11.461,7.295-13.354,14.408c-0.854,3.205-0.584,6.441,1.061,9.424
			c1.697,3.082,4.346,3.615,6.691,1.004C79.283,28.15,82.832,20.943,83.404,13.266z"/>
		<path fill-rule="evenodd" clip-rule="evenodd" fill="#5E6248" d="M20.346,13.639c0.354-1.145,1.312-0.824,2.094-0.824
			c2.52-0.004,5.039,0.098,7.555,0.043c2.215-0.051,2.553-0.318,2.51-2.531c-0.061-3.096-0.395-6.186-0.51-9.279
			C31.98,0.689,32.618-0.014,32.932,0c0.812,0.035,1.631,0.322,2.41,0.609c2.236,0.824,2.359,1.09,1.383,3.297
			c-1.077,2.428-0.65,4.951-0.472,7.436c0.075,1.064,1.015,1.553,2.11,1.523c2.801-0.074,5.83,0.727,7.852-2.207
			c0.492-0.715,1.218-0.635,1.885-0.125c0.757,0.578,1.58,1.09,2.248,1.758c0.375,0.373,0.495,1,0.729,1.512
			c-0.545,0.16-1.091,0.453-1.641,0.461c-3.237,0.045-6.477-0.018-9.714,0.039c-3.048,0.055-3.542,0.578-3.626,3.562
			c-0.031,1.078-0.051,2.16,0.01,3.236c0.125,2.271,0.801,3.053,3.105,2.932c1.479-0.078,3.133-0.42,4.347-1.203
			c2.675-1.727,2.868-1.869,5.112,0.123c0.357,0.318,0.732,0.631,1.029,1.002c0.68,0.85,0.199,1.365-0.637,1.441
			c-1.31,0.121-2.635,0.059-3.953,0.07c-1.918,0.018-3.842-0.047-5.753,0.074c-1.575,0.102-1.867,0.588-1.237,2.1
			c1.684,4.039,4.188,7.574,7.39,10.502c2.456,2.242,5.263,4.102,7.834,6.07c-1.417,0.555-3.172,1.082-4.768,1.91
			c-1.426,0.742-2.222,0.221-3.026-0.852c-2.967-3.951-5.367-8.223-7.262-12.781c-0.32-0.773-0.529-1.596-0.887-2.35
			c-0.119-0.254-0.537-0.365-0.818-0.543c-0.152,0.289-0.441,0.58-0.438,0.865c0.059,4.553,0.137,9.104,0.252,13.654
			c0.042,1.555,0.363,3.117,0.244,4.652c-0.064,0.836-0.596,1.846-1.245,2.381c-1.411,1.164-2.858,0.463-2.888-1.391
			c-0.062-4.197,0.018-8.395,0.036-12.592c0.005-1.301,0.001-2.604-0.296-4.062c-4.43,5.746-9.251,10.893-16.05,13.887
			c0.687-0.686,1.382-1.363,2.061-2.057c4.478-4.572,8.303-9.625,10.995-15.451c1.713-3.703,1.396-4.092-2.599-3.986
			c-1.317,0.035-2.64,0.219-3.949,0.148c-0.64-0.035-1.272-0.463-1.875-0.777c-0.169-0.088-0.356-0.479-0.292-0.596
			c0.134-0.24,0.428-0.541,0.661-0.547c1.197-0.029,2.397-0.002,3.593,0.062c1.316,0.072,2.629,0.279,3.943,0.297
			c3.322,0.043,3.757-0.398,3.806-3.625c0.015-0.959,0.022-1.92-0.001-2.879c-0.073-2.877-0.413-3.236-3.4-3.277
			c-1.555-0.023-3.17-0.125-4.654,0.234c-1.707,0.412-2.985-0.066-4.246-1.041L20.346,13.639z"/>
		<path fill-rule="evenodd" clip-rule="evenodd" fill="#5E6248" d="M20.24,13.498c-0.076,0.781-0.346,1.402-1.264,1.424
			c-1.559,0.035-3.121-0.004-4.677,0.094c-2.205,0.139-2.758,0.633-2.763,2.873c-0.004,2.252,0.254,4.504,0.397,6.756
			c2.39,0.201,4.048-1.658,6.782-2.34c-1.484,1.953-3.159,2.99-4.727,3.984c-1.863,1.18-2.516,2.617-2.449,4.766
			c0.132,4.195,0.106,8.398,0.006,12.594c-0.04,1.654-0.272,3.357-0.764,4.93c-0.29,0.928-1.153,1.773-1.952,2.42
			c-1.046,0.842-2.161,0.85-3.138-0.348c-0.828-1.012-1.791-1.916-2.88-3.064c0.79-0.049,1.522-0.096,2.256-0.143
			c2.349-0.156,2.866-0.496,2.925-2.693c0.108-4.078,0.041-8.158,0.039-12.238c-0.002-1.156-0.562-1.584-1.582-0.977
			c-1.025,0.609-1.978,1.346-2.943,2.049c-1.465,1.064-1.765,1.01-2.691-0.566c-1.355-2.305-1.133-2.844,1.509-3.66
			c0.229-0.07,0.46-0.133,0.688-0.209c5.035-1.662,5.035-1.662,5.035-7.053c0-1.439,0.041-2.881-0.012-4.318
			c-0.086-2.277-0.546-2.725-2.789-2.762c-1.187-0.018-2.387,0.154-3.553,0.01c-0.432-0.055-0.779-0.77-1.166-1.186
			c0.422-0.119,0.838-0.328,1.264-0.34c1.078-0.027,2.158,0.066,3.238,0.053c2.785-0.029,3.062-0.209,2.982-3.137
			C7.938,7.559,7.621,4.705,7.337,1.857c-0.147-1.477,0.022-1.75,1.419-1.574c0.713,0.088,1.432,0.184,2.127,0.361
			c1.639,0.416,1.585,0.781,1.34,2.469c-0.41,2.814-0.635,5.682-0.623,8.527c0.009,1.881,1.441,2.404,2.994,1.332
			c0.293-0.201,0.549-0.471,0.781-0.742c1.125-1.328,2.222-1.133,3.355,0.002c0.502,0.504,1.074,0.939,1.615,1.406L20.24,13.498z"/>
	</g>
</g>
</svg>
