<?xml version="1.0" encoding="utf-8"?>
<!-- Generator: Adobe Illustrator 24.0.2, SVG Export Plug-In . SVG Version: 6.00 Build 0)  -->
<svg version="1.1" id="圖層_1" xmlns="http://www.w3.org/2000/svg" xmlns:xlink="http://www.w3.org/1999/xlink" x="0px" y="0px"
	 viewBox="0 0 720 900" style="enable-background:new 0 0 720 900;" xml:space="preserve">
<style type="text/css">
	.st0{fill:#FFFFFF;}
</style>
<g>
	<path class="st0" d="M66,654c8,11.3,15.8,22.7,24,33.8c4.3,5.8,9.6,10.8,14.2,16.4c1.7,2.1,2.1,5.3,3.9,7.3
		c7.3,8.6,14.8,17.1,22.4,25.4c12.4,13.6,24.4,27.8,37.7,40.5c32.8,31.6,69.2,58.5,110.1,78.8c17.5,8.7,35.3,16.6,54.6,20.6
		c14.5,3,28.6-0.5,42.4-4.1c20.3-5.2,39.4-13.5,57-24.9c19.4-12.7,37.8-26.7,50.9-46.1c9.6-14.3,16-29.9,15.6-47.6
		c-0.3-14.5-6.4-26.8-15.4-37.6c-4.2-4.9-9.2-9.1-14-13.6c-2.4-2.3-5-1.9-7.7-0.2c-25.5,16-53.6,23.4-83.5,23.3
		c-16,0-31.3-4-44.7-13.5c-3.7-2.6-3.8-4.7-1.4-8.1c8.5-11.6,19.3-20.3,32.8-25.5c16.3-6.2,33.2-8,50.6-6.6
		c16.7,1.3,30.8,9.2,44.6,17.4c4.2,2.5,7,2.5,10.6-0.6c22.3-19.3,44.8-38.4,67.1-57.5c1-0.8,1.8-1.9,3.3-3.6
		c-2.5-0.6-4.3-1.2-6.1-1.5c-13.4-1.9-26.8-3.3-40.1-5.6c-19.6-3.4-38.9-8-58.5-10.9c-24.7-3.7-49.6-4-74.1,0.7
		c-18.9,3.6-37.3,9.8-55.9,14.9c-12.5,3.4-24.9,7.5-37.6,10.3c-13.5,3-27.2,2.3-40.7-0.2c-8.2-1.5-16.2-12.6-15.9-21.4
		c0-0.9,1.9-2.5,2.6-2.3c20.4,5.6,36.7-5,52.9-14.2c19.4-10.9,36.4-25.1,53-39.9c9.2-8.2,20.5-9.8,32.3-8.8
		c13.4,1.1,25.6,5.9,37.1,12.5c6.1,3.5,12.8,3.7,19.4,2.6c13-2.2,25-7.1,36-14.2c12.8-8.4,26.3-8.7,40.1-3.3
		c9.5,3.7,17.2,10.1,23.7,17.8c15.5,18,34.3,30.3,57.8,34.7c3.9,0.7,8,0.4,11.9,0.9c1.2,0.2,2.3,1.5,3.4,2.2c-1,1-1.8,2.7-2.9,2.9
		c-3.2,0.5-6.6,0.9-9.9,0.5c-14.5-1.8-27.7-7.5-39.5-15.8c-8.4-5.9-16.3-12.5-24.1-19.2c-5.2-4.5-9.3-10.6-14.9-14.4
		c-10.1-6.8-21.4-10.3-33.6-6c-4,1.4-7.7,3.8-11.5,6c-12,6.8-24.5,12.1-38.3,13.7c-7.4,0.8-14.4-0.2-21.3-3.7
		c-8-4.1-16.2-8.1-24.8-10.2c-16.5-3.9-31-0.7-44.4,11.7c-19.9,18.5-41.8,34.9-67.4,45c-7.5,3-15.7,4.1-23.6,6.2
		c-1.8,0.5-3.5,1.5-5.3,2.3c0.9,2,1.4,5.2,2.9,5.9c4.6,2,9.5,3.9,14.4,4.4c18.2,2,35.6-2,53-7.3c21.9-6.8,44-13.7,66.4-18.5
		c25.7-5.6,52-5.5,78-1.3c23,3.7,45.7,8.7,68.7,12.5c13.9,2.3,28.1,3.3,42.1,4.9c1.9,0.2,3.9,0.4,7,0.7c-1.5,2.3-2.3,4.1-3.6,5.2
		c-16.6,14.9-33.1,29.9-49.9,44.6c-8.1,7.1-16.6,13.6-24.9,20.4c-3.9,3.2-3.9,4.3,0.2,7.7c9.4,7.9,17.1,17.1,22.7,28.2
		c7.7,15.5,7.7,31.3,3.3,47.4c-5.6,20.3-17.5,36.8-32.9,50.9c-22.8,20.9-48.6,36.6-77.7,47c-15.2,5.4-31,8.5-46.8,9.5
		c-9.2,0.6-19-2.9-28.1-5.8c-27.8-8.8-53.5-22.3-78-37.9c-30.3-19.3-57.8-42.1-83.3-67.5c-21-20.9-40.8-42.9-58.4-66.9
		c-8.8-12.1-17.6-24.2-26.5-36.3c-1.1-1.5-2.5-2.7-3.7-4C66,661.3,66,657.7,66,654z M381.3,719.8c15.1,1,29.3-2,43.1-6.7
		c10.7-3.6,21-8.4,31.1-13.2c4.5-2.1,4.1-4.1,0.2-6.7c-24.1-16-50.3-19.4-78-12.8c-13.6,3.2-25.5,9.7-35.1,20
		c-4.8,5.2-4,9.1,2.2,12.1C356.4,718.2,368.7,720.9,381.3,719.8z"/>
	<path class="st0" d="M66,32c13.2-11,27.3-20.7,43.3-27.3c6.5-2.7,13.3-4,20.7-1.7c-1.7,0.7-3.4,1.2-5.1,2
		c-11.6,5.3-23.6,9.9-34.6,16.3C81.5,26.4,74,33.7,66,40C66,37.3,66,34.7,66,32z"/>
	<path class="st0" d="M253,2.1c7.6-1.6,14.8,0.3,21.6,3.4c14.6,6.8,28.3,14.9,40.2,25.8c17.9,16.3,31,35.8,40.2,58.1
		c7.3,17.6,12.9,35.8,14.7,54.7c1.7,17.9,2,35.9,2.6,53.8c1.1,39,2,77.9,3,116.9c0.7,26.6,1.3,53.3,2,79.9
		c0.3,10.2,0.8,20.3,0.9,30.5c0.1,4.7,2.1,6.5,6.7,6.4c18.8-0.1,37.7-0.1,56.5,0c2.5,0,6.3-1.5,6.7,2.7c0.1,0.7-4.5,2.6-6.9,2.6
		c-20,0.2-40,0.2-60,0.1c-7,0-8.9-2.3-9.1-9.4c-0.7-32.8-1.5-65.6-2.2-98.4c-0.5-21.3-0.8-42.6-1.3-64c-0.6-28.8-1.5-57.6-2-86.4
		c-0.4-22.4-2.8-44.5-9.1-66.1c-6.7-22.8-16.7-44-32-62.2c-17.9-21.4-40.2-36.6-67-45.1c-2-0.6-3.9-1.4-5.9-2.1
		C252.8,3,252.9,2.5,253,2.1z"/>
	<path class="st0" d="M505.9,268.9c-19.3,2.5-36.9-4.2-54.6-10c-2.1-0.7-4.4-2.6-5.4-4.6c-3.2-6.2-6.2-12.6-8.6-19.1
		c-0.7-1.9-0.3-5,0.7-6.8c6.7-11.9,16.5-21.3,26.3-30.5c1.1-1.1,2.8-1.9,4.3-2.2c20.6-4.7,41-11.5,62.5-8.7c16.5,2.2,33,5.3,46,17.9
		c7.4,7.1,14.1,14.5,19.2,23.4c1.6,2.9,1.6,5.1-0.2,7.8c-8.5,12.2-18.3,22.3-34.1,24.7c-9.3,1.4-18.4,5-27.7,6.4
		C524.9,268.5,515.4,268.3,505.9,268.9z M554,195.7c-0.3,0.6-0.6,1.1-0.9,1.7c1.2,2.3,2.9,4.6,3.5,7.1c3,11.3,2.6,22.5-1.6,33.4
		c-2.8,7.3-8.8,11.2-16.7,11.6c-17.9,0.9-17.9,0.8-28.7-13.6c-0.1-0.1-0.2-0.3-0.3-0.4c-3.4-3.5-4.2-7.8-3.6-12.5
		c1.2-9.8,4.7-18.7,10.9-26.4c1-1.2,3-1.6,4.6-2.4c-0.4,1.6-0.5,3.3-1.2,4.8c-3,6.8-6.7,13.4-8.9,20.4c-1.1,3.6-0.7,8.6,1,12
		c4.7,9.4,11.6,16.2,23.6,13.5c0.3-0.1,0.7,0,1,0c8.6-0.1,13.9-3.7,15.3-12c1.3-7.6,1.3-15.5,1.2-23.3c-0.1-5.6-3.4-9.6-8.7-11.8
		c-1.3-0.6-3.2-1.2-3.7-2.3c-1.6-3.8-4.7-3.6-7.9-3.9c-21.5-2-42,3.5-62.6,8.3c-1.7,0.4-3.4,1.5-4.6,2.8c-4.8,4.6-9.6,9.2-14.1,14.1
		c-12.1,13.3-12.2,14-4.6,30c0.7,1.5,1.3,3.1,2.2,4.5c0.8,1.2,1.7,2.9,2.9,3.3c10.6,3.3,21.2,8.3,32.1,8.9
		c25.9,1.7,51.7,0.9,77.2-6.7c12.3-3.7,21.5-9.9,28.8-19.8c2.4-3.3,2.2-6,0.3-9.5c-4.9-9.5-12.8-16.2-20.8-22.6
		C565,200.9,559.3,198.6,554,195.7z"/>
</g>
</svg>
