<?xml version="1.0" encoding="utf-8"?>
<!-- Generator: Adobe Illustrator 24.0.2, SVG Export Plug-In . SVG Version: 6.00 Build 0)  -->
<svg version="1.1" id="圖層_1" xmlns="http://www.w3.org/2000/svg" xmlns:xlink="http://www.w3.org/1999/xlink" x="0px" y="0px"
	 viewBox="0 0 720 900" style="enable-background:new 0 0 720 900;" xml:space="preserve">
<style type="text/css">
	.st0{fill:#FFFFFF;}
</style>
<g>
	<path class="st0" d="M44.5,635c1.3,1.7,2.6,3.3,3.7,5.1c19.4,31.2,40.8,60.8,64.6,88.8c5.3,6.3,11.4,11.9,17,17.9
		c9.6,10.1,18.6,20.8,28.7,30.4c36.5,34.6,76.6,64.2,122.9,84.5c14.1,6.2,29,10.9,43.9,14.8c6.9,1.8,14.8,0.5,22.2-0.6
		c27.5-3.9,52.5-14.4,75.9-29.1c16.3-10.2,31-22.5,43.5-37.1c12.1-14.1,19.8-30.4,21.9-49c1.9-17.1-4.3-31.8-15.1-44.6
		c-4.2-4.9-9.2-9.1-13.9-13.6c-2.6-2.5-5.1-2.4-8-0.3c-20.1,13.7-43,19-66.5,22.6c-16.1,2.4-32,0.6-47.2-5.1
		c-5.7-2.1-10.7-5.9-15.9-9.1c-2.9-1.8-1.6-4.3,0-6c6.2-6.4,11.8-14.3,19.3-18.6c29.9-17.3,61.2-20.3,93.2-5.1
		c5.7,2.7,11.3,5.7,16.7,9.1c3.4,2.2,6,2,8.9-0.5c18.5-15.7,37.2-31.3,55.7-47.1c5.2-4.4,10-9.1,16.1-14.7c-3.3-0.8-5.4-1.3-7.6-1.7
		c-27.1-4.6-54.2-9-81.2-13.9c-27.9-5-55.8-6.5-84.1-3c-17.8,2.2-34.8,7.5-51.8,12.7c-15.9,4.8-31.9,9.7-48.1,13.6
		c-13.4,3.2-27.2,2.4-40.7-0.1c-9.2-1.7-16.1-12.3-15.8-23.6c1.1,0,2.2-0.3,3.2,0c9.1,3,17.9,1.2,26.4-1.8
		c17.6-6.3,33.3-16.1,48.1-27.3c10.5-7.9,20.3-16.7,30.5-25.1c11.9-9.8,25.7-11,39.7-7.5c9.6,2.4,19,6.1,27.9,10.4
		c7.2,3.5,14.2,4.6,21.7,3.3c13.5-2.2,25.9-7.7,37.4-14.9c13.4-8.4,26.9-7.4,40.6-1.5c9.2,4,16.1,10.9,22.8,18.3
		c17.8,19.7,39,33.1,66.5,34c1.8,0.1,3.6,1.5,5.3,2.3c-1.8,1.1-3.6,3.2-5.4,3.3c-10.5,0.6-20.9-1.7-29.9-6.6
		c-11.7-6.3-22.9-13.6-33.6-21.4c-5.1-3.7-8.6-9.7-13.1-14.3c-7.5-7.8-16.7-12.6-27.4-14.4c-7.7-1.3-14.8,0.1-21.6,4.2
		c-13.3,8.1-27.2,14.8-43,16.7c-7.6,0.9-14.8,0.2-21.8-3.6c-11-6-22.3-11-35.2-11.9c-12.7-0.9-22.6,3.7-32.3,11.7
		c-14.8,12.3-30.2,24.1-46.2,34.8c-15.7,10.5-32.7,18.7-52.4,18c-0.5,5.7,3.5,10.8,9.3,11.7c16.3,2.7,32.5,2.4,48.4-2.4
		c22-6.7,43.9-13.6,66.1-19.6c22.8-6.2,46.3-8.2,69.9-6c16.2,1.5,32.4,3.9,48.5,6.5c18.9,3.1,37.6,7.1,56.5,10.2
		c9,1.5,18.2,1.8,27.3,2.7c1.9,0.2,3.9,0.4,7.4,0.8c-2.3,2.7-3.5,4.7-5.2,6.2c-24.1,21-48.2,42-72.4,62.9c-5.4,4.7-5.5,5.1-0.1,9.6
		c8.5,7.1,15.5,15.5,20.7,25.4c11.8,22.6,7.9,44.6-2.4,66.3c-9.7,20.3-26,34.8-43.4,48.2c-21.2,16.4-44.7,28-70.5,35.6
		c-12.3,3.6-24.8,5.9-37.2,6.5c-9.6,0.4-19.6-3.2-29-6.3c-27-8.9-52.2-22-76.2-37.1c-23.7-15-45.6-32.4-66.3-51.3
		c-25.9-23.6-49.9-49.1-70.9-77.1c-15.9-21.1-30.5-43.2-45.4-65.1c-2-2.9-2.4-6.8-3.6-10.2C43,635.6,43.8,635.3,44.5,635z
		 M371.9,719.5c14.6,1.1,28.8-2,42.6-6.7c10.7-3.6,21-8.3,31.2-13.2c4.7-2.2,4.3-4.2,0-7c-19.8-12.7-41.2-18-64.7-15
		c-15.1,1.9-29,6.4-41,15.7c-3.6,2.8-6.8,6.4-9.7,9.9c-2.5,3.1-1.7,5.4,2.1,7.4C344.7,717.4,357.8,720.4,371.9,719.5z"/>
	<path class="st0" d="M243.1,2.9c7.3-2.8,14-1.2,20.5,1.7c15.1,6.8,29.3,15.1,41.6,26.3c17.5,16,30.4,35.1,39.6,56.8
		c8.2,19.5,13.8,39.7,15.9,60.7c1.6,16.7,1.5,33.6,1.9,50.4c1,38.6,2,77.3,3,115.9c0.7,26.3,1.3,52.6,2,78.9
		c0.3,10.5,0.8,21,0.9,31.5c0,4.5,1.8,6.2,6.3,6.2c18.8-0.1,37.7-0.1,56.5,0c2.6,0,6.5-1.7,7.1,2.7c0.1,0.6-4.5,2.5-7,2.5
		c-19.8,0.2-39.7,0.1-59.5,0.1c-7.2,0-9.1-2-9.3-9.2c-0.5-30.3-1-60.6-1.7-90.9c-0.9-39-2-77.9-3-116.9c-0.6-20.8-0.3-41.7-2-62.4
		c-2.9-36.8-13.3-71.3-35.8-101.3c-18.5-24.8-42.6-41.8-72.1-51.1C246.4,4.3,244.8,3.5,243.1,2.9z"/>
	<path class="st0" d="M158.6,354.9c-13.2-0.4-24.7-2.2-35.5-7.6c-1.3-0.7-4.4,0.8-5.9,2.1c-10.2,9.1-21.6,15.5-35.5,16.9
		c-1,0.1-2.1,0.6-3,0.3c-1.8-0.7-3.5-1.7-5.2-2.6c1.6-1.1,3.1-3.1,4.7-3.2c8.6-0.2,16.4-2.9,23.6-7.3c3.9-2.4,7.5-5.6,11.1-8.4
		c2.3-1.8,2.2-3.6,0.2-5.9c-5-5.8-10-11.7-14.3-18c-2-2.9-3.2-6.8-3.8-10.4c-0.7-4.7-0.6-9.6-0.5-14.5c0-1.3,1.2-2.6,1.8-3.9
		c0.7,1.1,2,2.2,2.1,3.3c0.5,4.8,0.7,9.6,1.1,14.4c0.2,2-0.1,4.4,1,5.8c8.6,11.1,15.3,24,29.4,29.7c9.2,3.7,18.7,4.7,28.4,4.3
		c14.1-0.6,28.2-1.4,42.4-1.7c4.8-0.1,8.4-1.7,12.3-4.4c13.4-9.2,22.4-22.1,31.5-35.1c3.6-5.2,7.7-10.1,11.7-14.9
		c0.8-1,2.7-1,4.1-1.5c-0.3,1.3-0.2,2.9-0.9,3.9c-8.7,12-16.9,24.4-26.6,35.6c-6.6,7.6-15.2,13.4-23.1,19.7
		c-1.5,1.2-4.1,1.1-6.2,1.1c-9.5,0.1-19,0.2-28.5,0c-4.5-0.1-7.8,1.3-11,4.5c-10.2,10.2-22.4,16.6-36.9,18.1c-0.5,0-1.1,0.3-1.5,0.1
		c-2-0.9-4-1.8-6-2.8c1.8-1.1,3.6-3,5.4-3c8.6-0.2,16.3-3.2,23.5-7.5C151.8,360.3,154.6,357.8,158.6,354.9z"/>
	<path class="st0" d="M120.3,3c-30.7,8.4-55.9,25.1-75.6,50.5c-0.7-0.6-1.5-1.2-2.2-1.8c1-2.8,1.3-6.1,3-8.2
		c17-19.4,37.3-34.1,62.1-41.6c3.8-1.1,8.1-0.6,12.1-0.8C120,1.7,120.1,2.4,120.3,3z"/>
	<path class="st0" d="M55,346.4c-1.4-0.9-4.3-1.7-4.6-3.1c-0.7-3.5,2.5-3.7,5-3.8c13.8-0.5,25.1-6.6,35-15.9c0.4-0.3,0.7-0.9,1.1-1
		c1.7-0.3,3.4-0.4,5.1-0.6c-0.2,1.6,0.1,3.7-0.8,4.6c-6.8,7.2-14.8,12.9-24.3,15.9C66.4,344.3,61.1,345,55,346.4z"/>
</g>
</svg>
