<?xml version="1.0" encoding="utf-8"?>
<!-- Generator: Adobe Illustrator 24.0.2, SVG Export Plug-In . SVG Version: 6.00 Build 0)  -->
<svg version="1.1" id="圖層_1" xmlns="http://www.w3.org/2000/svg" xmlns:xlink="http://www.w3.org/1999/xlink" x="0px" y="0px"
	 viewBox="0 0 720 900" style="enable-background:new 0 0 720 900;" xml:space="preserve">
<style type="text/css">
	.st0{fill:#FFFFFF;}
</style>
<g>
	<path class="st0" d="M44.5,636.4c1.2,1.7,2.4,3.4,3.5,5.2C77.6,689,111.4,733,151.6,772c38.8,37.7,81.6,69.7,131.4,91.3
		c13.1,5.7,26.9,9.9,40.5,14.1c4.4,1.4,9.6,1.3,14.3,0.7c53.4-6.7,97.9-30.4,132.7-71.5c11.8-13.9,18.4-30.6,19.4-48.9
		c0.8-14.1-3.5-27.1-12.3-38.2c-5-6.4-11.2-11.8-16.9-17.7c-3.1-3.2-6-2.7-9.7-0.5c-28.5,17-59.3,25.2-92.6,22.1
		c-11.9-1.1-23-5-33.1-11.8c-3.8-2.6-4.1-5-1.4-8.6c13.4-17.7,31.8-26.2,53.1-29.7c26.9-4.4,51.3,2,73.6,17c3.6,2.4,6.4,2.8,9.8-0.1
		c23.7-20.5,47.5-40.8,71.2-61.2c0.6-0.5,0.9-1.3,1.7-2.5c-1.6-0.5-2.7-1.2-3.9-1.3c-35.4-2.4-69.6-11.7-104.5-17.1
		c-35.1-5.4-69.7-2.7-103.7,8c-20.5,6.5-41.1,12.6-61.9,18c-13.9,3.6-28.2,2.9-42.1-0.4c-7.5-1.8-14.1-12.7-13.2-20.8
		c0.4-0.1,0.9-0.5,1.3-0.4c14.9,3.2,28.3-1.6,41.3-8.1c22.2-11.1,42.1-25.8,60.2-42.6c12.8-12,27.3-14.9,43.4-11.3
		c8.8,2,17.7,5.2,25.6,9.5c10.2,5.6,20.4,6.6,30.8,3.1c10.3-3.5,20.7-7.6,30.1-13.2c14.1-8.4,27.9-7.8,42-1.3
		c9.2,4.3,15.8,11.9,22.8,19.2c17.8,18.4,38.4,31.8,65.2,32.7c1.4,0,2.8,0.3,4.2,0.4c0.1,0.6,0.2,1.2,0.2,1.9
		c-2.4,0.4-4.9,1.3-7.3,1.3c-14.5-0.3-27.3-5.9-39.3-13.3c-10.6-6.5-20.6-13.7-28.6-23.8c-10.1-12.8-23.3-21.1-40.6-19.4
		c-4.7,0.5-9.3,2.2-13.7,4.1c-10.5,4.5-20.6,10.1-31.4,14c-12.7,4.6-25.2,4-37.5-3.3c-10.7-6.3-22.6-9.8-35.3-9.8
		c-9.7,0-18.2,3.1-25.5,9.7c-19.1,17.3-39.4,32.9-62.4,44.7c-11.5,5.9-23.4,10.7-36.6,10.4c-4.1-0.1-4.4,2-2.9,5.2
		c2.1,4.5,5.4,7.3,10.5,8.3c19.7,4,38.7,0.6,57.6-5.2c18.5-5.7,36.9-11.6,55.6-16.5c37.1-9.7,74.6-9.1,111.9-1.1
		c30,6.4,60.1,12.2,90.8,14.1c1.6,0.1,3.1,0.6,5.7,1.1c-2,2.3-3.1,3.9-4.5,5.1c-24.7,21.4-49.3,42.8-74.1,64
		c-3.3,2.8-3.5,4.4-0.1,7.2c12.4,10.2,22.5,22.1,27.3,38c4.8,15.7,2.8,30.9-2.9,46c-7.8,20.6-22.1,36.2-38.7,50
		c-32.7,27.3-70.2,43.9-112.7,48.2c-5.6,0.6-11.7-0.3-17.2-1.8c-32.6-8.8-62.5-23.8-90.8-42c-56.5-36.3-103.2-83-143.3-136.5
		c-13.7-18.2-26.1-37.4-38.9-56.3c-1.6-2.4-2.3-5.4-3.4-8.1C43.4,636.9,44,636.7,44.5,636.4z M372.2,720.7c13.7,0.4,27.3-2,40.5-6.2
		c12.2-3.9,24.7-7,35.2-14.9c2.5-1.9,4.9-3.4,0.7-6.2c-24.9-16.7-51.9-21.8-81-14.3c-15,3.9-28.2,11.1-38.2,23.3
		c-3.8,4.6-3.5,5.7,1.6,8.7C343.7,718.4,357.4,721.1,372.2,720.7z"/>
	<path class="st0" d="M246.2,0.8c4.7,1.2,9.7,1.9,14.2,3.7c43.8,17.8,71.9,50.4,87.7,94.3c8.5,23.7,12.7,48.2,13.2,73.4
		c1,48.1,2.1,96.3,3.3,144.4c0.9,36,2,71.9,3,107.9c0.2,6.6,0.7,7.2,7.2,7.2c18.7,0,37.3,0,56,0c2.2,0,4.4,0.5,6.6,0.7
		c0.1,0.6,0.1,1.1,0.2,1.7c-1.5,0.5-3,1.3-4.6,1.3c-20.8,0.1-41.7,0-62.5,0.1c-4.5,0-6.1-2.1-6.2-6.4c-0.7-30.6-1.4-61.3-2.2-91.9
		c-1.3-52.1-3-104.2-3.9-156.3c-0.6-30.4-4.7-60-16.3-88.4c-17.5-42.9-47.5-72.9-91.8-88c-1.3-0.4-2.5-0.9-3.7-1.5
		c-0.3-0.1-0.4-0.5-0.6-0.7C245.9,1.8,246,1.3,246.2,0.8z"/>
	<path class="st0" d="M117.2,2.8C87.8,11.3,64,28,44.7,51.5c-0.5-0.4-1-0.7-1.5-1.1c1-2,1.5-4.3,2.9-5.9
		c16.1-18.3,35.2-32.4,58.2-40.9c3.9-1.4,8.2-1.7,12.3-2.5C116.8,1.6,117,2.2,117.2,2.8z"/>
</g>
</svg>
