<svg xmlns="http://www.w3.org/2000/svg" width="106.047" height="51.719" viewBox="0 0 106.047 51.719">
  <g id="Group_41" data-name="Group 41" transform="translate(-1529.278 -47.305)">
    <path id="Path_2278" data-name="Path 2278" d="M1611.364,94.262c2.775-1.367,5.64-2.584,8.312-4.135,6.127-3.562,10.194-8.68,11.047-15.914a17.221,17.221,0,0,0-3.806-13.436c-2.8-3.42-6.719-4.435-10.836-4.867-1.977-.2-2.461.561-2.33,2.592.177,2.736.662,5.549.247,8.207-1.212,7.824-5.068,14.377-10.617,19.965a8.96,8.96,0,0,1-1.375,1.154,5.214,5.214,0,0,1-7.586-1.238,16.11,16.11,0,0,1-2.962-8.363c-1.124-11.235,7.634-22.182,18.855-23.934a30.224,30.224,0,0,1,13.123.59c6.254,1.752,11.33,8.273,11.83,15.625.732,10.8-5.412,20.289-17.619,23.314-2.055.508-4.189.7-6.289,1.041C1611.36,94.662,1611.362,94.461,1611.364,94.262Zm1.318-33.692c.09-4.179-.84-4.924-4.1-3.736a20.192,20.192,0,0,0-13.354,14.408,12.427,12.427,0,0,0,1.061,9.424c1.7,3.082,4.345,3.615,6.691,1C1608.561,75.455,1612.11,68.248,1612.682,60.57Z" fill="#5e6248" fill-rule="evenodd"/>
    <path id="Path_2279" data-name="Path 2279" d="M1549.623,60.943c.354-1.144,1.312-.824,2.094-.824,2.519,0,5.039.1,7.554.043,2.215-.051,2.553-.318,2.51-2.531-.06-3.1-.394-6.186-.51-9.279-.013-.358.625-1.061.938-1.047a8.207,8.207,0,0,1,2.41.609c2.236.824,2.36,1.09,1.383,3.3-1.077,2.428-.65,4.951-.472,7.435.075,1.065,1.015,1.553,2.111,1.524,2.8-.074,5.83.726,7.851-2.207.492-.715,1.218-.635,1.885-.125a21.6,21.6,0,0,1,2.248,1.758,5.05,5.05,0,0,1,.729,1.511,6.542,6.542,0,0,1-1.641.461c-3.237.045-6.477-.017-9.714.039-3.048.055-3.542.578-3.626,3.563-.031,1.078-.051,2.16.01,3.236.125,2.272.8,3.053,3.1,2.932a9.179,9.179,0,0,0,4.347-1.2c2.675-1.727,2.868-1.869,5.112.123a8.56,8.56,0,0,1,1.03,1c.679.849.2,1.365-.637,1.441-1.31.121-2.635.059-3.953.07-1.918.018-3.842-.046-5.753.075-1.575.1-1.867.588-1.238,2.1a29.569,29.569,0,0,0,7.39,10.5c2.456,2.243,5.263,4.1,7.834,6.071a46.686,46.686,0,0,0-4.767,1.91c-1.426.742-2.222.22-3.027-.852a58.633,58.633,0,0,1-7.261-12.781c-.321-.774-.53-1.6-.887-2.35-.119-.254-.537-.365-.819-.543-.152.289-.441.58-.437.866q.087,6.828.252,13.654a45.312,45.312,0,0,1,.244,4.652,3.781,3.781,0,0,1-1.245,2.381c-1.411,1.164-2.858.463-2.888-1.39-.062-4.2.018-8.4.036-12.592a19.127,19.127,0,0,0-.3-4.063c-4.429,5.746-9.251,10.893-16.049,13.887.686-.686,1.381-1.363,2.06-2.057a55.341,55.341,0,0,0,10.995-15.451c1.713-3.7,1.4-4.092-2.6-3.986-1.318.035-2.64.218-3.95.148a5.1,5.1,0,0,1-1.875-.777c-.168-.088-.356-.479-.292-.6.134-.24.428-.541.662-.547,1.2-.029,2.4,0,3.592.063,1.317.072,2.629.279,3.944.3,3.322.043,3.757-.4,3.8-3.625.015-.959.023-1.92,0-2.879-.073-2.877-.413-3.237-3.4-3.278a18.818,18.818,0,0,0-4.654.235,4.657,4.657,0,0,1-4.246-1.041Z" fill="#5e6248" fill-rule="evenodd"/>
    <path id="Path_2280" data-name="Path 2280" d="M1549.518,60.8c-.077.781-.346,1.4-1.264,1.424-1.559.035-3.121,0-4.677.093-2.205.139-2.758.633-2.762,2.873s.253,4.5.4,6.756c2.39.2,4.048-1.658,6.782-2.34a16.253,16.253,0,0,1-4.726,3.985,4.836,4.836,0,0,0-2.45,4.765c.132,4.2.107,8.4.006,12.594a18.157,18.157,0,0,1-.764,4.93,5.731,5.731,0,0,1-1.952,2.42,2.013,2.013,0,0,1-3.137-.348c-.828-1.012-1.791-1.916-2.88-3.064.79-.049,1.522-.1,2.256-.143,2.348-.156,2.866-.5,2.924-2.693.109-4.078.042-8.159.039-12.239,0-1.156-.561-1.584-1.581-.976s-1.978,1.345-2.944,2.049c-1.465,1.064-1.764,1.009-2.691-.567-1.356-2.3-1.133-2.843,1.509-3.66.229-.07.46-.133.688-.209,5.035-1.662,5.035-1.662,5.035-7.053,0-1.439.041-2.88-.011-4.318-.086-2.277-.546-2.725-2.79-2.762a32.9,32.9,0,0,1-3.552.01c-.432-.055-.78-.77-1.166-1.185a5.4,5.4,0,0,1,1.263-.34c1.078-.028,2.159.066,3.239.052,2.785-.029,3.062-.209,2.982-3.136-.075-2.858-.393-5.711-.677-8.559-.147-1.477.023-1.75,1.419-1.574a16.931,16.931,0,0,1,2.127.361c1.639.416,1.585.781,1.34,2.469a57.664,57.664,0,0,0-.623,8.527c.009,1.881,1.441,2.4,2.994,1.332a4.154,4.154,0,0,0,.781-.742c1.125-1.328,2.222-1.133,3.356,0,.5.5,1.074.94,1.615,1.406Z" fill="#5e6248" fill-rule="evenodd"/>
  </g>
</svg>
