<?xml version="1.0" encoding="utf-8"?>
<!-- Generator: Adobe Illustrator 16.0.0, SVG Export Plug-In . SVG Version: 6.00 Build 0)  -->
<!DOCTYPE svg PUBLIC "-//W3C//DTD SVG 1.1//EN" "http://www.w3.org/Graphics/SVG/1.1/DTD/svg11.dtd">
<svg version="1.1" id="圖層_1" xmlns="http://www.w3.org/2000/svg" xmlns:xlink="http://www.w3.org/1999/xlink" x="0px" y="0px"
	 width="106.047px" height="51.719px" viewBox="0 0 106.047 51.719" enable-background="new 0 0 106.047 51.719"
	 xml:space="preserve">
<g>
	<g>
		<path fill="#5E6248" d="M24.06,46.957c2.775-1.367,5.641-2.584,8.312-4.135c6.127-3.562,10.192-8.68,11.047-15.914
			c0.59-4.973-0.594-9.512-3.807-13.436c-2.8-3.42-6.72-4.436-10.837-4.867c-1.977-0.205-2.461,0.561-2.329,2.592
			c0.178,2.736,0.661,5.549,0.248,8.207c-1.214,7.825-5.068,14.377-10.617,19.965c-0.422,0.424-0.879,0.824-1.375,1.154
			c-2.748,1.821-5.593,1.385-7.586-1.238c-1.865-2.459-2.662-5.348-2.963-8.363C3.03,19.688,11.788,8.74,23.009,6.988
			c4.467-0.697,8.748-0.637,13.123,0.59c6.254,1.752,11.33,8.273,11.83,15.625c0.733,10.799-5.412,20.289-17.619,23.314
			c-2.055,0.508-4.189,0.7-6.289,1.041C24.056,47.357,24.058,47.156,24.06,46.957z M25.378,13.266c0.09-4.18-0.84-4.924-4.105-3.736
			C14.38,12.034,9.812,16.825,7.919,23.938c-0.854,3.205-0.584,6.441,1.061,9.423c1.697,3.082,4.346,3.615,6.691,1.005
			C21.257,28.15,24.806,20.943,25.378,13.266z"/>
	</g>
</g>
</svg>
