<?xml version="1.0" encoding="utf-8"?>
<!-- Generator: Adobe Illustrator 16.0.0, SVG Export Plug-In . SVG Version: 6.00 Build 0)  -->
<!DOCTYPE svg PUBLIC "-//W3C//DTD SVG 1.1//EN" "http://www.w3.org/Graphics/SVG/1.1/DTD/svg11.dtd">
<svg version="1.1" id="圖層_1" xmlns="http://www.w3.org/2000/svg" xmlns:xlink="http://www.w3.org/1999/xlink" x="0px" y="0px"
	 width="106.047px" height="51.718px" viewBox="0 0 106.047 51.718" enable-background="new 0 0 106.047 51.718"
	 xml:space="preserve">
<g>
	<path fill-rule="evenodd" clip-rule="evenodd" fill="#FFFFFF" d="M82.086,46.957c2.775-1.368,5.641-2.584,8.312-4.136
		c6.127-3.562,10.193-8.68,11.047-15.913c0.59-4.973-0.594-9.513-3.807-13.437c-2.799-3.419-6.719-4.436-10.836-4.866
		c-1.977-0.205-2.461,0.561-2.33,2.592c0.178,2.736,0.662,5.548,0.248,8.207c-1.213,7.824-5.068,14.377-10.617,19.964
		c-0.422,0.424-0.879,0.825-1.375,1.155c-2.748,1.822-5.592,1.385-7.586-1.239c-1.865-2.458-2.662-5.348-2.963-8.363
		C61.057,19.688,69.814,8.74,81.035,6.988c4.467-0.697,8.748-0.637,13.123,0.59c6.254,1.752,11.33,8.273,11.83,15.625
		c0.732,10.799-5.412,20.288-17.619,23.314c-2.055,0.508-4.189,0.701-6.289,1.041C82.082,47.357,82.084,47.156,82.086,46.957z
		 M83.404,13.265c0.09-4.179-0.84-4.923-4.105-3.735c-6.893,2.504-11.461,7.295-13.354,14.408c-0.854,3.205-0.584,6.44,1.061,9.424
		c1.697,3.082,4.346,3.615,6.691,1.004C79.283,28.15,82.832,20.943,83.404,13.265z"/>
	<path fill-rule="evenodd" clip-rule="evenodd" fill="#FFFFFF" d="M20.346,13.638c0.354-1.145,1.312-0.823,2.094-0.823
		c2.52-0.004,5.039,0.098,7.555,0.042c2.215-0.05,2.553-0.317,2.51-2.53c-0.061-3.096-0.395-6.186-0.51-9.279
		C31.98,0.689,32.618-0.014,32.932,0c0.812,0.035,1.631,0.322,2.41,0.609c2.236,0.824,2.359,1.09,1.383,3.297
		c-1.077,2.428-0.65,4.951-0.472,7.435c0.075,1.065,1.015,1.553,2.11,1.523c2.801-0.074,5.83,0.728,7.852-2.206
		c0.492-0.715,1.218-0.635,1.885-0.125c0.757,0.578,1.58,1.09,2.248,1.758c0.375,0.373,0.495,1,0.729,1.512
		c-0.545,0.16-1.091,0.453-1.641,0.46c-3.237,0.046-6.477-0.018-9.714,0.04c-3.048,0.054-3.542,0.577-3.626,3.562
		c-0.031,1.078-0.051,2.16,0.01,3.236c0.125,2.271,0.801,3.053,3.105,2.931c1.479-0.078,3.133-0.419,4.347-1.202
		c2.675-1.727,2.868-1.87,5.112,0.123c0.357,0.318,0.732,0.631,1.029,1.002c0.68,0.85,0.199,1.365-0.637,1.441
		c-1.31,0.121-2.635,0.059-3.953,0.07c-1.918,0.018-3.842-0.047-5.753,0.073c-1.575,0.102-1.867,0.589-1.237,2.101
		c1.684,4.039,4.188,7.574,7.39,10.501c2.456,2.243,5.263,4.103,7.834,6.071c-1.417,0.555-3.172,1.081-4.768,1.91
		c-1.426,0.742-2.222,0.221-3.026-0.853c-2.967-3.95-5.367-8.222-7.262-12.78c-0.32-0.773-0.529-1.596-0.887-2.351
		c-0.119-0.253-0.537-0.364-0.818-0.542c-0.152,0.289-0.441,0.579-0.438,0.865c0.059,4.552,0.137,9.104,0.252,13.654
		c0.042,1.554,0.363,3.117,0.244,4.652c-0.064,0.836-0.596,1.846-1.245,2.381c-1.411,1.163-2.858,0.462-2.888-1.392
		c-0.062-4.196,0.018-8.394,0.036-12.591c0.005-1.302,0.001-2.604-0.296-4.062c-4.43,5.746-9.251,10.893-16.05,13.887
		c0.687-0.686,1.382-1.363,2.061-2.057c4.478-4.572,8.303-9.625,10.995-15.451c1.713-3.703,1.396-4.092-2.599-3.986
		c-1.317,0.035-2.64,0.219-3.949,0.148c-0.64-0.035-1.272-0.463-1.875-0.778c-0.169-0.087-0.356-0.479-0.292-0.596
		c0.134-0.239,0.428-0.54,0.661-0.546c1.197-0.029,2.397-0.002,3.593,0.062c1.316,0.071,2.629,0.278,3.943,0.296
		c3.322,0.044,3.757-0.397,3.806-3.624c0.015-0.96,0.022-1.92-0.001-2.879c-0.073-2.877-0.413-3.236-3.4-3.278
		c-1.555-0.022-3.17-0.124-4.654,0.234c-1.707,0.413-2.985-0.065-4.246-1.04L20.346,13.638z"/>
	<path fill-rule="evenodd" clip-rule="evenodd" fill="#FFFFFF" d="M20.24,13.498c-0.076,0.781-0.346,1.402-1.264,1.424
		c-1.559,0.035-3.121-0.004-4.677,0.094c-2.205,0.139-2.758,0.633-2.763,2.873c-0.004,2.252,0.254,4.503,0.397,6.756
		c2.39,0.201,4.048-1.658,6.782-2.341c-1.484,1.954-3.159,2.991-4.727,3.985c-1.863,1.18-2.516,2.617-2.449,4.766
		c0.132,4.195,0.106,8.397,0.006,12.593c-0.04,1.655-0.272,3.358-0.764,4.931c-0.29,0.928-1.153,1.773-1.952,2.419
		C7.785,51.84,6.67,51.848,5.693,50.65c-0.828-1.012-1.791-1.916-2.88-3.064c0.79-0.05,1.522-0.096,2.256-0.144
		c2.349-0.155,2.866-0.495,2.925-2.692c0.108-4.078,0.041-8.159,0.039-12.238c-0.002-1.156-0.562-1.584-1.582-0.978
		c-1.025,0.61-1.978,1.346-2.943,2.05c-1.465,1.064-1.765,1.01-2.691-0.566c-1.355-2.305-1.133-2.845,1.509-3.66
		c0.229-0.07,0.46-0.133,0.688-0.209c5.035-1.663,5.035-1.663,5.035-7.053c0-1.439,0.041-2.881-0.012-4.319
		c-0.086-2.276-0.546-2.725-2.789-2.761c-1.187-0.019-2.387,0.154-3.553,0.01c-0.432-0.055-0.779-0.771-1.166-1.186
		c0.422-0.119,0.838-0.328,1.264-0.34c1.078-0.027,2.158,0.065,3.238,0.053c2.785-0.029,3.062-0.209,2.982-3.137
		C7.938,7.559,7.621,4.705,7.337,1.857C7.189,0.381,7.359,0.106,8.756,0.282c0.713,0.089,1.432,0.185,2.127,0.361
		c1.639,0.417,1.585,0.782,1.34,2.469c-0.41,2.815-0.635,5.683-0.623,8.528c0.009,1.88,1.441,2.404,2.994,1.331
		c0.293-0.201,0.549-0.47,0.781-0.742c1.125-1.327,2.222-1.132,3.355,0.003c0.502,0.504,1.074,0.939,1.615,1.405L20.24,13.498z"/>
</g>
</svg>
