<?xml version="1.0" encoding="utf-8"?>
<!-- Generator: Adobe Illustrator 16.0.0, SVG Export Plug-In . SVG Version: 6.00 Build 0)  -->
<!DOCTYPE svg PUBLIC "-//W3C//DTD SVG 1.1//EN" "http://www.w3.org/Graphics/SVG/1.1/DTD/svg11.dtd">
<svg version="1.1" id="圖層_1" xmlns="http://www.w3.org/2000/svg" xmlns:xlink="http://www.w3.org/1999/xlink" x="0px" y="0px"
	 width="44px" height="13px" viewBox="0 0 44 13" enable-background="new 0 0 44 13" xml:space="preserve">
<g>
	<g>
		<g enable-background="new    ">
			<path fill="#5E6248" d="M10.583,3.427l-0.242,0.526C9.153,3.667,8.197,3.341,7.474,2.976v0.43H3.918V2.986
				C3.141,3.391,2.217,3.747,1.146,4.055l-0.295-0.5c1.969-0.508,3.55-1.296,4.743-2.363L6.228,1.38
				C6.149,1.459,6.091,1.515,6.056,1.547C7.208,2.414,8.718,3.04,10.583,3.427z M9.499,6.768H1.861V4.066h7.638V6.768z
				 M9.015,10.882H8.462V10.42H2.94v0.462H2.36V7.406h6.655V10.882z M5.395,6.241V4.592h-2.97v1.649H5.395z M8.462,8.652V7.938H2.94
				v0.714H8.462z M8.462,9.894V9.158H2.94v0.735H8.462z M4.482,5.683L4.074,5.988C3.83,5.663,3.555,5.352,3.247,5.055L3.666,4.78
				C3.97,5.023,4.242,5.324,4.482,5.683z M7.21,2.874c-0.559-0.29-1.083-0.616-1.574-0.978C5.157,2.265,4.665,2.591,4.16,2.874H7.21
				z M8.935,6.241V4.592H5.975v1.649H8.935z M8.102,5.012c-0.254,0.375-0.53,0.697-0.827,0.967l-0.43-0.307
				C7.143,5.439,7.407,5.156,7.64,4.823L8.102,5.012z"/>
			<path fill="#5E6248" d="M20.52,8.97h-5.226L15.6,9.367c-0.992,0.688-2.136,1.209-3.432,1.562l-0.317-0.521
				c1.164-0.258,2.263-0.737,3.298-1.439H12.85V4.372h7.67V8.97z M20.225,3.668h-7.042V1.536h7.042V3.668z M19.935,5.704V4.898
				h-6.51v0.806H19.935z M19.935,7.036V6.22h-6.51v0.816H19.935z M19.935,8.454V7.562h-6.51v0.892H19.935z M19.65,3.142v-1.09
				h-5.887v1.09H19.65z M21.487,10.441l-0.328,0.479c-0.992-0.48-2.14-0.851-3.443-1.112l0.306-0.511
				C19.34,9.573,20.495,9.954,21.487,10.441z"/>
			<path fill="#5E6248" d="M31.88,7.605h-3.873v3.298h-0.58V7.605h-3.894V3.228h3.894v-1.95h0.58v1.95h3.873V7.605z M27.427,7.015
				V3.813h-3.313v3.201H27.427z M31.289,7.015V3.813h-3.282v3.201H31.289z"/>
			<path fill="#5E6248" d="M35.93,4.92c-0.451,2.002-0.965,3.579-1.542,4.732l-0.537-0.377c0.623-1.117,1.117-2.63,1.482-4.538
				L35.93,4.92z M41.354,7.762c-0.043,0.694-0.106,1.273-0.19,1.737s-0.182,0.765-0.293,0.905c-0.111,0.139-0.26,0.236-0.446,0.289
				c-0.186,0.055-0.621,0.081-1.305,0.081c-0.509,0-0.932-0.012-1.271-0.035c-0.338-0.023-0.582-0.104-0.73-0.241
				s-0.223-0.336-0.223-0.594V3.797h0.597v5.941c0,0.1,0.03,0.189,0.091,0.268c0.061,0.079,0.122,0.126,0.183,0.141
				c0.061,0.014,0.337,0.022,0.827,0.026l1.429,0.005c0.111,0,0.222-0.047,0.333-0.142s0.202-0.415,0.274-0.959
				c0.071-0.544,0.104-1.053,0.096-1.525L41.354,7.762z M40.329,4.216l-0.494,0.397c-0.559-1.002-1.385-2-2.477-2.991l0.451-0.408
				C38.848,2.173,39.688,3.174,40.329,4.216z M43.487,9.013l-0.618,0.22c-0.275-1.221-0.84-2.613-1.692-4.178l0.537-0.317
				C42.552,6.388,43.144,7.813,43.487,9.013z"/>
		</g>
	</g>
</g>
</svg>
