<?xml version="1.0" encoding="utf-8"?>
<!-- Generator: Adobe Illustrator 16.0.0, SVG Export Plug-In . SVG Version: 6.00 Build 0)  -->
<!DOCTYPE svg PUBLIC "-//W3C//DTD SVG 1.1//EN" "http://www.w3.org/Graphics/SVG/1.1/DTD/svg11.dtd">
<svg version="1.1" id="圖層_1" xmlns="http://www.w3.org/2000/svg" xmlns:xlink="http://www.w3.org/1999/xlink" x="0px" y="0px"
	 width="44px" height="13px" viewBox="0 0 44 13" enable-background="new 0 0 44 13" xml:space="preserve">
<g>
	<g>
		<g enable-background="new    ">
			<path fill="#5E6248" d="M4.317,2.954H0.939V2.412h1.488C2.312,2.104,2.14,1.774,1.911,1.423l0.516-0.252
				C2.674,1.55,2.88,1.964,3.044,2.412h1.273V2.954z M4.097,4.479H1.218V3.91h2.879V4.479z M4.097,6.123H1.218V5.549h2.879V6.123z
				 M3.979,10.629H3.426v-0.568H1.863v0.821H1.293V7.246h2.686V10.629z M3.426,9.496V7.783H1.863v1.713H3.426z M10.532,9.937
				l-0.338,0.451c-1.2-0.949-2.018-1.919-2.455-2.911v3.395H7.169V7.477c-0.566,1.06-1.411,2.03-2.535,2.911l-0.36-0.408
				c1.246-1.027,2.1-2.028,2.562-3.003H4.548V6.418h2.621V5.484H4.967V1.525h5.027v3.959H7.739v0.934h2.643v0.559H8.083
				C8.512,8.001,9.329,8.987,10.532,9.937z M7.169,3.217V2.062H5.504v1.155H7.169z M7.169,4.941V3.754H5.504v1.187H7.169z
				 M9.42,3.217V2.062H7.739v1.155H9.42z M9.42,4.941V3.754H7.739v1.187H9.42z"/>
			<path fill="#5E6248" d="M15.661,6.735l-0.397,0.44c-0.265-0.494-0.58-0.952-0.945-1.375v5.092h-0.575V5.779
				c-0.519,1.167-1.013,2.073-1.482,2.718l-0.387-0.451c0.72-0.999,1.332-2.172,1.837-3.519h-1.783V3.975h1.815V2.347L12.401,2.6
				l-0.295-0.548c1.282-0.15,2.342-0.403,3.18-0.757l0.338,0.505c-0.537,0.183-0.972,0.322-1.305,0.419v1.756h1.305v0.553h-1.305
				v0.451C14.988,5.724,15.436,6.31,15.661,6.735z M21.489,10.629h-6.193v-0.537h2.825V8.411h-2.438V7.857h2.438V6.263
				c-1.174,0.075-1.899,0.116-2.175,0.124l-0.263-0.564c2.023-0.036,3.769-0.229,5.237-0.58l0.371,0.494
				c-0.738,0.172-1.599,0.326-2.583,0.462v1.659h2.363v0.554h-2.363v1.681h2.782V10.629z M20.785,4.604h-4.721V1.601h4.721V4.604z
				 M20.2,4.044V2.148h-3.55v1.896H20.2z"/>
			<path fill="#5E6248" d="M27.483,8.781H25.56v2.122h-0.563V8.781h-2.079V8.223h2.079V6.977h-1.815V6.43h1.004
				c-0.086-0.502-0.239-1.055-0.461-1.66h-0.736V4.227h2.009V3.094h-1.745V2.557h1.745V1.316h0.554v1.241h1.659v0.537H25.55v1.133
				h1.826V4.77h-0.64c-0.118,0.548-0.269,1.102-0.451,1.66h0.924v0.547H25.56v1.246h1.924V8.781z M26.151,4.77h-1.816
				c0.172,0.559,0.312,1.111,0.42,1.66h0.982C25.916,5.874,26.054,5.321,26.151,4.77z M32.489,10.49l-0.317,0.439
				c-0.512-0.325-1.036-0.787-1.573-1.385c-0.373,0.482-0.858,0.941-1.456,1.375H29.1l-0.37-0.398
				c0.633-0.422,1.142-0.884,1.525-1.385c-0.648-0.924-1.11-2.131-1.387-3.621h-0.451v5.388H27.87V1.579h4.092
				c0.015,0.877-0.01,1.485-0.074,1.823c-0.064,0.339-0.205,0.565-0.422,0.68s-0.708,0.159-1.475,0.134l-0.166-0.516
				c0.787,0,1.227-0.019,1.318-0.056c0.091-0.038,0.161-0.179,0.209-0.425c0.049-0.245,0.067-0.613,0.057-1.104h-2.992v2.841h3.557
				c-0.107,1.694-0.457,3.072-1.048,4.137C31.359,9.645,31.88,10.11,32.489,10.49z M31.366,5.516h-1.955
				c0.297,1.404,0.686,2.439,1.166,3.105C31.007,7.783,31.27,6.748,31.366,5.516z"/>
			<path fill="#5E6248" d="M42.785,10.893H42.2v-0.715h-5.199v0.726h-0.607V7.09c-0.853,0.312-1.553,0.546-2.1,0.703L33.96,7.256
				c1.723-0.465,3.191-1.027,4.404-1.686c-0.439-0.635-1.049-1.282-1.826-1.945c-0.555,0.362-1.174,0.716-1.857,1.064l-0.473-0.473
				c1.657-0.712,3.047-1.717,4.168-3.013l0.568,0.263c-0.157,0.193-0.357,0.406-0.602,0.639h4.275v0.483
				c-1.191,1.604-2.802,2.909-4.828,3.915h4.995V10.893z M42.2,9.609V7.09h-5.199v2.52H42.2z M41.759,2.702h-4.012
				C37.5,2.913,37.255,3.11,37.011,3.292c0.717,0.637,1.34,1.291,1.869,1.96C40.04,4.516,41,3.665,41.759,2.702z"/>
		</g>
	</g>
</g>
</svg>
