<?xml version="1.0" encoding="utf-8"?>
<!-- Generator: Adobe Illustrator 16.0.0, SVG Export Plug-In . SVG Version: 6.00 Build 0)  -->
<!DOCTYPE svg PUBLIC "-//W3C//DTD SVG 1.1//EN" "http://www.w3.org/Graphics/SVG/1.1/DTD/svg11.dtd">
<svg version="1.1" id="圖層_1" xmlns="http://www.w3.org/2000/svg" xmlns:xlink="http://www.w3.org/1999/xlink" x="0px" y="0px"
	 width="44px" height="13px" viewBox="0 0 44 13" enable-background="new 0 0 44 13" xml:space="preserve">
<g>
	<g>
		<g enable-background="new    ">
			<path fill="#5E6248" d="M11.184,3.668H9.159v2.267h1.509v4.409h-0.575V9.641H7.666v0.988H7.091V5.936h1.531V3.668H6.64V3.094
				h1.982V1.268h0.537v1.826h2.025V3.668z M10.094,9.066V6.504H7.666v2.562H10.094z M16.265,10.457l-0.371,0.516
				c-0.992-0.565-1.744-1.17-2.256-1.814c-0.62,0.69-1.396,1.289-2.331,1.793l-0.419-0.461c1.035-0.527,1.826-1.125,2.374-1.795
				c-0.519-0.73-0.918-1.713-1.198-2.948l0.537-0.177c0.24,1.105,0.575,1.986,1.004,2.643c0.666-1.05,1.094-2.582,1.284-4.598
				h-2.165c-0.304,0.884-0.73,1.739-1.278,2.562l-0.462-0.344c0.874-1.325,1.468-2.854,1.783-4.587l0.596,0.032
				c-0.115,0.573-0.261,1.164-0.44,1.772h3.19v0.564h-0.639c-0.254,2.302-0.761,4-1.52,5.092C14.55,9.391,15.32,9.975,16.265,10.457
				z"/>
			<path fill="#5E6248" d="M27.18,7.793h-0.902v1.408h-3.631v0.902c0,0.289-0.091,0.488-0.271,0.596
				c-0.181,0.107-0.57,0.161-1.168,0.161c-0.197,0-0.399-0.007-0.607-0.021l-0.183-0.526l1.386-0.011
				c0.19,0,0.285-0.099,0.285-0.296V9.201h-3.905V8.707h3.905V7.793h-4.501V7.268h4.501V6.451h-3.905V5.924h3.905V5.107h-3.556V3.25
				h3.556V2.514h-4.42V2.009h4.42V1.235h0.559v0.773h4.398v0.505h-4.398V3.25h3.566v1.858h-3.566v0.816h3.631v1.344h0.902V7.793z
				 M22.087,4.582V3.765h-2.97v0.817H22.087z M25.627,4.582V3.765h-2.98v0.817H25.627z M25.697,7.268V6.451h-3.051v0.816H25.697z
				 M25.697,8.707V7.793h-3.051v0.914H25.697z"/>
			<path fill="#5E6248" d="M31.357,10.903H30.82V6.628h-1.036c-0.047,2.023-0.306,3.427-0.778,4.211l-0.473-0.296
				c0.443-0.83,0.682-2.136,0.714-3.915h-0.671V6.102h2.244v-1.52h-1.783V1.81h0.554v2.234h1.229V1.327h0.537V10.903z M38.125,5.881
				H31.82V5.36h2.895V2.589h-2.643V2.073h2.643V1.348h0.569v0.725h2.6v0.516h-2.6V5.36h2.841V5.881z M34.328,4.727l-0.371,0.338
				c-0.289-0.426-0.572-0.759-0.848-0.999c-0.255,0.416-0.516,0.738-0.785,0.967L31.9,4.748c0.544-0.505,0.954-1.147,1.23-1.928
				l0.473,0.145c-0.043,0.15-0.128,0.371-0.253,0.661C33.694,3.93,34.021,4.297,34.328,4.727z M37.664,10.903H37.11v-0.494h-4.254
				v0.494h-0.563V6.596h5.371V10.903z M37.11,9.883V7.111h-4.254v2.771H37.11z M36.342,9.313h-2.729V7.659h2.729V9.313z
				 M35.795,8.824V8.143H34.15v0.682H35.795z M37.991,4.678l-0.339,0.377c-0.344-0.43-0.654-0.752-0.934-0.967
				c-0.266,0.416-0.513,0.727-0.742,0.934l-0.435-0.295c0.526-0.48,0.892-1.108,1.096-1.885l0.511,0.113
				c-0.029,0.136-0.099,0.356-0.21,0.661C37.4,3.983,37.751,4.338,37.991,4.678z"/>
		</g>
	</g>
</g>
</svg>
