<?xml version="1.0" encoding="utf-8"?>
<!-- Generator: Adobe Illustrator 16.0.0, SVG Export Plug-In . SVG Version: 6.00 Build 0)  -->
<!DOCTYPE svg PUBLIC "-//W3C//DTD SVG 1.1//EN" "http://www.w3.org/Graphics/SVG/1.1/DTD/svg11.dtd">
<svg version="1.1" id="圖層_1" xmlns="http://www.w3.org/2000/svg" xmlns:xlink="http://www.w3.org/1999/xlink" x="0px" y="0px"
	 width="44px" height="13px" viewBox="0 0 44 13" enable-background="new 0 0 44 13" xml:space="preserve">
<g enable-background="new    ">
	<path fill="#5E6248" d="M4.249,6.284C3.765,6.488,3.307,6.669,2.874,6.826v3.256c0,0.211-0.048,0.38-0.145,0.507
		s-0.196,0.207-0.298,0.239c-0.103,0.032-0.37,0.049-0.803,0.049c-0.168,0-0.319-0.006-0.451-0.017l-0.231-0.602
		c0.412,0.015,0.79,0.021,1.133,0.021c0.057,0,0.108-0.026,0.153-0.078c0.045-0.052,0.067-0.106,0.067-0.163V7.036
		C1.833,7.183,1.354,7.317,0.859,7.439L0.671,6.902C1.348,6.733,1.891,6.58,2.299,6.439V3.91H0.827V3.362h1.472V1.278h0.575v2.084
		H4.05V3.91H2.874v2.31c0.358-0.122,0.761-0.286,1.208-0.494L4.249,6.284z M10.404,9.555l-0.392,0.425
		C8.927,9.081,8.076,8.02,7.46,6.795v4.125H6.886V6.778C6.23,7.938,5.317,9.006,4.146,9.979L3.728,9.545
		c1.364-1.071,2.381-2.312,3.051-3.723H4.598V5.253h2.288V3.438H4.42V2.874h2.476V1.305h0.575v1.568h2.771v0.564H7.46v1.815h2.438
		v0.569H7.622C8.141,7.193,9.068,8.438,10.404,9.555z"/>
	<path fill="#5E6248" d="M21.393,6.295l-0.295,0.531c-1.776-0.469-3.294-1.258-4.555-2.368c-1.286,1.11-2.8,1.896-4.544,2.358
		l-0.295-0.511c2.077-0.516,3.69-1.405,4.839-2.669l0.607,0.15l-0.22,0.29C18.187,5.165,19.674,5.904,21.393,6.295z M16.333,2.852
		h-1.429v1.203h-0.585V2.852h-2.551V2.293h2.551V1.294h0.585v0.999h1.429V2.852z M15.399,8.604c-0.691,0.713-1.681,1.366-2.97,1.96
		l-0.36-0.451c1.174-0.537,2.141-1.17,2.9-1.9L15.399,8.604z M20.099,7.509h-3.271v3.373h-0.58V7.509h-3.244V6.977h3.244V5.623h0.58
		v1.354h3.271V7.509z M21.35,2.852h-2.53v1.235h-0.58V2.852h-1.456V2.293h1.456V1.294h0.58v0.999h2.53V2.852z M20.963,10.135
		l-0.403,0.42c-0.798-0.713-1.665-1.322-2.6-1.826l0.354-0.473C19.354,8.864,20.236,9.49,20.963,10.135z"/>
	<path fill="#5E6248" d="M26.028,8.664c-1.124,0.587-2.163,1.045-3.115,1.375l-0.155-0.554c0.447-0.146,0.905-0.329,1.375-0.548
		V4.592H22.87V4.028h1.263V1.413h0.574v2.616h1.197v0.563h-1.197v4.104c0.612-0.304,1.022-0.514,1.23-0.628L26.028,8.664z
		 M32.35,8.793c-0.035,0.733-0.145,1.231-0.327,1.492c-0.183,0.262-0.36,0.406-0.534,0.433c-0.174,0.027-0.757,0.04-1.748,0.04
		c-1.347,0-2.144-0.01-2.391-0.031s-0.429-0.113-0.545-0.274s-0.175-0.351-0.175-0.569V5.403l-0.978,0.333l-0.086-0.564l1.063-0.359
		V2.524h0.542v2.11l1.735-0.59V1.305h0.563v2.541l2.396-0.827c-0.019,1.446-0.212,2.993-0.58,4.641l-0.554-0.161
		c0.308-1.328,0.492-2.562,0.554-3.701l-1.816,0.618v4.292h-0.563V4.613l-1.735,0.607v4.694c0,0.032,0.023,0.074,0.07,0.126
		s0.088,0.086,0.123,0.103c0.036,0.016,0.255,0.03,0.656,0.043c0.4,0.013,0.807,0.019,1.219,0.019c1.246,0,1.968-0.034,2.164-0.102
		c0.197-0.068,0.33-0.562,0.398-1.482L32.35,8.793z"/>
	<path fill="#5E6248" d="M42.867,10.893h-0.57v-0.715h-7.492v0.715h-0.586V1.654h8.648V10.893z M42.297,9.662V2.159h-7.492v7.503
		H42.297z M41.733,5.296h-6.381V4.845h2.927V4.308h-2.256V2.766h5.061v1.542h-2.229v0.537h2.879V5.296z M41.229,9.066h-5.355V5.801
		h5.355V9.066z M40.681,8.621v-2.38h-4.249v2.38H40.681z M40.535,3.856V3.228h-3.947v0.628H40.535z M39.821,8.121H37.27V6.692h2.552
		V8.121z M39.306,7.691V7.122h-1.521v0.569H39.306z"/>
</g>
</svg>
