<?xml version="1.0" encoding="utf-8"?>
<!-- Generator: Adobe Illustrator 16.0.0, SVG Export Plug-In . SVG Version: 6.00 Build 0)  -->
<!DOCTYPE svg PUBLIC "-//W3C//DTD SVG 1.1//EN" "http://www.w3.org/Graphics/SVG/1.1/DTD/svg11.dtd">
<svg version="1.1" id="圖層_1" xmlns="http://www.w3.org/2000/svg" xmlns:xlink="http://www.w3.org/1999/xlink" x="0px" y="0px"
	 width="44px" height="13px" viewBox="0 0 44 13" enable-background="new 0 0 44 13" xml:space="preserve">
<g>
	<g>
		<g enable-background="new    ">
			<path fill="#5E6248" d="M16.118,2.052c-0.974,1.608-2.345,2.84-4.114,3.695l-0.387-0.473c0.716-0.315,1.409-0.718,2.079-1.208
				c-0.315-0.326-0.725-0.661-1.23-1.004l0.376-0.419c0.487,0.354,0.915,0.707,1.284,1.058c0.483-0.433,0.935-0.976,1.354-1.627
				h-2.836V1.525h3.475V2.052z M20.936,10.65h-9.077v-0.537h3.104c-0.183-0.508-0.417-0.97-0.704-1.385L14.657,8.4h-0.924V5.945
				h5.344V8.4h-0.956l0.381,0.285c-0.093,0.282-0.308,0.759-0.645,1.428h3.078V10.65z M18.502,7.826V6.473h-4.189v1.354H18.502z
				 M18.459,4.909h-4.071V4.372h4.071V4.909z M17.976,8.4h-3.19c0.279,0.52,0.544,1.09,0.795,1.713h1.617
				C17.458,9.677,17.718,9.105,17.976,8.4z M21.242,5.274l-0.338,0.473c-2.023-1.017-3.432-2.44-4.227-4.27l0.51-0.242
				c0.183,0.448,0.417,0.874,0.704,1.278c0.48-0.433,0.872-0.856,1.176-1.268l0.505,0.301c-0.451,0.53-0.913,0.996-1.386,1.396
				c0.226,0.308,0.467,0.571,0.725,0.79c0.419-0.315,0.87-0.777,1.354-1.386l0.473,0.306c-0.455,0.526-0.924,1.001-1.407,1.423
				C19.756,4.449,20.393,4.849,21.242,5.274z"/>
			<path fill="#5E6248" d="M31.581,10.903H30.99v-0.516h-7.745V6.692h0.575v3.126h3.318V5.592h-3.432V1.977h0.596v3.045h2.836V1.278
				h0.559v3.743h2.799V1.977h0.58v3.615h-3.352v4.227h3.266V6.682h0.591V10.903z"/>
		</g>
	</g>
</g>
</svg>
