<svg xmlns="http://www.w3.org/2000/svg" xmlns:xlink="http://www.w3.org/1999/xlink" width="1440" height="900" viewBox="0 0 1440 900">
  <defs>
    <clipPath id="clip-path">
      <rect id="Rectangle_109" data-name="Rectangle 109" width="1440" height="900" transform="translate(1490.094 0)" fill="none"/>
    </clipPath>
    <filter id="Make_with_Mano_Flavor" x="594.6" y="625.428" width="249" height="39" filterUnits="userSpaceOnUse">
      <feOffset input="SourceAlpha"/>
      <feGaussianBlur stdDeviation="2.5" result="blur"/>
      <feFlood flood-opacity="0.749"/>
      <feComposite operator="in" in2="blur"/>
      <feComposite in="SourceGraphic"/>
    </filter>
  </defs>
  <g id="Group_336" data-name="Group 336" transform="translate(-1490.094 0)">
    <g id="Group_313" data-name="Group 313">
      <g id="Group_312" data-name="Group 312" clip-path="url(#clip-path)">
        <g id="Group_311" data-name="Group 311">
          <g id="Group_310" data-name="Group 310">
            <path id="Path_4728" data-name="Path 4728" d="M2717.595,330.436c32.218,33.715,56.97,134.675,71.387,179.537,12.231,38.053,35.486,96.24,28.113,127.463" fill="none" stroke="#8ab048" stroke-miterlimit="10" stroke-width="4"/>
            <path id="Path_4729" data-name="Path 4729" d="M2726.595,77.436c-4.511,9.136-54.747,29.232-63.8,33.89-22.384,11.515-44.722,52.5-61.914,71.682-59.011,65.828-105.14,139.456-167.286,203.428" fill="none" stroke="#8ab048" stroke-miterlimit="10" stroke-width="4" fill-rule="evenodd"/>
            <path id="Path_4730" data-name="Path 4730" d="M1867.595,135.936c-20.941-2.838-48.489-26.754-72.723-31.9-32.844-6.969-67.687-9.507-99.829-19.436-68.227-21.077,15.126,154.568,28.02,175.851,23.088,38.113,91.455,85.17,99.245,125.94,5.321,27.868-31.752,86.132-40.685,112.05-16.007,46.449-29.15,94.2-40.528,141.99" fill="none" stroke="#8ab048" stroke-miterlimit="10" stroke-width="4" fill-rule="evenodd"/>
            <path id="Path_4731" data-name="Path 4731" d="M2855.595,36.186c17.638,4.853-24.925,130.77-26.845,147.269-5.34,45.858-68.26,73.01-88.621,110.77-46.52,86.272-141,154.347-215.376,215.211" fill="none" stroke="#8ab048" stroke-miterlimit="10" stroke-width="4" fill-rule="evenodd"/>
            <path id="Path_4732" data-name="Path 4732" d="M2398.595,591.936c-26.948,42.328,22.38,187.164,2.965,204.963-52.888,48.565-82.434-72.57-71.965-75.963" fill="none" stroke="#8ab048" stroke-miterlimit="10" stroke-width="4" fill-rule="evenodd"/>
            <path id="Path_4733" data-name="Path 4733" d="M1904.095,52.936c-10.377,36.94-9.5,115.767,7.407,142.06,19.016,29.572,85.029,181.083,130.073,173.818,40.042-6.462,96.689,21.454,102.775,71.185,3.753,30.676,79.492,25.18,89.745,60.437" fill="none" stroke="#8ab048" stroke-miterlimit="10" stroke-width="4" fill-rule="evenodd"/>
            <path id="Path_4734" data-name="Path 4734" d="M2423.595,633.936c16.918,39.487,8.327,132.054,9.069,178" fill="none" stroke="#8ab048" stroke-miterlimit="10" stroke-width="4" fill-rule="evenodd"/>
            <path id="Path_4735" data-name="Path 4735" d="M2069.095,597.936C2090.637,615.5,2058,707.3,2041.057,720.388c-19.916,15.384-15.471,50.585,5.49,61.143,30.033,15.131,37.582-20.633,52.548-35.6" fill="none" stroke="#8ab048" stroke-miterlimit="10" stroke-width="4" fill-rule="evenodd"/>
            <path id="Path_4736" data-name="Path 4736" d="M1823.595,390.436c47.74,31.83,89.262,79.383,121.376,126.585,1.9,2.794-16.271,48.165-15.483,57.924,2.12,26.277,41.851,31.525,59.341,42.309-23.288,36-98.4,203.662-64.737,226.054,57.573,38.3,82.159-61.778,79-93.372" fill="none" stroke="#8ab048" stroke-miterlimit="10" stroke-width="4" fill-rule="evenodd"/>
            <path id="Path_4737" data-name="Path 4737" d="M2033.095,370.436c-42.509,45.01-47.638,103.826-87,147" fill="none" stroke="#8ab048" stroke-miterlimit="10" stroke-width="4" fill-rule="evenodd"/>
            <path id="Path_4738" data-name="Path 4738" d="M2790.595,34.936c-30.116,12.463-125.007,39.929-144.138,62.886-35.332,42.433-9.428-76.863-11.862-60.886" fill="none" stroke="#8ab048" stroke-miterlimit="10" stroke-width="4" fill-rule="evenodd"/>
            <path id="Path_4739" data-name="Path 4739" d="M2047.595,420.936c-24.6,19.789-84.576,113.389-63.5,146.5" fill="none" stroke="#8ab048" stroke-miterlimit="10" stroke-width="4" fill-rule="evenodd"/>
            <path id="Path_4740" data-name="Path 4740" d="M2321.095,438.436c70.128-36.732,58.348-84.1,133.48-34.47,27.62,18.241,45.774,44.554,53.7,72.708,4.9,17.4,27.4,41.606,24.728,65.262-1.785,15.832-26.531,30.824-32.03,45.57-8.441,22.631-21.408,42.15-39.375,52.93" fill="none" stroke="#8ab048" stroke-miterlimit="10" stroke-width="4" fill-rule="evenodd"/>
            <path id="Path_4741" data-name="Path 4741" d="M2088.595,449.936c-24.755,41.265-95.385,61.406-98,119" fill="none" stroke="#8ab048" stroke-miterlimit="10" stroke-width="4" fill-rule="evenodd"/>
            <path id="Path_4742" data-name="Path 4742" d="M2458.595,715.436c-11.347,10.271-31.45,207.15-70,91.5" fill="none" stroke="#8ab048" stroke-miterlimit="10" stroke-width="4" fill-rule="evenodd"/>
            <path id="Path_4743" data-name="Path 4743" d="M2321.095,439.436c-20.646-23.69-81.536,44.157-88,54.5" fill="none" stroke="#8ab048" stroke-miterlimit="10" stroke-width="4" fill-rule="evenodd"/>
            <path id="Path_4744" data-name="Path 4744" d="M1737.595,640.186c77.1,7.679,156.485-4.742,233,4.25" fill="none" stroke="#8ab048" stroke-miterlimit="10" stroke-width="4" fill-rule="evenodd"/>
            <path id="Path_4745" data-name="Path 4745" d="M1600.595,33.936c-36.2,36.2,45.421,39.871,67,48.5" fill="none" stroke="#8ab048" stroke-miterlimit="10" stroke-width="4" fill-rule="evenodd"/>
            <path id="Path_4746" data-name="Path 4746" d="M1975.595,33.936c-21.086,1.7-63.695,24.982-81,13" fill="none" stroke="#8ab048" stroke-miterlimit="10" stroke-width="4" fill-rule="evenodd"/>
            <path id="Path_4747" data-name="Path 4747" d="M2459.8,627.162c27.916,12.1,89.148,13.322,92.8,13.325,40.271.032,80.546.383,120.816.646,93.845.613,187.756.357,281.588,2.079" fill="none" stroke="#8ab048" stroke-miterlimit="10" stroke-width="4" fill-rule="evenodd"/>
            <path id="Path_4748" data-name="Path 4748" d="M2068.095,784.936c-2.208,49.652-6.5,82.788-68.5,66.5" fill="none" stroke="#8ab048" stroke-miterlimit="10" stroke-width="4" fill-rule="evenodd"/>
            <path id="Path_4749" data-name="Path 4749" d="M2007.595,661.936c8.348,26.246,12.306,70.471-2,95.5" fill="none" stroke="#8ab048" stroke-miterlimit="10" stroke-width="4" fill-rule="evenodd"/>
            <path id="Path_4750" data-name="Path 4750" d="M2330.095,478.936c-.5,15.521-14,75.65-6,91.5" fill="none" stroke="#8ab048" stroke-miterlimit="10" stroke-width="4" fill-rule="evenodd"/>
            <path id="Path_4751" data-name="Path 4751" d="M2255.595,565.936c5.324,39.363,51.168,19.437,67,8" fill="none" stroke="#8ab048" stroke-miterlimit="10" stroke-width="4" fill-rule="evenodd"/>
            <path id="Path_4752" data-name="Path 4752" d="M2461.595,640.436c-9.775,5.612-11.33,75.854,1,75.5" fill="none" stroke="#8ab048" stroke-miterlimit="10" stroke-width="4" fill-rule="evenodd"/>
            <path id="Path_4753" data-name="Path 4753" d="M1703.595,71.936q15.981,2.148,32,4" fill="none" stroke="#8ab048" stroke-miterlimit="10" stroke-width="4" fill-rule="evenodd"/>
            <path id="Path_4754" data-name="Path 4754" d="M2816.595,635.936" fill="none" stroke="#8ab048" stroke-miterlimit="10" stroke-width="4" fill-rule="evenodd"/>
            <path id="Path_4755" data-name="Path 4755" d="M1855.595,132.936c.1,9.773,29.388,23.653,37.5,30.75" fill="none" stroke="#8ab048" stroke-miterlimit="10" stroke-width="4" fill-rule="evenodd"/>
            <path id="Path_4756" data-name="Path 4756" d="M1793.595,117.936a85.35,85.35,0,0,1,45,4" fill="none" stroke="#8ab048" stroke-miterlimit="10" stroke-width="4" fill-rule="evenodd"/>
            <path id="Path_4757" data-name="Path 4757" d="M2326.095,584.936c-7.693,6.651-6,93.5,3.5,136" fill="none" stroke="#8ab048" stroke-miterlimit="10" stroke-width="4" fill-rule="evenodd"/>
            <path id="Path_4758" data-name="Path 4758" d="M2243.095,523.936c.179,1.238.938,46.08,12.5,47" fill="none" stroke="#8ab048" stroke-miterlimit="10" stroke-width="4" fill-rule="evenodd"/>
            <path id="Path_4759" data-name="Path 4759" d="M1953.595,851.436l-17,1.5" fill="none" stroke="#8ab048" stroke-miterlimit="10" stroke-width="4" fill-rule="evenodd"/>
            <path id="Path_4760" data-name="Path 4760" d="M1992.595,833.936q13.02-.078,18,18" fill="none" stroke="#8ab048" stroke-miterlimit="10" stroke-width="4" fill-rule="evenodd"/>
            <path id="Path_4761" data-name="Path 4761" d="M1666.595,72.936a123.074,123.074,0,0,0-17-3" fill="none" stroke="#8ab048" stroke-miterlimit="10" stroke-width="4" fill-rule="evenodd"/>
            <path id="Path_4762" data-name="Path 4762" d="M1740.047,640.487c-11,0-242.047,5.449-253.047,5.449" fill="none" stroke="#8ab048" stroke-miterlimit="10" stroke-width="4" fill-rule="evenodd"/>
            <path id="Path_4763" data-name="Path 4763" d="M2031.595,853.936q-5.812-3.346-11,1" fill="none" stroke="#8ab048" stroke-miterlimit="10" stroke-width="4" fill-rule="evenodd"/>
            <path id="Path_4764" data-name="Path 4764" d="M2064.095,832.436c-5.2-1.02-8.53,1.86-11.5,5.5" fill="none" stroke="#8ab048" stroke-miterlimit="10" stroke-width="4" fill-rule="evenodd"/>
            <path id="Path_4765" data-name="Path 4765" d="M2726.095,79.936l8.5,1" fill="none" stroke="#8ab048" stroke-miterlimit="10" stroke-width="4" fill-rule="evenodd"/>
            <path id="Path_4766" data-name="Path 4766" d="M2077.595,614.936c-.022,3.646-2.925,4.41-5.5,5.5" fill="none" stroke="#8ab048" stroke-miterlimit="10" stroke-width="4" fill-rule="evenodd"/>
            <path id="Path_4767" data-name="Path 4767" d="M2411.595,380.436l7,4.5" fill="none" stroke="#8ab048" stroke-miterlimit="10" stroke-width="4" fill-rule="evenodd"/>
            <path id="Path_4768" data-name="Path 4768" d="M1996.095,820.936q6.347,7.548,1,14.5" fill="none" stroke="#8ab048" stroke-miterlimit="10" stroke-width="4" fill-rule="evenodd"/>
            <path id="Path_4769" data-name="Path 4769" d="M2058.595,785.436q.5,3.251,1,6.5" fill="none" stroke="#8ab048" stroke-miterlimit="10" stroke-width="4" fill-rule="evenodd"/>
            <path id="Path_4770" data-name="Path 4770" d="M2325.595,734.936q-.25,3-.5,6" fill="none" stroke="#8ab048" stroke-miterlimit="10" stroke-width="4" fill-rule="evenodd"/>
            <path id="Path_4771" data-name="Path 4771" d="M2000.095,832.936l4.5,4" fill="none" stroke="#8ab048" stroke-miterlimit="10" stroke-width="4" fill-rule="evenodd"/>
            <path id="Path_4772" data-name="Path 4772" d="M1967.095,650.936l-5.5-1" fill="none" stroke="#8ab048" stroke-miterlimit="10" stroke-width="4" fill-rule="evenodd"/>
            <path id="Path_4773" data-name="Path 4773" d="M2334.595,746.936c-.178,2.667,2.677,5.522-.5,8" fill="none" stroke="#8ab048" stroke-miterlimit="10" stroke-width="4" fill-rule="evenodd"/>
            <path id="Path_4774" data-name="Path 4774" d="M2161.595,458.436c-2.161,1.762-4.254,2.716-6-.5" fill="none" stroke="#8ab048" stroke-miterlimit="10" stroke-width="4" fill-rule="evenodd"/>
            <path id="Path_4775" data-name="Path 4775" d="M1725.595,84.936l-4,.5" fill="none" stroke="#8ab048" stroke-miterlimit="10" stroke-width="4" fill-rule="evenodd"/>
            <path id="Path_4776" data-name="Path 4776" d="M2320.095,678.436q.25,2.751.5,5.5" fill="none" stroke="#8ab048" stroke-miterlimit="10" stroke-width="4" fill-rule="evenodd"/>
            <path id="Path_4777" data-name="Path 4777" d="M2200.595,475.436l-4,.5" fill="none" stroke="#8ab048" stroke-miterlimit="10" stroke-width="4" fill-rule="evenodd"/>
            <path id="Path_4778" data-name="Path 4778" d="M1946.095,838.436l-3.5-.5" fill="none" stroke="#8ab048" stroke-miterlimit="10" stroke-width="4" fill-rule="evenodd"/>
            <path id="Path_4779" data-name="Path 4779" d="M2168.095,541.936c16.1,24.756-1.313,62.823-20.022,98.619-13.062,24.992-34.281,78.05-50.978,99.881" fill="none" stroke="#8ab048" stroke-miterlimit="10" stroke-width="4" fill-rule="evenodd"/>
            <path id="Path_4780" data-name="Path 4780" d="M2279,675c-36.793-24.6-89-9.363-117.951,20.542-23.963,24.755-38.989,101.36,13.016,63.949,17.741-12.761,91.542-94.216,88.046-28.2-1.517,28.642-25.591,71.909-47.384,90.488-27.752,23.66-100.528,41.108-110.347-6.4-8.528-41.263,15.427-92.219,36.328-126.533,24.737-40.613,55.694-77.834,108.093-73.834,39.974,3.052,51.238,42.244,56.335,78.644,7.786,55.614-21.457,137.046-80.26,154.293-33.1,9.707-61.723-4.571-92.678-13.7-12.02-3.543-27.5-2-27.2-17.256" fill="none" stroke="#8ab048" stroke-miterlimit="10" stroke-width="4" fill-rule="evenodd"/>
            <path id="Path_4781" data-name="Path 4781" d="M2083,819c-10.744-37.9,12.511-97.372,32.509-130.356,18.573-30.633,49.717-62.781,77.444-85.7,60.989-50.406,110.129,9.575,126.151,70.989,9.5,36.437,14.141,71.883,16.334,109.5,1.322,22.671,5.777,41.857-7.915,61.246-15.58,22.064-38.1,19.843-63.509,20.465a728.3,728.3,0,0,1-125.085-8.092c-15.515-2.409-39.15-5.182-49.929-18.057" fill="none" stroke="#8ab048" stroke-miterlimit="10" stroke-width="4" fill-rule="evenodd"/>
          </g>
        </g>
      </g>
    </g>
    <rect id="Rectangle_110" data-name="Rectangle 110" width="1440" height="900" transform="translate(1490.094 0)" fill="#5e6248" opacity="0.6"/>
    <g id="Group_314" data-name="Group 314">
      <rect id="Rectangle_111" data-name="Rectangle 111" width="182" height="55" rx="25" transform="translate(2119.094 735.428)" fill="#bd8a60"/>
      <text id="LIFE_STYLE_-_" data-name="LIFE STYLE -&gt;" transform="translate(2212.193 769.428)" fill="#fff" font-size="18" font-family="MicrosoftJhengHeiRegular, Microsoft JhengHei" letter-spacing="0.1em"><tspan x="-67.538" y="0">LIFE STYLE -&gt;</tspan></text>
    </g>
    <g id="Group_335" data-name="Group 335">
      <text id="SERVICE" transform="translate(1876.66 558.824)" fill="#bd8a60" font-size="146.878" font-family="MicrosoftJhengHeiRegular, Microsoft JhengHei" letter-spacing="0.075em"><tspan x="0" y="0">SERVICE</tspan></text>
      <g id="Group_315" data-name="Group 315">
        <path id="Path_4782" data-name="Path 4782" d="M1885,540.842c3,2.822,7.546,5.177,13.4,7.064a53.036,53.036,0,0,0,16.223,2.833q24.24,0,24.229-17.642a15.87,15.87,0,0,0-2.515-8.822,23.285,23.285,0,0,0-6.78-6.706q-4.268-2.83-16.819-9.287-18.072-9.252-22.879-16.136a26.538,26.538,0,0,1-4.805-15.563,25.323,25.323,0,0,1,10.9-21.444q10.9-8.031,27.422-8.033c11.091,0,18.62,1.316,23.62,3.946V465.18c-7-4.495-14.919-6.741-25.2-6.741q-10.544,0-17.226,4.481a14.326,14.326,0,0,0-6.676,12.588,15.978,15.978,0,0,0,2.328,8.713,21.87,21.87,0,0,0,6.345,6.419,160.973,160.973,0,0,0,15.634,8.534q16.352,8.1,22.878,15.814a26.031,26.031,0,0,1,6.526,17.248q0,14.2-10.328,21.946t-28.9,7.745a76.235,76.235,0,0,1-14.695-1.864c-6.049-1.244-10.686-2.749-12.686-4.519Z" fill="#bd8a60"/>
        <path id="Path_4783" data-name="Path 4783" d="M2043,560h-58V449h56v11h-44v38h41v11h-41v40h46Z" fill="#bd8a60"/>
        <path id="Path_4784" data-name="Path 4784" d="M2088,460v41h18.393c6.741,0,12.238-1.881,16.495-5.825s6.383-9.146,6.383-15.7c0-6.025-1.937-10.861-5.81-14.257S2113.946,460,2106.536,460Zm66.73,100H2140.1l-18.647-31.237c-3.969-6.694-7.578-10.823-10.83-12.9s-7.052-2.86-11.4-2.86H2088v47h-12V449h32.759q15.276,0,24.312,7.838c6.025,5.236,9.283,12.462,9.283,21.688,0,15.348-8.354,25.31-24.354,29.9v.287a21.775,21.775,0,0,1,7.32,5.235c1.984,2.152,4.837,6.376,8.807,12.735Z" fill="#bd8a60"/>
        <path id="Path_4785" data-name="Path 4785" d="M2263.282,449l-41.309,111h-13.412l-40.448-111h13.626l31.269,89.016a49.913,49.913,0,0,1,2.223,9.984h.358a43.447,43.447,0,0,1,2.512-10.127L2250.086,449Z" fill="#bd8a60"/>
        <path id="Path_4786" data-name="Path 4786" d="M2314,460h-11v89h11v11h-35V549h11V460h-11V449h35Z" fill="#bd8a60"/>
        <path id="Path_4787" data-name="Path 4787" d="M2418,555.329q-12,6.6-30.376,6.6c-15.588,0-28.026-5.139-37.565-15.419s-14.246-23.57-14.246-39.875q0-25.674,15.737-42.6c10.472-11.283,23.842-16.926,40.576-16.926,10.519,0,19.874,1.532,25.874,4.591v13.2c-7-4.4-16.535-6.6-26.146-6.6-13.2,0-23.6,4.446-31.467,13.34s-11.737,20.32-11.737,34.28q0,19.867,11.076,32.417c7.362,8.367,17,12.551,29.388,12.551,11.188,0,20.886-2.486,28.886-7.459Z" fill="#bd8a60"/>
        <path id="Path_4788" data-name="Path 4788" d="M2511,560h-59V449h56v11h-43v38h40v11h-40v40h46Z" fill="#bd8a60"/>
      </g>
      <g id="Group_316" data-name="Group 316">
        <path id="Path_4789" data-name="Path 4789" d="M1884,542.08c3,2.822,7.4,5.177,13.261,7.065a52.639,52.639,0,0,0,16.151,2.833c16.16,0,24.193-5.881,24.193-17.643a15.88,15.88,0,0,0-2.532-8.821,23.322,23.322,0,0,0-6.789-6.706q-4.268-2.832-16.824-9.287-18.073-9.252-22.881-16.137a26.54,26.54,0,0,1-4.806-15.563,25.322,25.322,0,0,1,10.9-21.444c7.267-5.354,16.567-8.032,27.564-8.032,11.092,0,18.763,1.315,23.763,3.945v14.128c-7-4.494-15.062-6.741-25.341-6.741-7.029,0-12.85,1.495-17.3,4.481a14.359,14.359,0,0,0-6.712,12.588,15.968,15.968,0,0,0,2.31,8.713,21.827,21.827,0,0,0,6.337,6.419,160.688,160.688,0,0,0,15.629,8.534q16.352,8.1,22.876,15.815a26.027,26.027,0,0,1,6.525,17.248q0,14.2-10.329,21.945t-28.9,7.745a75,75,0,0,1-14.552-1.864c-6.049-1.243-10.544-2.749-12.544-4.519Z" fill="#bd8a60"/>
        <path id="Path_4790" data-name="Path 4790" d="M2042,561h-58V450h56v11h-44v38h40v11h-40v40h46Z" fill="#bd8a60"/>
        <path id="Path_4791" data-name="Path 4791" d="M2087,462v40h18.107c6.741,0,12.239-1.762,16.5-5.706s6.383-9.087,6.383-15.638c0-6.023-1.936-10.45-5.809-13.846s-9.515-4.81-16.926-4.81Zm66.444,99h-14.629l-18.647-31.118c-3.97-6.693-7.579-10.882-10.83-12.962a20.6,20.6,0,0,0-11.4-2.92H2087v47h-12V450h32.474c10.183,0,18.288,2.723,24.312,7.957s8.925,12.521,8.925,21.748c0,15.348-7.711,25.369-24.711,29.959v.287a23.36,23.36,0,0,1,7.678,5.235,92.671,92.671,0,0,1,8.985,12.616Z" fill="#bd8a60"/>
        <path id="Path_4792" data-name="Path 4792" d="M2262,450l-41.308,111h-13.412l-40.449-111h13.626l31.27,89.016a49.979,49.979,0,0,1,2.223,9.984h.358a43.5,43.5,0,0,1,2.511-10.127L2248.8,450Z" fill="#bd8a60"/>
        <path id="Path_4793" data-name="Path 4793" d="M2312,461h-11v90h11v10h-34V551h11V461h-11V450h34Z" fill="#bd8a60"/>
        <path id="Path_4794" data-name="Path 4794" d="M2417,556.567c-8,4.4-18.28,6.6-30.519,6.6-15.588,0-28.1-5.139-37.636-15.419s-14.282-23.57-14.282-39.875q0-25.674,15.719-42.6c10.471-11.284,23.975-16.926,40.71-16.926,10.518,0,19.008,1.531,26.008,4.59v13.2a53.429,53.429,0,0,0-26.289-6.6c-13.195,0-23.674,4.446-31.539,13.34s-11.772,20.32-11.772,34.28q0,19.867,11.058,32.417c7.362,8.368,17.138,12.551,29.522,12.551,11.187,0,21.02-2.485,29.02-7.459Z" fill="#bd8a60"/>
        <path id="Path_4795" data-name="Path 4795" d="M2509,561h-58V450h56v11h-44v38h41v11h-41v40h46Z" fill="#bd8a60"/>
      </g>
      <g id="Group_317" data-name="Group 317">
        <path id="Path_4796" data-name="Path 4796" d="M1882,543.318c3,2.823,7.761,5.177,13.618,7.065a53.71,53.71,0,0,0,16.33,2.833c16.16,0,24.283-5.881,24.283-17.643a15.847,15.847,0,0,0-2.489-8.821,23.218,23.218,0,0,0-6.766-6.706q-4.269-2.832-16.813-9.287-18.073-9.252-22.875-16.137a26.535,26.535,0,0,1-4.8-15.562,25.326,25.326,0,0,1,10.9-21.445c7.266-5.353,16.21-8.032,27.208-8.032,11.091,0,19.406,1.315,23.406,3.944v14.129c-6-4.494-14.7-6.741-24.984-6.741-7.028,0-12.671,1.495-17.118,4.482a14.277,14.277,0,0,0-6.622,12.587,15.98,15.98,0,0,0,2.354,8.713,21.9,21.9,0,0,0,6.359,6.419,160.942,160.942,0,0,0,15.64,8.534q16.352,8.106,22.882,15.815a26.035,26.035,0,0,1,6.528,17.248q0,14.2-10.328,21.945t-28.9,7.745a78.107,78.107,0,0,1-14.908-1.864c-6.049-1.243-9.9-2.749-12.9-4.518Z" fill="#bd8a60"/>
        <path id="Path_4797" data-name="Path 4797" d="M2041,563h-58V451h55v12h-43v37h40v12h-40v39h46Z" fill="#bd8a60"/>
        <path id="Path_4798" data-name="Path 4798" d="M2086,463v41h17.821c6.742,0,12.239-2.143,16.495-6.087s6.383-9.276,6.383-15.827c0-6.026-1.936-10.665-5.808-14.062S2111.375,463,2103.965,463Zm66.159,100h-14.631l-18.646-31.5c-3.969-6.693-7.578-11.191-10.829-13.272a20.776,20.776,0,0,0-11.4-3.229H2086v48h-13V451h33.188c10.184,0,18.288,2.842,24.312,8.076s9.068,12.581,9.068,21.808c0,15.347-8.568,25.429-24.568,30.018v.288a22.679,22.679,0,0,1,7.535,5.235c1.984,2.151,4.944,6.638,8.914,13Z" fill="#bd8a60"/>
        <path id="Path_4799" data-name="Path 4799" d="M2260.711,451,2219.4,563H2205.99l-40.448-112h13.626l31.269,89.016A49.828,49.828,0,0,1,2212.66,550h.359a43.436,43.436,0,0,1,2.51-10.127L2247.515,451Z" fill="#bd8a60"/>
        <path id="Path_4800" data-name="Path 4800" d="M2311,462h-11v90h11v11h-34V552h11V462h-11V451h34Z" fill="#bd8a60"/>
        <path id="Path_4801" data-name="Path 4801" d="M2416,557.806c-8,4.4-18.423,6.6-30.662,6.6q-23.38,0-37.707-15.419-14.309-15.418-14.317-39.875,0-25.674,15.7-42.6t40.843-16.926c10.519,0,19.142,1.531,26.142,4.59v13.2a53.983,53.983,0,0,0-26.431-6.6q-19.794,0-31.611,13.339-11.8,13.34-11.807,34.281,0,19.868,11.039,32.417c7.363,8.367,17.273,12.55,29.657,12.55,11.187,0,21.153-2.485,29.153-7.459Z" fill="#bd8a60"/>
        <path id="Path_4802" data-name="Path 4802" d="M2508,563h-58V451h56v12h-44v37h40v12h-40v39h46Z" fill="#bd8a60"/>
      </g>
      <g id="Group_318" data-name="Group 318">
        <path id="Path_4803" data-name="Path 4803" d="M1881,544.557c3,2.822,7.618,5.176,13.475,7.063a53.218,53.218,0,0,0,16.258,2.834q24.24,0,24.248-17.643a15.853,15.853,0,0,0-2.507-8.821,23.258,23.258,0,0,0-6.776-6.706q-4.265-2.831-16.816-9.287Q1890.81,502.745,1886,495.86A26.541,26.541,0,0,1,1881.2,480.3a25.326,25.326,0,0,1,10.9-21.445c7.267-5.353,16.353-8.031,27.35-8.031,11.091,0,18.549,1.315,23.549,3.944v14.129c-6-4.495-14.848-6.742-25.127-6.742-7.028,0-12.743,1.495-17.189,4.482a14.308,14.308,0,0,0-6.658,12.588,15.976,15.976,0,0,0,2.336,8.712,21.888,21.888,0,0,0,6.35,6.419,160.793,160.793,0,0,0,15.636,8.535q16.353,8.1,22.88,15.814a26.035,26.035,0,0,1,6.525,17.248q0,14.2-10.326,21.945t-28.9,7.746a76.773,76.773,0,0,1-14.765-1.865c-6.05-1.243-10.759-2.749-12.759-4.518Z" fill="#bd8a60"/>
        <path id="Path_4804" data-name="Path 4804" d="M2040,564h-59V453h56v11h-44v38h41v11h-41v40h47Z" fill="#bd8a60"/>
        <path id="Path_4805" data-name="Path 4805" d="M2084,464v41h18.536c6.741,0,12.238-2.023,16.5-5.967s6.383-9.218,6.383-15.768c0-6.025-1.937-10.755-5.809-14.152S2110.09,464,2102.679,464Zm66.873,100h-14.63L2117.6,532.62c-3.969-6.693-7.578-11.251-10.829-13.331a20.81,20.81,0,0,0-11.4-3.289H2084v48h-12V453h32.9c10.184,0,18.288,2.461,24.313,7.7s9.21,12.391,9.21,21.618c0,15.347-8.425,25.238-24.425,29.828v.287a22.085,22.085,0,0,1,7.392,5.235c1.984,2.152,4.873,6.519,8.842,12.877Z" fill="#bd8a60"/>
        <path id="Path_4806" data-name="Path 4806" d="M2259.425,453l-41.308,111h-13.412l-40.449-111h13.626l31.269,88.516a44.38,44.38,0,0,1,2.223,9.484h.358a40.028,40.028,0,0,1,2.512-9.627L2246.229,453Z" fill="#bd8a60"/>
        <path id="Path_4807" data-name="Path 4807" d="M2310,463h-11v90h11v11h-34V553h11V463h-11V453h34Z" fill="#bd8a60"/>
        <path id="Path_4808" data-name="Path 4808" d="M2415,559.044c-9,4.4-18.566,6.6-30.8,6.6-15.587,0-28.24-5.139-37.779-15.419s-14.352-23.571-14.352-39.875q0-25.676,15.683-42.6c10.472-11.283,24.243-16.925,40.978-16.925q15.777,0,26.275,4.589v13.2a54.529,54.529,0,0,0-26.574-6.6c-13.2,0-23.818,4.446-31.682,13.34s-11.843,20.32-11.843,34.28q0,19.867,11.021,32.417c7.362,8.367,17.407,12.551,29.791,12.551A57.791,57.791,0,0,0,2415,547.139Z" fill="#bd8a60"/>
        <path id="Path_4809" data-name="Path 4809" d="M2507,564h-59V453h56v11h-43v38h40v11h-40v40h46Z" fill="#bd8a60"/>
      </g>
      <g id="Group_319" data-name="Group 319">
        <path id="Path_4810" data-name="Path 4810" d="M1880,545.794c3,2.823,7.476,5.178,13.332,7.064a52.8,52.8,0,0,0,16.187,2.834q24.24,0,24.211-17.642a15.873,15.873,0,0,0-2.523-8.822,23.306,23.306,0,0,0-6.785-6.706q-4.267-2.83-16.821-9.287-18.073-9.252-22.88-16.137a26.541,26.541,0,0,1-4.8-15.562,25.319,25.319,0,0,1,10.9-21.444c7.267-5.355,16.495-8.032,27.493-8.032,11.091,0,18.691,1.315,23.691,3.944v14.129c-7-4.494-14.99-6.741-25.27-6.741-7.028,0-12.813,1.495-17.26,4.481a14.34,14.34,0,0,0-6.694,12.587,15.984,15.984,0,0,0,2.318,8.714,21.877,21.877,0,0,0,6.341,6.419,160.563,160.563,0,0,0,15.632,8.533q16.352,8.106,22.877,15.815a26.03,26.03,0,0,1,6.525,17.248q0,14.2-10.328,21.945t-28.9,7.746a75.615,75.615,0,0,1-14.623-1.864c-6.05-1.244-10.616-2.749-12.616-4.519Z" fill="#bd8a60"/>
        <path id="Path_4811" data-name="Path 4811" d="M2038,565h-58V454h56v11h-44v38h41v11h-41v40h46Z" fill="#bd8a60"/>
        <path id="Path_4812" data-name="Path 4812" d="M2083,465v41h18.251c6.741,0,12.238-1.9,16.5-5.848s6.382-9.158,6.382-15.71c0-6.023-1.936-10.842-5.809-14.239s-9.515-5.2-16.925-5.2Zm66.588,100h-14.63l-18.648-31.261c-3.968-6.693-7.578-11.311-10.829-13.39a20.836,20.836,0,0,0-11.4-3.349H2083v48h-12V454h32.616c10.185,0,18.289,2.58,24.313,7.815s8.853,12.45,8.853,21.676c0,15.348-7.782,25.3-24.782,29.888v.287a23.69,23.69,0,0,1,7.75,5.235,96.2,96.2,0,0,1,9.02,12.758Z" fill="#bd8a60"/>
        <path id="Path_4813" data-name="Path 4813" d="M2258.14,454l-41.309,111h-13.412l-40.448-111H2176.6l31.269,88.516a65.951,65.951,0,0,1,2.223,9.484h.358a40.011,40.011,0,0,1,2.511-9.627L2244.944,454Z" fill="#bd8a60"/>
        <path id="Path_4814" data-name="Path 4814" d="M2308,465h-11v89h11v11h-34V554h11V465h-11V454h34Z" fill="#bd8a60"/>
        <path id="Path_4815" data-name="Path 4815" d="M2413,560.282c-8,4.4-18.209,6.6-30.447,6.6-15.588,0-28.062-5.139-37.6-15.42s-14.263-23.569-14.263-39.875q0-25.672,15.728-42.6c10.471-11.283,23.908-16.925,40.643-16.925,10.518,0,18.94,1.531,25.94,4.589v13.2a53.153,53.153,0,0,0-26.217-6.6c-13.2,0-23.638,4.446-31.5,13.34s-11.754,20.319-11.754,34.28q0,19.867,11.066,32.417c7.363,8.367,17.072,12.551,29.456,12.551,11.187,0,20.952-2.485,28.952-7.46Z" fill="#bd8a60"/>
        <path id="Path_4816" data-name="Path 4816" d="M2506,565h-59V454h56v11h-44v38h41v11h-41v40h47Z" fill="#bd8a60"/>
      </g>
      <g id="Group_320" data-name="Group 320">
        <path id="Path_4817" data-name="Path 4817" d="M1878,547.032a47.179,47.179,0,0,0,13.689,7.066,53.927,53.927,0,0,0,16.366,2.833c16.16,0,24.3-5.881,24.3-17.644a15.836,15.836,0,0,0-2.479-8.82,23.2,23.2,0,0,0-6.763-6.706q-4.266-2.832-16.809-9.288-18.075-9.252-22.875-16.136a26.539,26.539,0,0,1-4.8-15.563,25.322,25.322,0,0,1,10.9-21.444c7.267-5.354,16.639-8.032,27.636-8.032,11.092,0,18.835,1.315,23.835,3.944V471.37c-7-4.493-15.133-6.74-25.412-6.74-7.029,0-12.886,1.494-17.333,4.481a14.374,14.374,0,0,0-6.729,12.588,15.965,15.965,0,0,0,2.3,8.713,21.792,21.792,0,0,0,6.331,6.419,160.876,160.876,0,0,0,15.628,8.534q16.352,8.1,22.874,15.814a26.024,26.024,0,0,1,6.525,17.249q0,14.2-10.329,21.945t-28.9,7.745a78.673,78.673,0,0,1-14.981-1.865c-6.049-1.242-9.973-2.748-12.973-4.519Z" fill="#bd8a60"/>
        <path id="Path_4818" data-name="Path 4818" d="M2037,566h-58V455h56v11h-44v38h40v11h-40v40h46Z" fill="#bd8a60"/>
        <path id="Path_4819" data-name="Path 4819" d="M2082,466v41h17.965c6.741,0,12.239-1.785,16.495-5.728s6.383-9.1,6.383-15.651c0-6.024-1.937-10.932-5.809-14.328S2107.519,466,2100.108,466Zm66.3,100h-14.63l-18.647-31.141c-3.968-6.693-7.578-10.87-10.829-12.951a20.608,20.608,0,0,0-11.4-2.908H2082v47h-12V455h32.331c10.184,0,18.288,2.7,24.313,7.935s9,12.508,9,21.735c0,15.348-8.64,25.357-24.64,29.946v.287a23.013,23.013,0,0,1,7.606,5.237,93.875,93.875,0,0,1,8.95,12.639Z" fill="#bd8a60"/>
        <path id="Path_4820" data-name="Path 4820" d="M2256.854,455l-41.309,111h-13.412l-40.448-111h13.625l31.271,89.018A50.016,50.016,0,0,1,2208.8,554h.359a43.509,43.509,0,0,1,2.51-10.127L2243.659,455Z" fill="#bd8a60"/>
        <path id="Path_4821" data-name="Path 4821" d="M2307,466h-11v90h11v10h-34V556h11V466h-11V455h34Z" fill="#bd8a60"/>
        <path id="Path_4822" data-name="Path 4822" d="M2412,561.521c-8,4.4-18.352,6.6-30.59,6.6q-23.382,0-37.672-15.419-14.307-15.418-14.3-39.876,0-25.672,15.709-42.6t40.777-16.926c10.518,0,19.075,1.531,26.075,4.59v13.2a53.7,53.7,0,0,0-26.36-6.6q-19.794,0-31.575,13.339-11.8,13.341-11.789,34.28,0,19.869,11.048,32.418t29.589,12.551c11.188,0,21.087-2.485,29.087-7.46Z" fill="#bd8a60"/>
        <path id="Path_4823" data-name="Path 4823" d="M2504,566h-58V455h56v11h-44v38h40v11h-40v40h46Z" fill="#bd8a60"/>
      </g>
      <g id="Group_321" data-name="Group 321">
        <path id="Path_4824" data-name="Path 4824" d="M1877,548.271c3,2.823,7.69,5.176,13.547,7.065a53.459,53.459,0,0,0,16.294,2.833q24.24,0,24.265-17.643a15.846,15.846,0,0,0-2.5-8.821,23.214,23.214,0,0,0-6.771-6.706q-4.266-2.834-16.814-9.287-18.072-9.253-22.877-16.137a26.541,26.541,0,0,1-4.8-15.562,25.323,25.323,0,0,1,10.9-21.445c7.267-5.353,16.281-8.032,27.279-8.032,11.091,0,19.477,1.316,23.477,3.944v14.128c-6-4.493-14.776-6.741-25.055-6.741-7.028,0-12.707,1.5-17.154,4.483a14.294,14.294,0,0,0-6.64,12.588,15.976,15.976,0,0,0,2.346,8.712,21.881,21.881,0,0,0,6.354,6.419,160.939,160.939,0,0,0,15.638,8.534q16.353,8.106,22.88,15.815a26.032,26.032,0,0,1,6.527,17.247q0,14.2-10.327,21.946t-28.9,7.744a77.473,77.473,0,0,1-14.837-1.864c-6.05-1.242-9.83-2.748-12.83-4.517Z" fill="#bd8a60"/>
        <path id="Path_4825" data-name="Path 4825" d="M2036,567h-59V456h56v12h-43v37h40v12h-40v39h46Z" fill="#bd8a60"/>
        <path id="Path_4826" data-name="Path 4826" d="M2081,468v41h17.679a23.435,23.435,0,0,0,16.5-6.109c4.256-3.946,6.383-9.29,6.383-15.841,0-6.024-1.936-10.648-5.809-14.043S2106.232,468,2098.822,468Zm66.017,99h-14.631l-18.646-31.022c-3.969-6.7-7.579-10.929-10.83-13.009a20.629,20.629,0,0,0-11.4-2.969H2081v47h-13V456h33.046c10.183,0,18.288,2.818,24.311,8.053s9.14,12.568,9.14,21.8c0,15.346-8.5,25.416-24.5,30.006v.288a22.4,22.4,0,0,1,7.464,5.235c1.983,2.15,4.909,6.161,8.878,12.52Z" fill="#bd8a60"/>
        <path id="Path_4827" data-name="Path 4827" d="M2255.568,456,2214.26,567h-13.412L2160.4,456h13.626l31.27,89.017a49.951,49.951,0,0,1,2.223,9.983h.358a43.5,43.5,0,0,1,2.511-10.127L2242.373,456Z" fill="#bd8a60"/>
        <path id="Path_4828" data-name="Path 4828" d="M2306,467h-11v90h11v10h-34V557h11V467h-11V456h34Z" fill="#bd8a60"/>
        <path id="Path_4829" data-name="Path 4829" d="M2411,562.758c-8,4.4-18.5,6.6-30.733,6.6-15.588,0-28.2-5.138-37.744-15.419s-14.334-23.57-14.334-39.873q0-25.677,15.692-42.6c10.472-11.284,24.176-16.926,40.911-16.926,10.518,0,19.208,1.531,26.208,4.59v13.2a54.256,54.256,0,0,0-26.5-6.6c-13.2,0-23.782,4.447-31.646,13.341s-11.826,20.32-11.826,34.28q0,19.868,11.031,32.417c7.362,8.367,17.339,12.551,29.723,12.551,11.187,0,21.22-2.487,29.22-7.46Z" fill="#bd8a60"/>
        <path id="Path_4830" data-name="Path 4830" d="M2503,567h-58V456h55v12h-43v37h40v12h-40v39h46Z" fill="#bd8a60"/>
      </g>
      <g id="Group_322" data-name="Group 322">
        <path id="Path_4831" data-name="Path 4831" d="M1876,549.509c3,2.822,7.547,5.177,13.4,7.064a53.035,53.035,0,0,0,16.223,2.833q24.24,0,24.229-17.642a15.871,15.871,0,0,0-2.515-8.822,23.276,23.276,0,0,0-6.781-6.706q-4.266-2.831-16.817-9.287-18.075-9.252-22.88-16.135a26.549,26.549,0,0,1-4.805-15.564,25.318,25.318,0,0,1,10.9-21.443q10.9-8.033,27.422-8.033c11.091,0,18.619,1.316,23.619,3.945v14.128c-7-4.494-14.919-6.741-25.2-6.741q-10.545,0-17.226,4.482a14.323,14.323,0,0,0-6.676,12.587,15.983,15.983,0,0,0,2.328,8.714,21.87,21.87,0,0,0,6.345,6.419,160.807,160.807,0,0,0,15.634,8.533q16.352,8.106,22.878,15.814a26.031,26.031,0,0,1,6.526,17.248q0,14.2-10.328,21.946t-28.9,7.745a76.157,76.157,0,0,1-14.695-1.864c-6.049-1.244-10.687-2.75-12.687-4.518Z" fill="#bd8a60"/>
        <path id="Path_4832" data-name="Path 4832" d="M2034,569h-58V458h56v11h-44v38h41v11h-41v40h46Z" fill="#bd8a60"/>
        <path id="Path_4833" data-name="Path 4833" d="M2079,469v41h18.394c6.741,0,12.238-2.047,16.495-5.992s6.383-9.228,6.383-15.78q0-9.035-5.809-14.131t-16.926-5.1Zm66.731,100H2131.1l-18.647-31.4c-3.969-6.694-7.578-11.24-10.829-13.32a20.8,20.8,0,0,0-11.4-3.276H2079v48h-12V458h32.76c10.184,0,18.288,2.438,24.312,7.672s9.282,12.378,9.282,21.605c0,15.348-8.354,25.226-24.354,29.816v.287a21.8,21.8,0,0,1,7.321,5.235c1.984,2.152,4.837,6.543,8.806,12.9Z" fill="#bd8a60"/>
        <path id="Path_4834" data-name="Path 4834" d="M2254.283,458l-41.308,111h-13.412l-40.449-111h13.626l31.269,88.516a44.4,44.4,0,0,1,2.223,9.484h.358a40.057,40.057,0,0,1,2.511-9.627L2241.087,458Z" fill="#bd8a60"/>
        <path id="Path_4835" data-name="Path 4835" d="M2305,468h-11v90h11v11h-35V558h11V468h-11V458h35Z" fill="#bd8a60"/>
        <path id="Path_4836" data-name="Path 4836" d="M2409,564q-12,6.6-30.376,6.6c-15.587,0-28.025-5.139-37.564-15.419s-14.246-23.571-14.246-39.875q0-25.672,15.737-42.6c10.472-11.282,23.842-16.925,40.576-16.925,10.518,0,19.873,1.531,25.873,4.59v13.2c-7-4.4-16.534-6.6-26.145-6.6-13.2,0-23.6,4.446-31.468,13.339s-11.736,20.32-11.736,34.281q0,19.866,11.076,32.416c7.362,8.367,17,12.551,29.388,12.551,11.187,0,20.885-2.485,28.885-7.459Z" fill="#bd8a60"/>
        <path id="Path_4837" data-name="Path 4837" d="M2502,569h-59V458h56v11h-43v38h40v11h-40v40h46Z" fill="#bd8a60"/>
      </g>
      <g id="Group_323" data-name="Group 323">
        <path id="Path_4838" data-name="Path 4838" d="M1875,550.747c3,2.822,7.4,5.178,13.261,7.064a52.616,52.616,0,0,0,16.151,2.834c16.16,0,24.194-5.881,24.194-17.643a15.874,15.874,0,0,0-2.533-8.821,23.3,23.3,0,0,0-6.789-6.706q-4.266-2.832-16.823-9.287-18.074-9.252-22.881-16.136a26.545,26.545,0,0,1-4.806-15.564,25.32,25.32,0,0,1,10.9-21.443c7.266-5.355,16.567-8.032,27.564-8.032,11.092,0,18.762,1.315,23.762,3.944v14.128c-7-4.493-15.061-6.741-25.341-6.741-7.028,0-12.849,1.495-17.3,4.482a14.357,14.357,0,0,0-6.712,12.587,15.965,15.965,0,0,0,2.31,8.713,21.829,21.829,0,0,0,6.337,6.42,160.979,160.979,0,0,0,15.629,8.533q16.352,8.1,22.876,15.815a26.032,26.032,0,0,1,6.525,17.248q0,14.2-10.329,21.945t-28.9,7.746a75.024,75.024,0,0,1-14.553-1.865c-6.049-1.243-10.544-2.749-12.544-4.519Z" fill="#bd8a60"/>
        <path id="Path_4839" data-name="Path 4839" d="M2033,570h-58V459h56v11h-44v38h40v11h-40v40h46Z" fill="#bd8a60"/>
        <path id="Path_4840" data-name="Path 4840" d="M2078,470v41h18.108c6.741,0,12.239-1.928,16.5-5.873s6.383-9.169,6.383-15.72c0-6.024-1.936-10.826-5.809-14.222S2103.662,470,2096.251,470Zm66.445,100h-14.63l-18.646-31.285c-3.97-6.692-7.579-11.3-10.83-13.378a20.85,20.85,0,0,0-11.4-3.337H2078v48h-12V459h32.474c10.184,0,18.289,2.557,24.313,7.792s8.924,12.436,8.924,21.663c0,15.348-7.711,25.286-24.711,29.876v.287a23.358,23.358,0,0,1,7.678,5.235c1.983,2.152,5.016,6.424,8.985,12.784Z" fill="#bd8a60"/>
        <path id="Path_4841" data-name="Path 4841" d="M2253,459l-41.308,111h-13.413l-40.448-111h13.626l31.27,88.516a65.983,65.983,0,0,1,2.222,9.484h.359a40.063,40.063,0,0,1,2.51-9.627L2239.8,459Z" fill="#bd8a60"/>
        <path id="Path_4842" data-name="Path 4842" d="M2303,470h-11v89h11v11h-34V559h11V470h-11V459h34Z" fill="#bd8a60"/>
        <path id="Path_4843" data-name="Path 4843" d="M2408,565.235c-8,4.4-18.28,6.6-30.519,6.6-15.587,0-28.1-5.14-37.636-15.42s-14.281-23.57-14.281-39.875q0-25.674,15.719-42.6c10.471-11.283,23.975-16.925,40.709-16.925,10.519,0,19.008,1.53,26.008,4.59v13.2a53.426,53.426,0,0,0-26.288-6.6c-13.195,0-23.674,4.447-31.539,13.34s-11.772,20.32-11.772,34.28q0,19.867,11.058,32.417c7.362,8.367,17.138,12.551,29.521,12.551,11.188,0,21.02-2.484,29.02-7.459Z" fill="#bd8a60"/>
        <path id="Path_4844" data-name="Path 4844" d="M2500,570h-58V459h56v11h-44v38h41v11h-41v40h46Z" fill="#bd8a60"/>
      </g>
      <g id="Group_324" data-name="Group 324">
        <path id="Path_4845" data-name="Path 4845" d="M1873,551.985c3,2.823,7.761,5.177,13.618,7.065a53.678,53.678,0,0,0,16.33,2.833c16.16,0,24.283-5.881,24.283-17.643a15.847,15.847,0,0,0-2.488-8.821,23.231,23.231,0,0,0-6.766-6.705q-4.269-2.833-16.812-9.288-18.074-9.252-22.877-16.137a26.541,26.541,0,0,1-4.8-15.562,25.324,25.324,0,0,1,10.9-21.445c7.266-5.353,16.209-8.031,27.207-8.031,11.091,0,19.406,1.315,23.406,3.944v14.128c-6-4.493-14.7-6.741-24.983-6.741-7.029,0-12.671,1.495-17.119,4.483a14.276,14.276,0,0,0-6.621,12.586,15.99,15.99,0,0,0,2.354,8.713,21.915,21.915,0,0,0,6.359,6.42,161,161,0,0,0,15.64,8.533q16.352,8.106,22.882,15.815a26.038,26.038,0,0,1,6.528,17.248q0,14.2-10.328,21.945t-28.9,7.746a78.13,78.13,0,0,1-14.909-1.865c-6.049-1.243-9.9-2.748-12.9-4.518Z" fill="#bd8a60"/>
        <path id="Path_4846" data-name="Path 4846" d="M2032,571h-58V460h55v11h-43v38h40v11h-40v40h46Z" fill="#bd8a60"/>
        <path id="Path_4847" data-name="Path 4847" d="M2077,471v41h17.822c6.742,0,12.24-1.809,16.495-5.754s6.383-9.109,6.383-15.66c0-6.023-1.936-10.915-5.808-14.311S2102.376,471,2094.965,471Zm66.16,100h-14.631l-18.646-31.166c-3.969-6.691-7.578-10.857-10.829-12.937a20.587,20.587,0,0,0-11.4-2.9H2077v47h-13V460h33.189c10.184,0,18.288,2.676,24.312,7.91s9.068,12.5,9.068,21.724c0,15.347-8.569,25.345-24.569,29.935v.287a22.71,22.71,0,0,1,7.535,5.236c1.984,2.151,4.945,6.3,8.914,12.664Z" fill="#bd8a60"/>
        <path id="Path_4848" data-name="Path 4848" d="M2251.712,460,2210.4,571h-13.412l-40.448-111h13.626l31.27,89.016a49.885,49.885,0,0,1,2.222,9.984h.359a43.436,43.436,0,0,1,2.51-10.127L2238.517,460Z" fill="#bd8a60"/>
        <path id="Path_4849" data-name="Path 4849" d="M2302,471h-11v90h11v10h-34V561h11V471h-11V460h34Z" fill="#bd8a60"/>
        <path id="Path_4850" data-name="Path 4850" d="M2407,566.473c-8,4.4-18.423,6.6-30.661,6.6q-23.382,0-37.708-15.42-14.307-15.418-14.317-39.875,0-25.672,15.7-42.6t40.843-16.925c10.518,0,19.141,1.53,26.141,4.59v13.2a53.981,53.981,0,0,0-26.431-6.6q-19.793,0-31.609,13.339-11.8,13.339-11.809,34.281,0,19.867,11.04,32.417c7.363,8.367,17.272,12.55,29.656,12.55,11.188,0,21.153-2.485,29.153-7.459Z" fill="#bd8a60"/>
        <path id="Path_4851" data-name="Path 4851" d="M2499,571h-58V460h56v11h-44v38h40v11h-40v40h46Z" fill="#bd8a60"/>
      </g>
      <g id="Group_325" data-name="Group 325">
        <path id="Path_4852" data-name="Path 4852" d="M1872,553.224c3,2.822,7.619,5.176,13.475,7.064a53.256,53.256,0,0,0,16.258,2.833q24.242,0,24.249-17.643a15.863,15.863,0,0,0-2.507-8.821,23.243,23.243,0,0,0-6.776-6.7q-4.266-2.832-16.816-9.288-18.072-9.252-22.878-16.137a26.533,26.533,0,0,1-4.8-15.562,25.323,25.323,0,0,1,10.9-21.444c7.267-5.354,16.353-8.032,27.35-8.032,11.091,0,18.548,1.316,23.548,3.945v14.127c-6-4.493-14.847-6.741-25.127-6.741-7.028,0-12.742,1.495-17.188,4.483a14.307,14.307,0,0,0-6.659,12.587,15.983,15.983,0,0,0,2.337,8.713,21.9,21.9,0,0,0,6.35,6.419,160.853,160.853,0,0,0,15.636,8.534q16.353,8.1,22.879,15.814a26.032,26.032,0,0,1,6.527,17.248q0,14.2-10.327,21.946t-28.9,7.746a76.814,76.814,0,0,1-14.767-1.866C1878.71,571.2,1874,569.7,1872,567.926Z" fill="#bd8a60"/>
        <path id="Path_4853" data-name="Path 4853" d="M2031,572h-59V461h56v12h-44v37h41v12h-41v39h47Z" fill="#bd8a60"/>
        <path id="Path_4854" data-name="Path 4854" d="M2075,473v41h18.537a23.444,23.444,0,0,0,16.495-6.135c4.255-3.943,6.383-9.3,6.383-15.85,0-6.024-1.936-10.63-5.81-14.027S2101.091,473,2093.68,473Zm66.875,99h-14.631L2108.6,540.953c-3.97-6.691-7.579-10.917-10.83-13a20.623,20.623,0,0,0-11.4-2.956H2075v47h-12V461h32.9c10.184,0,18.288,2.793,24.313,8.029s9.21,12.557,9.21,21.784c0,15.347-8.426,25.405-24.426,29.995v.287a22.085,22.085,0,0,1,7.392,5.235c1.984,2.151,4.874,6.186,8.843,12.545Z" fill="#bd8a60"/>
        <path id="Path_4855" data-name="Path 4855" d="M2250.426,461l-41.309,111h-13.412l-40.448-111h13.626l31.269,89.016a49.9,49.9,0,0,1,2.223,9.984h.358a43.449,43.449,0,0,1,2.512-10.127L2237.23,461Z" fill="#bd8a60"/>
        <path id="Path_4856" data-name="Path 4856" d="M2301,472h-11v90h11v10h-34V562h11V472h-11V461h34Z" fill="#bd8a60"/>
        <path id="Path_4857" data-name="Path 4857" d="M2406,567.711c-9,4.4-18.566,6.6-30.8,6.6-15.588,0-28.24-5.14-37.779-15.42s-14.353-23.571-14.353-39.875q0-25.676,15.683-42.6c10.472-11.283,24.243-16.925,40.978-16.925q15.777,0,26.275,4.59v13.2a54.53,54.53,0,0,0-26.574-6.6c-13.2,0-23.817,4.446-31.681,13.34s-11.843,20.32-11.843,34.28q0,19.867,11.021,32.417c7.362,8.367,17.406,12.551,29.79,12.551A57.791,57.791,0,0,0,2406,555.806Z" fill="#bd8a60"/>
        <path id="Path_4858" data-name="Path 4858" d="M2498,572h-59V461h56v12h-43v37h40v12h-40v39h46Z" fill="#bd8a60"/>
      </g>
      <g id="Group_326" data-name="Group 326">
        <path id="Path_4859" data-name="Path 4859" d="M1871,554.462c3,2.822,7.476,5.178,13.333,7.064a52.826,52.826,0,0,0,16.187,2.833q24.24,0,24.212-17.642a15.881,15.881,0,0,0-2.524-8.821,23.281,23.281,0,0,0-6.785-6.706q-4.267-2.832-16.821-9.288-18.074-9.252-22.88-16.136a26.547,26.547,0,0,1-4.806-15.563,25.324,25.324,0,0,1,10.9-21.444c7.267-5.354,16.494-8.032,27.493-8.032,11.09,0,18.69,1.316,23.69,3.945V478.8c-7-4.493-14.99-6.741-25.269-6.741-7.028,0-12.814,1.495-17.261,4.481a14.34,14.34,0,0,0-6.693,12.588,15.964,15.964,0,0,0,2.319,8.713,21.827,21.827,0,0,0,6.34,6.419,160.737,160.737,0,0,0,15.632,8.534q16.352,8.1,22.877,15.814a26.036,26.036,0,0,1,6.526,17.248q0,14.2-10.329,21.946t-28.9,7.745a75.61,75.61,0,0,1-14.623-1.864c-6.049-1.243-10.616-2.749-12.616-4.519Z" fill="#bd8a60"/>
        <path id="Path_4860" data-name="Path 4860" d="M2029,574h-58V463h56v11h-44v38h41v11h-41v39h46Z" fill="#bd8a60"/>
        <path id="Path_4861" data-name="Path 4861" d="M2074,474v41h18.252c6.741,0,12.238-2.07,16.5-6.016s6.382-9.24,6.382-15.791q0-9.036-5.809-14.115T2092.4,474Zm66.589,100h-14.63l-18.647-31.428c-3.969-6.693-7.579-11.226-10.83-13.306a20.783,20.783,0,0,0-11.4-3.266H2074v48h-12V463h32.618c10.184,0,18.287,2.414,24.312,7.649s8.853,12.367,8.853,21.593c0,15.348-7.783,25.214-24.783,29.8v.287a23.677,23.677,0,0,1,7.75,5.235c1.983,2.152,5.052,6.567,9.021,12.926Z" fill="#bd8a60"/>
        <path id="Path_4862" data-name="Path 4862" d="M2249.141,463l-41.309,111H2194.42l-40.448-111H2167.6l31.269,88.516A44.44,44.44,0,0,1,2201.09,561h.358a40.023,40.023,0,0,1,2.511-9.627L2235.945,463Z" fill="#bd8a60"/>
        <path id="Path_4863" data-name="Path 4863" d="M2299,473h-11v90h11v11h-34V563h11V473h-11V463h34Z" fill="#bd8a60"/>
        <path id="Path_4864" data-name="Path 4864" d="M2404,568.95c-8,4.4-18.208,6.6-30.447,6.6-15.588,0-28.061-5.139-37.6-15.419s-14.263-23.57-14.263-39.875q0-25.674,15.727-42.6c10.472-11.282,23.908-16.925,40.643-16.925,10.518,0,18.94,1.531,25.94,4.59v13.2a53.153,53.153,0,0,0-26.216-6.6c-13.2,0-23.638,4.446-31.5,13.34s-11.754,20.32-11.754,34.28q0,19.868,11.066,32.417c7.363,8.367,17.071,12.551,29.455,12.551,11.187,0,20.952-2.484,28.952-7.459Z" fill="#bd8a60"/>
        <path id="Path_4865" data-name="Path 4865" d="M2497,574h-59V463h56v11h-44v38h41v11h-41v39h47Z" fill="#bd8a60"/>
      </g>
      <g id="Group_327" data-name="Group 327">
        <path id="Path_4866" data-name="Path 4866" d="M1869,555.7a47.17,47.17,0,0,0,13.69,7.064,53.894,53.894,0,0,0,16.366,2.834c16.16,0,24.3-5.881,24.3-17.643a15.831,15.831,0,0,0-2.48-8.821,23.168,23.168,0,0,0-6.762-6.706q-4.267-2.832-16.81-9.287-18.072-9.252-22.874-16.137a26.535,26.535,0,0,1-4.8-15.563A25.322,25.322,0,0,1,1880.53,470c7.267-5.355,16.638-8.032,27.635-8.032,11.092,0,18.835,1.315,23.835,3.944v14.128c-7-4.494-15.133-6.741-25.411-6.741-7.029,0-12.886,1.495-17.333,4.481a14.375,14.375,0,0,0-6.729,12.588,15.955,15.955,0,0,0,2.3,8.713,21.783,21.783,0,0,0,6.332,6.419,160.228,160.228,0,0,0,15.627,8.534q16.352,8.1,22.874,15.815a26.022,26.022,0,0,1,6.525,17.248q0,14.2-10.329,21.944t-28.9,7.746a78.734,78.734,0,0,1-14.981-1.864c-6.05-1.243-9.974-2.749-12.974-4.519Z" fill="#bd8a60"/>
        <path id="Path_4867" data-name="Path 4867" d="M2028,575h-58V464h56v11h-44v38h40v11h-40v40h46Z" fill="#bd8a60"/>
        <path id="Path_4868" data-name="Path 4868" d="M2073,475v41h17.966c6.741,0,12.239-1.951,16.495-5.9s6.383-9.181,6.383-15.732c0-6.024-1.937-10.807-5.81-14.2S2098.52,475,2091.109,475Zm66.3,100h-14.63l-18.647-31.309c-3.969-6.693-7.578-11.286-10.83-13.366a20.826,20.826,0,0,0-11.4-3.325H2073v48h-12V464h32.332c10.184,0,18.288,2.532,24.313,7.769s8.995,12.424,8.995,21.651c0,15.348-8.64,25.274-24.64,29.864v.287a23.016,23.016,0,0,1,7.607,5.236c1.983,2.151,4.98,6.447,8.95,12.8Z" fill="#bd8a60"/>
        <path id="Path_4869" data-name="Path 4869" d="M2247.855,464l-41.308,111h-13.412l-40.449-111h13.626l31.27,88.516A66.048,66.048,0,0,1,2199.8,562h.358a40.1,40.1,0,0,1,2.511-9.627L2234.66,464Z" fill="#bd8a60"/>
        <path id="Path_4870" data-name="Path 4870" d="M2298,475h-11v89h11v11h-34V564h11V475h-11V464h34Z" fill="#bd8a60"/>
        <path id="Path_4871" data-name="Path 4871" d="M2403,570.188c-8,4.4-18.351,6.6-30.589,6.6q-23.383,0-37.673-15.42-14.306-15.417-14.3-39.875,0-25.672,15.709-42.6t40.777-16.925c10.519,0,19.074,1.53,26.074,4.59v13.2a53.7,53.7,0,0,0-26.359-6.6q-19.794,0-31.575,13.34-11.8,13.339-11.789,34.28,0,19.869,11.048,32.417t29.59,12.551c11.187,0,21.085-2.485,29.085-7.46Z" fill="#bd8a60"/>
        <path id="Path_4872" data-name="Path 4872" d="M2495,575h-58V464h56v11h-44v38h40v11h-40v40h46Z" fill="#bd8a60"/>
      </g>
      <g id="Group_328" data-name="Group 328">
        <path id="Path_4873" data-name="Path 4873" d="M1868,556.939c3,2.822,7.69,5.176,13.547,7.064a53.464,53.464,0,0,0,16.294,2.833q24.242,0,24.265-17.643a15.846,15.846,0,0,0-2.5-8.821,23.238,23.238,0,0,0-6.771-6.706q-4.266-2.832-16.814-9.287-18.072-9.252-22.876-16.137a26.535,26.535,0,0,1-4.8-15.562,25.322,25.322,0,0,1,10.9-21.444c7.267-5.354,16.28-8.033,27.278-8.033,11.092,0,19.477,1.317,23.477,3.944v14.129c-6-4.494-14.775-6.741-25.055-6.741-7.028,0-12.706,1.495-17.153,4.483a14.289,14.289,0,0,0-6.64,12.586,15.976,15.976,0,0,0,2.346,8.713,21.878,21.878,0,0,0,6.354,6.419,161.091,161.091,0,0,0,15.638,8.535q16.353,8.1,22.88,15.814a26.033,26.033,0,0,1,6.528,17.247q0,14.2-10.327,21.946t-28.9,7.745a77.428,77.428,0,0,1-14.838-1.865c-6.049-1.242-9.83-2.748-12.83-4.517Z" fill="#bd8a60"/>
        <path id="Path_4874" data-name="Path 4874" d="M2027,576h-59V465h56v11h-43v38h40v11h-40v40h46Z" fill="#bd8a60"/>
        <path id="Path_4875" data-name="Path 4875" d="M2072,476v41h17.68c6.741,0,12.239-1.832,16.5-5.776s6.383-9.122,6.383-15.673c0-6.025-1.936-10.9-5.809-14.294S2097.233,476,2089.823,476Zm66.018,100h-14.631l-18.646-31.189c-3.969-6.693-7.579-10.846-10.83-12.926a20.6,20.6,0,0,0-11.4-2.885H2072v47h-13V465h33.047c10.183,0,18.288,2.651,24.311,7.887s9.14,12.486,9.14,21.713c0,15.347-8.5,25.332-24.5,29.922v.288a22.385,22.385,0,0,1,7.464,5.235c1.984,2.15,4.909,6.328,8.879,12.686Z" fill="#bd8a60"/>
        <path id="Path_4876" data-name="Path 4876" d="M2246.569,465l-41.308,111h-13.412L2151.4,465h13.626l31.27,89.017a49.951,49.951,0,0,1,2.223,9.983h.358a43.5,43.5,0,0,1,2.511-10.127L2233.374,465Z" fill="#bd8a60"/>
        <path id="Path_4877" data-name="Path 4877" d="M2297,476h-11v89h11v11h-34V565h11V476h-11V465h34Z" fill="#bd8a60"/>
        <path id="Path_4878" data-name="Path 4878" d="M2402,571.426c-8,4.4-18.494,6.6-30.732,6.6-15.588,0-28.2-5.138-37.744-15.419s-14.334-23.571-14.334-39.875q0-25.674,15.692-42.6c10.472-11.283,24.176-16.926,40.91-16.926,10.518,0,19.208,1.531,26.208,4.591v13.2a54.266,54.266,0,0,0-26.5-6.6c-13.2,0-23.781,4.446-31.645,13.339s-11.826,20.321-11.826,34.281q0,19.867,11.031,32.417c7.362,8.367,17.339,12.55,29.722,12.55,11.188,0,21.22-2.485,29.22-7.458Z" fill="#bd8a60"/>
        <path id="Path_4879" data-name="Path 4879" d="M2494,576h-58V465h55v11h-43v38h40v11h-40v40h46Z" fill="#bd8a60"/>
      </g>
      <g id="Group_329" data-name="Group 329">
        <path id="Path_4880" data-name="Path 4880" d="M1867,558.176c3,2.822,7.547,5.177,13.4,7.065a53.042,53.042,0,0,0,16.223,2.833q24.24,0,24.23-17.642a15.873,15.873,0,0,0-2.515-8.823,23.28,23.28,0,0,0-6.779-6.705q-4.269-2.83-16.82-9.287-18.074-9.252-22.879-16.137a26.536,26.536,0,0,1-4.805-15.562,25.321,25.321,0,0,1,10.9-21.444q10.9-8.031,27.421-8.033c11.091,0,18.619,1.317,23.619,3.945v14.129c-7-4.493-14.918-6.742-25.2-6.742q-10.543,0-17.225,4.482a14.323,14.323,0,0,0-6.676,12.587,15.978,15.978,0,0,0,2.328,8.714,21.869,21.869,0,0,0,6.345,6.419,160.91,160.91,0,0,0,15.634,8.533q16.352,8.106,22.878,15.814a26.036,26.036,0,0,1,6.526,17.249q0,14.2-10.328,21.946t-28.9,7.745a76.154,76.154,0,0,1-14.7-1.865c-6.05-1.243-10.688-2.749-12.688-4.518Z" fill="#bd8a60"/>
        <path id="Path_4881" data-name="Path 4881" d="M2025,577h-58V466h56v11h-44v38h41v11h-41v40h46Z" fill="#bd8a60"/>
        <path id="Path_4882" data-name="Path 4882" d="M2070,478v41h18.4a23.459,23.459,0,0,0,16.495-6.158c4.255-3.945,6.383-9.313,6.383-15.864,0-6.023-1.937-10.611-5.809-14.006S2095.948,478,2088.538,478Zm66.732,99H2122.1l-18.647-31.07c-3.969-6.694-7.578-10.907-10.829-12.987a20.624,20.624,0,0,0-11.4-2.943H2070v47h-12V466h32.761c10.184,0,18.288,2.772,24.312,8.006s9.281,12.545,9.281,21.771c0,15.348-8.354,25.393-24.354,29.983v.287a21.809,21.809,0,0,1,7.322,5.236c1.983,2.151,4.837,6.209,8.806,12.567Z" fill="#bd8a60"/>
        <path id="Path_4883" data-name="Path 4883" d="M2245.284,466l-41.309,111h-13.412l-40.449-111h13.627l31.269,89.016a49.9,49.9,0,0,1,2.223,9.984h.359a43.393,43.393,0,0,1,2.511-10.127L2232.088,466Z" fill="#bd8a60"/>
        <path id="Path_4884" data-name="Path 4884" d="M2296,477h-11v90h11v10h-35V567h11V477h-11V466h35Z" fill="#bd8a60"/>
        <path id="Path_4885" data-name="Path 4885" d="M2400,572.664q-12,6.6-30.375,6.6c-15.588,0-28.026-5.139-37.565-15.42s-14.245-23.57-14.245-39.874q0-25.674,15.737-42.6c10.471-11.283,23.84-16.926,40.575-16.926,10.518,0,19.873,1.532,25.873,4.59v13.2c-7-4.4-16.534-6.6-26.145-6.6-13.2,0-23.6,4.447-31.467,13.34s-11.735,20.32-11.735,34.281q0,19.866,11.075,32.416c7.362,8.367,17,12.551,29.387,12.551,11.187,0,20.885-2.485,28.885-7.458Z" fill="#bd8a60"/>
        <path id="Path_4886" data-name="Path 4886" d="M2493,577h-59V466h56v11h-43v38h40v11h-40v40h46Z" fill="#bd8a60"/>
      </g>
      <g id="Group_330" data-name="Group 330">
        <path id="Path_4887" data-name="Path 4887" d="M1866,559.414c3,2.822,7.405,5.178,13.261,7.064a52.6,52.6,0,0,0,16.152,2.835c16.16,0,24.2-5.881,24.2-17.643a15.875,15.875,0,0,0-2.534-8.822,23.28,23.28,0,0,0-6.789-6.705q-4.266-2.832-16.823-9.288-18.074-9.25-22.881-16.136a26.539,26.539,0,0,1-4.806-15.563,25.319,25.319,0,0,1,10.9-21.444c7.267-5.355,16.566-8.032,27.563-8.032,11.092,0,18.762,1.315,23.762,3.945v14.127c-7-4.493-15.061-6.74-25.34-6.74-7.029,0-12.85,1.495-17.3,4.481a14.356,14.356,0,0,0-6.712,12.587,15.968,15.968,0,0,0,2.31,8.714,21.815,21.815,0,0,0,6.337,6.419,160.4,160.4,0,0,0,15.629,8.533q16.352,8.106,22.876,15.814a26.034,26.034,0,0,1,6.525,17.249q0,14.2-10.328,21.945t-28.9,7.746a75,75,0,0,1-14.553-1.864c-6.05-1.243-10.545-2.749-12.545-4.519Z" fill="#bd8a60"/>
        <path id="Path_4888" data-name="Path 4888" d="M2024,579h-58V468h56v11h-44v38h40v11h-40v39h46Z" fill="#bd8a60"/>
        <path id="Path_4889" data-name="Path 4889" d="M2069,479v41h18.109c6.741,0,12.239-2.094,16.5-6.039s6.383-9.253,6.383-15.8c0-6.023-1.936-10.7-5.809-14.1s-9.515-5.06-16.926-5.06Zm66.446,100h-14.63l-18.647-31.451c-3.969-6.694-7.578-11.216-10.829-13.295a20.788,20.788,0,0,0-11.4-3.254H2069v48h-12V468h32.475c10.184,0,18.289,2.39,24.313,7.625s8.924,12.355,8.924,21.582c0,15.346-7.712,25.2-24.712,29.791v.287a23.354,23.354,0,0,1,7.678,5.237c1.984,2.15,5.016,6.589,8.986,12.947Z" fill="#bd8a60"/>
        <path id="Path_4890" data-name="Path 4890" d="M2244,468,2202.69,579h-13.413l-40.448-111h13.626l31.27,88.516a44.46,44.46,0,0,1,2.222,9.484h.359a40.063,40.063,0,0,1,2.51-9.627L2230.8,468Z" fill="#bd8a60"/>
        <path id="Path_4891" data-name="Path 4891" d="M2294,478h-11v90h11v11h-34V568h11V478h-11V468h34Z" fill="#bd8a60"/>
        <path id="Path_4892" data-name="Path 4892" d="M2399,573.9c-8,4.4-18.28,6.6-30.518,6.6-15.588,0-28.1-5.139-37.636-15.42s-14.281-23.569-14.281-39.875q0-25.673,15.719-42.6c10.472-11.283,23.975-16.925,40.709-16.925,10.519,0,19.007,1.531,26.007,4.59v13.2a53.423,53.423,0,0,0-26.288-6.6c-13.194,0-23.674,4.447-31.537,13.339s-11.773,20.32-11.773,34.281q0,19.867,11.058,32.416c7.362,8.368,17.138,12.551,29.521,12.551,11.188,0,21.019-2.484,29.019-7.459Z" fill="#bd8a60"/>
        <path id="Path_4893" data-name="Path 4893" d="M2491,579h-58V468h56v11h-44v38h41v11h-41v39h46Z" fill="#bd8a60"/>
      </g>
      <g id="Group_331" data-name="Group 331">
        <path id="Path_4894" data-name="Path 4894" d="M1864,560.652c3,2.823,7.762,5.178,13.618,7.065a53.692,53.692,0,0,0,16.331,2.834c16.16,0,24.283-5.881,24.283-17.643a15.851,15.851,0,0,0-2.488-8.822,23.222,23.222,0,0,0-6.767-6.705q-4.268-2.833-16.811-9.287-18.074-9.252-22.877-16.137a26.544,26.544,0,0,1-4.8-15.562,25.326,25.326,0,0,1,10.9-21.445c7.267-5.354,16.209-8.032,27.206-8.032,11.091,0,19.406,1.315,23.406,3.945V484.99c-6-4.493-14.7-6.74-24.983-6.74-7.029,0-12.67,1.494-17.118,4.481a14.279,14.279,0,0,0-6.621,12.587,15.983,15.983,0,0,0,2.354,8.714,21.912,21.912,0,0,0,6.359,6.419,160.781,160.781,0,0,0,15.64,8.533q16.352,8.107,22.881,15.815a26.037,26.037,0,0,1,6.528,17.248q0,14.2-10.327,21.945t-28.9,7.746a78.047,78.047,0,0,1-14.909-1.865c-6.049-1.242-9.9-2.748-12.9-4.518Z" fill="#bd8a60"/>
        <path id="Path_4895" data-name="Path 4895" d="M2023,580h-58V469h55v11h-43v38h40v11h-40v40h46Z" fill="#bd8a60"/>
        <path id="Path_4896" data-name="Path 4896" d="M2068,480v41h17.824q10.111,0,16.494-5.92t6.383-15.744c0-6.023-1.936-10.789-5.809-14.186s-9.515-5.15-16.925-5.15Zm66.161,100h-14.63l-18.647-31.331c-3.969-6.693-7.578-11.276-10.83-13.356a20.82,20.82,0,0,0-11.4-3.313H2068v48h-13V469h33.19c10.184,0,18.288,2.509,24.312,7.744s9.067,12.414,9.067,21.641c0,15.347-8.569,25.262-24.569,29.851v.287a22.716,22.716,0,0,1,7.536,5.237c1.983,2.15,4.945,6.47,8.914,12.829Z" fill="#bd8a60"/>
        <path id="Path_4897" data-name="Path 4897" d="M2242.713,469,2201.4,580h-13.412l-40.448-111h13.626l31.269,88.516a65.821,65.821,0,0,1,2.223,9.484h.359a39.941,39.941,0,0,1,2.51-9.626L2229.517,469Z" fill="#bd8a60"/>
        <path id="Path_4898" data-name="Path 4898" d="M2293,479h-11v90h11v11h-34V569h11V479h-11V469h34Z" fill="#bd8a60"/>
        <path id="Path_4899" data-name="Path 4899" d="M2398,575.141c-8,4.4-18.423,6.6-30.661,6.6q-23.382,0-37.707-15.42-14.307-15.417-14.317-39.875,0-25.672,15.7-42.6t40.842-16.926c10.519,0,19.141,1.531,26.141,4.59v13.2a53.981,53.981,0,0,0-26.431-6.6q-19.791,0-31.609,13.34-11.8,13.34-11.807,34.282,0,19.866,11.039,32.416c7.363,8.367,17.272,12.55,29.656,12.55,11.187,0,21.152-2.484,29.152-7.459Z" fill="#bd8a60"/>
        <path id="Path_4900" data-name="Path 4900" d="M2490,580h-58V469h56v11h-44v38h40v11h-40v40h46Z" fill="#bd8a60"/>
      </g>
      <g id="Group_332" data-name="Group 332">
        <path id="Path_4901" data-name="Path 4901" d="M1863,561.891c3,2.822,7.619,5.177,13.476,7.064a53.223,53.223,0,0,0,16.258,2.834q24.242,0,24.249-17.642a15.867,15.867,0,0,0-2.507-8.823,23.241,23.241,0,0,0-6.776-6.7q-4.266-2.834-16.816-9.287-18.074-9.252-22.878-16.137a26.537,26.537,0,0,1-4.8-15.562,25.32,25.32,0,0,1,10.9-21.444c7.267-5.355,16.352-8.033,27.349-8.033,11.092,0,18.548,1.316,23.548,3.945v14.127c-6-4.493-14.847-6.74-25.125-6.74-7.029,0-12.743,1.494-17.19,4.482a14.308,14.308,0,0,0-6.657,12.587,15.978,15.978,0,0,0,2.336,8.713,21.891,21.891,0,0,0,6.35,6.42,161.138,161.138,0,0,0,15.636,8.533q16.353,8.106,22.879,15.814a26.035,26.035,0,0,1,6.526,17.248q0,14.2-10.326,21.945t-28.9,7.747a76.818,76.818,0,0,1-14.767-1.866c-6.049-1.242-10.759-2.748-12.759-4.517Z" fill="#bd8a60"/>
        <path id="Path_4902" data-name="Path 4902" d="M2022,581h-59V470h56v11h-44v38h41v11h-41v40h47Z" fill="#bd8a60"/>
        <path id="Path_4903" data-name="Path 4903" d="M2066,481v41h18.538c6.741,0,12.239-1.855,16.495-5.8s6.383-9.134,6.383-15.684c0-6.024-1.937-10.88-5.81-14.275s-9.515-5.24-16.925-5.24Zm66.875,100h-14.63L2099.6,549.788c-3.97-6.693-7.579-10.835-10.83-12.915s-7.053-2.873-11.4-2.873H2066v47h-12V470h32.9q15.276,0,24.313,7.863c6.024,5.236,9.209,12.473,9.209,21.7,0,15.347-8.426,25.322-24.426,29.912v.287a22.115,22.115,0,0,1,7.393,5.236c1.983,2.15,4.873,6.351,8.843,12.71Z" fill="#bd8a60"/>
        <path id="Path_4904" data-name="Path 4904" d="M2241.427,470l-41.308,111h-13.412l-40.449-111h13.626l31.27,89.016a49.986,49.986,0,0,1,2.222,9.984h.358a43.559,43.559,0,0,1,2.512-10.127L2228.232,470Z" fill="#bd8a60"/>
        <path id="Path_4905" data-name="Path 4905" d="M2292,481h-11v89h11v11h-34V570h11V481h-11V470h34Z" fill="#bd8a60"/>
        <path id="Path_4906" data-name="Path 4906" d="M2397,576.379c-9,4.4-18.565,6.6-30.8,6.6-15.589,0-28.24-5.139-37.78-15.42s-14.352-23.571-14.352-39.875q0-25.674,15.683-42.6c10.472-11.283,24.243-16.926,40.977-16.926q15.778,0,26.275,4.59v13.2a54.529,54.529,0,0,0-26.573-6.6c-13.2,0-23.817,4.447-31.681,13.34S2326.9,513,2326.9,526.965q0,19.866,11.022,32.416c7.362,8.367,17.406,12.551,29.789,12.551A57.778,57.778,0,0,0,2397,564.473Z" fill="#bd8a60"/>
        <path id="Path_4907" data-name="Path 4907" d="M2489,581h-59V470h56v11h-43v38h40v11h-40v40h46Z" fill="#bd8a60"/>
      </g>
      <g id="Group_333" data-name="Group 333">
        <path id="Path_4908" data-name="Path 4908" d="M1862,563.129c3,2.822,7.477,5.178,13.333,7.064a52.8,52.8,0,0,0,16.188,2.834q24.24,0,24.212-17.642a15.877,15.877,0,0,0-2.524-8.822,23.28,23.28,0,0,0-6.785-6.706q-4.267-2.832-16.821-9.287-18.074-9.252-22.88-16.136a26.549,26.549,0,0,1-4.806-15.563,25.319,25.319,0,0,1,10.9-21.444c7.267-5.355,16.495-8.032,27.492-8.032,11.091,0,18.69,1.315,23.69,3.944v14.128c-7-4.493-14.989-6.74-25.269-6.74-7.028,0-12.813,1.494-17.26,4.481a14.339,14.339,0,0,0-6.693,12.587,15.967,15.967,0,0,0,2.318,8.713,21.847,21.847,0,0,0,6.341,6.42,160.782,160.782,0,0,0,15.632,8.533q16.352,8.106,22.877,15.814a26.035,26.035,0,0,1,6.526,17.248q0,14.2-10.328,21.946t-28.9,7.746a75.548,75.548,0,0,1-14.623-1.865c-6.05-1.243-10.617-2.748-12.617-4.518Z" fill="#bd8a60"/>
        <path id="Path_4909" data-name="Path 4909" d="M2020,582h-58V471h56v11h-44v38h41v11h-41v40h46Z" fill="#bd8a60"/>
        <path id="Path_4910" data-name="Path 4910" d="M2065,483v40h18.252c6.742,0,12.239-1.736,16.5-5.682s6.382-9.074,6.382-15.625c0-6.023-1.937-10.468-5.809-13.864S2090.806,483,2083.4,483Zm66.59,99h-14.631l-18.646-31.093c-3.969-6.693-7.579-10.895-10.83-12.975a20.607,20.607,0,0,0-11.4-2.932H2065v47h-12V471h32.618c10.185,0,18.288,2.747,24.313,7.982s8.852,12.534,8.852,21.76c0,15.348-7.783,25.381-24.783,29.971V531a23.694,23.694,0,0,1,7.75,5.236,91.1,91.1,0,0,1,9.021,12.591Z" fill="#bd8a60"/>
        <path id="Path_4911" data-name="Path 4911" d="M2240.142,471l-41.309,111h-13.412l-40.449-111H2158.6l31.269,89.016a49.911,49.911,0,0,1,2.223,9.984h.358a43.5,43.5,0,0,1,2.511-10.127L2226.946,471Z" fill="#bd8a60"/>
        <path id="Path_4912" data-name="Path 4912" d="M2290,482h-11v90h11v10h-34V572h11V482h-11V471h34Z" fill="#bd8a60"/>
        <path id="Path_4913" data-name="Path 4913" d="M2395,577.617c-8,4.4-18.208,6.6-30.446,6.6-15.588,0-28.061-5.139-37.6-15.42s-14.263-23.57-14.263-39.875q0-25.672,15.729-42.6c10.471-11.283,23.907-16.925,40.641-16.925,10.519,0,18.94,1.531,25.94,4.589v13.2a53.15,53.15,0,0,0-26.216-6.6c-13.195,0-23.638,4.447-31.5,13.34s-11.754,20.32-11.754,34.281q0,19.866,11.066,32.416c7.363,8.367,17.071,12.551,29.455,12.551,11.187,0,20.951-2.485,28.951-7.459Z" fill="#bd8a60"/>
        <path id="Path_4914" data-name="Path 4914" d="M2488,582h-59V471h56v11h-44v38h41v11h-41v40h47Z" fill="#bd8a60"/>
      </g>
      <g id="Group_334" data-name="Group 334">
        <path id="Path_4915" data-name="Path 4915" d="M1860,564.367a47.16,47.16,0,0,0,13.69,7.065,53.894,53.894,0,0,0,16.366,2.834c16.16,0,24.3-5.881,24.3-17.643a15.837,15.837,0,0,0-2.48-8.822,23.19,23.19,0,0,0-6.762-6.705q-4.267-2.834-16.809-9.287-18.073-9.252-22.875-16.137a26.537,26.537,0,0,1-4.8-15.563,25.324,25.324,0,0,1,10.9-21.444c7.267-5.355,16.638-8.032,27.635-8.032,11.092,0,18.834,1.315,23.834,3.944V488.7c-7-4.493-15.133-6.74-25.411-6.74-7.029,0-12.885,1.494-17.332,4.481a14.37,14.37,0,0,0-6.729,12.587,15.951,15.951,0,0,0,2.3,8.713,21.788,21.788,0,0,0,6.332,6.42,160.391,160.391,0,0,0,15.627,8.533q16.352,8.106,22.874,15.815a26.024,26.024,0,0,1,6.524,17.248q0,14.2-10.328,21.945t-28.9,7.746a78.678,78.678,0,0,1-14.982-1.865c-6.05-1.242-9.974-2.748-12.974-4.518Z" fill="#bd8a60"/>
        <path id="Path_4916" data-name="Path 4916" d="M2019,584h-58V472h56v12h-44v37h40v12h-40v39h46Z" fill="#bd8a60"/>
        <path id="Path_4917" data-name="Path 4917" d="M2064,484v41h17.966c6.742,0,12.24-2.117,16.5-6.062s6.383-9.265,6.383-15.816c0-6.023-1.937-10.682-5.809-14.079S2089.521,484,2082.109,484Zm66.3,100h-14.63l-18.647-31.474c-3.969-6.693-7.578-11.2-10.829-13.284a20.789,20.789,0,0,0-11.4-3.242H2064v48h-12V472h32.333c10.184,0,18.288,2.866,24.313,8.1s8.994,12.591,8.994,21.818c0,15.348-8.64,25.441-24.64,30.031v.287a23.034,23.034,0,0,1,7.607,5.237c1.984,2.15,4.981,6.612,8.951,12.971Z" fill="#bd8a60"/>
        <path id="Path_4918" data-name="Path 4918" d="M2238.856,472l-41.309,112h-13.412l-40.448-112h13.626l31.27,89.016A49.969,49.969,0,0,1,2190.8,571h.359a43.485,43.485,0,0,1,2.51-10.127L2225.661,472Z" fill="#bd8a60"/>
        <path id="Path_4919" data-name="Path 4919" d="M2289,483h-11v90h11v11h-34V573h11V483h-11V472h34Z" fill="#bd8a60"/>
        <path id="Path_4920" data-name="Path 4920" d="M2394,578.855c-8,4.4-18.351,6.6-30.589,6.6q-23.382,0-37.672-15.42-14.307-15.418-14.3-39.875,0-25.672,15.71-42.6t40.776-16.926c10.519,0,19.074,1.531,26.074,4.59v13.2a53.7,53.7,0,0,0-26.358-6.6q-19.794,0-31.575,13.34-11.8,13.34-11.79,34.281,0,19.866,11.049,32.416t29.589,12.551c11.187,0,21.085-2.484,29.085-7.459Z" fill="#bd8a60"/>
        <path id="Path_4921" data-name="Path 4921" d="M2486,584h-58V472h56v12h-44v37h40v12h-40v39h46Z" fill="#bd8a60"/>
      </g>
      <text id="SERVICE-2" data-name="SERVICE" transform="translate(1849.663 584.827)" fill="#bd8a60" font-size="146.878" font-family="MicrosoftJhengHeiRegular, Microsoft JhengHei" letter-spacing="0.075em"><tspan x="0" y="0">SERVICE</tspan></text>
    </g>
    <text id="SERVICE-3" data-name="SERVICE" transform="translate(1876.66 558.824)" fill="#fff" font-size="146.878" font-family="MicrosoftJhengHeiRegular, Microsoft JhengHei" letter-spacing="0.075em"><tspan x="0" y="0">SERVICE</tspan></text>
    <g transform="matrix(1, 0, 0, 1, 1490.09, 0)" filter="url(#Make_with_Mano_Flavor)">
      <text id="Make_with_Mano_Flavor-2" data-name="Make with Mano Flavor" transform="translate(719.1 651.93)" fill="#fff" font-size="18" font-family="MicrosoftJhengHeiRegular, Microsoft JhengHei" letter-spacing="0.1em"><tspan x="-116.67" y="0">Make with Mano Flavor</tspan></text>
    </g>
  </g>
</svg>
