<?xml version="1.0" encoding="utf-8"?>
<!-- Generator: Adobe Illustrator 16.0.0, SVG Export Plug-In . SVG Version: 6.00 Build 0)  -->
<!DOCTYPE svg PUBLIC "-//W3C//DTD SVG 1.1//EN" "http://www.w3.org/Graphics/SVG/1.1/DTD/svg11.dtd">
<svg version="1.1" id="圖層_1" xmlns="http://www.w3.org/2000/svg" xmlns:xlink="http://www.w3.org/1999/xlink" x="0px" y="0px"
	 width="1440px" height="900px" viewBox="0 0 1440 900" enable-background="new 0 0 1440 900" xml:space="preserve">
<g>
	<g>
		<g>
			<g>
				<defs>
					<rect id="SVGID_1_" x="0.1" width="1440" height="900"/>
				</defs>
				<clipPath id="SVGID_2_">
					<use xlink:href="#SVGID_1_"  overflow="visible"/>
				</clipPath>
				<g clip-path="url(#SVGID_2_)">
					<rect x="1.1" y="-63.5" fill="#F0F0F0" width="1440" height="985.9"/>
					<g>
						<path fill="none" stroke="#000000" stroke-width="4" stroke-miterlimit="10" d="M412.3,662.1c3.101-24.699,6-122.5,32.9-169.3
							C472.1,446,472.1,446,472.1,446l10.5-28.2l1.301-7.2c0,0-5-123.1-0.7-177.3c4.8-61,27.399-98.9,75.6-135.3
							c-21,12.6-67.1,25.6-75.5,44c-4.2-5.4-18.899,80.7-19,89.3c-0.5,51.6-0.399,102.101-11,152.8c-7,33.5-24.899,62.301-28.7,96.7
							c-6.3,56.2-14.8,111.101-23.8,166.9"/>
						<path fill="none" stroke="#000000" stroke-width="4" stroke-miterlimit="10" d="M581.7,267.3c-0.7-2.6-1.3-5.3-2-7.9
							c9.3,61.7-3.5,115.6-9.7,175.3c-7.2,69.6-14.4,139.2-21.6,208.8"/>
						<path fill="none" stroke="#000000" stroke-width="4" stroke-miterlimit="10" d="M711.1,63.7c-4.699-0.1-56.3,68.1-70.199,84.1
							c-17.9,20.6-46.2,41.5-49.801,68.3c-2.3,17.2-3,35.6-9.399,51.2"/>
						<path fill="none" stroke="#000000" stroke-width="4" stroke-miterlimit="10" d="M664,14.5c0.4,23.1,15.4,36.3,33.1,45.6
							c8.301,4.4,37.9,3.6,60.301,3.6"/>
						<path fill="none" stroke="#000000" stroke-width="4" stroke-miterlimit="10" d="M742.6,105.8C735.6,78.1,733.9,32,716.9,8.7
							c-1.5,2.2-3,4.3-4.5,6.5c6.1,3.9,34.699,54.4,15.699,44.7"/>
						<path fill="none" stroke="#000000" stroke-width="4" stroke-miterlimit="10" d="M777.4,242.4"/>
						<path fill="none" stroke="#000000" stroke-width="4" stroke-miterlimit="10" d="M768.9,377.6c6.5-17.1,62.8-31.3,85.1-40.3
							c38.8-15.7,75.7-42.9,115.9-54.3c-37.101,13.9-59.9-24.7-91-46.9c-13.4-9.6-37.2-33.8-53.5-36c-7.601-1-44.4,36.9-47.9,31.7"
							/>
						<path fill="none" stroke="#000000" stroke-width="4" stroke-miterlimit="10" d="M840.7,94.1c-42.2-29.7-78.5-44.2-93.4-21.7
							C728.9,100.2,758.1,256.4,779.9,241c-6,47.6-30.101,92.9-36.101,140.6c-0.2,4.601,21.101-4.6,25-3.899"/>
						<path fill="none" stroke="#000000" stroke-width="4" stroke-miterlimit="10" d="M818.5,395.7c18.8-7.101,40.4-10.5,58-14.8
							c45.3-11.101,86.9-22.4,128.7-34.101c35.899-10.7,68.8-28.2,32.1-68.2c-13.7-14.9-115.8-127.5-196.6-184.4"/>
						<path fill="none" stroke="#000000" stroke-width="4" stroke-miterlimit="10" d="M770.8,541.8c0-38.6-6.7-70.1,6.5-109
							c6.5-19.1,22.5-30,41.2-37.1"/>
						<path fill="none" stroke="#000000" stroke-width="4" stroke-miterlimit="10" d="M725.2,441c6.1-1.8,10.5,0.4,10.7,13.5
							c0.3,14.5,7.1,29.4,14.8,44.2c2.5,4.899,5.2,9.8,7.7,14.6"/>
						<path fill="none" stroke="#000000" stroke-width="4" stroke-miterlimit="10" d="M697.6,454.2
							c2.101-0.3,4.301-1.101,6.601-2.101c7.1-3.3,14.899-9.3,21-11.1"/>
						<path fill="none" stroke="#000000" stroke-width="4" stroke-miterlimit="10" d="M686.5,433.7"/>
						<path fill="none" stroke="#000000" stroke-width="4" stroke-miterlimit="10" d="M697.9,453.8
							c-25.301,11.4-29.4-4.899-11.4-20.1c19.1-16.101,38.3-32.101,57.4-48.2c-6.7,2.8-10.2,4-10.5,11.8
							c3.1,0.101,2.5-5.899-0.7-5.899c-4.3,1.6-12.7,15-17.7,19"/>
						<path fill="none" stroke="#000000" stroke-width="4" stroke-miterlimit="10" d="M745.2,491.9"/>
						<path fill="none" stroke="#000000" stroke-width="4" stroke-miterlimit="10" d="M754.5,586.1c-1.8-13.6-7.9-75.699-9.9-87.6"
							/>
						<path fill="none" stroke="#000000" stroke-width="4" stroke-miterlimit="10" d="M752.8,577.9C755.3,593,771.1,643.1,763,656"
							/>
						<path fill="none" stroke="#000000" stroke-width="4" stroke-miterlimit="10" d="M565.7,52.7c11.2,9.9,21.899,7.4,25.8,15.8
							c1.4,3-36.3,48.2-39.4,46.5c0.301,33.7,23.2,51.7,36.101,85.4"/>
						<path fill="none" stroke="#000000" stroke-width="4" stroke-miterlimit="10" d="M615.9,42.4c-21.301,17.3-28.4,27.2-50.2,10.3
							"/>
						<path fill="none" stroke="#000000" stroke-width="4" stroke-miterlimit="10" d="M528.8,18.8c19.601,0,31.101,28.4,36.9,33.8"
							/>
						<path fill="none" stroke="#000000" stroke-width="4" stroke-miterlimit="10" d="M565.5,107.5c11.8-7.9,13.8,0,27.6-7.9"/>
						<path fill="none" stroke="#000000" stroke-width="4" stroke-miterlimit="10" d="M638.4,87.8C656.1,83.9,675.8,81.9,689.6,70.1
							"/>
						<path fill="none" stroke="#000000" stroke-width="4" stroke-miterlimit="10" d="M647.5,8.7c-5.3,15-1.2,27.1-16.4,61.4"/>
					</g>
				</g>
			</g>
		</g>
	</g>
</g>
<rect x="0.1" opacity="0.6" fill="#F0F0F0" enable-background="new    " width="1440" height="900"/>
<g>
	<path fill="#ABB08C" d="M396,331.6c3,2.801,7.7,5.2,13.5,7.101c5.9,1.899,11.3,2.8,16.3,2.8c16.2,0,24.3-5.9,24.3-17.6
		c0-3.301-0.8-6.2-2.5-8.801c-1.699-2.6-3.899-4.8-6.8-6.699c-2.8-1.9-8.399-5-16.8-9.301c-12-6.199-19.7-11.5-22.9-16.1
		c-3.199-4.6-4.8-9.8-4.8-15.6c0-8.9,3.601-16.101,10.9-21.4c7.3-5.4,16.3-8,27.3-8c11.1,0,19.5,1.3,23.5,3.9V256
		c-6-4.5-14.8-6.7-25.1-6.7c-7,0-12.7,1.5-17.2,4.5c-4.4,3-6.601,7.2-6.601,12.601c0,3.3,0.801,6.3,2.301,8.699
		c1.6,2.5,3.699,4.601,6.399,6.4s7.9,4.7,15.601,8.5c10.899,5.4,18.5,10.7,22.899,15.8c4.4,5.101,6.5,10.9,6.5,17.2
		c0,9.5-3.399,16.8-10.3,21.9c-6.9,5.199-16.5,7.699-28.9,7.699c-3.8,0-8.8-0.6-14.8-1.899c-6-1.2-9.8-2.7-12.8-4.5V331.6L396,331.6
		z"/>
	<path fill="#ABB08C" d="M555,351h-59V240h56v11h-43v38h40v11h-40v40h46V351z"/>
	<path fill="#ABB08C" d="M600,251v41h17.7c6.7,0,12.2-2,16.5-5.9c4.3-3.899,6.399-9.199,6.399-15.8c0-6-1.899-10.8-5.8-14.2
		c-3.899-3.399-9.5-5.1-16.899-5.1H600z M666,351h-14.6L632.8,319.6c-4-6.699-7.6-11.3-10.8-13.3c-3.3-2.1-7.1-3.3-11.4-3.3H600v48
		h-13V240h33c10.2,0,18.3,2.5,24.3,7.7s9.101,12.399,9.101,21.6c0,15.3-8.5,25.3-24.5,29.8v0.301c3,1.3,5.5,3.1,7.5,5.199
		c2,2.2,4.899,6.5,8.899,12.9L666,351z"/>
	<path fill="#ABB08C" d="M774.6,240l-41.3,111H719.9l-40.4-111H693l31.3,88.5c1,2.7,1.7,5.5,2.2,9.5h0.4c0.3-3,1.199-6,2.5-9.6
		l32-88.4H774.6L774.6,240z"/>
	<path fill="#ABB08C" d="M825,250h-11v90h11v11h-34v-11h11v-90h-11v-10h34V250z"/>
	<path fill="#ABB08C" d="M930,346.1c-8,4.4-18.5,6.601-30.7,6.601c-15.6,0-28.2-5.101-37.7-15.4s-14.3-23.6-14.3-39.899
		c0-17.101,5.2-31.301,15.7-42.601s24.2-16.899,40.9-16.899c10.5,0,19.199,1.5,26.199,4.6v13.2c-8-4.4-16.899-6.601-26.5-6.601
		c-13.199,0-23.8,4.4-31.6,13.301c-7.9,8.899-11.8,20.3-11.8,34.3c0,13.2,3.7,24.1,11,32.399c7.399,8.4,17.3,12.601,29.7,12.601
		c11.199,0,21.199-2.5,29.199-7.5L930,346.1L930,346.1z"/>
	<path fill="#ABB08C" d="M1022,351h-58V240h55v11h-43v38h40v11h-40v40h46V351z"/>
</g>
<g>
	<path fill="#ABB08C" d="M395,332.8c3,2.8,7.5,5.2,13.4,7.101c5.899,1.899,11.199,2.8,16.199,2.8c16.2,0,24.2-5.9,24.2-17.601
		c0-3.3-0.8-6.199-2.5-8.8c-1.7-2.6-3.899-4.8-6.8-6.7c-2.8-1.899-8.5-5-16.8-9.3c-12-6.2-19.7-11.5-22.9-16.1
		c-3.2-4.601-4.8-9.8-4.8-15.601c0-8.899,3.6-16.1,10.9-21.399c7.3-5.4,16.399-8,27.399-8c11.101,0,18.601,1.3,23.601,3.899V257.2
		c-7-4.5-14.9-6.7-25.2-6.7c-7,0-12.8,1.5-17.2,4.5s-6.7,7.2-6.7,12.6c0,3.301,0.8,6.301,2.3,8.7c1.601,2.5,3.7,4.601,6.301,6.4
		c2.699,1.8,7.899,4.7,15.6,8.5c10.9,5.399,18.5,10.7,22.9,15.8c4.399,5.1,6.5,10.9,6.5,17.2c0,9.5-3.4,16.8-10.301,21.899
		c-6.899,5.2-16.5,7.7-28.899,7.7c-3.8,0-8.601-0.6-14.7-1.899c-6-1.2-10.7-2.801-12.7-4.5L395,332.8L395,332.8z"/>
	<polygon fill="#ABB08C" points="553,352 495,352 495,241 551,241 551,252 507,252 507,290 548,290 548,301 507,301 507,341 
		553,341 	"/>
	<path fill="#ABB08C" d="M598,252v41h18.4c6.699,0,12.199-1.9,16.5-5.8c4.3-3.9,6.399-9.101,6.399-15.7c0-6-1.899-10.9-5.8-14.3
		c-3.9-3.4-9.5-5.2-16.9-5.2H598L598,252z M664.7,352H650.1l-18.6-31.2c-4-6.7-7.6-10.8-10.8-12.899c-3.3-2.101-7.101-2.9-11.4-2.9
		H598v47h-12V241h32.8c10.2,0,18.3,2.6,24.3,7.8s9.301,12.5,9.301,21.7c0,15.3-8.4,25.3-24.4,29.9v0.3c3,1.3,5.3,3.1,7.3,5.2
		c2,2.199,4.8,6.399,8.8,12.699L664.7,352z"/>
	<path fill="#ABB08C" d="M773.3,241L732,352h-13.4L678.2,241h13.6l31.3,89c1,2.7,1.7,6,2.2,10h0.4c0.3-3,1.2-6.5,2.5-10.1l32-88.9
		H773.3L773.3,241z"/>
	<polygon fill="#ABB08C" points="824,252 813,252 813,341 824,341 824,352 789,352 789,341 800,341 800,252 789,252 789,241 
		824,241 	"/>
	<path fill="#ABB08C" d="M928,347.3c-8,4.4-18.1,6.601-30.4,6.601c-15.6,0-28-5.101-37.6-15.4c-9.5-10.3-14.2-23.6-14.2-39.9
		c0-17.1,5.3-31.3,15.7-42.6c10.5-11.3,23.8-16.9,40.6-16.9c10.5,0,19.9,1.5,25.9,4.601v13.2c-7-4.4-16.5-6.601-26.1-6.601
		c-13.2,0-23.601,4.4-31.5,13.3c-7.9,8.9-11.7,20.301-11.7,34.301c0,13.199,3.7,24.1,11.1,32.399c7.4,8.4,17,12.601,29.4,12.601
		c11.2,0,20.899-2.5,28.899-7.5L928,347.3L928,347.3z"/>
	<polygon fill="#ABB08C" points="1021,352 962,352 962,241 1018,241 1018,252 975,252 975,290 1015,290 1015,301 975,301 975,341 
		1021,341 	"/>
</g>
<g>
	<path fill="#ABB08C" d="M394,334.1c3,2.801,7.4,5.2,13.3,7.101c5.9,1.899,11.2,2.8,16.2,2.8c16.2,0,24.2-5.9,24.2-17.6
		c0-3.301-0.9-6.2-2.5-8.801c-1.7-2.6-3.9-4.8-6.8-6.699c-2.801-1.9-8.5-5-16.801-9.301c-12-6.199-19.699-11.5-22.899-16.1
		s-4.8-9.8-4.8-15.6c0-8.9,3.6-16.101,10.9-21.4c7.3-5.4,16.601-8,27.601-8c11.1,0,18.8,1.3,23.8,3.9v14.1
		c-7-4.5-15.101-6.7-25.3-6.7c-7,0-12.9,1.5-17.301,4.5c-4.399,3-6.699,7.2-6.699,12.601c0,3.3,0.8,6.3,2.3,8.699
		c1.6,2.5,3.7,4.601,6.3,6.4c2.7,1.8,7.9,4.7,15.6,8.5c10.9,5.4,18.5,10.7,22.9,15.8c4.4,5.101,6.5,10.9,6.5,17.2
		c0,9.5-3.4,16.8-10.3,21.9c-6.9,5.199-16.5,7.699-28.9,7.699c-3.8,0-8.5-0.6-14.6-1.899c-6-1.2-10.5-2.7-12.5-4.5L394,334.1
		L394,334.1z"/>
	<polygon fill="#ABB08C" points="552,353 494,353 494,242 550,242 550,253 506,253 506,291 546,291 546,302 506,302 506,342 
		552,342 	"/>
	<path fill="#ABB08C" d="M597,254v40h18.1c6.7,0,12.2-1.8,16.5-5.7c4.301-3.899,6.4-9.1,6.4-15.6c0-6-1.9-10.5-5.8-13.8
		c-3.9-3.4-9.5-4.801-16.9-4.801L597,254L597,254z M663.4,353H648.8l-18.6-31.1c-4-6.7-7.601-10.9-10.8-13
		C616.1,306.8,612.3,306,608,306h-11v47h-12V242h32.5c10.2,0,18.3,2.7,24.3,8c6,5.2,8.9,12.5,8.9,21.7c0,15.3-7.7,25.399-24.7,30
		v0.3c3,1.3,5.7,3.1,7.7,5.2c2,2.2,5,6.3,9,12.6L663.4,353z"/>
	<path fill="#ABB08C" d="M772,242l-41.3,111h-13.4L676.9,242h13.6l31.3,89c1,2.7,1.7,6,2.2,10h0.4c0.3-3,1.199-6.5,2.5-10.1l32-88.9
		H772L772,242z"/>
	<polygon fill="#ABB08C" points="822,253 811,253 811,343 822,343 822,353 788,353 788,343 799,343 799,253 788,253 788,242 
		822,242 	"/>
	<path fill="#ABB08C" d="M927,348.6c-8,4.4-18.3,6.601-30.5,6.601c-15.6,0-28.1-5.101-37.6-15.4S844.6,316.2,844.6,299.9
		c0-17.101,5.2-31.301,15.7-42.601s24-16.899,40.7-16.899c10.5,0,19,1.5,26,4.6v13.2c-8-4.4-16.7-6.601-26.3-6.601
		c-13.2,0-23.7,4.4-31.5,13.301c-7.9,8.899-11.8,20.3-11.8,34.3c0,13.2,3.699,24.1,11.1,32.399c7.4,8.4,17.1,12.601,29.5,12.601
		c11.2,0,21-2.5,29-7.5V348.6L927,348.6z"/>
	<polygon fill="#ABB08C" points="1019,353 961,353 961,242 1017,242 1017,253 973,253 973,291 1014,291 1014,302 973,302 973,342 
		1019,342 	"/>
</g>
<g>
	<path fill="#ABB08C" d="M392,335.3c3,2.8,7.8,5.2,13.6,7.101c5.9,1.899,11.4,2.8,16.301,2.8c16.199,0,24.3-5.9,24.3-17.601
		c0-3.3-0.8-6.199-2.5-8.8c-1.7-2.6-3.9-4.8-6.8-6.7c-2.801-1.899-8.4-5-16.801-9.3c-12-6.2-19.699-11.5-22.899-16.1
		c-3.2-4.601-4.8-9.8-4.8-15.601c0-8.899,3.6-16.1,10.9-21.399c7.3-5.4,16.2-8,27.2-8c11.1,0,19.4,1.3,23.4,3.899V259.7
		c-6-4.5-14.7-6.7-25-6.7c-7,0-12.7,1.5-17.101,4.5c-4.399,3-6.6,7.2-6.6,12.6c0,3.301,0.8,6.301,2.399,8.7
		c1.601,2.5,3.7,4.601,6.4,6.4s7.9,4.7,15.6,8.5c10.9,5.399,18.5,10.7,22.9,15.8s6.5,10.9,6.5,17.2c0,9.5-3.4,16.8-10.3,21.899
		c-6.9,5.2-16.5,7.7-28.9,7.7c-3.8,0-8.899-0.6-14.899-1.899c-6-1.2-9.9-2.7-12.9-4.5V335.3L392,335.3L392,335.3z"/>
	<polygon fill="#ABB08C" points="551,355 493,355 493,243 548,243 548,255 505,255 505,292 545,292 545,304 505,304 505,343 
		551,343 	"/>
	<path fill="#ABB08C" d="M596,255v41h17.8c6.7,0,12.2-2.1,16.5-6.1c4.3-3.9,6.4-9.301,6.4-15.801c0-6-1.9-10.699-5.8-14.1
		c-3.9-3.4-9.5-5-16.9-5H596z M662.2,355H647.6L629,323.5c-4-6.7-7.6-11.2-10.8-13.3c-3.3-2.101-7.101-3.2-11.4-3.2H596v48h-13V243
		h33.2c10.2,0,18.3,2.8,24.3,8.1c6,5.2,9.1,12.601,9.1,21.801c0,15.3-8.6,25.399-24.6,30v0.3c3,1.3,5.5,3.1,7.5,5.2
		c2,2.199,4.9,6.6,8.9,13L662.2,355z"/>
	<path fill="#ABB08C" d="M770.7,243l-41.3,112H716l-40.4-112H689.2l31.3,89c1,2.7,1.7,6,2.2,10h0.399c0.301-3,1.2-6.5,2.5-10.1
		l32-88.9H770.7L770.7,243z"/>
	<polygon fill="#ABB08C" points="821,254 810,254 810,344 821,344 821,355 787,355 787,344 798,344 798,254 787,254 787,243 
		821,243 	"/>
	<path fill="#ABB08C" d="M926,349.8c-8,4.4-18.4,6.601-30.7,6.601c-15.6,0-28.2-5.101-37.7-15.4s-14.3-23.6-14.3-39.9
		c0-17.1,5.2-31.3,15.7-42.6s24.1-16.9,40.8-16.9c10.5,0,19.101,1.5,26.101,4.601v13.2c-8-4.4-16.801-6.601-26.4-6.601
		c-13.2,0-23.7,4.4-31.6,13.3C860,275,856.1,286.4,856.1,300.4c0,13.199,3.7,24.1,11,32.399c7.4,8.4,17.301,12.601,29.7,12.601
		c11.2,0,21.2-2.5,29.2-7.5V349.8L926,349.8z"/>
	<polygon fill="#ABB08C" points="1018,355 960,355 960,243 1016,243 1016,255 972,255 972,292 1012,292 1012,304 972,304 972,343 
		1018,343 	"/>
</g>
<g>
	<path fill="#ABB08C" d="M391,336.6c3,2.801,7.6,5.2,13.5,7.101c5.9,1.899,11.3,2.8,16.3,2.8c16.2,0,24.2-5.9,24.2-17.6
		c0-3.301-0.8-6.2-2.5-8.801c-1.7-2.6-3.9-4.8-6.8-6.699c-2.8-1.9-8.5-5-16.8-9.301c-12-6.199-19.7-11.5-22.9-16.1
		s-4.8-9.8-4.8-15.6c0-8.9,3.6-16.101,10.899-21.4c7.301-5.4,16.4-8,27.4-8c11.1,0,18.5,1.3,23.5,3.9V261c-6-4.5-14.8-6.7-25.1-6.7
		c-7,0-12.7,1.5-17.2,4.5c-4.4,3-6.7,7.2-6.7,12.601c0,3.3,0.8,6.3,2.3,8.699c1.601,2.5,3.7,4.601,6.4,6.4s7.899,4.7,15.6,8.5
		c10.9,5.4,18.5,10.7,22.9,15.8c4.399,5.101,6.5,10.9,6.5,17.2c0,9.5-3.4,16.8-10.3,21.9c-6.9,5.199-16.5,7.699-28.9,7.699
		c-3.8,0-8.7-0.6-14.8-1.899c-6-1.2-10.8-2.7-12.8-4.5L391,336.6L391,336.6z"/>
	<polygon fill="#ABB08C" points="550,356 491,356 491,245 547,245 547,256 503,256 503,294 544,294 544,305 503,305 503,345 
		550,345 	"/>
	<path fill="#ABB08C" d="M594,256v41h18.5c6.7,0,12.2-2,16.5-6c4.3-3.9,6.4-9.2,6.4-15.8c0-6-1.9-10.8-5.801-14.101
		c-3.899-3.3-9.5-5.1-16.899-5.1H594L594,256z M660.9,356H646.3l-18.6-31.4c-4-6.699-7.601-11.3-10.8-13.3
		c-3.301-2.1-7.101-3.3-11.4-3.3H594v48h-12V245h32.9c10.199,0,18.3,2.5,24.3,7.7s9.2,12.399,9.2,21.6c0,15.3-8.4,25.2-24.4,29.8
		v0.301c3,1.3,5.4,3.1,7.4,5.199c2,2.2,4.899,6.5,8.8,12.9L660.9,356z"/>
	<path fill="#ABB08C" d="M769.4,245L728.1,356H714.7l-40.4-111H687.9l31.3,88.5c1,2.7,1.7,5.5,2.2,9.5h0.399c0.3-3,1.2-6,2.5-9.6
		l32-88.4H769.4L769.4,245z"/>
	<polygon fill="#ABB08C" points="820,255 809,255 809,345 820,345 820,356 786,356 786,345 797,345 797,255 786,255 786,245 
		820,245 	"/>
	<path fill="#ABB08C" d="M925,351c-9,4.4-18.6,6.6-30.8,6.6c-15.601,0-28.2-5.1-37.8-15.399c-9.5-10.3-14.4-23.601-14.4-39.9
		c0-17.1,5.2-31.3,15.7-42.6s24.2-16.9,41-16.9c10.5,0,19.3,1.5,26.3,4.601V260.6c-8-4.399-17-6.6-26.6-6.6
		c-13.2,0-23.801,4.4-31.7,13.3c-7.9,8.9-11.8,20.3-11.8,34.3c0,13.2,3.699,24.101,11,32.4c7.399,8.4,17.399,12.6,29.8,12.6
		c11.2,0,20.3-2.5,29.3-7.5V351L925,351z"/>
	<polygon fill="#ABB08C" points="1017,356 958,356 958,245 1014,245 1014,256 971,256 971,294 1011,294 1011,305 971,305 971,345 
		1017,345 	"/>
</g>
<g>
	<path fill="#ABB08C" d="M390,337.8c3,2.8,7.5,5.2,13.3,7.101c5.9,1.899,11.2,2.8,16.2,2.8c16.2,0,24.2-5.9,24.2-17.601
		c0-3.3-0.9-6.199-2.5-8.8c-1.7-2.6-3.9-4.8-6.8-6.7c-2.801-1.899-8.5-5-16.801-9.3c-12-6.2-19.699-11.5-22.899-16.1
		c-3.2-4.601-4.8-9.8-4.8-15.601c0-8.899,3.6-16.1,10.9-21.399c7.3-5.4,16.5-8,27.5-8c11.101,0,18.7,1.3,23.7,3.899V262.2
		c-7-4.5-15-6.7-25.3-6.7c-7,0-12.8,1.5-17.3,4.5c-4.4,3-6.7,7.2-6.7,12.6c0,3.301,0.8,6.301,2.3,8.7c1.6,2.5,3.7,4.601,6.3,6.4
		c2.7,1.8,7.9,4.7,15.601,8.5C437.8,301.6,445.4,306.9,449.8,312c4.4,5.1,6.5,10.9,6.5,17.2c0,9.5-3.399,16.8-10.3,21.899
		c-6.9,5.2-16.5,7.7-28.9,7.7c-3.8,0-8.6-0.6-14.6-1.899c-6-1.2-10.6-2.7-12.6-4.5L390,337.8L390,337.8z"/>
	<polygon fill="#ABB08C" points="548,357 490,357 490,246 546,246 546,257 502,257 502,295 543,295 543,306 502,306 502,346 
		548,346 	"/>
	<path fill="#ABB08C" d="M593,257v41h18.3c6.7,0,12.2-1.9,16.5-5.8c4.3-3.9,6.4-9.2,6.4-15.7c0-6-1.9-10.8-5.8-14.2
		c-3.9-3.399-9.5-5.2-16.9-5.2L593,257L593,257z M659.6,357H645l-18.6-31.3c-4-6.7-7.601-11.3-10.801-13.4
		c-3.199-2.1-7.1-3.3-11.399-3.3H593v48h-12V246h32.6c10.2,0,18.301,2.6,24.301,7.8s8.899,12.4,8.899,21.7
		c0,15.3-7.8,25.3-24.8,29.9v0.3c3,1.3,5.8,3.1,7.7,5.2c2,2.199,5.1,6.399,9,12.8L659.6,357z"/>
	<path fill="#ABB08C" d="M768.1,246l-41.3,111H713.4L673,246h13.6l31.301,88.5c1,2.7,1.699,6.5,2.199,9.5h0.4c0.3-3,1.2-6,2.5-9.6
		l32-88.4H768.1L768.1,246z"/>
	<polygon fill="#ABB08C" points="818,257 807,257 807,346 818,346 818,357 784,357 784,346 795,346 795,257 784,257 784,246 
		818,246 	"/>
	<path fill="#ABB08C" d="M923,352.3c-8,4.4-18.2,6.601-30.4,6.601c-15.6,0-28.1-5.101-37.6-15.4s-14.3-23.6-14.3-39.9
		c0-17.1,5.3-31.3,15.7-42.6c10.5-11.3,23.899-16.9,40.6-16.9c10.5,0,18.9,1.5,25.9,4.601v13.2c-8-4.4-16.601-6.601-26.2-6.601
		c-13.2,0-23.601,4.4-31.5,13.3c-7.9,8.9-11.8,20.301-11.8,34.301c0,13.199,3.699,24.1,11.1,32.399c7.4,8.4,17.1,12.601,29.5,12.601
		c11.2,0,21-2.5,29-7.5V352.3L923,352.3z"/>
	<polygon fill="#ABB08C" points="1016,357 957,357 957,246 1013,246 1013,257 969,257 969,295 1010,295 1010,306 969,306 969,346 
		1016,346 	"/>
</g>
<g>
	<path fill="#ABB08C" d="M388,339c4,2.8,7.8,5.2,13.7,7.1C407.6,348,413.1,348.9,418.1,348.9c16.2,0,24.301-5.9,24.301-17.601
		c0-3.3-0.801-6.2-2.5-8.8c-1.7-2.6-3.9-4.8-6.801-6.7c-2.8-1.899-8.399-5-16.8-9.3c-12-6.2-19.7-11.5-22.9-16.1
		c-3.2-4.601-4.8-9.801-4.8-15.601c0-8.899,3.6-16.1,10.9-21.399c7.3-5.4,16.6-8,27.6-8c11.101,0,18.801,1.3,23.801,3.899V263.4
		c-7-4.5-15.101-6.7-25.4-6.7c-7,0-12.9,1.5-17.3,4.5c-4.4,3-6.7,7.2-6.7,12.6c0,3.3,0.7,6.3,2.3,8.7c1.601,2.5,3.7,4.6,6.3,6.4
		c2.7,1.8,7.9,4.699,15.601,8.5C436.6,302.8,444.2,308.1,448.6,313.2c4.4,5.1,6.5,10.899,6.5,17.2c0,9.5-3.399,16.8-10.3,21.899
		c-6.899,5.2-16.5,7.7-28.899,7.7c-3.801,0-8.9-0.6-15-1.9c-6-1.199-10-2.699-13-4.5L388,339L388,339L388,339z"/>
	<polygon fill="#ABB08C" points="547,358 489,358 489,247 545,247 545,258 501,258 501,296 541,296 541,307 501,307 501,347 
		547,347 	"/>
	<path fill="#ABB08C" d="M592,258v41h18c6.7,0,12.2-1.8,16.5-5.7c4.3-3.899,6.4-9.1,6.4-15.6c0-6-1.9-10.9-5.801-14.3
		c-3.899-3.4-9.5-5.301-16.899-5.301H592V258z M658.3,358h-14.6L625,326.9c-4-6.7-7.6-10.9-10.8-13c-3.3-2.101-7.101-2.9-11.4-2.9
		H592v47h-12V247h32.3c10.2,0,18.3,2.7,24.3,7.9c6,5.199,9,12.5,9,21.699c0,15.301-8.6,25.4-24.6,29.9v0.3c3,1.3,5.6,3.101,7.6,5.2
		c2,2.2,5,6.3,8.9,12.6L658.3,358z"/>
	<path fill="#ABB08C" d="M766.9,247L725.6,358H712.2l-40.4-111H685.4l31.3,89c1,2.7,1.7,6,2.2,10h0.399c0.3-3,1.2-6.5,2.5-10.1
		l32-88.9H766.9L766.9,247z"/>
	<polygon fill="#ABB08C" points="817,258 806,258 806,348 817,348 817,358 783,358 783,348 794,348 794,258 783,258 783,247 
		817,247 	"/>
	<path fill="#ABB08C" d="M922,353.5c-8,4.4-18.4,6.6-30.6,6.6c-15.601,0-28.101-5.1-37.7-15.399c-9.5-10.3-14.3-23.601-14.3-39.9
		c0-17.1,5.199-31.3,15.699-42.6s24-16.9,40.801-16.9c10.5,0,19.1,1.5,26.1,4.601V263.1c-8-4.399-16.8-6.6-26.4-6.6
		c-13.199,0-23.699,4.4-31.6,13.3c-7.9,8.9-11.8,20.3-11.8,34.3c0,13.2,3.7,24.101,11,32.4c7.399,8.4,17.2,12.6,29.6,12.6
		c11.2,0,21.101-2.5,29.101-7.5v11.9H922L922,353.5z"/>
	<polygon fill="#ABB08C" points="1014,358 956,358 956,247 1012,247 1012,258 968,258 968,296 1008,296 1008,307 968,307 968,347 
		1014,347 	"/>
</g>
<g>
	<path fill="#ABB08C" d="M387,340.3c3,2.8,7.7,5.2,13.5,7.101c5.9,1.899,11.3,2.8,16.3,2.8c16.2,0,24.3-5.9,24.3-17.601
		c0-3.3-0.8-6.199-2.5-8.8c-1.699-2.6-3.899-4.8-6.8-6.7c-2.8-1.899-8.399-5-16.8-9.3c-12-6.2-19.7-11.5-22.9-16.1
		c-3.2-4.601-4.8-9.8-4.8-15.601c0-8.899,3.6-16.1,10.9-21.399c7.3-5.4,16.3-8,27.3-8c11.1,0,19.5,1.3,23.5,3.899V264.7
		c-6-4.5-14.8-6.7-25.1-6.7c-7,0-12.7,1.5-17.2,4.5c-4.4,3-6.601,7.2-6.601,12.6c0,3.301,0.801,6.301,2.301,8.7
		c1.5,2.4,3.699,4.601,6.399,6.4s7.9,4.7,15.601,8.5c10.899,5.399,18.5,10.7,22.899,15.8c4.4,5.1,6.5,10.9,6.5,17.2
		c0,9.5-3.399,16.8-10.3,21.899c-6.9,5.2-16.5,7.7-28.9,7.7c-3.8,0-8.8-0.6-14.8-1.899c-6-1.2-9.8-2.7-12.8-4.5V340.3L387,340.3z"/>
	<polygon fill="#ABB08C" points="546,359 487,359 487,248 543,248 543,260 500,260 500,297 540,297 540,309 500,309 500,348 
		546,348 	"/>
	<path fill="#ABB08C" d="M591,260v41h17.7c6.7,0,12.2-2.2,16.5-6.1c4.3-3.9,6.399-9.301,6.399-15.801c0-6-1.899-10.6-5.8-14
		c-3.899-3.399-9.5-5-16.899-5H591V260z M657,359h-14.6L623.8,328c-4-6.7-7.6-10.9-10.8-13c-3.3-2.1-7.1-3-11.4-3H591v47h-13V248h33
		c10.2,0,18.3,2.8,24.3,8.1c6,5.2,9.101,12.601,9.101,21.801c0,15.3-8.5,25.399-24.5,30v0.3c3,1.3,5.5,3.1,7.5,5.2
		c2,2.199,4.899,6.199,8.899,12.5L657,359z"/>
	<path fill="#ABB08C" d="M765.6,248l-41.3,111H710.9l-40.4-111H684l31.3,89c1,2.7,1.7,6,2.2,10h0.4c0.3-3,1.199-6.5,2.5-10.1
		l32-88.9H765.6L765.6,248z"/>
	<polygon fill="#ABB08C" points="816,259 805,259 805,349 816,349 816,359 782,359 782,349 793,349 793,259 782,259 782,248 
		816,248 	"/>
	<path fill="#ABB08C" d="M921,354.8c-8,4.4-18.5,6.601-30.7,6.601c-15.6,0-28.2-5.101-37.7-15.4s-14.3-23.6-14.3-39.9
		c0-17.1,5.2-31.3,15.7-42.6s24.2-16.9,40.9-16.9c10.5,0,19.199,1.5,26.199,4.601v13.2c-8-4.4-16.899-6.601-26.5-6.601
		c-13.199,0-23.8,4.4-31.6,13.3c-8,8.9-12,20.301-12,34.2c0,13.2,3.7,24.101,11,32.4c7.4,8.399,17.3,12.6,29.7,12.6
		c11.2,0,21.2-2.5,29.2-7.5L921,354.8L921,354.8z"/>
	<polygon fill="#ABB08C" points="1013,359 955,359 955,248 1010,248 1010,260 967,260 967,297 1007,297 1007,309 967,309 967,348 
		1013,348 	"/>
</g>
<g>
	<path fill="#ABB08C" d="M386,341.5c3,2.8,7.5,5.2,13.4,7.1c5.899,1.9,11.199,2.801,16.199,2.801c16.2,0,24.2-5.9,24.2-17.601
		c0-3.3-0.8-6.2-2.5-8.8s-3.899-4.8-6.8-6.7c-2.8-1.899-8.5-5-16.8-9.3c-12-6.2-19.7-11.5-22.9-16.1
		c-3.2-4.601-4.8-9.801-4.8-15.601c0-8.899,3.6-16.1,10.9-21.399c7.3-5.4,16.399-8,27.399-8c11.101,0,18.601,1.3,23.601,3.899V265.9
		c-7-4.5-14.9-6.7-25.2-6.7c-7,0-12.8,1.5-17.2,4.5s-6.7,7.2-6.7,12.6c0,3.3,0.8,6.3,2.3,8.7s3.7,4.6,6.301,6.4
		c2.699,1.8,7.899,4.699,15.6,8.5c10.9,5.399,18.5,10.699,22.9,15.8c4.399,5.1,6.5,10.899,6.5,17.2c0,9.5-3.4,16.8-10.301,21.899
		c-6.899,5.2-16.5,7.7-28.899,7.7c-3.8,0-8.601-0.6-14.7-1.9c-6-1.199-10.7-2.8-12.7-4.5L386,341.5L386,341.5L386,341.5z"/>
	<polygon fill="#ABB08C" points="544,361 486,361 486,250 542,250 542,261 498,261 498,299 539,299 539,310 498,310 498,350 
		544,350 	"/>
	<path fill="#ABB08C" d="M589,261v41h18.4c6.699,0,12.199-2,16.5-6c4.3-3.9,6.399-9.2,6.399-15.8c0-6-1.899-10.7-5.8-14.101
		c-3.9-3.399-9.5-5.1-16.9-5.1H589z M655.7,361H641.1l-18.6-31.4c-4-6.699-7.6-11.199-10.8-13.3c-3.3-2.1-7.101-3.3-11.4-3.3H589v48
		h-12V250h32.8c10.2,0,18.3,2.4,24.3,7.7c6,5.2,9.301,12.399,9.301,21.6c0,15.3-8.4,25.2-24.4,29.8v0.301c3,1.3,5.3,3.1,7.3,5.199
		c2,2.2,4.8,6.5,8.8,12.9L655.7,361z"/>
	<path fill="#ABB08C" d="M764.3,250L723,361h-13.4L669.2,250h13.6l31.3,88.5c1,2.7,1.7,5.5,2.2,9.5h0.4c0.3-3,1.2-6,2.5-9.6l32-88.4
		H764.3L764.3,250z"/>
	<polygon fill="#ABB08C" points="815,260 804,260 804,350 815,350 815,361 780,361 780,350 791,350 791,260 780,260 780,250 
		815,250 	"/>
	<path fill="#ABB08C" d="M919,356c-8,4.4-18.1,6.6-30.4,6.6c-15.6,0-28-5.1-37.6-15.399c-9.5-10.3-14.2-23.601-14.2-39.9
		c0-17.1,5.3-31.3,15.7-42.6c10.5-11.3,23.8-16.9,40.6-16.9c10.5,0,19.9,1.5,25.9,4.601V265.6c-7-4.399-16.5-6.6-26.1-6.6
		c-13.2,0-23.601,4.4-31.5,13.3c-7.9,8.9-11.7,20.3-11.7,34.3c0,13.2,3.7,24.101,11.1,32.4c7.4,8.4,17,12.6,29.4,12.6
		c11.2,0,20.899-2.5,28.899-7.5L919,356L919,356z"/>
	<polygon fill="#ABB08C" points="1012,361 953,361 953,250 1009,250 1009,261 966,261 966,299 1006,299 1006,310 966,310 966,350 
		1012,350 	"/>
</g>
<g>
	<path fill="#ABB08C" d="M385,342.7c3,2.8,7.4,5.2,13.3,7.1c5.9,1.9,11.2,2.8,16.2,2.8c16.2,0,24.2-5.899,24.2-17.6
		c0-3.3-0.9-6.2-2.5-8.8c-1.601-2.601-3.9-4.8-6.8-6.7c-2.801-1.9-8.5-5-16.801-9.3c-12-6.2-19.7-11.5-22.899-16.101
		c-3.2-4.6-4.8-9.8-4.8-15.6c0-8.9,3.6-16.1,10.9-21.4c7.3-5.399,16.601-8,27.601-8c11.1,0,18.8,1.301,23.8,3.9v14.1
		c-7-4.5-15.101-6.699-25.3-6.699c-7,0-12.9,1.5-17.301,4.5c-4.399,3-6.699,7.199-6.699,12.6c0,3.3,0.8,6.3,2.3,8.7
		c1.6,2.5,3.7,4.6,6.3,6.399c2.6,1.801,7.9,4.7,15.6,8.5c10.9,5.4,18.5,10.7,22.9,15.801c4.4,5.1,6.5,10.899,6.5,17.199
		c0,9.5-3.4,16.801-10.3,21.9c-6.9,5.1-16.5,7.7-28.9,7.7c-3.8,0-8.5-0.601-14.6-1.9c-6-1.2-10.5-2.7-12.5-4.5L385,342.7L385,342.7z
		"/>
	<polygon fill="#ABB08C" points="543,362 485,362 485,251 541,251 541,262 497,262 497,300 537,300 537,311 497,311 497,351 
		543,351 	"/>
	<path fill="#ABB08C" d="M588,262v41h18.1c6.7,0,12.2-1.9,16.5-5.9C626.9,293.2,629,287.9,629,281.4c0-6-1.9-10.801-5.8-14.2
		c-3.9-3.4-9.5-5.2-16.9-5.2H588L588,262z M654.4,362H639.8l-18.6-31.3c-4-6.7-7.601-11.3-10.8-13.4c-3.301-2.1-7.101-3.3-11.4-3.3
		h-11v48h-12V251h32.5c10.2,0,18.3,2.6,24.3,7.8s8.9,12.4,8.9,21.7c0,15.3-7.7,25.3-24.7,29.9v0.3c3,1.3,5.7,3.1,7.7,5.2
		c2,2.1,5,6.399,9,12.8L654.4,362z"/>
	<path fill="#ABB08C" d="M763,251l-41.3,111h-13.4L667.9,251h13.6l31.3,88.5c1,2.7,1.7,6.5,2.2,9.5h0.4c0.3-3,1.199-6,2.5-9.6
		l32-88.4H763L763,251z"/>
	<polygon fill="#ABB08C" points="813,262 802,262 802,351 813,351 813,362 779,362 779,351 790,351 790,262 779,262 779,251 
		813,251 	"/>
	<path fill="#ABB08C" d="M918,357.2c-8,4.399-18.3,6.6-30.5,6.6c-15.6,0-28.1-5.1-37.6-15.399C840.4,338.1,835.6,324.8,835.6,308.5
		c0-17.1,5.301-31.3,15.7-42.6c10.5-11.301,24-16.9,40.7-16.9c10.5,0,19,1.5,26,4.6v13.2c-8-4.399-16.7-6.6-26.3-6.6
		c-13.2,0-23.7,4.399-31.5,13.3c-7.9,8.9-11.8,20.3-11.8,34.3c0,13.2,3.699,24.101,11.1,32.4c7.4,8.399,17.1,12.6,29.5,12.6
		c11.2,0,21-2.5,29-7.5V357.2L918,357.2z"/>
	<polygon fill="#ABB08C" points="1010,362 952,362 952,251 1008,251 1008,262 964,262 964,300 1005,300 1005,311 964,311 964,351 
		1010,351 	"/>
</g>
<g>
	<path fill="#ABB08C" d="M383,344c3,2.8,7.8,5.2,13.6,7.1c5.9,1.9,11.4,2.801,16.301,2.801c16.199,0,24.3-5.9,24.3-17.601
		c0-3.3-0.8-6.2-2.5-8.8s-3.9-4.8-6.8-6.7c-2.9-1.899-8.4-5-16.801-9.3c-12-6.2-19.7-11.5-22.899-16.1
		c-3.2-4.601-4.8-9.801-4.8-15.601c0-8.899,3.6-16.1,10.9-21.399c7.3-5.4,16.2-8,27.2-8c11.1,0,19.4,1.3,23.4,3.899V268.4
		c-6-4.5-14.7-6.7-25-6.7c-7,0-12.7,1.5-17.101,4.5c-4.399,3-6.6,7.2-6.6,12.6c0,3.3,0.8,6.3,2.399,8.7c1.601,2.5,3.7,4.6,6.4,6.4
		c2.7,1.8,7.9,4.699,15.6,8.5c10.9,5.399,18.5,10.699,22.9,15.8c4.4,5.1,6.5,10.899,6.5,17.2c0,9.5-3.4,16.8-10.3,21.899
		c-6.9,5.2-16.5,7.7-28.9,7.7c-3.8,0-8.899-0.6-14.9-1.9c-6-1.199-9.9-2.699-12.9-4.5V344L383,344z"/>
	<polygon fill="#ABB08C" points="542,363 484,363 484,252 539,252 539,263 496,263 496,301 536,301 536,312 496,312 496,352 
		542,352 	"/>
	<path fill="#ABB08C" d="M587,263v41h17.8c6.7,0,12.2-1.8,16.5-5.8c4.3-3.9,6.4-9.101,6.4-15.7c0-6-1.9-10.9-5.8-14.3
		c-3.9-3.4-9.5-5.3-16.9-5.3L587,263L587,263z M653.2,363H638.6L620,331.8c-4-6.7-7.6-10.899-10.8-12.899
		c-3.3-2.101-7.101-2.9-11.4-2.9H587v47h-13V252h33.2c10.2,0,18.3,2.7,24.3,7.9c6,5.199,9.1,12.5,9.1,21.699
		c0,15.301-8.6,25.301-24.6,29.9v0.3c3,1.3,5.6,3.101,7.5,5.2c2,2.2,4.9,6.3,8.9,12.7L653.2,363z"/>
	<path fill="#ABB08C" d="M761.7,252l-41.3,111H707l-40.4-111H680.2l31.3,89c1,2.7,1.7,6,2.2,10h0.399c0.301-3,1.2-6.5,2.5-10.1
		l32-88.9H761.7L761.7,252z"/>
	<polygon fill="#ABB08C" points="812,263 801,263 801,353 812,353 812,363 778,363 778,353 789,353 789,263 778,263 778,252 
		812,252 	"/>
	<path fill="#ABB08C" d="M917,358.5c-8,4.4-18.4,6.6-30.7,6.6c-15.6,0-28.2-5.1-37.7-15.399s-14.3-23.601-14.3-39.9
		c0-17.1,5.2-31.3,15.7-42.6s24.1-16.9,40.8-16.9c10.5,0,19.101,1.5,26.101,4.601V268c-8-4.4-16.801-6.6-26.4-6.6
		c-13.2,0-23.7,4.399-31.6,13.3C851,283.6,847.1,295,847.1,309c0,13.2,3.7,24.1,11,32.4c7.4,8.399,17.301,12.6,29.7,12.6
		c11.2,0,21.2-2.5,29.2-7.5V358.5L917,358.5z"/>
	<polygon fill="#ABB08C" points="1009,363 951,363 951,252 1007,252 1007,263 963,263 963,301 1003,301 1003,312 963,312 963,352 
		1009,352 	"/>
</g>
<g>
	<path fill="#ABB08C" d="M382,345.2c3,2.8,7.6,5.2,13.5,7.1c5.9,1.9,11.3,2.8,16.3,2.8c16.2,0,24.2-5.899,24.2-17.6
		c0-3.3-0.8-6.2-2.5-8.8c-1.7-2.601-3.9-4.8-6.8-6.7c-2.8-1.9-8.5-5-16.8-9.3c-12-6.2-19.7-11.5-22.9-16.101
		c-3.2-4.6-4.8-9.8-4.8-15.6c0-8.9,3.6-16.1,10.9-21.4c7.3-5.399,16.4-8,27.4-8c11.1,0,18.5,1.301,23.5,3.9v14.1
		c-6-4.5-14.8-6.699-25.1-6.699c-7,0-12.7,1.5-17.2,4.5c-4.4,3-6.7,7.199-6.7,12.6c0,3.3,0.8,6.3,2.3,8.7
		c1.601,2.5,3.7,4.6,6.4,6.399c2.7,1.801,7.899,4.7,15.6,8.5c10.9,5.4,18.5,10.7,22.9,15.801c4.399,5.1,6.5,10.899,6.5,17.199
		c0,9.5-3.4,16.801-10.3,21.9c-6.9,5.2-16.5,7.7-28.9,7.7c-3.8,0-8.7-0.601-14.8-1.9c-6-1.2-10.8-2.7-12.8-4.5L382,345.2L382,345.2z
		"/>
	<polygon fill="#ABB08C" points="541,364 482,364 482,253 538,253 538,265 494,265 494,302 535,302 535,314 494,314 494,353 
		541,353 	"/>
	<path fill="#ABB08C" d="M585,265v41h18.5c6.7,0,12.2-2.2,16.5-6.1c4.3-3.9,6.4-9.301,6.4-15.9c0-6-1.9-10.6-5.801-14
		c-3.899-3.4-9.5-5-16.899-5H585L585,265z M651.9,364H637.3l-18.6-31c-4-6.7-7.601-10.9-10.8-13c-3.301-2.1-7.101-3-11.4-3H585v47
		h-12V253h32.9c10.199,0,18.3,2.8,24.3,8s9.2,12.6,9.2,21.8c0,15.3-8.4,25.4-24.4,30v0.3c3,1.301,5.4,3.101,7.4,5.2
		c2,2.2,4.899,6.2,8.8,12.5L651.9,364z"/>
	<path fill="#ABB08C" d="M760.4,253L719.1,364H705.7l-40.4-111H678.9l31.3,89c1,2.7,1.7,6,2.2,10h0.399c0.3-3,1.2-6.5,2.5-10.1
		l32-88.9H760.4L760.4,253z"/>
	<polygon fill="#ABB08C" points="811,264 800,264 800,354 811,354 811,364 777,364 777,354 788,354 788,264 777,264 777,253 
		811,253 	"/>
	<path fill="#ABB08C" d="M916,359.7c-9,4.399-18.6,6.6-30.8,6.6c-15.601,0-28.2-5.1-37.8-15.399C837.9,340.6,833,327.3,833,311
		c0-17.1,5.2-31.3,15.7-42.6c10.5-11.301,24.2-16.9,41-16.9c10.5,0,19.3,1.5,26.3,4.6v13.2c-8-4.399-17-6.6-26.6-6.6
		c-13.2,0-23.801,4.399-31.7,13.3c-7.9,8.9-11.8,20.3-11.8,34.3c0,13.2,3.699,24.101,11,32.4c7.399,8.399,17.399,12.6,29.8,12.6
		c11.2,0,20.3-2.5,29.3-7.5V359.7L916,359.7z"/>
	<polygon fill="#ABB08C" points="1008,364 949,364 949,253 1005,253 1005,265 962,265 962,302 1002,302 1002,314 962,314 962,353 
		1008,353 	"/>
</g>
<g>
	<path fill="#ABB08C" d="M381,346.5c3,2.8,7.5,5.2,13.3,7.1c5.9,1.9,11.2,2.801,16.2,2.801c16.2,0,24.2-5.9,24.2-17.601
		c0-3.3-0.9-6.2-2.5-8.8c-1.7-2.6-3.9-4.8-6.8-6.7c-2.801-1.899-8.5-5-16.801-9.3c-12-6.2-19.7-11.5-22.899-16.1
		c-3.2-4.601-4.8-9.801-4.8-15.601c0-8.899,3.6-16.1,10.9-21.399c7.3-5.4,16.5-8,27.5-8c11.101,0,18.7,1.3,23.7,3.899V270.9
		c-7-4.5-15-6.7-25.3-6.7c-7,0-12.8,1.5-17.3,4.5c-4.4,3-6.7,7.2-6.7,12.6c0,3.3,0.8,6.3,2.3,8.7c1.6,2.5,3.7,4.6,6.3,6.4
		c2.7,1.8,7.9,4.699,15.601,8.5C428.8,310.3,436.4,315.6,440.8,320.7c4.4,5.1,6.5,10.899,6.5,17.2c0,9.5-3.399,16.8-10.3,21.899
		c-6.9,5.2-16.5,7.7-28.9,7.7c-3.8,0-8.6-0.6-14.6-1.9c-6-1.199-10.6-2.699-12.6-4.5L381,346.5L381,346.5z"/>
	<polygon fill="#ABB08C" points="539,366 481,366 481,255 537,255 537,266 493,266 493,304 534,304 534,315 493,315 493,354 
		539,354 	"/>
	<path fill="#ABB08C" d="M584,266v41h18.3c6.7,0,12.2-2.1,16.5-6s6.4-9.2,6.4-15.8c0-6-1.9-10.7-5.8-14.101
		c-3.9-3.399-9.5-5.1-16.9-5.1H584z M650.6,366H636l-18.6-31.4c-4-6.699-7.601-11.199-10.801-13.3c-3.3-2.1-7.1-3.3-11.399-3.3H584
		v48h-12V255h32.6c10.2,0,18.301,2.4,24.301,7.6c6,5.2,8.899,12.4,8.899,21.601c0,15.3-7.8,25.2-24.8,29.8v0.3
		c3,1.3,5.8,3.101,7.8,5.2c2,2.2,5.101,6.6,9,12.9L650.6,366z"/>
	<path fill="#ABB08C" d="M759.1,255l-41.3,111H704.4L664,255h13.6l31.301,88.5c1,2.7,1.699,5.5,2.199,9.5h0.4c0.3-3,1.2-6,2.5-9.6
		l32-88.4H759.1L759.1,255z"/>
	<polygon fill="#ABB08C" points="809,265 798,265 798,355 809,355 809,366 775,366 775,355 786,355 786,265 775,265 775,255 
		809,255 	"/>
	<path fill="#ABB08C" d="M914,361c-8,4.4-18.2,6.6-30.4,6.6c-15.6,0-28.1-5.1-37.6-15.399s-14.3-23.601-14.3-39.9
		c0-17.1,5.3-31.3,15.7-42.6c10.5-11.3,23.899-16.9,40.6-16.9c10.5,0,18.9,1.5,25.9,4.601V270.6c-8-4.399-16.601-6.6-26.2-6.6
		c-13.2,0-23.601,4.4-31.5,13.3c-7.9,8.9-11.8,20.3-11.8,34.3c0,13.2,3.699,24.101,11.1,32.4c7.4,8.4,17.1,12.6,29.5,12.6
		c11.2,0,21-2.5,29-7.5V361L914,361z"/>
	<polygon fill="#ABB08C" points="1007,366 948,366 948,255 1004,255 1004,266 960,266 960,304 1001,304 1001,315 960,315 960,354 
		1007,354 	"/>
</g>
<g>
	<path fill="#ABB08C" d="M379,347.7c4,2.8,7.8,5.2,13.7,7.1c5.899,1.9,11.399,2.8,16.399,2.8c16.2,0,24.301-5.899,24.301-17.6
		c0-3.3-0.801-6.2-2.5-8.8c-1.7-2.601-3.9-4.8-6.801-6.7c-2.8-1.9-8.399-5-16.8-9.3c-12-6.2-19.7-11.5-22.9-16.101
		c-3.2-4.6-4.8-9.8-4.8-15.6c0-8.9,3.6-16.1,10.9-21.4c7.3-5.399,16.6-8,27.6-8c11.101,0,18.801,1.301,23.801,3.9v14
		c-7-4.5-15.101-6.7-25.4-6.7c-7,0-12.9,1.5-17.3,4.5c-4.4,3-6.7,7.2-6.7,12.601c0,3.3,0.7,6.3,2.3,8.699
		c1.601,2.5,3.7,4.601,6.3,6.4c2.7,1.8,7.9,4.7,15.601,8.5c10.899,5.4,18.5,10.7,22.899,15.8c4.4,5.101,6.5,10.9,6.5,17.2
		c0,9.5-3.399,16.8-10.3,21.9C428.9,366.1,419.3,368.6,406.9,368.6c-3.801,0-8.9-0.6-15-1.899c-6-1.2-10-2.7-13-4.5L379,347.7
		L379,347.7z"/>
	<polygon fill="#ABB08C" points="538,367 480,367 480,256 536,256 536,267 492,267 492,305 532,305 532,316 492,316 492,356 
		538,356 	"/>
	<path fill="#ABB08C" d="M583,267v41h18c6.7,0,12.2-2,16.5-5.9c4.3-3.899,6.4-9.199,6.4-15.699c0-6-1.9-10.801-5.801-14.2
		c-3.899-3.4-9.5-5.2-16.899-5.2H583L583,267z M649.3,367h-14.6L616,335.7c-4-6.7-7.6-11.3-10.8-13.4c-3.3-2.1-7.101-3.3-11.4-3.3
		H583v48h-12V256h32.3c10.2,0,18.3,2.5,24.3,7.8c6,5.2,9,12.4,9,21.7c0,15.3-8.6,25.3-24.6,29.9v0.3c3,1.3,5.6,3.1,7.6,5.2
		c2,2.199,5,6.399,8.9,12.8L649.3,367z"/>
	<path fill="#ABB08C" d="M757.9,256L716.6,367H703.2l-40.4-111H676.4l31.3,88.5c1,2.7,1.7,6.5,2.2,9.5h0.399c0.3-3,1.2-6,2.5-9.6
		l32-88.4H757.9L757.9,256z"/>
	<polygon fill="#ABB08C" points="808,267 797,267 797,356 808,356 808,367 774,367 774,356 785,356 785,267 774,267 774,256 
		808,256 	"/>
	<path fill="#ABB08C" d="M913,362.2c-8,4.399-18.4,6.6-30.6,6.6c-15.601,0-28.101-5.1-37.7-15.399
		c-9.5-10.301-14.3-23.601-14.3-39.9c0-17.1,5.199-31.3,15.699-42.6c10.5-11.301,24-16.9,40.801-16.9c10.5,0,19.1,1.5,26.1,4.6v13.2
		c-8-4.399-16.7-6.6-26.4-6.6c-13.199,0-23.699,4.399-31.6,13.3s-11.8,20.3-11.8,34.3c0,13.2,3.7,24.101,11,32.4
		c7.399,8.399,17.2,12.6,29.6,12.6c11.2,0,21.101-2.5,29.101-7.5L913,362.2L913,362.2z"/>
	<polygon fill="#ABB08C" points="1005,367 947,367 947,256 1003,256 1003,267 959,267 959,305 999,305 999,316 959,316 959,356 
		1005,356 	"/>
</g>
<g>
	<path fill="#ABB08C" d="M378,348.9c3,2.8,7.7,5.199,13.5,7.1c5.9,1.9,11.3,2.8,16.3,2.8c16.2,0,24.3-5.899,24.3-17.6
		c0-3.3-0.8-6.2-2.5-8.8c-1.699-2.601-3.899-4.801-6.8-6.7c-2.8-1.9-8.399-5-16.8-9.3c-12-6.2-19.7-11.5-22.9-16.101
		c-3.2-4.6-4.8-9.8-4.8-15.6c0-8.9,3.6-16.101,10.9-21.4c7.3-5.399,16.3-8,27.3-8c11.1,0,19.5,1.3,23.5,3.9v14.1
		c-6-4.5-14.8-6.7-25.1-6.7c-7,0-12.7,1.5-17.2,4.5c-4.4,3-6.6,7.2-6.6,12.601c0,3.3,0.8,6.3,2.3,8.7c1.6,2.5,3.7,4.6,6.4,6.399
		s7.9,4.7,15.601,8.5c10.899,5.4,18.5,10.7,22.899,15.8c4.4,5.101,6.5,10.9,6.5,17.2c0,9.5-3.399,16.8-10.3,21.9
		c-6.9,5.2-16.5,7.7-28.9,7.7c-3.8,0-8.8-0.601-14.8-1.9c-6-1.2-9.8-2.7-12.8-4.5V348.9L378,348.9z"/>
	<polygon fill="#ABB08C" points="537,368 478,368 478,257 534,257 534,268 491,268 491,306 531,306 531,317 491,317 491,357 
		537,357 	"/>
	<path fill="#ABB08C" d="M582,268v41h17.7c6.7,0,12.2-1.8,16.5-5.8c4.3-3.9,6.399-9.101,6.399-15.7c0-6-1.899-10.9-5.8-14.3
		c-3.899-3.4-9.5-5.3-16.899-5.3L582,268L582,268z M648,368h-14.6L614.8,336.8c-4-6.7-7.6-10.8-10.8-12.899
		c-3.3-2.101-7.1-2.9-11.4-2.9H582v47h-13V257h33c10.2,0,18.3,2.7,24.3,7.9c6,5.199,9.101,12.5,9.101,21.699
		c0,15.301-8.5,25.301-24.5,29.9v0.3c3,1.3,5.5,3.101,7.5,5.2c2,2.2,4.899,6.3,8.899,12.7L648,368z"/>
	<path fill="#ABB08C" d="M756.6,257l-41.3,111H701.9l-40.4-111H675l31.3,89c1,2.7,1.7,6,2.2,10h0.4c0.3-3,1.199-6.5,2.5-10.1
		l32-88.9H756.6L756.6,257z"/>
	<polygon fill="#ABB08C" points="807,268 796,268 796,357 807,357 807,368 773,368 773,357 784,357 784,268 773,268 773,257 
		807,257 	"/>
	<path fill="#ABB08C" d="M912,363.4c-8,4.399-18.5,6.6-30.7,6.6c-15.6,0-28.2-5.1-37.7-15.4c-9.5-10.3-14.3-23.6-14.3-39.899
		c0-17.101,5.2-31.3,15.7-42.601c10.5-11.3,24.2-16.899,40.9-16.899c10.5,0,19.199,1.5,26.199,4.6V273c-8-4.4-16.899-6.6-26.5-6.6
		c-13.199,0-23.8,4.399-31.6,13.3c-8,8.899-12,20.399-12,34.3c0,13.2,3.7,24.1,11,32.4c7.4,8.399,17.3,12.6,29.7,12.6
		c11.2,0,21.2-2.5,29.2-7.5L912,363.4L912,363.4z"/>
	<polygon fill="#ABB08C" points="1004,368 946,368 946,257 1001,257 1001,268 958,268 958,306 998,306 998,317 958,317 958,357 
		1004,357 	"/>
</g>
<g>
	<path fill="#ABB08C" d="M377,350.2c3,2.8,7.5,5.2,13.4,7.1c5.9,1.9,11.3,2.8,16.2,2.8c16.2,0,24.2-5.899,24.2-17.6
		c0-3.3-0.8-6.2-2.5-8.8c-1.7-2.601-3.899-4.8-6.8-6.7c-2.8-1.9-8.5-5-16.8-9.3c-12-6.2-19.7-11.5-22.9-16.101
		c-3.2-4.6-4.8-9.8-4.8-15.6c0-8.9,3.6-16.1,10.9-21.4c7.3-5.399,16.4-8,27.4-8c11.101,0,18.601,1.301,23.601,3.9v14.1
		c-7-4.5-14.9-6.699-25.2-6.699c-7,0-12.8,1.5-17.2,4.5c-4.4,3-6.7,7.199-6.7,12.6c0,3.3,0.8,6.3,2.3,8.7c1.6,2.5,3.7,4.6,6.3,6.399
		c2.699,1.801,7.899,4.7,15.6,8.5c10.9,5.4,18.5,10.7,22.9,15.801c4.399,5.1,6.5,10.899,6.5,17.199c0,9.5-3.4,16.801-10.301,21.9
		c-6.899,5.2-16.5,7.7-28.899,7.7c-3.8,0-8.6-0.601-14.7-1.9c-6-1.2-10.7-2.7-12.7-4.5v-14.6H377z"/>
	<polygon fill="#ABB08C" points="535,369 477,369 477,258 533,258 533,269 489,269 489,307 530,307 530,318 489,318 489,358 
		535,358 	"/>
	<path fill="#ABB08C" d="M580,270v41h18.4c6.699,0,12.199-2.2,16.5-6.2c4.3-3.899,6.399-9.3,6.399-15.899c0-6-1.899-10.601-5.8-14
		c-3.9-3.4-9.5-5-16.9-5H580V270z M646.7,369H632.1l-18.6-31.1c-4-6.7-7.6-10.9-10.8-13c-3.3-2.101-7.101-2.9-11.4-2.9H580v47h-12
		V258h32.8c10.2,0,18.3,2.8,24.3,8s9.301,12.5,9.301,21.8c0,15.3-8.4,25.4-24.4,30v0.3c3,1.301,5.3,3.101,7.3,5.2
		c2,2.101,4.8,6.2,8.8,12.601L646.7,369z"/>
	<path fill="#ABB08C" d="M755.3,258L714,369h-13.4L660.2,258h13.6l31.3,89c1,2.7,1.7,6,2.2,10h0.4c0.3-3,1.2-6.5,2.5-10.1l32-88.9
		H755.3L755.3,258z"/>
	<polygon fill="#ABB08C" points="806,269 795,269 795,359 806,359 806,369 771,369 771,359 782,359 782,269 771,269 771,258 
		806,258 	"/>
	<path fill="#ABB08C" d="M910,364.7c-8,4.399-18.1,6.6-30.4,6.6c-15.6,0-28-5.1-37.6-15.399c-9.5-10.301-14.2-23.601-14.2-39.9
		c0-17.1,5.3-31.3,15.7-42.6c10.5-11.301,23.8-16.9,40.6-16.9c10.5,0,19.9,1.5,25.9,4.6v13.2c-7-4.399-16.5-6.6-26.1-6.6
		c-13.2,0-23.601,4.399-31.5,13.3c-7.9,8.9-11.7,20.3-11.7,34.3c0,13.2,3.7,24.101,11.1,32.4c7.4,8.399,17,12.6,29.4,12.6
		c11.2,0,20.899-2.5,28.899-7.5v11.9H910L910,364.7z"/>
	<polygon fill="#ABB08C" points="1003,369 944,369 944,258 1000,258 1000,269 957,269 957,307 997,307 997,318 957,318 957,358 
		1003,358 	"/>
</g>
<g>
	<path fill="#ABB08C" d="M376,351.4c3,2.8,7.4,5.199,13.3,7.1c5.9,1.9,11.2,2.8,16.2,2.8c16.2,0,24.2-5.899,24.2-17.6
		c0-3.3-0.9-6.2-2.5-8.8c-1.7-2.601-3.9-4.801-6.8-6.7c-2.801-1.9-8.5-5-16.801-9.3c-12-6.2-19.7-11.5-22.899-16.101
		c-3.2-4.6-4.8-9.8-4.8-15.6c0-8.9,3.6-16.101,10.9-21.4c7.3-5.399,16.601-8,27.601-8c11.1,0,18.8,1.3,23.8,3.9v14.1
		c-7-4.5-15.101-6.7-25.3-6.7c-7,0-12.9,1.5-17.3,4.5s-6.7,7.2-6.7,12.601c0,3.3,0.8,6.3,2.3,8.7c1.6,2.5,3.7,4.6,6.3,6.399
		c2.7,1.8,7.9,4.7,15.6,8.5c10.9,5.4,18.5,10.7,22.9,15.8c4.4,5.101,6.5,10.9,6.5,17.2c0,9.5-3.4,16.8-10.3,21.9
		c-6.9,5.2-16.5,7.7-28.9,7.7c-3.8,0-8.5-0.601-14.6-1.9c-6-1.2-10.5-2.7-12.5-4.5L376,351.4L376,351.4z"/>
	<polygon fill="#ABB08C" points="534,371 476,371 476,260 532,260 532,271 488,271 488,309 528,309 528,320 488,320 488,359 
		534,359 	"/>
	<path fill="#ABB08C" d="M579,271v41h18.1c6.7,0,12.2-2.1,16.5-6c4.301-3.9,6.4-9.3,6.4-15.8c0-6-1.9-10.7-5.8-14.101
		c-3.9-3.399-9.5-5.1-16.9-5.1H579L579,271z M645.4,371H630.8l-18.6-31.5c-4-6.7-7.601-11.2-10.8-13.3
		c-3.2-2.101-7.101-3.3-11.4-3.3h-11v48h-12V260h32.5c10.2,0,18.3,2.4,24.3,7.6c6,5.2,8.9,12.4,8.9,21.601
		c0,15.3-7.7,25.2-24.7,29.8v0.3c3,1.3,5.7,3.101,7.7,5.2s5,6.6,9,12.9L645.4,371z"/>
	<path fill="#ABB08C" d="M754,260l-41.3,111h-13.4L658.9,260h13.6l31.3,88.5c1,2.7,1.7,5.5,2.2,9.5h0.4c0.3-3,1.199-6,2.5-9.6
		l32-88.4H754L754,260z"/>
	<polygon fill="#ABB08C" points="804,270 793,270 793,360 804,360 804,371 770,371 770,360 781,360 781,270 770,270 770,260 
		804,260 	"/>
	<path fill="#ABB08C" d="M909,365.9c-8,4.399-18.3,6.6-30.5,6.6c-15.6,0-28.1-5.1-37.6-15.4c-9.5-10.3-14.301-23.6-14.301-39.899
		c0-17.101,5.2-31.3,15.7-42.601c10.5-11.3,24-16.899,40.7-16.899c10.5,0,19,1.5,26,4.6v13.2c-8-4.4-16.7-6.6-26.3-6.6
		c-13.2,0-23.7,4.399-31.5,13.3c-7.9,8.899-11.8,20.3-11.8,34.3c0,13.2,3.699,24.1,11.1,32.4c7.4,8.399,17.1,12.6,29.5,12.6
		c11.2,0,21-2.5,29-7.5V365.9L909,365.9z"/>
	<polygon fill="#ABB08C" points="1001,371 943,371 943,260 999,260 999,271 955,271 955,309 996,309 996,320 955,320 955,359 
		1001,359 	"/>
</g>
<g>
	<path fill="#ABB08C" d="M374,352.7c3,2.8,7.8,5.2,13.6,7.1c5.9,1.9,11.4,2.8,16.3,2.8c16.199,0,24.3-5.899,24.3-17.6
		c0-3.3-0.8-6.2-2.5-8.8c-1.7-2.601-3.9-4.8-6.8-6.7c-2.9-1.9-8.4-5-16.801-9.3c-12-6.2-19.7-11.5-22.899-16.101
		c-3.2-4.6-4.8-9.8-4.8-15.6c0-8.9,3.6-16.1,10.9-21.4c7.3-5.3,16.2-8,27.2-8c11.1,0,19.4,1.301,23.4,3.9v14c-6-4.5-14.7-6.7-25-6.7
		c-7,0-12.7,1.5-17.101,4.5c-4.4,3-6.6,7.2-6.6,12.601c0,3.3,0.8,6.3,2.4,8.699c1.6,2.5,3.7,4.601,6.4,6.4s7.9,4.7,15.6,8.5
		c10.9,5.4,18.5,10.7,22.9,15.8c4.4,5.101,6.5,10.9,6.5,17.2c0,9.5-3.4,16.8-10.3,21.9c-6.9,5.199-16.5,7.699-28.9,7.699
		c-3.8,0-8.9-0.6-14.9-1.899c-6-1.2-9.9-2.7-12.9-4.5V352.7L374,352.7L374,352.7z"/>
	<polygon fill="#ABB08C" points="533,372 475,372 475,261 530,261 530,272 487,272 487,310 527,310 527,321 487,321 487,361 
		533,361 	"/>
	<path fill="#ABB08C" d="M578,272v41h17.8c6.7,0,12.2-2,16.5-5.9c4.3-3.899,6.4-9.199,6.4-15.699c0-6-1.9-10.801-5.8-14.2
		c-3.9-3.4-9.5-5.101-16.9-5.101L578,272L578,272z M644.2,372H629.6L611,340.7c-4-6.7-7.6-11.3-10.8-13.4
		c-3.3-2.1-7.101-3.3-11.4-3.3H578v48h-13V261h33.2c10.2,0,18.3,2.5,24.3,7.7s9.1,12.399,9.1,21.6c0,15.3-8.6,25.3-24.6,29.9v0.3
		c3,1.3,5.6,3.1,7.5,5.2c2,2.2,4.9,6.5,8.9,12.8L644.2,372z"/>
	<path fill="#ABB08C" d="M752.7,261l-41.3,111H698l-40.4-111H671.2l31.3,88.5c1,2.7,1.7,6.5,2.2,9.5h0.399c0.301-3,1.2-6,2.5-9.6
		l32-88.4H752.7L752.7,261z"/>
	<polygon fill="#ABB08C" points="803,271 792,271 792,361 803,361 803,372 769,372 769,361 780,361 780,271 769,271 769,261 
		803,261 	"/>
	<path fill="#ABB08C" d="M908,367.1c-8,4.4-18.4,6.601-30.7,6.601c-15.6,0-28.2-5.101-37.7-15.4s-14.3-23.6-14.3-39.899
		c0-17.101,5.2-31.301,15.7-42.601s24.1-16.899,40.8-16.899c10.5,0,19.101,1.5,26.101,4.6v13.2c-8-4.4-16.801-6.601-26.4-6.601
		c-13.2,0-23.7,4.4-31.6,13.301C842,292.3,838.1,303.7,838.1,317.7c0,13.2,3.7,24.1,11,32.399c7.4,8.4,17.301,12.601,29.7,12.601
		c11.2,0,21.2-2.5,29.2-7.5V367.1z"/>
	<polygon fill="#ABB08C" points="1000,372 942,372 942,261 998,261 998,272 954,272 954,310 994,310 994,321 954,321 954,361 
		1000,361 	"/>
</g>
<g>
	<path fill="#ABB08C" d="M373,353.9c3,2.8,7.6,5.199,13.5,7.1s11.3,2.8,16.3,2.8c16.2,0,24.2-5.899,24.2-17.6c0-3.3-0.8-6.2-2.5-8.8
		c-1.7-2.601-3.9-4.801-6.8-6.7c-2.8-1.9-8.5-5-16.8-9.3c-12-6.2-19.7-11.5-22.9-16.101c-3.2-4.6-4.8-9.8-4.8-15.6
		c0-8.9,3.6-16.101,10.9-21.4c7.3-5.399,16.4-8,27.3-8c11.1,0,18.5,1.3,23.5,3.9v14.1c-6-4.5-14.801-6.7-25.101-6.7
		c-7,0-12.7,1.5-17.2,4.5c-4.4,3-6.7,7.2-6.7,12.601c0,3.3,0.8,6.3,2.3,8.7c1.6,2.5,3.7,4.6,6.4,6.399c2.7,1.8,7.9,4.7,15.6,8.5
		c10.899,5.4,18.5,10.7,22.899,15.8c4.4,5.101,6.5,10.9,6.5,17.2c0,9.5-3.399,16.8-10.3,21.9c-6.899,5.2-16.5,7.7-28.899,7.7
		c-3.801,0-8.7-0.601-14.8-1.9c-6-1.2-10.8-2.7-12.8-4.5L373,353.9L373,353.9L373,353.9z"/>
	<polygon fill="#ABB08C" points="532,373 473,373 473,262 529,262 529,273 485,273 485,311 526,311 526,322 485,322 485,362 
		532,362 	"/>
	<path fill="#ABB08C" d="M576,273v41h18.5c6.7,0,12.2-1.9,16.5-5.8c4.3-3.9,6.4-9.101,6.4-15.7c0-6-1.9-10.9-5.801-14.3
		c-3.899-3.4-9.5-5.2-16.899-5.2H576L576,273z M642.9,373H628.3l-18.6-31.2c-4-6.7-7.601-10.8-10.8-12.899
		c-3.301-2.101-7.101-2.9-11.4-2.9H576v47h-12V262h32.9c10.199,0,18.3,2.6,24.3,7.9c6,5.199,9.2,12.5,9.2,21.699
		c0,15.301-8.4,25.301-24.4,29.9v0.3c3,1.3,5.4,3.101,7.4,5.2c2,2.2,4.899,6.4,8.8,12.7L642.9,373z"/>
	<path fill="#ABB08C" d="M751.4,262L710.1,373H696.7l-40.4-111H669.9l31.3,89c1,2.7,1.7,6,2.2,10h0.399c0.3-3,1.2-6.5,2.5-10.1
		l32-88.9H751.4L751.4,262z"/>
	<polygon fill="#ABB08C" points="802,273 791,273 791,362 802,362 802,373 768,373 768,362 779,362 779,273 768,273 768,262 
		802,262 	"/>
	<path fill="#ABB08C" d="M907,368.4c-9,4.399-18.6,6.6-30.8,6.6c-15.601,0-28.2-5.1-37.8-15.4C828.9,349.3,824,336,824,319.7
		c0-17.101,5.2-31.3,15.7-42.601c10.5-11.3,24.2-16.899,41-16.899c10.5,0,19.3,1.5,26.3,4.6V278c-8-4.4-17-6.6-26.6-6.6
		c-13.2,0-23.801,4.399-31.7,13.3c-7.9,8.899-11.8,20.3-11.8,34.3c0,13.2,3.699,24.1,11,32.4C855.3,359.8,865.3,364,877.7,364
		c11.2,0,20.3-2.5,29.3-7.5V368.4L907,368.4z"/>
	<polygon fill="#ABB08C" points="999,373 940,373 940,262 996,262 996,273 953,273 953,311 993,311 993,322 953,322 953,362 
		999,362 	"/>
</g>
<g>
	<path fill="#ABB08C" d="M372,355.1c3,2.801,7.5,5.2,13.3,7.101c5.9,1.899,11.2,2.8,16.2,2.8c16.2,0,24.2-5.9,24.2-17.6
		c0-3.301-0.9-6.2-2.5-8.801c-1.7-2.6-3.9-4.8-6.8-6.699c-2.801-1.9-8.5-5-16.801-9.301c-12-6.199-19.7-11.5-22.899-16.1
		c-3.2-4.6-4.8-9.8-4.8-15.6c0-8.9,3.6-16.101,10.9-21.4c7.3-5.4,16.5-8,27.5-8c11.101,0,18.7,1.3,23.7,3.9v14.1
		c-7-4.5-15-6.7-25.3-6.7c-7,0-12.8,1.5-17.3,4.5c-4.4,3-6.7,7.2-6.7,12.601c0,3.3,0.8,6.3,2.3,8.699c1.6,2.5,3.7,4.601,6.3,6.4
		c2.7,1.8,7.9,4.7,15.601,8.5c10.899,5.4,18.5,10.7,22.899,15.8c4.4,5.101,6.5,10.9,6.5,17.2c0,9.5-3.399,16.8-10.3,21.9
		c-6.9,5.199-16.5,7.699-28.9,7.699c-3.8,0-8.6-0.6-14.6-1.899c-6-1.2-10.6-2.7-12.6-4.5L372,355.1L372,355.1z"/>
	<polygon fill="#ABB08C" points="530,374 472,374 472,263 528,263 528,274 484,274 484,312 525,312 525,323 484,323 484,363 
		530,363 	"/>
	<path fill="#ABB08C" d="M575,275v40h18.3c6.7,0,12.2-1.7,16.5-5.7c4.3-3.899,6.4-9.1,6.4-15.6c0-6-1.9-10.5-5.8-13.9
		c-3.9-3.399-9.5-4.8-16.9-4.8H575L575,275z M641.6,374H627l-18.6-31.1c-4-6.7-7.601-10.9-10.801-13c-3.3-2.101-7.1-2.9-11.399-2.9
		H575v47h-12V263h32.6c10.2,0,18.301,2.7,24.301,8c6,5.2,8.899,12.5,8.899,21.8c0,15.3-7.8,25.4-24.8,30v0.3
		c3,1.301,5.8,3.101,7.8,5.2c2,2.101,5.101,6.2,9,12.601L641.6,374z"/>
	<path fill="#ABB08C" d="M750.1,263l-41.3,111H695.4L655,263h13.6l31.301,89c1,2.7,1.699,6,2.199,10h0.4c0.3-3,1.2-6.5,2.5-10.1
		l32-88.9H750.1L750.1,263z"/>
	<polygon fill="#ABB08C" points="800,274 789,274 789,364 800,364 800,374 766,374 766,364 777,364 777,274 766,274 766,263 
		800,263 	"/>
	<path fill="#ABB08C" d="M905,369.6c-8,4.4-18.2,6.601-30.4,6.601c-15.6,0-28.1-5.101-37.6-15.4s-14.3-23.6-14.3-39.899
		c0-17.101,5.3-31.301,15.7-42.601C848.9,267,862.3,261.4,879,261.4c10.5,0,18.9,1.5,25.9,4.6v13.2c-8-4.4-16.601-6.601-26.2-6.601
		c-13.2,0-23.601,4.4-31.5,13.301c-7.9,8.899-11.8,20.3-11.8,34.3c0,13.2,3.699,24.1,11.1,32.399c7.4,8.4,17.1,12.601,29.5,12.601
		c11.2,0,21-2.5,29-7.5V369.6L905,369.6z"/>
	<polygon fill="#ABB08C" points="998,374 939,374 939,263 995,263 995,274 951,274 951,312 992,312 992,323 951,323 951,363 
		998,363 	"/>
</g>
<g>
	<path fill="#ABB08C" d="M370,356.4c4,2.8,7.8,5.199,13.7,7.1c5.9,1.9,11.4,2.8,16.399,2.8c16.2,0,24.301-5.899,24.301-17.6
		c0-3.3-0.801-6.2-2.5-8.8c-1.7-2.601-3.9-4.801-6.801-6.7c-2.8-1.9-8.399-5-16.8-9.3c-12-6.2-19.7-11.5-22.9-16.101
		c-3.2-4.6-4.8-9.8-4.8-15.6c0-8.9,3.6-16.101,10.9-21.4c7.3-5.399,16.6-8,27.6-8c11.101,0,18.801,1.3,23.801,3.9v14.1
		c-7-4.5-15.101-6.7-25.4-6.7c-7,0-12.9,1.5-17.3,4.5c-4.4,3-6.7,7.2-6.7,12.601c0,3.3,0.7,6.3,2.3,8.7c1.6,2.5,3.7,4.6,6.3,6.399
		c2.7,1.8,7.9,4.7,15.6,8.5c10.899,5.4,18.5,10.7,22.899,15.8c4.4,5.101,6.5,10.9,6.5,17.2c0,9.5-3.399,16.8-10.3,21.9
		c-6.899,5.2-16.5,7.7-28.899,7.7c-3.8,0-8.9-0.601-15-1.9c-6-1.2-10-2.7-13-4.5L370,356.4L370,356.4L370,356.4z"/>
	<polygon fill="#ABB08C" points="529,376 471,376 471,264 527,264 527,276 483,276 483,313 523,313 523,325 483,325 483,364 
		529,364 	"/>
	<path fill="#ABB08C" d="M574,276v41h18c6.7,0,12.2-2.1,16.5-6.1c4.3-3.9,6.4-9.301,6.4-15.801c0-6-1.9-10.699-5.801-14.1
		c-3.899-3.4-9.5-5-16.899-5H574L574,276z M640.3,376h-14.6L607,344.5c-4-6.7-7.6-11.2-10.8-13.3c-3.3-2.101-7.101-3.2-11.4-3.2H574
		v48h-12V264h32.3c10.2,0,18.3,2.9,24.3,8.1c6,5.2,9,12.601,9,21.801c0,15.3-8.6,25.399-24.6,30v0.3c3,1.3,5.6,3.1,7.6,5.2
		c2,2.199,5,6.6,8.9,13L640.3,376z"/>
	<path fill="#ABB08C" d="M748.9,264L707.6,376H694.2l-40.4-112H667.4l31.3,89c1,2.7,1.7,6,2.2,10h0.399c0.3-3,1.2-6.5,2.5-10.1
		l32-88.9H748.9L748.9,264z"/>
	<polygon fill="#ABB08C" points="799,275 788,275 788,365 799,365 799,376 765,376 765,365 776,365 776,275 765,275 765,264 
		799,264 	"/>
	<path fill="#ABB08C" d="M904,370.9c-8,4.399-18.3,6.6-30.6,6.6c-15.601,0-28.101-5.1-37.7-15.4c-9.5-10.3-14.3-23.6-14.3-39.899
		c0-17.101,5.199-31.3,15.699-42.601c10.5-11.3,24-16.899,40.801-16.899c10.5,0,19.1,1.5,26.1,4.6v13.2c-8-4.4-16.7-6.6-26.4-6.6
		c-13.199,0-23.699,4.399-31.6,13.3c-7.9,8.899-11.8,20.3-11.8,34.3c0,13.2,3.7,24.1,11,32.4c7.399,8.399,17.2,12.6,29.6,12.6
		c11.2,0,21.101-2.5,29.101-7.5v11.9H904L904,370.9z"/>
	<polygon fill="#ABB08C" points="996,376 938,376 938,264 994,264 994,276 950,276 950,313 990,313 990,325 950,325 950,364 
		996,364 	"/>
</g>
<g>
	<path fill="#ABB08C" d="M369,357.6c3,2.801,7.7,5.2,13.5,7.101c5.9,1.899,11.3,2.8,16.3,2.8c16.2,0,24.3-5.9,24.3-17.6
		c0-3.301-0.8-6.2-2.5-8.801c-1.699-2.6-3.899-4.8-6.8-6.699c-2.8-1.9-8.399-5-16.8-9.301c-12-6.199-19.7-11.5-22.9-16.1
		c-3.2-4.6-4.8-9.8-4.8-15.6c0-8.9,3.6-16.101,10.9-21.4c7.3-5.4,16.3-8,27.3-8c11.1,0,19.5,1.3,23.5,3.9V282
		c-6-4.5-14.8-6.7-25.1-6.7c-7,0-12.7,1.5-17.2,4.5c-4.4,3-6.6,7.2-6.6,12.601c0,3.3,0.8,6.3,2.3,8.699c1.6,2.5,3.7,4.601,6.4,6.4
		c2.7,1.8,7.9,4.7,15.601,8.5c10.899,5.4,18.5,10.7,22.899,15.8c4.4,5.101,6.5,10.9,6.5,17.2c0,9.5-3.399,16.8-10.3,21.9
		c-6.9,5.199-16.5,7.699-28.9,7.699c-3.8,0-8.8-0.6-14.8-1.899c-6-1.2-9.8-2.7-12.8-4.5V357.6L369,357.6z"/>
	<path fill="#ABB08C" d="M528,377h-59V266h56v11h-43v38h40v11h-40v40h46V377z"/>
	<path fill="#ABB08C" d="M573,277v41h17.7c6.7,0,12.2-2,16.5-5.9c4.3-3.899,6.399-9.199,6.399-15.8c0-6-1.899-10.8-5.8-14.2
		c-3.899-3.399-9.5-5.1-16.899-5.1H573L573,277z M639,377h-14.6L605.8,345.6c-4-6.699-7.6-11.3-10.8-13.3c-3.3-2.1-7.1-3.3-11.4-3.3
		H573v48h-13V266h33c10.2,0,18.3,2.5,24.3,7.7s9.101,12.399,9.101,21.6c0,15.3-8.5,25.2-24.5,29.8v0.301c3,1.3,5.5,3.1,7.5,5.199
		c2,2.2,4.899,6.5,8.899,12.9L639,377z"/>
	<path fill="#ABB08C" d="M747.6,266l-41.3,111H692.9l-40.4-111H666l31.3,88.5c1,2.7,1.7,6.5,2.2,9.5h0.4c0.3-3,1.199-6,2.5-9.6
		l32-88.4H747.6L747.6,266z"/>
	<path fill="#ABB08C" d="M798,276h-11v90h11v11h-34v-11h11v-90h-11v-10h34V276z"/>
	<path fill="#ABB08C" d="M903,372.1c-8,4.4-18.5,6.601-30.7,6.601c-15.6,0-28.2-5.101-37.7-15.4s-14.3-23.6-14.3-39.899
		c0-17.101,5.2-31.301,15.7-42.601s24.2-16.899,40.9-16.899c10.5,0,19.199,1.5,26.199,4.6v13.2c-8-4.4-16.899-6.601-26.5-6.601
		c-13.199,0-23.8,4.4-31.6,13.301c-7.9,8.899-11.8,20.3-11.8,34.3c0,13.2,3.7,24.1,11,32.399c7.399,8.4,17.3,12.601,29.7,12.601
		c11.199,0,21.199-2.5,29.199-7.5L903,372.1L903,372.1z"/>
	<path fill="#ABB08C" d="M995,377h-58V266h55v11h-43v38h40v11h-40v40h46V377z"/>
</g>
<path fill="#FFFFFF" d="M396.2,331.6c3.1,2.801,7.6,5.2,13.399,7.101c5.9,1.899,11.301,2.8,16.2,2.8c16.2,0,24.2-5.9,24.2-17.6
	c0-3.301-0.8-6.2-2.5-8.801c-1.7-2.6-3.9-4.8-6.8-6.699c-2.8-1.9-8.5-5-16.8-9.301c-12-6.199-19.7-11.5-22.9-16.1s-4.8-9.8-4.8-15.6
	c0-8.9,3.6-16.101,10.899-21.4c7.301-5.4,16.4-8,27.4-8c11.1,0,19,1.3,23.6,3.9V256c-6.5-4.5-14.899-6.7-25.199-6.7
	c-7,0-12.801,1.5-17.2,4.5c-4.4,3-6.7,7.2-6.7,12.601c0,3.3,0.8,6.3,2.3,8.699c1.601,2.5,3.7,4.601,6.3,6.4
	c2.7,1.8,7.9,4.7,15.601,8.5c10.899,5.4,18.5,10.7,22.899,15.8c4.4,5.101,6.5,10.9,6.5,17.2c0,9.5-3.399,16.8-10.3,21.9
	C445.4,350.1,435.8,352.6,423.4,352.6c-3.801,0-8.7-0.6-14.7-1.899c-6-1.2-10.3-2.7-12.7-4.5L396.2,331.6L396.2,331.6z"/>
<path fill="#FFFFFF" d="M554.7,350.8h-58.4V239.7h55.9v11.2h-43.7v37.8h40.4v11.2h-40.4V339.6h46.2V350.8L554.7,350.8z"/>
<path fill="#FFFFFF" d="M666,350.8h-14.6L632.8,319.5c-4-6.7-7.6-11.1-10.8-13.2c-3.3-2.1-7.1-3.1-11.4-3.1h-11v47.5H587.4v-111H620
	c10.2,0,18.3,2.6,24.3,7.899c6,5.301,9,12.5,9,21.7c0,15.3-8.2,25.3-24.6,29.9v0.3c3.1,1.3,5.6,3.1,7.6,5.2c2,2.2,5,6.399,8.9,12.8
	L666,350.8z M599.5,251.1V292h18.1c6.7,0,12.2-2,16.5-5.9c4.301-3.899,6.4-9.199,6.4-15.699c0-6-1.9-10.7-5.8-14.101
	c-3.9-3.399-9.5-5.1-16.9-5.1L599.5,251.1L599.5,251.1z"/>
<path fill="#FFFFFF" d="M774.6,239.7l-41.3,111.1H719.9l-40.4-111.1H693l31.3,88.8c1,2.7,1.7,6,2.2,9.8h0.4
	c0.3-3,1.199-6.3,2.5-9.899l32-88.601L774.6,239.7L774.6,239.7z"/>
<path fill="#FFFFFF" d="M824.9,250.4h-11V340.1h11v10.7H790.8v-10.7h11V250.4h-11v-10.7H824.9V250.4z"/>
<path fill="#FFFFFF" d="M929.8,346.1c-8.2,4.4-18.399,6.601-30.6,6.601c-15.601,0-28.101-5.101-37.7-15.4
	c-9.5-10.3-14.3-23.6-14.3-39.899c0-17.101,5.2-31.301,15.7-42.601S887,237.9,903.7,237.9c10.5,0,19.2,1.5,26.1,4.6v13.2
	c-8-4.4-16.8-6.601-26.399-6.601c-13.2,0-23.7,4.4-31.601,13.301C863.9,271.3,860,282.7,860,296.7c0,13.2,3.7,24.1,11,32.399
	c7.4,8.4,17.2,12.601,29.6,12.601c11.2,0,20.9-2.5,29.101-7.5L929.8,346.1L929.8,346.1z"/>
<path fill="#FFFFFF" d="M1022,350.8h-58.4V239.7h55.9v11.2h-43.7v37.8h40.4v11.2h-40.4V339.6h46.2V350.8L1022,350.8z"/>
</svg>
