<?xml version="1.0" encoding="utf-8"?>
<!-- Generator: Adobe Illustrator 16.0.0, SVG Export Plug-In . SVG Version: 6.00 Build 0)  -->
<!DOCTYPE svg PUBLIC "-//W3C//DTD SVG 1.1//EN" "http://www.w3.org/Graphics/SVG/1.1/DTD/svg11.dtd">
<svg version="1.1" id="圖層_1" xmlns="http://www.w3.org/2000/svg" xmlns:xlink="http://www.w3.org/1999/xlink" x="0px" y="0px"
	 width="1440px" height="900px" viewBox="0 0 1440 900" enable-background="new 0 0 1440 900" xml:space="preserve">
<g>
	<g>
		<g>
			<g>
				<defs>
					<rect id="SVGID_1_" width="1440" height="900"/>
				</defs>
				<clipPath id="SVGID_2_">
					<use xlink:href="#SVGID_1_"  overflow="visible"/>
				</clipPath>
				<g clip-path="url(#SVGID_2_)">
					<g>
						<path fill="none" stroke="#8AB048" stroke-width="4" stroke-miterlimit="10" d="M1114.027,262.686
							c24.854,26.011,43.951,103.901,55.072,138.511c9.438,29.356,27.377,74.249,21.689,98.337"/>
						<path fill="none" stroke="#8AB048" stroke-width="4" stroke-miterlimit="10" d="M1120.971,67.497
							c-3.479,7.048-42.235,22.552-49.222,26.146c-17.271,8.884-34.503,40.506-47.767,55.302
							c-45.526,50.786-81.113,107.591-129.062,156.945"/>
						<path fill="none" stroke="#8AB048" stroke-width="4" stroke-miterlimit="10" d="M458.256,112.629
							c-16.156-2.19-37.409-20.641-56.104-24.607c-25.338-5.376-52.219-7.334-77.02-14.995
							c-52.637-16.26,11.67,119.249,21.617,135.668c17.812,29.404,70.557,65.708,76.567,97.163
							c4.104,21.5-24.496,66.451-31.388,86.446c-12.35,35.834-22.489,72.675-31.268,109.545"/>
						<path fill="none" stroke="#8AB048" stroke-width="4" stroke-miterlimit="10" d="M1220.492,35.673
							c13.606,3.744-19.229,100.888-20.709,113.617c-4.12,35.379-52.662,56.327-68.371,85.458
							c-35.891,66.559-108.779,119.079-166.162,166.035"/>
						<path fill="none" stroke="#8AB048" stroke-width="4" stroke-miterlimit="10" d="M867.92,464.431
							c-20.79,32.655,17.266,144.396,2.288,158.128c-40.804,37.469-63.599-55.985-55.521-58.604"/>
						<path fill="none" stroke="#8AB048" stroke-width="4" stroke-miterlimit="10" d="M486.415,48.595
							c-8.005,28.499-7.329,89.313,5.716,109.599c14.67,22.815,65.602,139.705,100.353,134.1
							c30.892-4.985,74.595,16.551,79.289,54.919c2.896,23.666,61.327,19.426,69.237,46.627"/>
						<path fill="none" stroke="#8AB048" stroke-width="4" stroke-miterlimit="10" d="M887.207,496.834
							c13.053,30.463,6.425,101.878,6.997,137.326"/>
						<path fill="none" stroke="#8AB048" stroke-width="4" stroke-miterlimit="10" d="M613.712,469.06
							c16.62,13.553-8.556,84.37-21.631,94.473c-15.365,11.868-11.935,39.023,4.235,47.172
							c23.172,11.673,28.992-15.919,40.541-27.461"/>
						<path fill="none" stroke="#8AB048" stroke-width="4" stroke-miterlimit="10" d="M424.311,308.975
							c36.831,24.558,68.865,61.244,93.643,97.659c1.466,2.155-12.554,37.16-11.944,44.688c1.638,20.271,32.287,24.319,45.78,32.641
							c-17.966,27.775-75.915,157.124-49.943,174.399c44.416,29.545,63.387-47.661,60.95-72.035"/>
						<path fill="none" stroke="#8AB048" stroke-width="4" stroke-miterlimit="10" d="M585.938,293.545
							c-32.796,34.725-36.753,80.103-67.118,113.41"/>
						<path fill="none" stroke="#8AB048" stroke-width="4" stroke-miterlimit="10" d="M1170.346,34.708
							c-23.23,9.615-96.439,30.805-111.202,48.516c-27.258,32.737-7.271-59.299-9.149-46.972"/>
						<path fill="none" stroke="#8AB048" stroke-width="4" stroke-miterlimit="10" d="M597.125,332.505
							c-18.979,15.269-65.25,87.479-48.99,113.024"/>
						<path fill="none" stroke="#8AB048" stroke-width="4" stroke-miterlimit="10" d="M808.129,346.007
							c54.104-28.339,45.016-64.88,102.979-26.593c21.309,14.072,35.312,34.372,41.427,56.093
							c3.779,13.427,21.137,32.101,19.078,50.352c-1.378,12.213-20.469,23.778-24.711,35.155
							c-6.515,17.46-16.519,32.521-30.378,40.836"/>
						<path fill="none" stroke="#8AB048" stroke-width="4" stroke-miterlimit="10" d="M628.757,354.879
							c-19.099,31.835-73.589,47.374-75.605,91.809"/>
						<path fill="none" stroke="#8AB048" stroke-width="4" stroke-miterlimit="10" d="M914.21,559.711
							c-8.754,7.923-24.265,159.814-54.005,70.591"/>
						<path fill="none" stroke="#8AB048" stroke-width="4" stroke-miterlimit="10" d="M808.129,346.778
							c-15.928-18.276-62.904,34.064-67.891,42.047"/>
						<path fill="none" stroke="#8AB048" stroke-width="4" stroke-miterlimit="10" d="M357.961,501.656
							c59.481,5.924,120.729-3.658,179.759,3.277"/>
						<path fill="none" stroke="#8AB048" stroke-width="4" stroke-miterlimit="10" d="M252.267,33.937
							c-27.93,27.93,35.042,30.76,51.69,37.417"/>
						<path fill="none" stroke="#8AB048" stroke-width="4" stroke-miterlimit="10" d="M541.578,33.937
							c-16.271,1.312-49.141,19.273-62.492,10.029"/>
						<path fill="none" stroke="#8AB048" stroke-width="4" stroke-miterlimit="10" d="M915.137,491.608
							c21.537,9.332,68.777,10.275,71.594,10.278c31.07,0.024,62.144,0.295,93.211,0.498c72.399,0.475,287.67,0.275,360.061,1.604"
							/>
						<path fill="none" stroke="#8AB048" stroke-width="4" stroke-miterlimit="10" d="M612.94,613.33
							c-1.703,38.306-5.015,63.87-52.849,51.305"/>
						<path fill="none" stroke="#8AB048" stroke-width="4" stroke-miterlimit="10" d="M566.266,518.436
							c6.44,20.247,9.494,54.368-1.544,73.68"/>
						<path fill="none" stroke="#8AB048" stroke-width="4" stroke-miterlimit="10" d="M815.072,377.252
							c-0.383,11.974-10.805,58.363-4.629,70.592"/>
						<path fill="none" stroke="#8AB048" stroke-width="4" stroke-miterlimit="10" d="M757.597,444.373
							c4.106,30.368,39.478,14.995,51.689,6.172"/>
						<path fill="none" stroke="#8AB048" stroke-width="4" stroke-miterlimit="10" d="M916.523,501.849
							c-7.541,4.329-8.74,58.521,0.771,58.248"/>
						<path fill="none" stroke="#8AB048" stroke-width="4" stroke-miterlimit="10" d="M331.73,63.254
							c8.22,1.104,16.449,2.133,24.688,3.085"/>
						<path fill="none" stroke="#8AB048" stroke-width="4" stroke-miterlimit="10" d="M1190.405,498.377"/>
						<path fill="none" stroke="#8AB048" stroke-width="4" stroke-miterlimit="10" d="M448.998,110.315
							c0.076,7.54,22.674,18.248,28.931,23.724"/>
						<path fill="none" stroke="#8AB048" stroke-width="4" stroke-miterlimit="10" d="M401.166,98.743
							c11.844-2.091,23.417-1.062,34.717,3.086"/>
						<path fill="none" stroke="#8AB048" stroke-width="4" stroke-miterlimit="10" d="M811.986,459.031
							c-5.937,5.131-4.629,72.134,2.699,104.923"/>
						<path fill="none" stroke="#8AB048" stroke-width="4" stroke-miterlimit="10" d="M747.951,411.969
							c0.14,0.955,0.726,35.55,9.646,36.263"/>
						<path fill="none" stroke="#8AB048" stroke-width="4" stroke-miterlimit="10" d="M524.604,664.634
							c-4.37,0.386-8.741,0.771-13.113,1.157"/>
						<path fill="none" stroke="#8AB048" stroke-width="4" stroke-miterlimit="10" d="M554.692,651.132
							c6.695-0.04,11.327,4.589,13.888,13.888"/>
						<path fill="none" stroke="#8AB048" stroke-width="4" stroke-miterlimit="10" d="M303.186,64.025
							c-4.323-1.08-8.693-1.852-13.115-2.315"/>
						<path fill="none" stroke="#8AB048" stroke-width="4" stroke-miterlimit="10" d="M359.854,501.888
							c-8.486,0-351.368,4.204-359.854,4.204"/>
						<path fill="none" stroke="#8AB048" stroke-width="4" stroke-miterlimit="10" d="M584.781,666.562
							c-2.99-1.723-5.819-1.465-8.486,0.771"/>
						<path fill="none" stroke="#8AB048" stroke-width="4" stroke-miterlimit="10" d="M609.854,649.975
							c-4.01-0.787-6.578,1.438-8.868,4.244"/>
						<path fill="none" stroke="#8AB048" stroke-width="4" stroke-miterlimit="10" d="M1120.585,69.426
							c2.187,0.257,4.371,0.514,6.558,0.771"/>
						<path fill="none" stroke="#8AB048" stroke-width="4" stroke-miterlimit="10" d="M620.271,482.175
							c-0.02,2.812-2.26,3.402-4.244,4.243"/>
						<path fill="none" stroke="#8AB048" stroke-width="4" stroke-miterlimit="10" d="M877.95,301.26
							c1.799,1.157,3.6,2.314,5.397,3.472"/>
						<path fill="none" stroke="#8AB048" stroke-width="4" stroke-miterlimit="10" d="M557.393,641.104
							c3.268,3.884,3.522,7.61,0.772,11.188"/>
						<path fill="none" stroke="#8AB048" stroke-width="4" stroke-miterlimit="10" d="M605.611,613.715
							c0.257,1.672,0.515,3.344,0.771,5.018"/>
						<path fill="none" stroke="#8AB048" stroke-width="4" stroke-miterlimit="10" d="M811.602,574.755
							c-0.13,1.543-0.258,3.086-0.387,4.629"/>
						<path fill="none" stroke="#8AB048" stroke-width="4" stroke-miterlimit="10" d="M560.479,650.361
							c1.157,1.026,2.314,2.059,3.474,3.087"/>
						<path fill="none" stroke="#8AB048" stroke-width="4" stroke-miterlimit="10" d="M535.02,509.95
							c-1.412-0.257-2.826-0.517-4.24-0.771"/>
						<path fill="none" stroke="#8AB048" stroke-width="4" stroke-miterlimit="10" d="M818.545,584.013
							c-0.138,2.059,2.064,4.262-0.386,6.171"/>
						<path fill="none" stroke="#8AB048" stroke-width="4" stroke-miterlimit="10" d="M685.075,361.438
							c-1.667,1.358-3.281,2.096-4.628-0.386"/>
						<path fill="none" stroke="#8AB048" stroke-width="4" stroke-miterlimit="10" d="M348.703,73.283
							c-1.028,0.128-2.058,0.257-3.085,0.386"/>
						<path fill="none" stroke="#8AB048" stroke-width="4" stroke-miterlimit="10" d="M807.357,531.165
							c0.129,1.415,0.258,2.83,0.385,4.244"/>
						<path fill="none" stroke="#8AB048" stroke-width="4" stroke-miterlimit="10" d="M715.164,374.552
							c-1.028,0.128-2.059,0.257-3.086,0.386"/>
						<path fill="none" stroke="#8AB048" stroke-width="4" stroke-miterlimit="10" d="M518.818,654.605
							c-0.9-0.131-1.802-0.259-2.7-0.388"/>
						<path fill="none" stroke="#8AB048" stroke-width="4" stroke-miterlimit="10" d="M690.09,425.856
							c12.424,19.099-1.012,48.467-15.445,76.083c-10.077,19.279-26.446,60.216-39.328,77.059"/>
						<path fill="none" stroke="#8AB048" stroke-width="4" stroke-miterlimit="10" d="M775.653,528.514
							c-28.386-18.979-68.666-7.223-90.999,15.851c-18.487,19.098-30.079,78.196,10.043,49.336
							c13.686-9.847,70.624-72.688,67.927-21.756c-1.172,22.098-19.745,55.479-36.558,69.812
							c-21.41,18.253-77.559,31.715-85.134-4.937c-6.577-31.835,11.901-71.146,28.027-97.621
							c19.084-31.331,42.968-60.047,83.394-56.962c30.842,2.354,39.529,32.592,43.463,60.674
							c6.007,42.906-16.556,105.729-61.92,119.036c-25.533,7.488-47.618-3.526-71.5-10.565c-9.274-2.731-21.216-1.54-20.983-13.312"
							/>
						<path fill="none" stroke="#8AB048" stroke-width="4" stroke-miterlimit="10" d="M624.44,639.61
							c-8.289-29.238,9.65-75.122,25.077-100.569c14.33-23.634,38.357-48.435,59.752-66.114
							c47.052-38.889,84.963,7.386,97.321,54.77c7.333,28.109,10.91,55.457,12.604,84.479c1.02,17.491,4.456,32.293-6.106,47.251
							c-12.021,17.022-29.394,15.311-48.998,15.789c-31.145,0.764-65.686-1.458-96.503-6.243
							c-11.968-1.856-30.203-3.997-38.52-13.931"/>
					</g>
				</g>
			</g>
		</g>
	</g>
	<rect opacity="0.6" fill="#5E6248" enable-background="new    " width="1440" height="900"/>
	<g>
		<g>
			<path fill="#BD8A60" d="M395.906,331.604c3,2.822,7.688,5.179,13.546,7.064c5.854,1.89,11.319,2.833,16.294,2.833
				c16.16,0,24.266-5.881,24.266-17.643c0-3.301-0.824-6.239-2.498-8.821s-3.926-4.816-6.771-6.706
				c-2.845-1.888-8.448-4.984-16.814-9.287c-12.049-6.168-19.675-11.546-22.878-16.137c-3.203-4.59-4.804-9.776-4.804-15.562
				c0-8.938,3.634-16.089,10.902-21.442c7.267-5.354,16.28-8.032,27.277-8.032c11.093,0,19.479,1.313,23.479,3.944v14.128
				c-6-4.494-14.776-6.741-25.058-6.741c-7.026,0-12.706,1.495-17.151,4.479c-4.447,2.989-6.643,7.188-6.643,12.59
				c0,3.347,0.791,6.251,2.347,8.713c1.554,2.463,3.677,4.603,6.354,6.419c2.679,1.815,7.895,4.661,15.641,8.534
				c10.898,5.401,18.526,10.675,22.88,15.812c4.351,5.14,6.525,10.89,6.525,17.248c0,9.467-3.44,16.781-10.326,21.945
				s-16.521,7.745-28.901,7.745c-3.777,0-8.789-0.621-14.837-1.864c-6.05-1.243-9.829-2.749-12.829-4.521L395.906,331.604
				L395.906,331.604z"/>
			<path fill="#BD8A60" d="M554.906,351h-59V240h56v11h-43v38h40v11h-40v40h46V351z"/>
			<path fill="#BD8A60" d="M599.906,251v41h17.678c6.741,0,12.238-2,16.495-5.944c4.255-3.943,6.383-9.206,6.383-15.757
				c0-6.021-1.937-10.771-5.81-14.168c-3.873-3.395-9.517-5.131-16.928-5.131H599.906z M665.922,351h-14.631l-18.646-31.356
				c-3.969-6.691-7.576-11.263-10.828-13.343c-3.253-2.079-7.055-3.301-11.402-3.301h-10.506v48h-13V240h33.044
				c10.185,0,18.288,2.484,24.312,7.719c6.024,5.236,9.142,12.402,9.142,21.629c0,15.35-8.496,25.25-24.496,29.84v0.287
				c3,1.341,5.479,3.083,7.463,5.235c1.984,2.151,4.909,6.495,8.878,12.854L665.922,351z"/>
			<path fill="#BD8A60" d="M774.474,240l-41.309,111h-13.412l-40.448-111h13.626l31.271,88.516c0.955,2.729,1.694,5.484,2.223,9.484
				h0.358c0.334-3,1.172-6.041,2.511-9.627L761.278,240H774.474z"/>
			<path fill="#BD8A60" d="M824.906,250h-11v90h11v11h-34v-11h11v-90h-11v-10h34V250z"/>
			<path fill="#BD8A60" d="M929.906,346.091c-8,4.399-18.495,6.6-30.733,6.6c-15.588,0-28.204-5.141-37.743-15.421
				c-9.539-10.277-14.336-23.568-14.336-39.875c0-17.114,5.224-31.314,15.692-42.601c10.472-11.283,24.177-16.925,40.911-16.925
				c10.519,0,19.209,1.531,26.209,4.59v13.196c-8-4.398-16.895-6.6-26.503-6.6c-13.195,0-23.782,4.446-31.646,13.342
				c-7.866,8.893-11.825,20.318-11.825,34.278c0,13.245,3.666,24.053,11.029,32.417c7.362,8.367,17.34,12.552,29.725,12.552
				c11.188,0,21.222-2.484,29.222-7.459L929.906,346.091L929.906,346.091z"/>
			<path fill="#BD8A60" d="M1021.906,351h-58V240h55v11h-43v38h40v11h-40v40h46V351z"/>
		</g>
		<g>
			<path fill="#BD8A60" d="M394.906,332.842c3,2.822,7.547,5.177,13.401,7.064c5.855,1.89,11.248,2.833,16.225,2.833
				c16.16,0,24.229-5.881,24.229-17.645c0-3.299-0.843-6.237-2.517-8.819s-3.936-4.816-6.779-6.706
				c-2.846-1.89-8.453-4.984-16.817-9.287c-12.052-6.168-19.679-11.546-22.882-16.137c-3.2-4.592-4.805-9.776-4.805-15.562
				c0-8.94,3.633-16.089,10.9-21.444c7.268-5.354,16.425-8.03,27.422-8.03c11.091,0,18.621,1.314,23.621,3.943v14.128
				c-7-4.494-14.919-6.739-25.199-6.739c-7.027,0-12.777,1.493-17.225,4.479c-4.447,2.989-6.678,7.188-6.678,12.588
				c0,3.349,0.773,6.251,2.327,8.713c1.554,2.463,3.668,4.604,6.347,6.419c2.68,1.817,7.89,4.661,15.635,8.534
				c10.899,5.403,18.524,10.675,22.878,15.814c4.35,5.14,6.523,10.89,6.523,17.248c0,9.467-3.441,16.779-10.327,21.943
				c-6.885,5.164-16.521,7.745-28.901,7.745c-3.777,0-8.646-0.621-14.693-1.862c-6.05-1.243-10.687-2.75-12.687-4.521v-14.701
				L394.906,332.842L394.906,332.842z"/>
			<polygon fill="#BD8A60" points="552.906,352 494.906,352 494.906,241 550.906,241 550.906,252 506.906,252 506.906,290 
				547.906,290 547.906,301 506.906,301 506.906,341 552.906,341 			"/>
			<path fill="#BD8A60" d="M597.906,252v41h18.393c6.74,0,12.237-1.881,16.495-5.825c4.254-3.943,6.382-9.146,6.382-15.696
				c0-6.023-1.936-10.859-5.809-14.258c-3.874-3.395-9.517-5.221-16.926-5.221H597.906L597.906,252z M664.637,352h-14.632
				l-18.646-31.237c-3.971-6.691-7.578-10.82-10.829-12.9c-3.253-2.079-7.056-2.86-11.402-2.86h-11.221v47h-12V241h32.758
				c10.186,0,18.289,2.604,24.313,7.838c6.021,5.236,9.278,12.462,9.278,21.688c0,15.348-8.352,25.31-24.352,29.897v0.287
				c3,1.339,5.336,3.083,7.319,5.235c1.981,2.149,4.838,6.376,8.807,12.732L664.637,352z"/>
			<path fill="#BD8A60" d="M773.188,241L731.88,352h-13.412L678.02,241h13.628l31.269,89.016c0.955,2.729,1.696,5.984,2.224,9.984
				h0.357c0.335-3,1.172-6.541,2.512-10.127L759.992,241H773.188z"/>
			<polygon fill="#BD8A60" points="823.906,252 812.906,252 812.906,341 823.906,341 823.906,352 788.906,352 788.906,341 
				799.906,341 799.906,252 788.906,252 788.906,241 823.906,241 			"/>
			<path fill="#BD8A60" d="M927.906,347.33c-8,4.398-18.137,6.598-30.377,6.598c-15.586,0-28.025-5.139-37.564-15.419
				c-9.538-10.277-14.245-23.568-14.245-39.875c0-17.116,5.269-31.314,15.737-42.601c10.471-11.283,23.841-16.926,40.575-16.926
				c10.519,0,19.874,1.529,25.874,4.591v13.193c-7-4.396-16.535-6.598-26.146-6.598c-13.191,0-23.603,4.446-31.466,13.34
				c-7.867,8.895-11.736,20.32-11.736,34.28c0,13.245,3.71,24.051,11.073,32.417c7.363,8.367,17.007,12.551,29.391,12.551
				c11.188,0,20.887-2.483,28.887-7.459L927.906,347.33L927.906,347.33z"/>
			<polygon fill="#BD8A60" points="1020.906,352 961.906,352 961.906,241 1017.906,241 1017.906,252 974.906,252 974.906,290 
				1014.906,290 1014.906,301 974.906,301 974.906,341 1020.906,341 			"/>
		</g>
		<g>
			<path fill="#BD8A60" d="M393.906,334.081c3,2.822,7.402,5.177,13.26,7.062c5.857,1.892,11.178,2.834,16.151,2.834
				c16.158,0,24.193-5.882,24.193-17.644c0-3.299-0.859-6.239-2.532-8.821c-1.676-2.582-3.943-4.814-6.789-6.706
				c-2.847-1.888-8.457-4.982-16.823-9.285c-12.049-6.169-19.679-11.548-22.882-16.139c-3.203-4.59-4.809-9.774-4.809-15.562
				c0-8.94,3.635-16.089,10.901-21.444c7.267-5.354,16.565-8.032,27.562-8.032c11.093,0,18.765,1.315,23.765,3.945v14.128
				c-7-4.494-15.062-6.741-25.344-6.741c-7.025,0-12.85,1.495-17.296,4.481c-4.445,2.988-6.712,7.186-6.712,12.588
				c0,3.347,0.756,6.251,2.312,8.713c1.553,2.463,3.658,4.604,6.337,6.419c2.677,1.817,7.882,4.661,15.628,8.534
				c10.901,5.403,18.523,10.675,22.876,15.812c4.351,5.142,6.524,10.892,6.524,17.248c0,9.469-3.443,16.781-10.328,21.945
				c-6.887,5.164-16.521,7.745-28.903,7.745c-3.777,0-8.502-0.621-14.551-1.864c-6.05-1.243-10.544-2.749-12.544-4.519
				L393.906,334.081L393.906,334.081z"/>
			<polygon fill="#BD8A60" points="551.906,353 493.906,353 493.906,242 549.906,242 549.906,253 505.906,253 505.906,291 
				545.906,291 545.906,302 505.906,302 505.906,342 551.906,342 			"/>
			<path fill="#BD8A60" d="M596.906,254v40h18.104c6.741,0,12.238-1.762,16.495-5.706c4.255-3.945,6.383-9.087,6.383-15.638
				c0-6.023-1.937-10.45-5.809-13.849c-3.874-3.395-9.516-4.81-16.927-4.81L596.906,254L596.906,254z M663.351,353H648.72
				l-18.646-31.118c-3.972-6.691-7.579-10.882-10.83-12.962c-3.253-2.079-7.053-2.92-11.403-2.92h-10.935v47h-12V242h32.474
				c10.185,0,18.287,2.723,24.312,7.957c6.021,5.236,8.924,12.521,8.924,21.748c0,15.348-7.71,25.369-24.71,29.959v0.287
				c3,1.339,5.69,3.083,7.677,5.233c1.984,2.151,5.017,6.259,8.986,12.615L663.351,353z"/>
			<path fill="#BD8A60" d="M771.902,242l-41.311,111H717.18l-40.446-111h13.626l31.27,89.016c0.956,2.729,1.696,5.984,2.223,9.984
				h0.358c0.334-3,1.172-6.541,2.511-10.127L758.707,242H771.902z"/>
			<polygon fill="#BD8A60" points="821.906,253 810.906,253 810.906,343 821.906,343 821.906,353 787.906,353 787.906,343 
				798.906,343 798.906,253 787.906,253 787.906,242 821.906,242 			"/>
			<path fill="#BD8A60" d="M926.906,348.568c-8,4.397-18.281,6.598-30.521,6.598c-15.586,0-28.097-5.139-37.636-15.419
				c-9.538-10.279-14.282-23.57-14.282-39.875c0-17.116,5.249-31.316,15.723-42.601c10.471-11.283,23.975-16.927,40.709-16.927
				c10.519,0,19.008,1.531,26.008,4.59v13.195c-8-4.396-16.678-6.598-26.289-6.598c-13.195,0-23.674,4.446-31.538,13.34
				c-7.866,8.893-11.772,20.32-11.772,34.28c0,13.245,3.694,24.051,11.06,32.417c7.36,8.366,17.139,12.551,29.521,12.551
				c11.188,0,21.021-2.485,29.021-7.459L926.906,348.568L926.906,348.568z"/>
			<polygon fill="#BD8A60" points="1018.906,353 960.906,353 960.906,242 1016.906,242 1016.906,253 972.906,253 972.906,291 
				1013.906,291 1013.906,302 972.906,302 972.906,342 1018.906,342 			"/>
		</g>
		<g>
			<path fill="#BD8A60" d="M391.906,335.319c3,2.82,7.76,5.177,13.617,7.062c5.854,1.892,11.354,2.833,16.33,2.833
				c16.158,0,24.281-5.881,24.281-17.643c0-3.299-0.813-6.239-2.486-8.821c-1.676-2.582-3.925-4.816-6.769-6.706
				c-2.845-1.888-8.446-4.982-16.812-9.287c-12.051-6.168-19.677-11.546-22.877-16.137c-3.205-4.59-4.805-9.776-4.805-15.562
				c0-8.938,3.633-16.089,10.901-21.442c7.267-5.354,16.211-8.032,27.208-8.032c11.091,0,19.406,1.315,23.406,3.944v14.129
				c-6-4.494-14.705-6.741-24.984-6.741c-7.029,0-12.671,1.495-17.117,4.48c-4.447,2.988-6.622,7.187-6.622,12.589
				c0,3.347,0.8,6.251,2.354,8.713c1.554,2.463,3.682,4.603,6.356,6.419c2.681,1.815,7.896,4.661,15.643,8.534
				c10.899,5.401,18.53,10.675,22.882,15.812c4.351,5.142,6.528,10.892,6.528,17.248c0,9.467-3.443,16.781-10.328,21.945
				c-6.887,5.164-16.521,7.745-28.901,7.745c-3.777,0-8.861-0.621-14.909-1.864c-6.05-1.243-9.9-2.749-12.9-4.521L391.906,335.319
				L391.906,335.319z"/>
			<polygon fill="#BD8A60" points="550.906,355 492.906,355 492.906,243 547.906,243 547.906,255 504.906,255 504.906,292 
				544.906,292 544.906,304 504.906,304 504.906,343 550.906,343 			"/>
			<path fill="#BD8A60" d="M595.906,255v41h17.819c6.741,0,12.237-2.143,16.495-6.087c4.254-3.945,6.385-9.276,6.385-15.827
				c0-6.025-1.938-10.665-5.812-14.062c-3.874-3.396-9.515-5.024-16.926-5.024H595.906z M662.065,355h-14.633l-18.646-31.499
				c-3.97-6.693-7.579-11.191-10.83-13.271c-3.252-2.079-7.053-3.229-11.402-3.229h-10.647v48h-13V243h33.188
				c10.187,0,18.287,2.842,24.312,8.076c6.022,5.234,9.065,12.581,9.065,21.808c0,15.35-8.565,25.429-24.565,30.021v0.287
				c3,1.339,5.55,3.083,7.534,5.233c1.982,2.151,4.942,6.638,8.914,12.996L662.065,355z"/>
			<path fill="#BD8A60" d="M770.617,243l-41.311,112h-13.41l-40.448-112h13.626l31.269,89.016c0.956,2.729,1.696,5.984,2.224,9.984
				h0.358c0.334-3,1.171-6.541,2.51-10.127L757.421,243H770.617z"/>
			<polygon fill="#BD8A60" points="820.906,254 809.906,254 809.906,344 820.906,344 820.906,355 786.906,355 786.906,344 
				797.906,344 797.906,254 786.906,254 786.906,243 820.906,243 			"/>
			<path fill="#BD8A60" d="M925.906,349.806c-8,4.399-18.424,6.6-30.662,6.6c-15.588,0-28.169-5.141-37.707-15.419
				c-9.538-10.279-14.317-23.57-14.317-39.875c0-17.116,5.23-31.316,15.701-42.603c10.471-11.283,24.109-16.926,40.844-16.926
				c10.521,0,19.144,1.531,26.144,4.59v13.196c-8-4.398-16.82-6.598-26.434-6.598c-13.193,0-23.746,4.444-31.607,13.34
				c-7.866,8.893-11.81,20.318-11.81,34.278c0,13.245,3.675,24.053,11.039,32.417c7.361,8.367,17.272,12.553,29.655,12.553
				c11.188,0,21.154-2.485,29.154-7.459V349.806z"/>
			<polygon fill="#BD8A60" points="1017.906,355 959.906,355 959.906,243 1015.906,243 1015.906,255 971.906,255 971.906,292 
				1011.906,292 1011.906,304 971.906,304 971.906,343 1017.906,343 			"/>
		</g>
		<g>
			<path fill="#BD8A60" d="M390.906,336.557c3,2.822,7.618,5.179,13.475,7.063c5.856,1.891,11.285,2.834,16.258,2.834
				c16.16,0,24.249-5.881,24.249-17.645c0-3.299-0.834-6.238-2.508-8.819c-1.674-2.582-3.931-4.816-6.773-6.706
				c-2.847-1.888-8.45-4.984-16.816-9.287c-12.049-6.168-19.675-11.546-22.878-16.137c-3.203-4.592-4.804-9.776-4.804-15.562
				c0-8.938,3.632-16.089,10.9-21.444c7.269-5.354,16.354-8.03,27.353-8.03c11.091,0,18.549,1.313,23.549,3.942v14.129
				c-6-4.492-14.849-6.739-25.127-6.739c-7.028,0-12.742,1.495-17.189,4.479c-4.443,2.989-6.657,7.188-6.657,12.588
				c0,3.349,0.781,6.251,2.337,8.713c1.555,2.465,3.673,4.604,6.351,6.421c2.678,1.815,7.89,4.659,15.636,8.532
				c10.9,5.403,18.527,10.677,22.879,15.814c4.353,5.14,6.527,10.89,6.527,17.248c0,9.467-3.443,16.781-10.328,21.943
				c-6.884,5.164-16.52,7.745-28.901,7.745c-3.776,0-8.719-0.62-14.766-1.862c-6.05-1.243-10.759-2.749-12.759-4.521v-14.701
				L390.906,336.557L390.906,336.557z"/>
			<polygon fill="#BD8A60" points="549.906,356 490.906,356 490.906,245 546.906,245 546.906,256 502.906,256 502.906,294 
				543.906,294 543.906,305 502.906,305 502.906,345 549.906,345 			"/>
			<path fill="#BD8A60" d="M593.906,256v41h18.535c6.739,0,12.236-2.023,16.493-5.967c4.257-3.945,6.385-9.218,6.385-15.771
				c0-6.022-1.938-10.755-5.812-14.149c-3.873-3.396-9.514-5.113-16.925-5.113H593.906L593.906,256z M660.779,356h-14.631
				l-18.646-31.38c-3.969-6.693-7.578-11.251-10.83-13.331c-3.251-2.079-7.053-3.289-11.402-3.289h-11.361v48h-12V245h32.899
				c10.187,0,18.288,2.461,24.312,7.695s9.21,12.391,9.21,21.617c0,15.348-8.424,25.236-24.424,29.826v0.287
				c3,1.339,5.406,3.083,7.391,5.235c1.984,2.149,4.874,6.519,8.843,12.877L660.779,356z"/>
			<path fill="#BD8A60" d="M769.332,245l-41.311,111H714.61l-40.448-111h13.626l31.27,88.516c0.955,2.729,1.696,5.484,2.225,9.484
				h0.356c0.334-3,1.172-6.041,2.513-9.627L756.136,245H769.332z"/>
			<polygon fill="#BD8A60" points="819.906,255 808.906,255 808.906,345 819.906,345 819.906,356 785.906,356 785.906,345 
				796.906,345 796.906,255 785.906,255 785.906,245 819.906,245 			"/>
			<path fill="#BD8A60" d="M924.906,351.044c-9,4.399-18.566,6.598-30.805,6.598c-15.59,0-28.24-5.139-37.779-15.419
				c-9.538-10.277-14.354-23.568-14.354-39.875c0-17.114,5.213-31.314,15.687-42.601c10.471-11.283,24.242-16.925,40.978-16.925
				c10.521,0,19.275,1.531,26.275,4.589v13.196c-8-4.398-16.964-6.6-26.574-6.6c-13.195,0-23.815,4.446-31.682,13.34
				c-7.866,8.895-11.845,20.32-11.845,34.28c0,13.245,3.658,24.051,11.021,32.417c7.362,8.367,17.406,12.551,29.791,12.551
				c11.188,0,20.287-2.483,29.287-7.459V351.044L924.906,351.044z"/>
			<polygon fill="#BD8A60" points="1016.906,356 957.906,356 957.906,245 1013.906,245 1013.906,256 970.906,256 970.906,294 
				1010.906,294 1010.906,305 970.906,305 970.906,345 1016.906,345 			"/>
		</g>
		<g>
			<path fill="#BD8A60" d="M389.906,337.794c3,2.823,7.476,5.178,13.332,7.064c5.854,1.891,11.213,2.834,16.188,2.834
				c16.16,0,24.212-5.883,24.212-17.645c0-3.3-0.852-6.24-2.522-8.822c-1.674-2.581-3.94-4.813-6.785-6.704
				c-2.845-1.889-8.454-4.983-16.82-9.286c-12.049-6.168-19.678-11.546-22.881-16.14c-3.203-4.589-4.806-9.773-4.806-15.562
				c0-8.94,3.632-16.089,10.899-21.444c7.268-5.354,16.495-8.032,27.492-8.032c11.091,0,18.691,1.315,23.691,3.944v14.129
				c-7-4.494-14.99-6.741-25.271-6.741c-7.026,0-12.812,1.495-17.26,4.481c-4.447,2.989-6.694,7.186-6.694,12.587
				c0,3.347,0.765,6.252,2.317,8.714c1.554,2.463,3.664,4.604,6.342,6.419c2.679,1.817,7.886,4.661,15.632,8.533
				c10.9,5.404,18.524,10.676,22.876,15.813c4.354,5.141,6.526,10.892,6.526,17.247c0,9.469-3.444,16.782-10.329,21.945
				c-6.885,5.164-16.52,7.746-28.902,7.746c-3.775,0-8.573-0.621-14.622-1.864c-6.051-1.243-10.615-2.749-12.615-4.519
				L389.906,337.794L389.906,337.794z"/>
			<polygon fill="#BD8A60" points="547.906,357 489.906,357 489.906,246 545.906,246 545.906,257 501.906,257 501.906,295 
				542.906,295 542.906,306 501.906,306 501.906,346 547.906,346 			"/>
			<path fill="#BD8A60" d="M592.906,257v41h18.25c6.741,0,12.236-1.904,16.495-5.848c4.255-3.945,6.383-9.158,6.383-15.71
				c0-6.023-1.938-10.845-5.812-14.239c-3.873-3.396-9.514-5.203-16.925-5.203H592.906z M659.494,357h-14.631l-18.646-31.261
				c-3.969-6.693-7.578-11.312-10.83-13.393s-7.053-3.349-11.4-3.349h-11.078v48h-12V246h32.616c10.185,0,18.288,2.58,24.312,7.814
				c6.024,5.234,8.854,12.448,8.854,21.677c0,15.348-7.781,25.298-24.781,29.888v0.287c3,1.339,5.764,3.083,7.748,5.235
				c1.982,2.149,5.053,6.397,9.021,12.758L659.494,357z"/>
			<path fill="#BD8A60" d="M768.046,246l-41.309,111h-13.412l-40.448-111h13.626l31.271,88.516c0.955,2.729,1.695,6.484,2.223,9.484
				h0.357c0.334-3,1.174-6.041,2.513-9.627L754.852,246H768.046z"/>
			<polygon fill="#BD8A60" points="817.906,257 806.906,257 806.906,346 817.906,346 817.906,357 783.906,357 783.906,346 
				794.906,346 794.906,257 783.906,257 783.906,246 817.906,246 			"/>
			<path fill="#BD8A60" d="M922.906,352.283c-8,4.397-18.209,6.598-30.447,6.598c-15.588,0-28.062-5.139-37.602-15.42
				c-9.537-10.278-14.265-23.568-14.265-39.875c0-17.115,5.259-31.313,15.729-42.6c10.473-11.283,23.908-16.926,40.644-16.926
				c10.521,0,18.94,1.529,25.94,4.59v13.194c-8-4.396-16.606-6.598-26.217-6.598c-13.195,0-23.641,4.446-31.504,13.34
				c-7.865,8.895-11.755,20.319-11.755,34.28c0,13.245,3.702,24.051,11.065,32.417c7.363,8.367,17.072,12.551,29.456,12.551
				c11.188,0,20.952-2.483,28.952-7.46L922.906,352.283L922.906,352.283z"/>
			<polygon fill="#BD8A60" points="1015.906,357 956.906,357 956.906,246 1012.906,246 1012.906,257 968.906,257 968.906,295 
				1009.906,295 1009.906,306 968.906,306 968.906,346 1015.906,346 			"/>
		</g>
		<g>
			<path fill="#BD8A60" d="M387.906,339.033c4,2.823,7.832,5.178,13.688,7.063c5.857,1.892,11.395,2.833,16.365,2.833
				c16.16,0,24.302-5.881,24.302-17.644c0-3.298-0.807-6.239-2.479-8.82c-1.674-2.582-3.917-4.815-6.765-6.706
				c-2.844-1.888-8.441-4.982-16.809-9.288c-12.049-6.168-19.672-11.546-22.875-16.136c-3.204-4.591-4.803-9.777-4.803-15.562
				c0-8.941,3.634-16.091,10.899-21.444c7.27-5.354,16.642-8.032,27.639-8.032c11.092,0,18.835,1.315,23.835,3.944v14.128
				c-7-4.493-15.135-6.74-25.412-6.74c-7.027,0-12.887,1.494-17.332,4.481c-4.446,2.987-6.73,7.185-6.73,12.588
				c0,3.347,0.747,6.25,2.304,8.713c1.553,2.463,3.651,4.603,6.331,6.419c2.678,1.816,7.883,4.661,15.628,8.534
				c10.899,5.4,18.521,10.675,22.874,15.812c4.351,5.143,6.522,10.892,6.522,17.249c0,9.467-3.442,16.78-10.328,21.945
				c-6.885,5.164-16.521,7.745-28.901,7.745c-3.777,0-8.935-0.621-14.98-1.865c-6.049-1.242-9.973-2.748-12.973-4.519
				L387.906,339.033L387.906,339.033z"/>
			<polygon fill="#BD8A60" points="546.906,358 488.906,358 488.906,247 544.906,247 544.906,258 500.906,258 500.906,296 
				540.906,296 540.906,307 500.906,307 500.906,347 546.906,347 			"/>
			<path fill="#BD8A60" d="M591.906,258v41h17.964c6.741,0,12.239-1.785,16.495-5.729c4.256-3.945,6.383-9.102,6.383-15.65
				c0-6.024-1.936-10.934-5.809-14.328c-3.873-3.394-9.517-5.293-16.927-5.293H591.906z M658.209,358h-14.631l-18.646-31.141
				c-3.97-6.693-7.578-10.87-10.83-12.951C610.85,311.83,607.049,311,602.7,311h-10.793v47h-12V247h32.33
				c10.185,0,18.289,2.699,24.312,7.935c6.024,5.236,8.997,12.511,8.997,21.735c0,15.348-8.64,25.357-24.64,29.946v0.287
				c3,1.34,5.622,3.083,7.604,5.234c1.983,2.151,4.979,6.28,8.95,12.642L658.209,358z"/>
			<path fill="#BD8A60" d="M766.76,247l-41.309,111h-13.412l-40.447-111h13.625l31.271,89.018c0.953,2.727,1.694,5.982,2.222,9.982
				h0.358c0.335-3,1.173-6.539,2.511-10.127L753.564,247H766.76z"/>
			<polygon fill="#BD8A60" points="816.906,258 805.906,258 805.906,348 816.906,348 816.906,358 782.906,358 782.906,348 
				793.906,348 793.906,258 782.906,258 782.906,247 816.906,247 			"/>
			<path fill="#BD8A60" d="M921.906,353.521c-8,4.397-18.354,6.598-30.59,6.598c-15.588,0-28.135-5.141-37.675-15.419
				c-9.536-10.279-14.3-23.57-14.3-39.876c0-17.115,5.24-31.315,15.711-42.602c10.475-11.281,24.043-16.926,40.777-16.926
				c10.518,0,19.074,1.531,26.074,4.59v13.196c-8-4.398-16.75-6.598-26.359-6.598c-13.195,0-23.711,4.443-31.575,13.339
				c-7.864,8.894-11.79,20.32-11.79,34.279c0,13.244,3.688,24.052,11.051,32.418c7.361,8.366,17.204,12.552,29.59,12.552
				c11.188,0,21.086-2.485,29.086-7.46V353.521z"/>
			<polygon fill="#BD8A60" points="1013.906,358 955.906,358 955.906,247 1011.906,247 1011.906,258 967.906,258 967.906,296 
				1007.906,296 1007.906,307 967.906,307 967.906,347 1013.906,347 			"/>
		</g>
		<g>
			<path fill="#BD8A60" d="M386.906,340.271c3,2.821,7.69,5.177,13.547,7.063c5.854,1.89,11.321,2.833,16.294,2.833
				c16.16,0,24.267-5.882,24.267-17.643c0-3.301-0.823-6.24-2.499-8.821c-1.674-2.583-3.926-4.816-6.771-6.706
				c-2.845-1.889-8.448-4.985-16.814-9.287c-12.049-6.169-19.675-11.546-22.877-16.137c-3.204-4.59-4.804-9.776-4.804-15.562
				c0-8.939,3.634-16.089,10.901-21.442c7.267-5.354,16.279-8.032,27.276-8.032c11.093,0,19.479,1.313,23.479,3.944v14.128
				c-6-4.493-14.775-6.741-25.055-6.741c-7.029,0-12.707,1.496-17.153,4.48c-4.446,2.988-6.643,7.188-6.643,12.59
				c0,3.347,0.791,6.25,2.347,8.713c1.554,2.463,3.678,4.603,6.354,6.419c2.678,1.814,7.895,4.661,15.64,8.534
				c10.898,5.401,18.526,10.674,22.88,15.812c4.351,5.14,6.525,10.89,6.525,17.247c0,9.467-3.439,16.781-10.324,21.946
				c-6.887,5.163-16.521,7.744-28.902,7.744c-3.778,0-8.79-0.621-14.838-1.864c-6.05-1.242-9.83-2.748-12.83-4.52V340.271
				L386.906,340.271z"/>
			<polygon fill="#BD8A60" points="545.906,359 486.906,359 486.906,248 542.906,248 542.906,260 499.906,260 499.906,297 
				539.906,297 539.906,309 499.906,309 499.906,348 545.906,348 			"/>
			<path fill="#BD8A60" d="M590.906,260v41h17.679c6.741,0,12.239-2.166,16.495-6.109c4.255-3.943,6.383-9.29,6.383-15.841
				c0-6.021-1.937-10.646-5.81-14.043c-3.873-3.395-9.517-5.007-16.925-5.007H590.906z M656.923,359h-14.631l-18.646-31.021
				c-3.972-6.693-7.579-10.93-10.83-13.01c-3.252-2.079-7.054-2.969-11.402-2.969h-10.507v47h-13V248h33.045
				c10.184,0,18.288,2.818,24.312,8.053c6.024,5.236,9.142,12.568,9.142,21.796c0,15.349-8.497,25.416-24.497,30.009v0.285
				c3,1.341,5.479,3.083,7.464,5.235c1.98,2.15,4.907,6.161,8.878,12.521L656.923,359z"/>
			<path fill="#BD8A60" d="M765.475,248l-41.309,111h-13.412l-40.448-111h13.626l31.271,89.017c0.955,2.728,1.695,5.983,2.223,9.983
				h0.358c0.334-3,1.172-6.541,2.511-10.127L752.279,248H765.475z"/>
			<polygon fill="#BD8A60" points="815.906,259 804.906,259 804.906,349 815.906,349 815.906,359 781.906,359 781.906,349 
				792.906,349 792.906,259 781.906,259 781.906,248 815.906,248 			"/>
			<path fill="#BD8A60" d="M920.906,354.758c-8,4.399-18.494,6.6-30.732,6.6c-15.588,0-28.205-5.141-37.744-15.42
				c-9.538-10.277-14.335-23.569-14.335-39.875c0-17.115,5.222-31.315,15.692-42.601c10.472-11.284,24.176-16.926,40.91-16.926
				c10.52,0,19.209,1.531,26.209,4.59v13.196c-8-4.398-16.895-6.601-26.502-6.601c-13.195,0-23.782,4.447-31.646,13.343
				c-7.866,8.892-11.825,20.318-11.825,34.278c0,13.245,3.667,24.052,11.03,32.417c7.362,8.367,17.34,12.553,29.723,12.553
				c11.188,0,21.223-2.486,29.223-7.459L920.906,354.758L920.906,354.758z"/>
			<polygon fill="#BD8A60" points="1012.906,359 954.906,359 954.906,248 1009.906,248 1009.906,260 966.906,260 966.906,297 
				1006.906,297 1006.906,309 966.906,309 966.906,348 1012.906,348 			"/>
		</g>
		<g>
			<path fill="#BD8A60" d="M385.906,341.509c3,2.822,7.547,5.178,13.402,7.064c5.856,1.89,11.249,2.833,16.225,2.833
				c16.16,0,24.229-5.88,24.229-17.645c0-3.298-0.843-6.237-2.517-8.819c-1.672-2.582-3.937-4.816-6.778-6.706
				c-2.845-1.89-8.453-4.984-16.817-9.287c-12.052-6.168-19.676-11.546-22.879-16.136c-3.203-4.592-4.806-9.777-4.806-15.563
				c0-8.938,3.633-16.088,10.901-21.443c7.267-5.354,16.424-8.03,27.422-8.03c11.091,0,18.619,1.313,23.619,3.942v14.128
				c-7-4.491-14.918-6.738-25.197-6.738c-7.029,0-12.778,1.492-17.226,4.479c-4.446,2.988-6.679,7.187-6.679,12.587
				c0,3.349,0.774,6.251,2.328,8.714c1.555,2.463,3.668,4.604,6.346,6.419c2.68,1.817,7.891,4.661,15.636,8.533
				c10.899,5.404,18.524,10.676,22.878,15.814c4.35,5.14,6.523,10.89,6.523,17.248c0,9.467-3.44,16.78-10.325,21.943
				c-6.887,5.164-16.521,7.745-28.902,7.745c-3.777,0-8.646-0.62-14.694-1.861c-6.05-1.244-10.688-2.75-12.688-4.521V341.509
				L385.906,341.509L385.906,341.509z"/>
			<polygon fill="#BD8A60" points="543.906,361 485.906,361 485.906,250 541.906,250 541.906,261 497.906,261 497.906,299 
				538.906,299 538.906,310 497.906,310 497.906,350 543.906,350 			"/>
			<path fill="#BD8A60" d="M588.906,261v41h18.393c6.742,0,12.239-2.047,16.496-5.992c4.254-3.941,6.383-9.228,6.383-15.779
				c0-6.021-1.937-10.733-5.81-14.132c-3.873-3.395-9.517-5.097-16.926-5.097H588.906z M655.637,361h-14.631l-18.646-31.404
				c-3.971-6.691-7.578-11.237-10.829-13.317c-3.252-2.079-7.053-3.276-11.402-3.276h-11.222v48h-12V250h32.76
				c10.186,0,18.288,2.438,24.312,7.672c6.021,5.236,9.279,12.378,9.279,21.605c0,15.348-8.354,25.226-24.354,29.813v0.287
				c3,1.339,5.336,3.084,7.32,5.235c1.981,2.149,4.838,6.543,8.807,12.899L655.637,361z"/>
			<path fill="#BD8A60" d="M764.189,250l-41.311,111h-13.412L669.02,250h13.629l31.27,88.516c0.955,2.727,1.696,5.484,2.225,9.484
				h0.355c0.335-3,1.172-6.041,2.512-9.627L750.994,250H764.189z"/>
			<polygon fill="#BD8A60" points="814.906,260 803.906,260 803.906,350 814.906,350 814.906,361 779.906,361 779.906,350 
				790.906,350 790.906,260 779.906,260 779.906,250 814.906,250 			"/>
			<path fill="#BD8A60" d="M918.906,355.998c-8,4.398-18.139,6.597-30.376,6.597c-15.587,0-28.024-5.139-37.565-15.419
				c-9.537-10.276-14.245-23.57-14.245-39.875c0-17.115,5.269-31.313,15.737-42.601c10.471-11.282,23.842-16.925,40.576-16.925
				c10.519,0,19.873,1.528,25.873,4.59v13.194c-7-4.396-16.534-6.598-26.146-6.598c-13.193,0-23.604,4.446-31.467,13.339
				c-7.867,8.895-11.737,20.32-11.737,34.281c0,13.244,3.714,24.051,11.075,32.416c7.363,8.367,17.005,12.551,29.389,12.551
				c11.188,0,20.887-2.482,28.887-7.459V355.998z"/>
			<polygon fill="#BD8A60" points="1011.906,361 952.906,361 952.906,250 1008.906,250 1008.906,261 965.906,261 965.906,299 
				1005.906,299 1005.906,310 965.906,310 965.906,350 1011.906,350 			"/>
		</g>
		<g>
			<path fill="#BD8A60" d="M384.906,342.748c3,2.822,7.404,5.178,13.261,7.064c5.856,1.89,11.179,2.831,16.151,2.831
				c16.16,0,24.193-5.881,24.193-17.643c0-3.298-0.858-6.239-2.533-8.821s-3.943-4.814-6.788-6.706
				c-2.847-1.888-8.457-4.981-16.823-9.286c-12.049-6.169-19.679-11.547-22.881-16.137c-3.204-4.591-4.807-9.775-4.807-15.562
				c0-8.94,3.632-16.088,10.9-21.443c7.267-5.354,16.564-8.032,27.562-8.032c11.094,0,18.765,1.315,23.765,3.944v14.128
				c-7-4.493-15.062-6.741-25.341-6.741c-7.028,0-12.852,1.495-17.298,4.482c-4.445,2.989-6.712,7.185-6.712,12.587
				c0,3.348,0.755,6.251,2.312,8.713c1.553,2.464,3.659,4.604,6.337,6.42c2.678,1.816,7.883,4.66,15.629,8.533
				c10.9,5.403,18.523,10.676,22.876,15.813c4.351,5.141,6.524,10.891,6.524,17.248c0,9.468-3.443,16.78-10.328,21.944
				c-6.886,5.164-16.521,7.746-28.903,7.746c-3.777,0-8.504-0.622-14.552-1.865c-6.05-1.243-10.544-2.749-12.544-4.519v-14.701
				L384.906,342.748L384.906,342.748z"/>
			<polygon fill="#BD8A60" points="542.906,362 484.906,362 484.906,251 540.906,251 540.906,262 496.906,262 496.906,300 
				536.906,300 536.906,311 496.906,311 496.906,351 542.906,351 			"/>
			<path fill="#BD8A60" d="M587.906,262v41h18.105c6.741,0,12.238-1.928,16.495-5.873c4.255-3.943,6.384-9.169,6.384-15.72
				c0-6.024-1.938-10.826-5.811-14.224c-3.873-3.395-9.515-5.186-16.926-5.186L587.906,262L587.906,262z M654.352,362h-14.631
				l-18.646-31.285c-3.969-6.689-7.578-11.298-10.83-13.378c-3.252-2.078-7.053-3.337-11.402-3.337h-10.936v48h-12V251h32.474
				c10.187,0,18.288,2.557,24.313,7.792c6.021,5.235,8.924,12.437,8.924,21.663c0,15.348-7.711,25.286-24.711,29.876v0.287
				c3,1.339,5.691,3.083,7.678,5.233c1.984,2.151,5.017,6.426,8.985,12.783L654.352,362z"/>
			<path fill="#BD8A60" d="M762.904,251l-41.312,111h-13.412l-40.446-111h13.626l31.27,88.516c0.955,2.729,1.696,6.484,2.224,9.484
				h0.357c0.334-3,1.172-6.041,2.511-9.627L749.708,251H762.904z"/>
			<polygon fill="#BD8A60" points="812.906,262 801.906,262 801.906,351 812.906,351 812.906,362 778.906,362 778.906,351 
				789.906,351 789.906,262 778.906,262 778.906,251 812.906,251 			"/>
			<path fill="#BD8A60" d="M917.906,357.236c-8,4.396-18.28,6.598-30.521,6.598c-15.588,0-28.097-5.14-37.636-15.42
				c-9.539-10.279-14.282-23.57-14.282-39.875c0-17.116,5.249-31.316,15.722-42.601c10.471-11.282,23.975-16.927,40.709-16.927
				c10.519,0,19.008,1.53,26.008,4.592v13.194c-8-4.396-16.678-6.599-26.288-6.599c-13.195,0-23.675,4.446-31.538,13.34
				c-7.867,8.893-11.772,20.32-11.772,34.28c0,13.245,3.694,24.051,11.06,32.417c7.359,8.367,17.138,12.551,29.521,12.551
				c11.188,0,21.021-2.484,29.021-7.459L917.906,357.236L917.906,357.236z"/>
			<polygon fill="#BD8A60" points="1009.906,362 951.906,362 951.906,251 1007.906,251 1007.906,262 963.906,262 963.906,300 
				1004.906,300 1004.906,311 963.906,311 963.906,351 1009.906,351 			"/>
		</g>
		<g>
			<path fill="#BD8A60" d="M382.906,343.986c3,2.82,7.762,5.177,13.619,7.062c5.854,1.892,11.354,2.833,16.328,2.833
				c16.158,0,24.282-5.881,24.282-17.643c0-3.299-0.813-6.239-2.486-8.821c-1.677-2.582-3.924-4.814-6.77-6.705
				c-2.844-1.889-8.446-4.982-16.812-9.288c-12.051-6.168-19.673-11.546-22.876-16.137c-3.203-4.59-4.803-9.776-4.803-15.562
				c0-8.938,3.633-16.088,10.901-21.442c7.267-5.354,16.21-8.031,27.208-8.031c11.091,0,19.405,1.315,23.405,3.944v14.128
				c-6-4.493-14.705-6.741-24.983-6.741c-7.028,0-12.672,1.495-17.118,4.482c-4.444,2.987-6.621,7.185-6.621,12.587
				c0,3.347,0.8,6.251,2.354,8.713c1.554,2.464,3.682,4.603,6.357,6.42c2.68,1.814,7.896,4.661,15.643,8.533
				c10.898,5.401,18.527,10.675,22.88,15.812c4.351,5.141,6.528,10.891,6.528,17.248c0,9.467-3.442,16.781-10.327,21.945
				c-6.886,5.164-16.521,7.746-28.901,7.746c-3.775,0-8.859-0.622-14.91-1.865c-6.05-1.243-9.9-2.748-12.9-4.52v-14.699H382.906z"/>
			<polygon fill="#BD8A60" points="541.906,363 483.906,363 483.906,252 538.906,252 538.906,263 495.906,263 495.906,301 
				535.906,301 535.906,312 495.906,312 495.906,352 541.906,352 			"/>
			<path fill="#BD8A60" d="M586.906,263v41h17.822c6.739,0,12.236-1.809,16.492-5.754c4.258-3.943,6.386-9.109,6.386-15.66
				c0-6.023-1.938-10.915-5.812-14.311c-3.873-3.396-9.515-5.275-16.925-5.275H586.906z M653.066,363h-14.633l-18.646-31.166
				c-3.969-6.691-7.578-10.857-10.83-12.938c-3.252-2.079-7.053-2.896-11.402-2.896h-10.648v47h-13V252h33.188
				c10.188,0,18.289,2.676,24.313,7.91c6.022,5.236,9.065,12.497,9.065,21.724c0,15.35-8.566,25.348-24.566,29.938v0.287
				c3,1.339,5.551,3.083,7.534,5.233c1.983,2.151,4.944,6.305,8.913,12.664L653.066,363z"/>
			<path fill="#BD8A60" d="M761.617,252l-41.307,111h-13.412L666.45,252h13.625l31.271,89.016c0.954,2.728,1.696,5.984,2.224,9.984
				h0.357c0.334-3,1.172-6.541,2.511-10.127L748.423,252H761.617z"/>
			<polygon fill="#BD8A60" points="811.906,263 800.906,263 800.906,353 811.906,353 811.906,363 777.906,363 777.906,353 
				788.906,353 788.906,263 777.906,263 777.906,252 811.906,252 			"/>
			<path fill="#BD8A60" d="M916.906,358.473c-8,4.399-18.423,6.601-30.661,6.601c-15.588,0-28.169-5.142-37.708-15.42
				c-9.537-10.279-14.316-23.57-14.316-39.875c0-17.115,5.229-31.316,15.701-42.603c10.473-11.283,24.109-16.925,40.844-16.925
				c10.52,0,19.143,1.53,26.143,4.59v13.196c-8-4.398-16.821-6.599-26.432-6.599c-13.194,0-23.746,4.444-31.609,13.34
				c-7.865,8.893-11.809,20.318-11.809,34.278c0,13.245,3.677,24.053,11.038,32.417c7.363,8.367,17.272,12.553,29.657,12.553
				c11.188,0,21.152-2.485,29.152-7.459V358.473z"/>
			<polygon fill="#BD8A60" points="1008.906,363 950.906,363 950.906,252 1006.906,252 1006.906,263 962.906,263 962.906,301 
				1002.906,301 1002.906,312 962.906,312 962.906,352 1008.906,352 			"/>
		</g>
		<g>
			<path fill="#BD8A60" d="M381.906,345.224c3,2.822,7.619,5.179,13.475,7.064c5.857,1.89,11.286,2.833,16.259,2.833
				c16.16,0,24.249-5.881,24.249-17.643c0-3.301-0.834-6.239-2.508-8.821s-3.931-4.816-6.773-6.705
				c-2.846-1.89-8.45-4.984-16.815-9.288c-12.05-6.168-19.677-11.546-22.878-16.137c-3.203-4.59-4.805-9.776-4.805-15.562
				c0-8.938,3.633-16.088,10.9-21.442c7.27-5.354,16.354-8.031,27.352-8.031c11.092,0,18.549,1.313,23.549,3.942v14.128
				c-6-4.491-14.849-6.739-25.127-6.739c-7.027,0-12.742,1.495-17.189,4.48c-4.443,2.989-6.656,7.187-6.656,12.587
				c0,3.349,0.781,6.251,2.336,8.713c1.553,2.466,3.671,4.604,6.351,6.421c2.677,1.815,7.89,4.66,15.634,8.532
				c10.902,5.403,18.528,10.677,22.88,15.814c4.352,5.14,6.527,10.89,6.527,17.248c0,9.467-3.442,16.781-10.327,21.944
				s-16.52,7.745-28.902,7.745c-3.775,0-8.719-0.622-14.768-1.863c-6.049-1.243-10.758-2.748-12.758-4.521v-14.701L381.906,345.224
				L381.906,345.224z"/>
			<polygon fill="#BD8A60" points="540.906,364 481.906,364 481.906,253 537.906,253 537.906,265 493.906,265 493.906,302 
				534.906,302 534.906,314 493.906,314 493.906,353 540.906,353 			"/>
			<path fill="#BD8A60" d="M584.906,265v41h18.537c6.738,0,12.236-2.189,16.494-6.135c4.256-3.943,6.383-9.3,6.383-15.853
				c0-6.021-1.938-10.63-5.811-14.024c-3.873-3.396-9.516-4.988-16.926-4.988H584.906L584.906,265z M651.781,364h-14.632
				l-18.646-31.047c-3.969-6.691-7.578-10.917-10.829-12.997c-3.252-2.079-7.053-2.956-11.4-2.956h-11.365v47h-12V253h32.9
				c10.187,0,18.289,2.793,24.312,8.029c6.023,5.234,9.211,12.557,9.211,21.781c0,15.35-8.426,25.405-24.426,29.995v0.287
				c3,1.339,5.408,3.083,7.393,5.235c1.982,2.15,4.873,6.186,8.842,12.545L651.781,364z"/>
			<path fill="#BD8A60" d="M760.332,253l-41.309,111h-13.412l-40.448-111h13.626l31.27,89.016c0.955,2.728,1.696,5.984,2.225,9.984
				h0.356c0.335-3,1.173-6.541,2.511-10.127L747.137,253H760.332z"/>
			<polygon fill="#BD8A60" points="810.906,264 799.906,264 799.906,354 810.906,354 810.906,364 776.906,364 776.906,354 
				787.906,354 787.906,264 776.906,264 776.906,253 810.906,253 			"/>
			<path fill="#BD8A60" d="M915.906,359.711c-9,4.399-18.564,6.599-30.805,6.599c-15.588,0-28.239-5.14-37.778-15.42
				c-9.538-10.277-14.354-23.568-14.354-39.875c0-17.114,5.212-31.314,15.685-42.601c10.472-11.283,24.243-16.925,40.978-16.925
				c10.521,0,19.275,1.528,26.275,4.59v13.196c-8-4.398-16.963-6.601-26.574-6.601c-13.193,0-23.816,4.446-31.681,13.34
				c-7.866,8.895-11.845,20.32-11.845,34.28c0,13.245,3.657,24.051,11.021,32.417c7.362,8.367,17.406,12.551,29.791,12.551
				c11.188,0,20.286-2.483,29.286-7.459L915.906,359.711L915.906,359.711z"/>
			<polygon fill="#BD8A60" points="1007.906,364 948.906,364 948.906,253 1004.906,253 1004.906,265 961.906,265 961.906,302 
				1001.906,302 1001.906,314 961.906,314 961.906,353 1007.906,353 			"/>
		</g>
		<g>
			<path fill="#BD8A60" d="M380.906,346.462c3,2.822,7.476,5.178,13.333,7.064c5.854,1.89,11.214,2.833,16.187,2.833
				c16.16,0,24.212-5.881,24.212-17.645c0-3.299-0.85-6.239-2.521-8.82c-1.673-2.581-3.941-4.815-6.785-6.705
				c-2.845-1.89-8.454-4.984-16.82-9.287c-12.049-6.168-19.678-11.546-22.88-16.139c-3.204-4.59-4.806-9.774-4.806-15.562
				c0-8.94,3.632-16.088,10.899-21.444c7.268-5.354,16.495-8.032,27.493-8.032c11.092,0,18.69,1.316,23.69,3.945V270.8
				c-7-4.493-14.99-6.741-25.271-6.741c-7.025,0-12.812,1.495-17.261,4.481c-4.445,2.989-6.692,7.186-6.692,12.588
				c0,3.347,0.764,6.251,2.318,8.713c1.553,2.464,3.662,4.604,6.341,6.419c2.678,1.817,7.887,4.661,15.631,8.534
				c10.902,5.403,18.526,10.675,22.879,15.814c4.351,5.14,6.524,10.89,6.524,17.248c0,9.467-3.443,16.779-10.328,21.943
				s-16.521,7.745-28.9,7.745c-3.778,0-8.576-0.621-14.625-1.864c-6.049-1.241-10.616-2.749-12.616-4.519V346.462z"/>
			<polygon fill="#BD8A60" points="538.906,366 480.906,366 480.906,255 536.906,255 536.906,266 492.906,266 492.906,304 
				533.906,304 533.906,315 492.906,315 492.906,354 538.906,354 			"/>
			<path fill="#BD8A60" d="M583.906,266v41h18.251c6.741,0,12.236-2.07,16.495-6.016c4.254-3.943,6.383-9.24,6.383-15.791
				c0-6.024-1.938-10.721-5.811-14.115C615.352,267.684,609.71,266,602.3,266H583.906z M650.495,366h-14.631l-18.646-31.428
				c-3.97-6.693-7.579-11.229-10.829-13.309c-3.252-2.078-7.053-3.266-11.401-3.266h-11.079v48h-12V255h32.617
				c10.184,0,18.286,2.414,24.312,7.649c6.024,5.233,8.854,12.364,8.854,21.593c0,15.348-7.783,25.214-24.783,29.804v0.287
				c3,1.339,5.766,3.083,7.75,5.235c1.98,2.149,5.051,6.564,9.021,12.926L650.495,366z"/>
			<path fill="#BD8A60" d="M759.047,255l-41.309,111h-13.412l-40.448-111h13.626l31.27,88.516c0.955,2.729,1.696,5.484,2.225,9.484
				h0.357c0.334-3,1.172-6.041,2.512-9.627L745.852,255H759.047z"/>
			<polygon fill="#BD8A60" points="808.906,265 797.906,265 797.906,355 808.906,355 808.906,366 774.906,366 774.906,355 
				785.906,355 785.906,265 774.906,265 774.906,255 808.906,255 			"/>
			<path fill="#BD8A60" d="M913.906,360.951c-8,4.396-18.209,6.597-30.447,6.597c-15.588,0-28.061-5.139-37.6-15.419
				c-9.538-10.279-14.266-23.57-14.266-39.875c0-17.116,5.26-31.316,15.729-42.601c10.471-11.282,23.905-16.928,40.642-16.928
				c10.521,0,18.94,1.531,25.94,4.593v13.194c-8-4.396-16.605-6.599-26.218-6.599c-13.194,0-23.64,4.446-31.502,13.34
				c-7.865,8.895-11.754,20.32-11.754,34.28c0,13.245,3.702,24.051,11.065,32.417c7.36,8.367,17.069,12.551,29.454,12.551
				c11.188,0,20.952-2.484,28.952-7.459L913.906,360.951L913.906,360.951z"/>
			<polygon fill="#BD8A60" points="1006.906,366 947.906,366 947.906,255 1003.906,255 1003.906,266 959.906,266 959.906,304 
				1000.906,304 1000.906,315 959.906,315 959.906,354 1006.906,354 			"/>
		</g>
		<g>
			<path fill="#BD8A60" d="M378.906,347.701c4,2.822,7.833,5.177,13.69,7.062c5.855,1.893,11.392,2.834,16.364,2.834
				c16.16,0,24.303-5.881,24.303-17.643c0-3.299-0.807-6.24-2.479-8.821c-1.674-2.583-3.918-4.814-6.762-6.706
				c-2.846-1.888-8.443-4.982-16.812-9.287c-12.049-6.168-19.672-11.546-22.874-16.137c-3.204-4.59-4.803-9.776-4.803-15.562
				c0-8.94,3.634-16.09,10.901-21.443c7.267-5.355,16.639-8.032,27.637-8.032c11.092,0,18.834,1.315,23.834,3.944v14.128
				c-7-4.494-15.133-6.741-25.411-6.741c-7.029,0-12.886,1.495-17.333,4.481c-4.445,2.987-6.729,7.186-6.729,12.588
				c0,3.347,0.748,6.251,2.302,8.713c1.553,2.464,3.653,4.603,6.333,6.419c2.678,1.817,7.883,4.662,15.628,8.534
				c10.899,5.401,18.521,10.675,22.875,15.812c4.35,5.142,6.521,10.892,6.521,17.248c0,9.468-3.441,16.781-10.328,21.944
				c-6.885,5.164-16.52,7.746-28.9,7.746c-3.777,0-8.937-0.621-14.982-1.864c-6.049-1.243-9.973-2.749-12.973-4.519L378.906,347.701
				L378.906,347.701z"/>
			<polygon fill="#BD8A60" points="537.906,367 479.906,367 479.906,256 535.906,256 535.906,267 491.906,267 491.906,305 
				531.906,305 531.906,316 491.906,316 491.906,356 537.906,356 			"/>
			<path fill="#BD8A60" d="M582.906,267v41h17.965c6.742,0,12.239-1.951,16.496-5.896c4.254-3.943,6.383-9.182,6.383-15.73
				c0-6.024-1.938-10.808-5.81-14.204c-3.873-3.395-9.517-5.168-16.928-5.168L582.906,267L582.906,267z M649.209,367h-14.631
				l-18.646-31.309c-3.969-6.693-7.578-11.286-10.828-13.366C601.851,320.247,598.05,319,593.7,319h-10.794v48h-12V256h32.332
				c10.184,0,18.287,2.532,24.312,7.769c6.023,5.234,8.996,12.427,8.996,21.651c0,15.348-8.641,25.274-24.641,29.864v0.287
				c3,1.339,5.623,3.083,7.605,5.233c1.982,2.151,4.979,6.447,8.948,12.807L649.209,367z"/>
			<path fill="#BD8A60" d="M757.761,256l-41.308,111h-13.412l-40.449-111h13.626l31.271,88.516c0.956,2.729,1.694,6.484,2.223,9.484
				h0.358c0.334-3,1.172-6.041,2.512-9.627L744.564,256H757.761z"/>
			<polygon fill="#BD8A60" points="807.906,267 796.906,267 796.906,356 807.906,356 807.906,367 773.906,367 773.906,356 
				784.906,356 784.906,267 773.906,267 773.906,256 807.906,256 			"/>
			<path fill="#BD8A60" d="M912.906,362.188c-8,4.399-18.354,6.6-30.59,6.6c-15.588,0-28.135-5.139-37.672-15.42
				c-9.539-10.278-14.301-23.569-14.301-39.875c0-17.115,5.24-31.315,15.71-42.602c10.475-11.281,24.042-16.925,40.776-16.925
				c10.518,0,19.074,1.53,26.074,4.59v13.196c-8-4.396-16.748-6.599-26.359-6.599c-13.195,0-23.71,4.444-31.573,13.34
				c-7.866,8.893-11.79,20.32-11.79,34.28c0,13.243,3.688,24.051,11.051,32.417c7.359,8.365,17.203,12.551,29.588,12.551
				c11.188,0,21.086-2.485,29.086-7.46V362.188z"/>
			<polygon fill="#BD8A60" points="1004.906,367 946.906,367 946.906,256 1002.906,256 1002.906,267 958.906,267 958.906,305 
				998.906,305 998.906,316 958.906,316 958.906,356 1004.906,356 			"/>
		</g>
		<g>
			<path fill="#BD8A60" d="M377.906,348.939c3,2.82,7.691,5.177,13.547,7.062c5.855,1.89,11.321,2.833,16.295,2.833
				c16.16,0,24.266-5.881,24.266-17.643c0-3.3-0.823-6.24-2.498-8.821c-1.674-2.582-3.927-4.816-6.771-6.706
				c-2.845-1.888-8.448-4.984-16.814-9.287c-12.049-6.168-19.675-11.546-22.876-16.137c-3.203-4.59-4.804-9.776-4.804-15.562
				c0-8.939,3.634-16.088,10.902-21.441c7.268-5.354,16.28-8.033,27.278-8.033c11.093,0,19.479,1.316,23.479,3.944v14.129
				c-6-4.494-14.775-6.741-25.055-6.741c-7.028,0-12.707,1.495-17.154,4.481c-4.445,2.987-6.639,7.186-6.639,12.588
				c0,3.347,0.791,6.251,2.346,8.713c1.553,2.463,3.676,4.603,6.354,6.419c2.68,1.814,7.896,4.661,15.64,8.534
				c10.9,5.401,18.527,10.675,22.881,15.812c4.35,5.141,6.525,10.891,6.525,17.247c0,9.468-3.44,16.781-10.325,21.946
				c-6.887,5.164-16.521,7.745-28.901,7.745c-3.777,0-8.791-0.621-14.839-1.865c-6.049-1.242-9.83-2.748-12.83-4.519
				L377.906,348.939L377.906,348.939z"/>
			<polygon fill="#BD8A60" points="536.906,368 477.906,368 477.906,257 533.906,257 533.906,268 490.906,268 490.906,306 
				530.906,306 530.906,317 490.906,317 490.906,357 536.906,357 			"/>
			<path fill="#BD8A60" d="M581.906,268v41h17.68c6.741,0,12.239-1.832,16.495-5.776c4.255-3.942,6.383-9.122,6.383-15.673
				c0-6.022-1.937-10.896-5.809-14.294c-3.873-3.394-9.518-5.257-16.929-5.257H581.906z M647.924,368h-14.631l-18.646-31.188
				c-3.972-6.693-7.579-10.849-10.829-12.929c-3.252-2.078-7.056-2.885-11.403-2.885h-10.508v47h-13V257h33.046
				c10.184,0,18.288,2.651,24.312,7.887c6.024,5.236,9.14,12.486,9.14,21.713c0,15.35-8.496,25.332-24.496,29.925v0.285
				c3,1.341,5.479,3.083,7.463,5.235c1.984,2.15,4.909,6.328,8.879,12.688L647.924,368z"/>
			<path fill="#BD8A60" d="M756.477,257l-41.31,111h-13.412l-40.448-111h13.626l31.271,89.017c0.955,2.728,1.694,5.983,2.223,9.983
				h0.358c0.334-3,1.172-6.541,2.511-10.127L743.28,257H756.477z"/>
			<polygon fill="#BD8A60" points="806.906,268 795.906,268 795.906,357 806.906,357 806.906,368 772.906,368 772.906,357 
				783.906,357 783.906,268 772.906,268 772.906,257 806.906,257 			"/>
			<path fill="#BD8A60" d="M911.906,363.426c-8,4.398-18.494,6.6-30.732,6.6c-15.588,0-28.204-5.141-37.743-15.419
				c-9.538-10.279-14.335-23.571-14.335-39.875c0-17.116,5.224-31.316,15.692-42.603c10.472-11.283,24.176-16.926,40.91-16.926
				c10.519,0,19.208,1.531,26.208,4.591v13.195c-8-4.397-16.894-6.6-26.502-6.6c-13.195,0-23.781,4.446-31.646,13.342
				c-7.866,8.892-11.825,20.318-11.825,34.278c0,13.245,3.667,24.053,11.03,32.417c7.362,8.367,17.339,12.553,29.723,12.553
				c11.188,0,21.222-2.485,29.222-7.459L911.906,363.426L911.906,363.426z"/>
			<polygon fill="#BD8A60" points="1003.906,368 945.906,368 945.906,257 1000.906,257 1000.906,268 957.906,268 957.906,306 
				997.906,306 997.906,317 957.906,317 957.906,357 1003.906,357 			"/>
		</g>
		<g>
			<path fill="#BD8A60" d="M376.906,350.176c3,2.822,7.547,5.178,13.404,7.065c5.857,1.89,11.25,2.833,16.223,2.833
				c16.16,0,24.229-5.881,24.229-17.645c0-3.299-0.842-6.238-2.516-8.82s-3.938-4.816-6.78-6.705
				c-2.843-1.89-8.453-4.984-16.816-9.287c-12.049-6.168-19.676-11.547-22.879-16.137c-3.203-4.592-4.806-9.777-4.806-15.562
				c0-8.941,3.633-16.088,10.9-21.444c7.268-5.354,16.423-8.03,27.421-8.03c11.092,0,18.62,1.314,23.62,3.942v14.129
				c-7-4.492-14.918-6.739-25.198-6.739c-7.027,0-12.778,1.492-17.227,4.479c-4.444,2.989-6.673,7.187-6.673,12.587
				c0,3.35,0.772,6.252,2.327,8.714c1.553,2.464,3.667,4.604,6.348,6.419c2.677,1.816,7.889,4.661,15.634,8.533
				c10.899,5.404,18.523,10.676,22.878,15.814c4.349,5.141,6.524,10.891,6.524,17.249c0,9.466-3.441,16.78-10.327,21.944
				c-6.886,5.162-16.521,7.744-28.901,7.744c-3.777,0-8.646-0.621-14.695-1.862c-6.049-1.243-10.688-2.749-12.688-4.521V350.176
				L376.906,350.176L376.906,350.176z"/>
			<polygon fill="#BD8A60" points="534.906,369 476.906,369 476.906,258 532.906,258 532.906,269 488.906,269 488.906,307 
				529.906,307 529.906,318 488.906,318 488.906,358 534.906,358 			"/>
			<path fill="#BD8A60" d="M579.906,270v41h18.395c6.74,0,12.238-2.213,16.495-6.158c4.255-3.942,6.383-9.312,6.383-15.863
				c0-6.021-1.937-10.609-5.81-14.007c-3.873-3.394-9.516-4.972-16.926-4.972H579.906z M646.639,369h-14.631l-18.646-31.07
				c-3.972-6.691-7.579-10.904-10.83-12.984c-3.252-2.078-7.055-2.943-11.402-2.943h-11.223v47h-12V258h32.76
				c10.185,0,18.289,2.771,24.313,8.006c6.022,5.236,9.279,12.545,9.279,21.771c0,15.348-8.354,25.393-24.354,29.98v0.287
				c3,1.34,5.337,3.084,7.319,5.236c1.983,2.148,4.837,6.209,8.81,12.564L646.639,369z"/>
			<path fill="#BD8A60" d="M755.189,258l-41.311,111h-13.412l-40.445-111h13.625l31.27,89.016c0.955,2.729,1.697,5.984,2.223,9.984
				h0.359c0.334-3,1.172-6.541,2.51-10.127L741.994,258H755.189z"/>
			<polygon fill="#BD8A60" points="805.906,269 794.906,269 794.906,359 805.906,359 805.906,369 770.906,369 770.906,359 
				781.906,359 781.906,269 770.906,269 770.906,258 805.906,258 			"/>
			<path fill="#BD8A60" d="M909.906,364.665c-8,4.396-18.137,6.598-30.376,6.598c-15.587,0-28.025-5.139-37.563-15.42
				c-9.538-10.276-14.246-23.568-14.246-39.874c0-17.116,5.268-31.315,15.736-42.601c10.473-11.283,23.842-16.926,40.576-16.926
				c10.518,0,19.873,1.529,25.873,4.59v13.194c-7-4.396-16.534-6.599-26.146-6.599c-13.193,0-23.604,4.447-31.468,13.34
				c-7.865,8.895-11.733,20.32-11.733,34.281c0,13.244,3.711,24.051,11.072,32.416c7.363,8.367,17.005,12.551,29.391,12.551
				c11.188,0,20.885-2.482,28.885-7.458V364.665z"/>
			<polygon fill="#BD8A60" points="1002.906,369 943.906,369 943.906,258 999.906,258 999.906,269 956.906,269 956.906,307 
				996.906,307 996.906,318 956.906,318 956.906,358 1002.906,358 			"/>
		</g>
		<g>
			<path fill="#BD8A60" d="M375.906,351.415c3,2.822,7.405,5.178,13.262,7.062c5.856,1.893,11.179,2.834,16.151,2.834
				c16.159,0,24.192-5.881,24.192-17.643c0-3.299-0.857-6.24-2.531-8.822c-1.676-2.582-3.945-4.814-6.789-6.705
				c-2.847-1.888-8.457-4.982-16.823-9.287c-12.049-6.168-19.679-11.547-22.881-16.137c-3.203-4.59-4.806-9.774-4.806-15.562
				c0-8.94,3.632-16.089,10.899-21.444c7.268-5.354,16.563-8.032,27.562-8.032c11.094,0,18.764,1.315,23.764,3.945v14.127
				c-7-4.493-15.062-6.74-25.341-6.74c-7.028,0-12.851,1.495-17.296,4.481c-4.445,2.989-6.711,7.186-6.711,12.587
				c0,3.348,0.756,6.252,2.311,8.714c1.553,2.463,3.657,4.604,6.336,6.419c2.677,1.817,7.884,4.661,15.628,8.533
				c10.902,5.404,18.525,10.676,22.877,15.812c4.35,5.143,6.524,10.893,6.524,17.248c0,9.469-3.442,16.782-10.327,21.945
				c-6.885,5.164-16.521,7.746-28.903,7.746c-3.777,0-8.505-0.621-14.553-1.864c-6.049-1.243-10.545-2.749-12.545-4.519v-14.702
				h0.001V351.415z"/>
			<polygon fill="#BD8A60" points="533.906,371 475.906,371 475.906,260 531.906,260 531.906,271 487.906,271 487.906,309 
				527.906,309 527.906,320 487.906,320 487.906,359 533.906,359 			"/>
			<path fill="#BD8A60" d="M578.906,271v41h18.106c6.741,0,12.239-2.094,16.495-6.039c4.255-3.944,6.383-9.253,6.383-15.804
				c0-6.023-1.937-10.7-5.809-14.099c-3.873-3.395-9.516-5.061-16.926-5.061L578.906,271L578.906,271z M645.354,371h-14.632
				l-18.646-31.451c-3.97-6.691-7.579-11.216-10.829-13.295c-3.252-2.079-7.053-3.254-11.403-3.254h-10.937v48h-12V260h32.475
				c10.186,0,18.288,2.39,24.312,7.625c6.022,5.235,8.925,12.355,8.925,21.582c0,15.346-7.712,25.201-24.712,29.791v0.287
				c3,1.34,5.692,3.084,7.679,5.236c1.982,2.148,5.016,6.59,8.985,12.945L645.354,371z"/>
			<path fill="#BD8A60" d="M753.904,260l-41.311,111h-13.412l-40.446-111h13.626l31.27,88.516c0.955,2.729,1.696,5.484,2.223,9.484
				h0.358c0.334-3,1.172-6.041,2.511-9.627L740.709,260H753.904z"/>
			<polygon fill="#BD8A60" points="803.906,270 792.906,270 792.906,360 803.906,360 803.906,371 769.906,371 769.906,360 
				780.906,360 780.906,270 769.906,270 769.906,260 803.906,260 			"/>
			<path fill="#BD8A60" d="M908.906,365.903c-8,4.397-18.279,6.598-30.52,6.598c-15.588,0-28.098-5.139-37.637-15.42
				c-9.538-10.278-14.281-23.569-14.281-39.875c0-17.115,5.248-31.315,15.721-42.6c10.473-11.283,23.976-16.928,40.709-16.928
				c10.52,0,19.008,1.531,26.008,4.592v13.194c-8-4.396-16.678-6.598-26.287-6.598c-13.195,0-23.675,4.446-31.539,13.339
				c-7.866,8.895-11.771,20.32-11.771,34.281c0,13.245,3.693,24.051,11.059,32.416c7.361,8.367,17.139,12.551,29.521,12.551
				c11.188,0,21.021-2.484,29.021-7.459L908.906,365.903L908.906,365.903z"/>
			<polygon fill="#BD8A60" points="1000.906,371 942.906,371 942.906,260 998.906,260 998.906,271 954.906,271 954.906,309 
				995.906,309 995.906,320 954.906,320 954.906,359 1000.906,359 			"/>
		</g>
		<g>
			<path fill="#BD8A60" d="M373.906,352.653c3,2.82,7.762,5.178,13.619,7.062c5.856,1.893,11.357,2.834,16.331,2.834
				c16.159,0,24.282-5.881,24.282-17.643c0-3.299-0.812-6.24-2.486-8.822c-1.676-2.582-3.925-4.816-6.769-6.705
				c-2.845-1.889-8.445-4.984-16.812-9.287c-12.049-6.168-19.675-11.547-22.876-16.137c-3.205-4.59-4.803-9.777-4.803-15.562
				c0-8.938,3.633-16.089,10.9-21.442c7.268-5.354,16.209-8.032,27.207-8.032c11.092,0,19.405,1.315,23.405,3.945v14.127
				c-6-4.493-14.703-6.74-24.982-6.74c-7.029,0-12.671,1.494-17.118,4.481c-4.445,2.987-6.622,7.185-6.622,12.587
				c0,3.348,0.801,6.252,2.355,8.714c1.553,2.463,3.68,4.603,6.358,6.419c2.677,1.815,7.895,4.661,15.64,8.533
				c10.899,5.402,18.529,10.676,22.882,15.812c4.35,5.143,6.528,10.893,6.528,17.248c0,9.467-3.443,16.782-10.327,21.945
				c-6.886,5.164-16.521,7.746-28.901,7.746c-3.777,0-8.862-0.621-14.91-1.865c-6.049-1.242-9.902-2.748-12.902-4.519v-14.701
				L373.906,352.653L373.906,352.653z"/>
			<polygon fill="#BD8A60" points="532.906,372 474.906,372 474.906,261 529.906,261 529.906,272 486.906,272 486.906,310 
				526.906,310 526.906,321 486.906,321 486.906,361 532.906,361 			"/>
			<path fill="#BD8A60" d="M577.906,272v41h17.822c6.74,0,12.238-1.975,16.494-5.92c4.256-3.944,6.385-9.192,6.385-15.744
				c0-6.021-1.938-10.789-5.812-14.186s-9.515-5.15-16.925-5.15H577.906L577.906,272z M644.067,372h-14.633l-18.646-31.331
				c-3.97-6.693-7.579-11.276-10.83-13.356c-3.251-2.076-7.052-3.312-11.402-3.312h-10.649v48h-13V261h33.188
				c10.186,0,18.288,2.509,24.312,7.744c6.022,5.233,9.065,12.414,9.065,21.641c0,15.35-8.567,25.262-24.567,29.854v0.287
				c3,1.34,5.551,3.084,7.536,5.234c1.98,2.15,4.942,6.473,8.912,12.829L644.067,372z"/>
			<path fill="#BD8A60" d="M752.619,261l-41.309,111h-13.412L657.45,261h13.626l31.27,88.516c0.955,2.729,1.696,6.484,2.225,9.484
				h0.356c0.333-3,1.172-6.041,2.511-9.626L739.424,261H752.619z"/>
			<polygon fill="#BD8A60" points="802.906,271 791.906,271 791.906,361 802.906,361 802.906,372 768.906,372 768.906,361 
				779.906,361 779.906,271 768.906,271 768.906,261 802.906,261 			"/>
			<path fill="#BD8A60" d="M907.906,367.141c-8,4.398-18.422,6.6-30.66,6.6c-15.59,0-28.169-5.141-37.708-15.42
				c-9.538-10.278-14.317-23.57-14.317-39.875c0-17.115,5.231-31.316,15.702-42.602c10.472-11.283,24.107-16.926,40.842-16.926
				c10.521,0,19.144,1.531,26.144,4.59v13.196c-8-4.398-16.82-6.599-26.434-6.599c-13.191,0-23.744,4.445-31.606,13.34
				c-7.867,8.893-11.81,20.318-11.81,34.279c0,13.244,3.679,24.053,11.041,32.416c7.361,8.367,17.271,12.553,29.654,12.553
				c11.188,0,21.152-2.484,29.152-7.459V367.141z"/>
			<polygon fill="#BD8A60" points="999.906,372 941.906,372 941.906,261 997.906,261 997.906,272 953.906,272 953.906,310 
				993.906,310 993.906,321 953.906,321 953.906,361 999.906,361 			"/>
		</g>
		<g>
			<path fill="#BD8A60" d="M372.906,353.891c3,2.822,7.618,5.18,13.477,7.064c5.855,1.891,11.285,2.834,16.258,2.834
				c16.16,0,24.248-5.881,24.248-17.643c0-3.301-0.833-6.24-2.507-8.822s-3.932-4.816-6.773-6.705
				c-2.847-1.889-8.45-4.984-16.816-9.287c-12.049-6.168-19.675-11.547-22.878-16.137c-3.203-4.592-4.804-9.777-4.804-15.562
				c0-8.939,3.633-16.089,10.9-21.444c7.268-5.354,16.354-8.03,27.352-8.03c11.092,0,18.548,1.313,23.548,3.942v14.128
				c-6-4.491-14.849-6.738-25.126-6.738c-7.028,0-12.741,1.492-17.188,4.479c-4.446,2.989-6.658,7.187-6.658,12.587
				c0,3.35,0.782,6.252,2.337,8.713c1.554,2.466,3.672,4.604,6.35,6.42c2.678,1.816,7.892,4.661,15.636,8.533
				c10.902,5.404,18.527,10.678,22.879,15.814c4.353,5.141,6.527,10.891,6.527,17.248c0,9.467-3.442,16.781-10.327,21.945
				c-6.885,5.162-16.52,7.744-28.9,7.744c-3.777,0-8.722-0.619-14.77-1.863c-6.049-1.242-10.759-2.748-12.759-4.52V353.89
				L372.906,353.891L372.906,353.891z"/>
			<polygon fill="#BD8A60" points="531.906,373 472.906,373 472.906,262 528.906,262 528.906,273 484.906,273 484.906,311 
				525.906,311 525.906,322 484.906,322 484.906,362 531.906,362 			"/>
			<path fill="#BD8A60" d="M575.906,273v41h18.537c6.74,0,12.237-1.855,16.496-5.801c4.254-3.944,6.382-9.134,6.382-15.687
				c0-6.021-1.938-10.88-5.81-14.272c-3.874-3.396-9.516-5.24-16.927-5.24H575.906L575.906,273z M642.782,373H628.15l-18.646-31.212
				c-3.971-6.693-7.58-10.835-10.83-12.915c-3.252-2.078-7.053-2.873-11.401-2.873h-11.365v47h-12V262h32.901
				c10.187,0,18.288,2.628,24.312,7.863c6.025,5.233,9.21,12.473,9.21,21.699c0,15.348-8.426,25.32-24.426,29.91v0.287
				c3,1.34,5.408,3.084,7.394,5.236c1.982,2.15,4.872,6.351,8.843,12.71L642.782,373z"/>
			<path fill="#BD8A60" d="M751.333,262l-41.308,111h-13.412l-40.449-111h13.627l31.27,89.016c0.955,2.729,1.695,5.984,2.224,9.984
				h0.358c0.332-3,1.172-6.541,2.511-10.127L738.138,262H751.333z"/>
			<polygon fill="#BD8A60" points="801.906,273 790.906,273 790.906,362 801.906,362 801.906,373 767.906,373 767.906,362 
				778.906,362 778.906,273 767.906,273 767.906,262 801.906,262 			"/>
			<path fill="#BD8A60" d="M906.906,368.379c-9,4.398-18.566,6.598-30.805,6.598c-15.588,0-28.239-5.139-37.777-15.42
				c-9.539-10.277-14.354-23.568-14.354-39.875c0-17.113,5.214-31.314,15.685-42.6c10.472-11.283,24.242-16.926,40.978-16.926
				c10.521,0,19.274,1.531,26.274,4.59v13.196c-8-4.398-16.963-6.601-26.572-6.601c-13.197,0-23.818,4.447-31.682,13.34
				c-7.866,8.895-11.844,20.32-11.844,34.281c0,13.244,3.656,24.051,11.021,32.416c7.361,8.367,17.406,12.551,29.789,12.551
				c11.188,0,20.287-2.482,29.287-7.459L906.906,368.379L906.906,368.379z"/>
			<polygon fill="#BD8A60" points="998.906,373 939.906,373 939.906,262 995.906,262 995.906,273 952.906,273 952.906,311 
				992.906,311 992.906,322 952.906,322 952.906,362 998.906,362 			"/>
		</g>
		<g>
			<path fill="#BD8A60" d="M371.906,355.129c3,2.822,7.477,5.178,13.334,7.064c5.854,1.891,11.214,2.834,16.187,2.834
				c16.16,0,24.212-5.881,24.212-17.645c0-3.299-0.85-6.238-2.523-8.82c-1.672-2.582-3.939-4.816-6.784-6.705
				c-2.844-1.891-8.453-4.984-16.82-9.287c-12.048-6.168-19.677-11.547-22.879-16.139c-3.204-4.59-4.806-9.775-4.806-15.562
				c0-8.941,3.633-16.089,10.9-21.444c7.266-5.354,16.493-8.031,27.49-8.031c11.093,0,18.691,1.314,23.691,3.943v14.128
				c-7-4.493-14.989-6.74-25.271-6.74c-7.026,0-12.812,1.494-17.261,4.481c-4.446,2.989-6.693,7.185-6.693,12.587
				c0,3.348,0.765,6.252,2.319,8.713c1.553,2.464,3.662,4.604,6.341,6.42c2.677,1.816,7.889,4.661,15.631,8.533
				c10.902,5.404,18.525,10.676,22.878,15.814c4.351,5.141,6.525,10.891,6.525,17.248c0,9.467-3.444,16.779-10.328,21.943
				c-6.885,5.164-16.52,7.746-28.901,7.746c-3.776,0-8.575-0.621-14.625-1.865c-6.049-1.24-10.617-2.748-12.617-4.518V355.129
				L371.906,355.129z"/>
			<polygon fill="#BD8A60" points="529.906,374 471.906,374 471.906,263 527.906,263 527.906,274 483.906,274 483.906,312 
				524.906,312 524.906,323 483.906,323 483.906,363 529.906,363 			"/>
			<path fill="#BD8A60" d="M574.906,275v40h18.252c6.74,0,12.239-1.736,16.495-5.682c4.255-3.944,6.383-9.074,6.383-15.625
				c0-6.023-1.938-10.471-5.811-13.864C606.354,276.433,600.71,275,593.3,275H574.906L574.906,275z M641.496,374h-14.631
				l-18.646-31.093c-3.97-6.693-7.579-10.896-10.829-12.978c-3.253-2.078-7.053-2.932-11.401-2.932h-11.08v47h-12V263h32.618
				c10.184,0,18.286,2.747,24.312,7.982c6.023,5.233,8.854,12.531,8.854,21.76c0,15.348-7.783,25.381-24.783,29.971V323
				c3,1.34,5.766,3.084,7.75,5.236c1.98,2.148,5.052,6.229,9.021,12.591L641.496,374z"/>
			<path fill="#BD8A60" d="M750.048,263l-41.309,111h-13.412l-40.448-111h13.626l31.271,89.016c0.954,2.729,1.694,5.984,2.222,9.984
				h0.357c0.334-3,1.172-6.541,2.513-10.127L736.854,263H750.048z"/>
			<polygon fill="#BD8A60" points="799.906,274 788.906,274 788.906,364 799.906,364 799.906,374 765.906,374 765.906,364 
				776.906,364 776.906,274 765.906,274 765.906,263 799.906,263 			"/>
			<path fill="#BD8A60" d="M904.906,369.618c-8,4.396-18.209,6.598-30.445,6.598c-15.588,0-28.062-5.139-37.602-15.42
				c-9.537-10.279-14.265-23.57-14.265-39.875c0-17.115,5.259-31.314,15.729-42.6c10.473-11.283,23.908-16.928,40.643-16.928
				c10.521,0,18.939,1.531,25.939,4.592v13.194c-8-4.396-16.605-6.599-26.215-6.599c-13.195,0-23.641,4.447-31.504,13.34
				c-7.865,8.895-11.755,20.32-11.755,34.281c0,13.244,3.702,24.051,11.065,32.416c7.363,8.367,17.071,12.551,29.455,12.551
				c11.188,0,20.951-2.483,28.951-7.459L904.906,369.618L904.906,369.618z"/>
			<polygon fill="#BD8A60" points="997.906,374 938.906,374 938.906,263 994.906,263 994.906,274 950.906,274 950.906,312 
				991.906,312 991.906,323 950.906,323 950.906,363 997.906,363 			"/>
		</g>
		<g>
			<path fill="#BD8A60" d="M369.906,356.368c4,2.822,7.834,5.178,13.688,7.062c5.857,1.893,11.396,2.834,16.367,2.834
				c16.16,0,24.302-5.881,24.302-17.643c0-3.299-0.806-6.24-2.479-8.822s-3.919-4.814-6.763-6.705
				c-2.847-1.889-8.442-4.982-16.811-9.287c-12.05-6.168-19.673-11.547-22.875-16.137c-3.203-4.59-4.802-9.777-4.802-15.562
				c0-8.941,3.633-16.091,10.9-21.444c7.269-5.354,16.638-8.032,27.636-8.032c11.092,0,18.834,1.315,23.834,3.944v14.128
				c-7-4.493-15.133-6.74-25.412-6.74c-7.027,0-12.884,1.494-17.332,4.481c-4.445,2.987-6.728,7.185-6.728,12.587
				c0,3.348,0.747,6.252,2.3,8.713c1.553,2.464,3.653,4.604,6.333,6.42c2.676,1.814,7.883,4.661,15.626,8.533
				c10.901,5.402,18.522,10.676,22.876,15.812c4.349,5.143,6.521,10.893,6.521,17.248c0,9.467-3.441,16.781-10.328,21.945
				c-6.884,5.164-16.521,7.746-28.901,7.746c-3.777,0-8.936-0.621-14.98-1.865c-6.049-1.242-9.975-2.748-12.975-4.518v-14.702h0.002
				V356.368z"/>
			<polygon fill="#BD8A60" points="528.906,376 470.906,376 470.906,264 526.906,264 526.906,276 482.906,276 482.906,313 
				522.906,313 522.906,325 482.906,325 482.906,364 528.906,364 			"/>
			<path fill="#BD8A60" d="M573.906,276v41h17.967c6.74,0,12.238-2.117,16.495-6.062c4.254-3.942,6.382-9.265,6.382-15.813
				c0-6.023-1.936-10.683-5.808-14.079c-3.874-3.395-9.518-5.043-16.929-5.043L573.906,276L573.906,276z M640.211,376h-14.632
				l-18.646-31.474c-3.971-6.693-7.58-11.204-10.829-13.284c-3.253-2.078-7.054-3.242-11.401-3.242h-10.795v48h-12V264h32.333
				c10.184,0,18.288,2.866,24.312,8.102c6.024,5.235,8.996,12.594,8.996,21.818c0,15.348-8.641,25.441-24.641,30.031v0.287
				c3,1.34,5.623,3.084,7.605,5.234s4.979,6.612,8.95,12.974L640.211,376z"/>
			<path fill="#BD8A60" d="M748.763,264l-41.31,112h-13.412l-40.448-112h13.627l31.271,89.016c0.956,2.729,1.695,5.984,2.224,9.984
				h0.357c0.335-3,1.172-6.541,2.512-10.127L735.566,264H748.763z"/>
			<polygon fill="#BD8A60" points="798.906,275 787.906,275 787.906,365 798.906,365 798.906,376 764.906,376 764.906,365 
				775.906,365 775.906,275 764.906,275 764.906,264 798.906,264 			"/>
			<path fill="#BD8A60" d="M903.906,370.856c-8,4.396-18.352,6.598-30.59,6.598c-15.586,0-28.134-5.139-37.672-15.42
				c-9.537-10.279-14.299-23.57-14.299-39.875c0-17.115,5.239-31.316,15.709-42.602c10.474-11.281,24.041-16.926,40.775-16.926
				c10.521,0,19.074,1.531,26.074,4.59v13.196c-8-4.396-16.748-6.599-26.359-6.599c-13.191,0-23.709,4.445-31.572,13.34
				c-7.865,8.893-11.789,20.32-11.789,34.281c0,13.243,3.686,24.051,11.049,32.416c7.36,8.365,17.205,12.551,29.588,12.551
				c11.188,0,21.086-2.484,29.086-7.459V370.856z"/>
			<polygon fill="#BD8A60" points="995.906,376 937.906,376 937.906,264 993.906,264 993.906,276 949.906,276 949.906,313 
				989.906,313 989.906,325 949.906,325 949.906,364 995.906,364 			"/>
		</g>
		<g>
			<path fill="#BD8A60" d="M368.906,357.606c3,2.82,7.69,5.178,13.548,7.062c5.856,1.891,11.321,2.834,16.294,2.834
				c16.16,0,24.266-5.881,24.266-17.643c0-3.3-0.821-6.24-2.497-8.822c-1.674-2.582-3.927-4.816-6.771-6.705
				c-2.846-1.889-8.448-4.984-16.814-9.287c-12.049-6.168-19.675-11.547-22.875-16.137c-3.204-4.59-4.804-9.777-4.804-15.562
				c0-8.939,3.634-16.089,10.901-21.442c7.268-5.354,16.279-8.032,27.277-8.032c11.094,0,19.479,1.313,23.479,3.944v14.128
				c-6-4.493-14.775-6.74-25.057-6.74c-7.025,0-12.706,1.494-17.151,4.479c-4.445,2.989-6.639,7.187-6.639,12.587
				c0,3.35,0.791,6.253,2.346,8.715c1.553,2.464,3.675,4.604,6.354,6.42c2.677,1.814,7.896,4.661,15.639,8.531
				c10.901,5.404,18.528,10.678,22.882,15.814c4.35,5.141,6.525,10.891,6.525,17.248c0,9.467-3.439,16.781-10.325,21.945
				c-6.886,5.163-16.521,7.745-28.901,7.745c-3.777,0-8.791-0.62-14.839-1.864c-6.049-1.242-9.831-2.748-12.831-4.52
				L368.906,357.606L368.906,357.606z"/>
			<path fill="#BD8A60" d="M527.906,377h-59V266h56v11h-43v38h40v11h-40v40h46V377z"/>
			<path fill="#BD8A60" d="M572.906,277v41h17.681c6.741,0,12.239-1.998,16.495-5.943c4.255-3.942,6.383-9.205,6.383-15.756
				c0-6.021-1.937-10.771-5.809-14.168c-3.873-3.395-9.518-5.133-16.926-5.133H572.906z M638.925,377h-14.631l-18.646-31.354
				c-3.972-6.693-7.579-11.267-10.829-13.347c-3.252-2.078-7.055-3.301-11.403-3.301h-10.509v48h-13V266h33.047
				c10.184,0,18.288,2.485,24.312,7.721c6.024,5.236,9.141,12.402,9.141,21.629c0,15.35-8.498,25.25-24.498,29.842v0.285
				c3,1.342,5.479,3.084,7.465,5.236c1.982,2.15,4.908,6.493,8.878,12.854L638.925,377z"/>
			<path fill="#BD8A60" d="M747.477,266l-41.309,111h-13.412l-40.448-111h13.626l31.271,88.516c0.955,2.729,1.696,6.484,2.223,9.484
				h0.358c0.334-3,1.172-6.041,2.511-9.627L734.281,266H747.477z"/>
			<path fill="#BD8A60" d="M797.906,276h-11v90h11v11h-34v-11h11v-90h-11v-10h34V276z"/>
			<path fill="#BD8A60" d="M902.906,372.094c-8,4.398-18.494,6.6-30.732,6.6c-15.588,0-28.203-5.141-37.742-15.42
				c-9.537-10.279-14.335-23.57-14.335-39.875c0-17.115,5.224-31.316,15.692-42.602c10.472-11.283,24.176-16.926,40.91-16.926
				c10.518,0,19.207,1.531,26.207,4.59v13.196c-8-4.398-16.893-6.601-26.502-6.601c-13.195,0-23.78,4.447-31.646,13.342
				c-7.866,8.893-11.825,20.318-11.825,34.279c0,13.244,3.667,24.053,11.03,32.416c7.362,8.367,17.338,12.553,29.725,12.553
				c11.188,0,21.219-2.484,29.219-7.459V372.094z"/>
			<path fill="#BD8A60" d="M994.906,377h-58V266h55v11h-43v38h40v11h-40v40h46V377z"/>
		</g>
	</g>
	<g>
		<path fill="#FFFFFF" d="M396.105,331.604c3.105,2.822,7.59,5.179,13.444,7.064c5.856,1.89,11.271,2.833,16.244,2.833
			c16.16,0,24.241-5.881,24.241-17.643c0-3.301-0.838-6.239-2.511-8.821c-1.676-2.582-3.935-4.816-6.777-6.706
			c-2.845-1.888-8.451-4.984-16.817-9.287c-12.049-6.168-19.676-11.546-22.879-16.137c-3.203-4.59-4.805-9.776-4.805-15.562
			c0-8.938,3.633-16.089,10.901-21.442c7.267-5.354,16.397-8.032,27.396-8.032c11.091,0,18.957,1.313,23.595,3.944v14.128
			c-6.502-4.494-14.894-6.741-25.173-6.741c-7.027,0-12.766,1.495-17.212,4.479c-4.447,2.989-6.67,7.188-6.67,12.59
			c0,3.347,0.776,6.251,2.33,8.713c1.554,2.463,3.67,4.603,6.348,6.419c2.679,1.815,7.891,4.661,15.636,8.534
			c10.899,5.401,18.525,10.675,22.879,15.812c4.351,5.14,6.524,10.89,6.524,17.248c0,9.467-3.441,16.781-10.328,21.945
			c-6.885,5.164-16.52,7.745-28.9,7.745c-3.777,0-8.689-0.621-14.737-1.864c-6.05-1.243-10.292-2.749-12.729-4.521V331.604z"/>
		<path fill="#FFFFFF" d="M554.645,350.825h-58.379V239.734h55.869v11.188h-43.677v37.795h40.378v11.188h-40.378v39.73h46.187
			V350.825z"/>
		<path fill="#FFFFFF" d="M665.922,350.825h-14.631l-18.646-31.271c-3.969-6.691-7.576-11.081-10.827-13.161
			c-3.252-2.077-7.055-3.117-11.403-3.117H599.44v47.549h-12.191V239.734h32.703c10.184,0,18.287,2.616,24.312,7.853
			c6.023,5.236,9.036,12.469,9.036,21.695c0,15.348-8.2,25.314-24.599,29.906v0.285c3.059,1.341,5.581,3.083,7.563,5.235
			c1.983,2.151,4.962,6.407,8.931,12.766L665.922,350.825z M599.439,251.065v40.879h18.145c6.742,0,12.239-1.974,16.496-5.916
			c4.254-3.945,6.383-9.191,6.383-15.742c0-6.024-1.938-10.732-5.81-14.129c-3.873-3.396-9.517-5.092-16.928-5.092H599.439z"/>
		<path fill="#FFFFFF" d="M774.474,239.734l-41.309,111.091h-13.412l-40.448-111.091h13.626l31.271,88.785
			c0.955,2.727,1.694,5.979,2.223,9.755h0.358c0.334-3.014,1.172-6.312,2.511-9.896l31.986-88.644H774.474L774.474,239.734z"/>
		<path fill="#FFFFFF" d="M824.791,250.42h-10.973v89.719h10.973v10.688h-34.138v-10.688h10.973V250.42h-10.973v-10.687h34.138
			V250.42z"/>
		<path fill="#FFFFFF" d="M929.686,346.091c-8.176,4.399-18.385,6.6-30.623,6.6c-15.588,0-28.147-5.141-37.688-15.421
			c-9.538-10.277-14.308-23.568-14.308-39.875c0-17.114,5.233-31.314,15.706-42.601c10.472-11.283,24.071-16.925,40.808-16.925
			c10.519,0,19.221,1.531,26.104,4.59v13.196c-7.984-4.398-16.781-6.6-26.394-6.6c-13.195,0-23.728,4.446-31.591,13.342
			c-7.866,8.893-11.798,20.318-11.798,34.278c0,13.245,3.681,24.053,11.044,32.417c7.361,8.367,17.234,12.552,29.62,12.552
			c11.188,0,20.894-2.484,29.116-7.459v11.905H929.686z"/>
		<path fill="#FFFFFF" d="M1021.886,350.825h-58.378V239.734h55.868v11.188H975.7v37.795h40.377v11.188H975.7v39.73h46.186V350.825z
			"/>
	</g>
</g>
</svg>
