<svg xmlns="http://www.w3.org/2000/svg" xmlns:xlink="http://www.w3.org/1999/xlink" width="1440" height="900" viewBox="0 0 1440 900">
  <defs>
    <clipPath id="clip-path">
      <rect id="Rectangle_113" data-name="Rectangle 113" width="1440" height="900" transform="translate(0.094)" fill="none"/>
    </clipPath>
  </defs>
  <g id="Group_363" data-name="Group 363" transform="translate(-0.094)">
    <g id="Group_340" data-name="Group 340">
      <g id="Group_339" data-name="Group 339" clip-path="url(#clip-path)">
        <g id="Group_338" data-name="Group 338">
          <rect id="Rectangle_112" data-name="Rectangle 112" width="1440" height="985.891" transform="translate(1.094 0.006)" fill="#f0f0f0"/>
          <g id="Group_337" data-name="Group 337">
            <path id="Path_4922" data-name="Path 4922" d="M341.138,995.022c4.725-37.68,9.094-186.516,50.053-257.821l40.959-71.3,16-43,2-11s-7.627-187.455-1.12-270.01c7.325-92.958,41.792-150.586,115.12-205.99-31.914,19.148-102.152,39.054-115,67-6.445-8.245-28.83,122.958-28.966,136-.816,78.513-.532,155.42-16.792,232.646-10.727,50.956-37.863,94.943-43.746,147.244-9.628,85.586-22.516,169.258-36.307,254.141" fill="none" stroke="#000" stroke-miterlimit="10" stroke-width="4"/>
            <path id="Path_4923" data-name="Path 4923" d="M599.15,393.9l-3-12c14.166,94.009-5.3,176.008-14.72,266.944q-16.474,159.008-32.952,318.014" fill="none" stroke="#000" stroke-miterlimit="10" stroke-width="4"/>
            <path id="Path_4924" data-name="Path 4924" d="M796.15,83.9c-7.085-.184-85.808,103.678-106.932,128.059-27.234,31.43-70.422,63.2-75.785,103.942-3.449,26.193-4.519,54.174-14.283,78" fill="none" stroke="#000" stroke-miterlimit="10" stroke-width="4"/>
            <path id="Path_4925" data-name="Path 4925" d="M724.429,8.9c.538,35.164,23.448,55.262,50.449,69.481C787.5,85.03,832.55,83.9,866.73,83.9" fill="none" stroke="#000" stroke-miterlimit="10" stroke-width="4"/>
            <path id="Path_4926" data-name="Path 4926" d="M844.15,147.9C833.529,105.726,830.874,35.564,805,.006L798.15,9.9c9.338,5.943,52.881,82.83,23.941,68.114" fill="none" stroke="#000" stroke-miterlimit="10" stroke-width="4"/>
            <path id="Path_4927" data-name="Path 4927" d="M897.15,355.9" fill="none" stroke="#000" stroke-miterlimit="10" stroke-width="4"/>
            <path id="Path_4928" data-name="Path 4928" d="M884.15,561.9c9.927-26.046,95.6-47.62,129.551-61.372,59.161-23.965,115.239-65.4,176.449-82.628-56.442,21.166-91.279-37.649-138.534-71.449-20.382-14.578-56.71-51.534-81.519-54.758-11.537-1.5-67.644,56.2-72.947,48.28" fill="none" stroke="#000" stroke-miterlimit="10" stroke-width="4"/>
            <path id="Path_4929" data-name="Path 4929" d="M993.623,130.171C929.431,84.958,874.114,62.862,851.456,97.1c-28.058,42.376,16.508,280.171,49.618,256.742-9.086,72.55-45.838,141.506-54.924,214.055-.367,7.076,32.1-7.082,38-6" fill="none" stroke="#000" stroke-miterlimit="10" stroke-width="4"/>
            <path id="Path_4930" data-name="Path 4930" d="M959.8,589.406c28.665-10.873,61.572-16.029,88.329-22.572,69.008-16.882,132.338-34.168,196.016-51.937,54.6-16.258,104.76-42.873,48.859-103.871-20.8-22.7-176.383-194.217-299.386-280.855" fill="none" stroke="#000" stroke-miterlimit="10" stroke-width="4"/>
            <path id="Path_4931" data-name="Path 4931" d="M887.15,811.9c0-58.76-10.16-106.735,9.916-166.028,9.875-29.154,34.205-45.641,62.739-56.463" fill="none" stroke="#000" stroke-miterlimit="10" stroke-width="4"/>
            <path id="Path_4932" data-name="Path 4932" d="M817.747,658.37c9.248-2.8,15.929.635,16.366,20.528.483,22.026,10.829,44.774,22.51,67.266,3.871,7.451,7.887,14.873,11.74,22.233" fill="none" stroke="#000" stroke-miterlimit="10" stroke-width="4"/>
            <path id="Path_4933" data-name="Path 4933" d="M775.722,678.536a34.851,34.851,0,0,0,10.115-3.251c10.741-5.01,22.62-14.1,31.91-16.915" fill="none" stroke="#000" stroke-miterlimit="10" stroke-width="4"/>
            <path id="Path_4934" data-name="Path 4934" d="M758.77,647.3" fill="none" stroke="#000" stroke-miterlimit="10" stroke-width="4"/>
            <path id="Path_4935" data-name="Path 4935" d="M776.139,677.873c-38.565,17.351-44.827-7.512-17.369-30.577l87.38-73.4c-10.264,4.277-15.477,6.114-16,18,4.691.1,3.868-9.059-1-9-6.557,2.413-19.342,22.815-27,29" fill="none" stroke="#000" stroke-miterlimit="10" stroke-width="4"/>
            <path id="Path_4936" data-name="Path 4936" d="M848.15,735.9" fill="none" stroke="#000" stroke-miterlimit="10" stroke-width="4"/>
            <path id="Path_4937" data-name="Path 4937" d="M862.268,879.284c-2.8-20.706-12.108-115.309-15.118-133.387" fill="none" stroke="#000" stroke-miterlimit="10" stroke-width="4"/>
            <path id="Path_4938" data-name="Path 4938" d="M859.65,866.9c3.844,23.062,27.894,99.361,15.5,119" fill="none" stroke="#000" stroke-miterlimit="10" stroke-width="4"/>
            <path id="Path_4939" data-name="Path 4939" d="M574.815,67.06c17.016,15.089,33.386,11.249,39.274,24.074,2.121,4.62-55.3,73.342-59.939,70.763.4,51.365,35.3,78.787,55,130" fill="none" stroke="#000" stroke-miterlimit="10" stroke-width="4"/>
            <path id="Path_4940" data-name="Path 4940" d="M651.283,51.417C618.892,77.712,608.1,92.85,574.815,67.06" fill="none" stroke="#000" stroke-miterlimit="10" stroke-width="4"/>
            <path id="Path_4941" data-name="Path 4941" d="M518.6,15.533c29.877,0,47.416,43.314,56.214,51.527" fill="none" stroke="#000" stroke-miterlimit="10" stroke-width="4"/>
            <path id="Path_4942" data-name="Path 4942" d="M574.462,150.541c18-12,21,0,42.005-12" fill="none" stroke="#000" stroke-miterlimit="10" stroke-width="4"/>
            <path id="Path_4943" data-name="Path 4943" d="M685.474,120.538c27-6,57.005-9,78.007-27" fill="none" stroke="#000" stroke-miterlimit="10" stroke-width="4"/>
            <path id="Path_4944" data-name="Path 4944" d="M699.4.006C691.273,22.8,697.65,41.3,674.379,93.535" fill="none" stroke="#000" stroke-miterlimit="10" stroke-width="4"/>
          </g>
        </g>
      </g>
    </g>
    <rect id="Rectangle_114" data-name="Rectangle 114" width="1440" height="900" transform="translate(0.094)" fill="#f0f0f0" opacity="0.6"/>
    <g id="Group_361" data-name="Group 361">
      <text id="SERVICE" transform="translate(386.66 558.824)" fill="#abb08c" font-size="146.878" font-family="MicrosoftJhengHeiRegular, Microsoft JhengHei" letter-spacing="0.075em"><tspan x="0" y="0">SERVICE</tspan></text>
      <g id="Group_341" data-name="Group 341">
        <path id="Path_4945" data-name="Path 4945" d="M395,540.842c3,2.822,7.546,5.177,13.4,7.064a53.035,53.035,0,0,0,16.223,2.833q24.24,0,24.229-17.642a15.87,15.87,0,0,0-2.515-8.822,23.286,23.286,0,0,0-6.78-6.706q-4.268-2.83-16.819-9.287-18.074-9.252-22.879-16.136a26.539,26.539,0,0,1-4.8-15.563,25.322,25.322,0,0,1,10.9-21.444q10.9-8.031,27.423-8.033c11.091,0,18.62,1.316,23.62,3.946V465.18c-7-4.495-14.919-6.741-25.2-6.741q-10.543,0-17.226,4.481a14.326,14.326,0,0,0-6.676,12.588,15.979,15.979,0,0,0,2.328,8.713,21.87,21.87,0,0,0,6.345,6.419,160.976,160.976,0,0,0,15.634,8.534q16.352,8.1,22.878,15.814a26.031,26.031,0,0,1,6.526,17.248q0,14.2-10.328,21.946t-28.9,7.745a76.235,76.235,0,0,1-14.7-1.864c-6.049-1.244-10.686-2.749-12.686-4.519Z" fill="#abb08c"/>
        <path id="Path_4946" data-name="Path 4946" d="M553,560H495V449h56v11H507v38h41v11H507v40h46Z" fill="#abb08c"/>
        <path id="Path_4947" data-name="Path 4947" d="M598,460v41h18.393c6.741,0,12.238-1.881,16.495-5.825s6.382-9.146,6.382-15.7c0-6.025-1.936-10.861-5.809-14.257S623.946,460,616.536,460Zm66.73,100H650.1l-18.646-31.237c-3.97-6.694-7.58-10.823-10.831-12.9s-7.052-2.86-11.4-2.86H598v47H586V449h32.759q15.276,0,24.313,7.838c6.024,5.236,9.281,12.462,9.281,21.688,0,15.348-8.353,25.31-24.353,29.9v.287a21.773,21.773,0,0,1,7.32,5.235c1.984,2.152,4.837,6.376,8.807,12.735Z" fill="#abb08c"/>
        <path id="Path_4948" data-name="Path 4948" d="M773.282,449,731.973,560H718.561L678.113,449h13.626l31.269,89.016A49.84,49.84,0,0,1,725.231,548h.358a43.5,43.5,0,0,1,2.511-10.127L760.086,449Z" fill="#abb08c"/>
        <path id="Path_4949" data-name="Path 4949" d="M824,460H813v89h11v11H789V549h11V460H789V449h35Z" fill="#abb08c"/>
        <path id="Path_4950" data-name="Path 4950" d="M928,555.329q-12,6.6-30.376,6.6c-15.588,0-28.026-5.139-37.565-15.419s-14.246-23.57-14.246-39.875q0-25.674,15.737-42.6c10.471-11.283,23.842-16.926,40.576-16.926,10.518,0,19.874,1.532,25.874,4.591v13.2c-7-4.4-16.535-6.6-26.146-6.6-13.2,0-23.6,4.446-31.467,13.34s-11.736,20.32-11.736,34.28q0,19.867,11.075,32.417c7.362,8.367,17,12.551,29.389,12.551,11.187,0,20.885-2.486,28.885-7.459Z" fill="#abb08c"/>
        <path id="Path_4951" data-name="Path 4951" d="M1021,560H962V449h56v11H975v38h40v11H975v40h46Z" fill="#abb08c"/>
      </g>
      <g id="Group_342" data-name="Group 342">
        <path id="Path_4952" data-name="Path 4952" d="M394,542.08c3,2.822,7.4,5.177,13.261,7.065a52.635,52.635,0,0,0,16.151,2.833c16.16,0,24.193-5.881,24.193-17.643a15.872,15.872,0,0,0-2.533-8.821,23.317,23.317,0,0,0-6.788-6.706q-4.268-2.832-16.824-9.287-18.073-9.252-22.881-16.137a26.541,26.541,0,0,1-4.807-15.563,25.32,25.32,0,0,1,10.9-21.444c7.267-5.354,16.567-8.032,27.564-8.032,11.091,0,18.763,1.315,23.763,3.945v14.128c-7-4.494-15.063-6.741-25.342-6.741-7.028,0-12.849,1.495-17.3,4.481a14.356,14.356,0,0,0-6.711,12.588,15.968,15.968,0,0,0,2.309,8.713,21.827,21.827,0,0,0,6.337,6.419,160.69,160.69,0,0,0,15.629,8.534q16.352,8.1,22.875,15.815a26.022,26.022,0,0,1,6.526,17.248q0,14.2-10.329,21.945t-28.9,7.745a75,75,0,0,1-14.552-1.864c-6.049-1.243-10.544-2.749-12.544-4.519Z" fill="#abb08c"/>
        <path id="Path_4953" data-name="Path 4953" d="M552,561H494V450h56v11H506v38h40v11H506v40h46Z" fill="#abb08c"/>
        <path id="Path_4954" data-name="Path 4954" d="M597,462v40h18.107c6.741,0,12.239-1.762,16.495-5.706s6.383-9.087,6.383-15.638c0-6.023-1.936-10.45-5.809-13.846S622.661,462,615.25,462Zm66.444,99h-14.63l-18.646-31.118c-3.97-6.693-7.579-10.882-10.83-12.962a20.605,20.605,0,0,0-11.4-2.92H597v47H585V450h32.474c10.183,0,18.288,2.723,24.312,7.957s8.925,12.521,8.925,21.748c0,15.348-7.711,25.369-24.711,29.959v.287a23.361,23.361,0,0,1,7.678,5.235,92.666,92.666,0,0,1,8.985,12.616Z" fill="#abb08c"/>
        <path id="Path_4955" data-name="Path 4955" d="M772,450,730.688,561H717.276L676.827,450h13.626l31.27,89.016A49.98,49.98,0,0,1,723.946,549h.358a43.54,43.54,0,0,1,2.51-10.127L758.8,450Z" fill="#abb08c"/>
        <path id="Path_4956" data-name="Path 4956" d="M822,461H811v90h11v10H788V551h11V461H788V450h34Z" fill="#abb08c"/>
        <path id="Path_4957" data-name="Path 4957" d="M927,556.567c-8,4.4-18.28,6.6-30.519,6.6-15.588,0-28.1-5.139-37.636-15.419s-14.282-23.57-14.282-39.875q0-25.674,15.719-42.6c10.472-11.284,23.976-16.926,40.711-16.926,10.518,0,19.007,1.531,26.007,4.59v13.2a53.426,53.426,0,0,0-26.288-6.6c-13.2,0-23.675,4.446-31.539,13.34s-11.772,20.32-11.772,34.28q0,19.867,11.056,32.417c7.363,8.368,17.14,12.551,29.523,12.551,11.188,0,21.02-2.485,29.02-7.459Z" fill="#abb08c"/>
        <path id="Path_4958" data-name="Path 4958" d="M1019,561H961V450h56v11H973v38h41v11H973v40h46Z" fill="#abb08c"/>
      </g>
      <g id="Group_343" data-name="Group 343">
        <path id="Path_4959" data-name="Path 4959" d="M392,543.318c3,2.823,7.761,5.177,13.618,7.065a53.7,53.7,0,0,0,16.329,2.833c16.16,0,24.283-5.881,24.283-17.643a15.847,15.847,0,0,0-2.488-8.821,23.223,23.223,0,0,0-6.767-6.706q-4.266-2.832-16.811-9.287-18.074-9.252-22.877-16.137a26.541,26.541,0,0,1-4.8-15.562,25.326,25.326,0,0,1,10.9-21.445c7.267-5.353,16.211-8.032,27.208-8.032,11.091,0,19.406,1.315,23.406,3.944v14.129c-6-4.494-14.7-6.741-24.983-6.741-7.03,0-12.672,1.495-17.119,4.482a14.28,14.28,0,0,0-6.623,12.587,15.99,15.99,0,0,0,2.355,8.713,21.923,21.923,0,0,0,6.359,6.419,160.936,160.936,0,0,0,15.64,8.534q16.353,8.106,22.882,15.815a26.028,26.028,0,0,1,6.527,17.248q0,14.2-10.326,21.945t-28.9,7.745a78.108,78.108,0,0,1-14.909-1.864c-6.049-1.243-9.9-2.749-12.9-4.518Z" fill="#abb08c"/>
        <path id="Path_4960" data-name="Path 4960" d="M551,563H493V451h55v12H505v37h40v12H505v39h46Z" fill="#abb08c"/>
        <path id="Path_4961" data-name="Path 4961" d="M596,463v41h17.821c6.741,0,12.239-2.143,16.495-6.087s6.383-9.276,6.383-15.827c0-6.026-1.936-10.665-5.808-14.062S621.375,463,613.965,463Zm66.159,100h-14.63l-18.647-31.5c-3.969-6.693-7.579-11.191-10.829-13.272A20.773,20.773,0,0,0,606.65,515H596v48H583V451h33.187c10.185,0,18.289,2.842,24.313,8.076s9.068,12.581,9.068,21.808c0,15.347-8.568,25.429-24.568,30.018v.288a22.69,22.69,0,0,1,7.535,5.235c1.983,2.151,4.944,6.638,8.913,13Z" fill="#abb08c"/>
        <path id="Path_4962" data-name="Path 4962" d="M770.71,451,729.4,563H715.99L675.542,451h13.625l31.27,89.016A49.976,49.976,0,0,1,722.66,550h.359a43.442,43.442,0,0,1,2.51-10.127L757.516,451Z" fill="#abb08c"/>
        <path id="Path_4963" data-name="Path 4963" d="M821,462H810v90h11v11H787V552h11V462H787V451h34Z" fill="#abb08c"/>
        <path id="Path_4964" data-name="Path 4964" d="M926,557.806c-8,4.4-18.424,6.6-30.661,6.6q-23.382,0-37.708-15.419-14.309-15.418-14.318-39.875,0-25.674,15.7-42.6t40.844-16.926c10.519,0,19.142,1.531,26.142,4.59v13.2a53.984,53.984,0,0,0-26.432-6.6q-19.791,0-31.609,13.339-11.8,13.34-11.808,34.281,0,19.868,11.039,32.417c7.362,8.367,17.273,12.55,29.657,12.55,11.187,0,21.153-2.485,29.153-7.459Z" fill="#abb08c"/>
        <path id="Path_4965" data-name="Path 4965" d="M1018,563H960V451h56v12H972v37h40v12H972v39h46Z" fill="#abb08c"/>
      </g>
      <g id="Group_344" data-name="Group 344">
        <path id="Path_4966" data-name="Path 4966" d="M391,544.557c3,2.822,7.618,5.176,13.475,7.063a53.217,53.217,0,0,0,16.258,2.834q24.24,0,24.248-17.643a15.853,15.853,0,0,0-2.507-8.821,23.259,23.259,0,0,0-6.776-6.706q-4.266-2.831-16.816-9.287Q400.809,502.745,396,495.86a26.533,26.533,0,0,1-4.8-15.562,25.322,25.322,0,0,1,10.9-21.445c7.267-5.353,16.353-8.031,27.35-8.031,11.091,0,18.549,1.315,23.549,3.944v14.129c-6-4.495-14.848-6.742-25.127-6.742-7.028,0-12.743,1.495-17.189,4.482a14.308,14.308,0,0,0-6.658,12.588,15.977,15.977,0,0,0,2.336,8.712,21.876,21.876,0,0,0,6.35,6.419,160.67,160.67,0,0,0,15.636,8.535q16.352,8.1,22.879,15.814a26.031,26.031,0,0,1,6.526,17.248q0,14.2-10.326,21.945t-28.9,7.746a76.792,76.792,0,0,1-14.766-1.865c-6.05-1.243-10.758-2.749-12.758-4.518Z" fill="#abb08c"/>
        <path id="Path_4967" data-name="Path 4967" d="M550,564H491V453h56v11H503v38h41v11H503v40h47Z" fill="#abb08c"/>
        <path id="Path_4968" data-name="Path 4968" d="M594,464v41h18.536c6.741,0,12.238-2.023,16.495-5.967s6.383-9.218,6.383-15.768c0-6.025-1.937-10.755-5.809-14.152S620.09,464,612.679,464Zm66.873,100h-14.63L627.6,532.62c-3.969-6.693-7.578-11.251-10.829-13.331a20.81,20.81,0,0,0-11.4-3.289H594v48H582V453h32.9c10.184,0,18.288,2.461,24.313,7.7s9.21,12.391,9.21,21.618c0,15.347-8.425,25.238-24.425,29.828v.287a22.084,22.084,0,0,1,7.392,5.235c1.983,2.152,4.873,6.519,8.842,12.877Z" fill="#abb08c"/>
        <path id="Path_4969" data-name="Path 4969" d="M769.425,453,728.116,564H714.7L674.256,453h13.626l31.269,88.516A44.377,44.377,0,0,1,721.374,551h.358a39.975,39.975,0,0,1,2.512-9.627L756.229,453Z" fill="#abb08c"/>
        <path id="Path_4970" data-name="Path 4970" d="M820,463H809v90h11v11H786V553h11V463H786V453h34Z" fill="#abb08c"/>
        <path id="Path_4971" data-name="Path 4971" d="M925,559.044c-9,4.4-18.566,6.6-30.8,6.6-15.587,0-28.24-5.139-37.779-15.419s-14.353-23.571-14.353-39.875q0-25.676,15.684-42.6c10.472-11.283,24.243-16.925,40.978-16.925q15.777,0,26.275,4.589v13.2a54.529,54.529,0,0,0-26.574-6.6c-13.2,0-23.818,4.446-31.682,13.34S854.9,495.67,854.9,509.63q0,19.867,11.021,32.417c7.362,8.367,17.407,12.551,29.791,12.551A57.79,57.79,0,0,0,925,547.139Z" fill="#abb08c"/>
        <path id="Path_4972" data-name="Path 4972" d="M1017,564H958V453h56v11H971v38h40v11H971v40h46Z" fill="#abb08c"/>
      </g>
      <g id="Group_345" data-name="Group 345">
        <path id="Path_4973" data-name="Path 4973" d="M390,545.794c3,2.823,7.475,5.178,13.332,7.064a52.794,52.794,0,0,0,16.187,2.834q24.241,0,24.212-17.642a15.875,15.875,0,0,0-2.525-8.822,23.277,23.277,0,0,0-6.784-6.706q-4.266-2.83-16.821-9.287-18.074-9.252-22.88-16.137a26.534,26.534,0,0,1-4.806-15.562,25.323,25.323,0,0,1,10.9-21.444c7.267-5.355,16.494-8.032,27.493-8.032C439.4,452.06,447,453.375,452,456v14.129c-7-4.494-14.99-6.741-25.27-6.741-7.028,0-12.814,1.495-17.261,4.481a14.342,14.342,0,0,0-6.693,12.587,15.967,15.967,0,0,0,2.319,8.714,21.862,21.862,0,0,0,6.34,6.419,160.635,160.635,0,0,0,15.631,8.533q16.353,8.106,22.877,15.815a26.032,26.032,0,0,1,6.527,17.248q0,14.2-10.328,21.945t-28.9,7.746a75.606,75.606,0,0,1-14.622-1.864C396.566,563.772,392,562.267,390,560.5Z" fill="#abb08c"/>
        <path id="Path_4974" data-name="Path 4974" d="M548,565H490V454h56v11H502v38h41v11H502v40h46Z" fill="#abb08c"/>
        <path id="Path_4975" data-name="Path 4975" d="M593,465v41h18.25c6.741,0,12.239-1.9,16.495-5.848s6.383-9.158,6.383-15.71c0-6.023-1.936-10.842-5.809-14.239S618.8,465,611.394,465Zm66.588,100H644.957l-18.646-31.261c-3.969-6.693-7.579-11.311-10.83-13.39a20.839,20.839,0,0,0-11.4-3.349H593v48H581V454h32.617c10.184,0,18.288,2.58,24.312,7.815s8.853,12.45,8.853,21.676c0,15.348-7.782,25.3-24.782,29.888v.287a23.674,23.674,0,0,1,7.749,5.235,96.173,96.173,0,0,1,9.021,12.758Z" fill="#abb08c"/>
        <path id="Path_4976" data-name="Path 4976" d="M768.14,454,726.831,565H713.419L672.97,454H686.6l31.269,88.516A66.082,66.082,0,0,1,720.089,552h.358a40.017,40.017,0,0,1,2.511-9.627L754.944,454Z" fill="#abb08c"/>
        <path id="Path_4977" data-name="Path 4977" d="M818,465H807v89h11v11H784V554h11V465H784V454h34Z" fill="#abb08c"/>
        <path id="Path_4978" data-name="Path 4978" d="M923,560.282c-8,4.4-18.209,6.6-30.448,6.6-15.587,0-28.061-5.139-37.6-15.42s-14.264-23.569-14.264-39.875q0-25.672,15.728-42.6c10.472-11.283,23.909-16.925,40.644-16.925,10.517,0,18.94,1.531,25.94,4.589v13.2a53.153,53.153,0,0,0-26.217-6.6c-13.2,0-23.639,4.446-31.5,13.34s-11.754,20.319-11.754,34.28q0,19.867,11.066,32.417c7.362,8.367,17.072,12.551,29.456,12.551,11.187,0,20.952-2.485,28.952-7.46Z" fill="#abb08c"/>
        <path id="Path_4979" data-name="Path 4979" d="M1016,565H957V454h56v11H969v38h41v11H969v40h47Z" fill="#abb08c"/>
      </g>
      <g id="Group_346" data-name="Group 346">
        <path id="Path_4980" data-name="Path 4980" d="M388,547.032a47.165,47.165,0,0,0,13.689,7.066,53.926,53.926,0,0,0,16.366,2.833c16.16,0,24.3-5.881,24.3-17.644a15.83,15.83,0,0,0-2.48-8.82,23.18,23.18,0,0,0-6.762-6.706q-4.268-2.832-16.809-9.288-18.073-9.252-22.875-16.136a26.54,26.54,0,0,1-4.8-15.563,25.322,25.322,0,0,1,10.9-21.444c7.267-5.354,16.639-8.032,27.636-8.032,11.092,0,18.835,1.315,23.835,3.944V471.37c-7-4.493-15.133-6.74-25.412-6.74-7.028,0-12.886,1.494-17.333,4.481a14.374,14.374,0,0,0-6.729,12.588,15.958,15.958,0,0,0,2.3,8.713,21.808,21.808,0,0,0,6.332,6.419,160.554,160.554,0,0,0,15.627,8.534q16.352,8.1,22.875,15.814a26.028,26.028,0,0,1,6.524,17.249q0,14.2-10.329,21.945t-28.9,7.745a78.664,78.664,0,0,1-14.981-1.865c-6.049-1.242-9.973-2.748-12.973-4.519Z" fill="#abb08c"/>
        <path id="Path_4981" data-name="Path 4981" d="M547,566H489V455h56v11H501v38h40v11H501v40h46Z" fill="#abb08c"/>
        <path id="Path_4982" data-name="Path 4982" d="M592,466v41h17.964c6.742,0,12.24-1.785,16.495-5.728s6.384-9.1,6.384-15.651c0-6.024-1.937-10.932-5.809-14.328S617.518,466,610.108,466Zm66.3,100h-14.63l-18.647-31.141c-3.969-6.693-7.579-10.87-10.829-12.951a20.608,20.608,0,0,0-11.4-2.908H592v47H580V455h32.331c10.184,0,18.288,2.7,24.313,7.935s9,12.508,9,21.735c0,15.348-8.64,25.357-24.64,29.946v.287a23.015,23.015,0,0,1,7.606,5.237c1.984,2.151,4.98,6.28,8.95,12.639Z" fill="#abb08c"/>
        <path id="Path_4983" data-name="Path 4983" d="M766.854,455,725.545,566H712.133L671.685,455h13.626l31.27,89.018A49.926,49.926,0,0,1,718.8,554h.359a43.466,43.466,0,0,1,2.51-10.127L753.659,455Z" fill="#abb08c"/>
        <path id="Path_4984" data-name="Path 4984" d="M817,466H806v90h11v10H783V556h11V466H783V455h34Z" fill="#abb08c"/>
        <path id="Path_4985" data-name="Path 4985" d="M922,561.521c-8,4.4-18.353,6.6-30.59,6.6q-23.382,0-37.672-15.419-14.307-15.418-14.3-39.876,0-25.672,15.71-42.6T895.925,453.3c10.518,0,19.075,1.531,26.075,4.59v13.2a53.7,53.7,0,0,0-26.359-6.6q-19.8,0-31.576,13.339-11.8,13.341-11.789,34.28,0,19.869,11.048,32.418t29.589,12.551c11.188,0,21.087-2.485,29.087-7.46Z" fill="#abb08c"/>
        <path id="Path_4986" data-name="Path 4986" d="M1014,566H956V455h56v11H968v38h40v11H968v40h46Z" fill="#abb08c"/>
      </g>
      <g id="Group_347" data-name="Group 347">
        <path id="Path_4987" data-name="Path 4987" d="M387,548.271c3,2.823,7.689,5.176,13.547,7.065a53.459,53.459,0,0,0,16.294,2.833q24.24,0,24.265-17.643a15.846,15.846,0,0,0-2.5-8.821A23.214,23.214,0,0,0,431.837,525q-4.266-2.834-16.814-9.287-18.072-9.253-22.877-16.137a26.542,26.542,0,0,1-4.8-15.562,25.324,25.324,0,0,1,10.9-21.445c7.267-5.353,16.281-8.032,27.279-8.032,11.091,0,19.477,1.316,23.477,3.944v14.128c-6-4.493-14.776-6.741-25.055-6.741-7.029,0-12.707,1.5-17.154,4.483a14.294,14.294,0,0,0-6.64,12.588,15.976,15.976,0,0,0,2.346,8.712,21.891,21.891,0,0,0,6.354,6.419,161.055,161.055,0,0,0,15.638,8.534q16.353,8.106,22.88,15.815a26.031,26.031,0,0,1,6.527,17.247q0,14.2-10.327,21.946t-28.9,7.744a77.473,77.473,0,0,1-14.837-1.864c-6.05-1.242-9.83-2.748-12.83-4.517Z" fill="#abb08c"/>
        <path id="Path_4988" data-name="Path 4988" d="M546,567H487V456h56v12H500v37h40v12H500v39h46Z" fill="#abb08c"/>
        <path id="Path_4989" data-name="Path 4989" d="M591,468v41h17.679a23.434,23.434,0,0,0,16.495-6.109c4.255-3.946,6.383-9.29,6.383-15.841,0-6.024-1.936-10.648-5.809-14.043S616.233,468,608.822,468Zm66.017,99H642.386L623.74,535.978c-3.97-6.7-7.579-10.929-10.83-13.009a20.629,20.629,0,0,0-11.4-2.969H591v47H578V456h33.045c10.184,0,18.288,2.818,24.313,8.053s9.139,12.568,9.139,21.8c0,15.346-8.5,25.416-24.5,30.006v.288a22.393,22.393,0,0,1,7.464,5.235c1.983,2.15,4.909,6.161,8.878,12.52Z" fill="#abb08c"/>
        <path id="Path_4990" data-name="Path 4990" d="M765.568,456,724.26,567H710.848L670.4,456h13.626l31.27,89.017A49.947,49.947,0,0,1,717.518,555h.358a43.5,43.5,0,0,1,2.511-10.127L752.373,456Z" fill="#abb08c"/>
        <path id="Path_4991" data-name="Path 4991" d="M816,467H805v90h11v10H782V557h11V467H782V456h34Z" fill="#abb08c"/>
        <path id="Path_4992" data-name="Path 4992" d="M921,562.758c-8,4.4-18.495,6.6-30.733,6.6-15.588,0-28.205-5.138-37.744-15.419s-14.335-23.57-14.335-39.873q0-25.677,15.693-42.6c10.471-11.284,24.176-16.926,40.91-16.926,10.519,0,19.209,1.531,26.209,4.59v13.2a54.256,54.256,0,0,0-26.5-6.6c-13.2,0-23.782,4.447-31.646,13.341s-11.826,20.32-11.826,34.28q0,19.868,11.031,32.417c7.362,8.367,17.339,12.551,29.723,12.551,11.187,0,21.22-2.487,29.22-7.46Z" fill="#abb08c"/>
        <path id="Path_4993" data-name="Path 4993" d="M1013,567H955V456h55v12H967v37h40v12H967v39h46Z" fill="#abb08c"/>
      </g>
      <g id="Group_348" data-name="Group 348">
        <path id="Path_4994" data-name="Path 4994" d="M386,549.509c3,2.822,7.547,5.177,13.4,7.064a53.03,53.03,0,0,0,16.222,2.833q24.241,0,24.23-17.642a15.872,15.872,0,0,0-2.515-8.822,23.277,23.277,0,0,0-6.781-6.706q-4.264-2.831-16.818-9.287-18.074-9.252-22.879-16.135a26.542,26.542,0,0,1-4.8-15.564,25.32,25.32,0,0,1,10.9-21.443q10.9-8.033,27.422-8.033c11.092,0,18.62,1.316,23.62,3.945v14.128c-7-4.494-14.919-6.741-25.2-6.741q-10.545,0-17.226,4.482a14.323,14.323,0,0,0-6.676,12.587,15.982,15.982,0,0,0,2.327,8.714,21.877,21.877,0,0,0,6.347,6.419,160.5,160.5,0,0,0,15.633,8.533q16.352,8.106,22.878,15.814a26.031,26.031,0,0,1,6.526,17.248q0,14.2-10.328,21.946t-28.9,7.745a76.148,76.148,0,0,1-14.695-1.864c-6.049-1.244-10.687-2.75-12.687-4.518Z" fill="#abb08c"/>
        <path id="Path_4995" data-name="Path 4995" d="M544,569H486V458h56v11H498v38h41v11H498v40h46Z" fill="#abb08c"/>
        <path id="Path_4996" data-name="Path 4996" d="M589,469v41h18.394c6.741,0,12.238-2.047,16.495-5.992s6.382-9.228,6.382-15.78q0-9.035-5.809-14.131T607.537,469Zm66.731,100H641.1l-18.647-31.4c-3.969-6.694-7.579-11.24-10.83-13.32a20.8,20.8,0,0,0-11.4-3.276H589v48H577V458h32.76c10.184,0,18.288,2.438,24.312,7.672s9.282,12.378,9.282,21.605c0,15.348-8.354,25.226-24.354,29.816v.287a21.8,21.8,0,0,1,7.321,5.235c1.983,2.152,4.837,6.543,8.806,12.9Z" fill="#abb08c"/>
        <path id="Path_4997" data-name="Path 4997" d="M764.283,458,722.974,569H709.562L669.114,458H682.74l31.269,88.516A44.344,44.344,0,0,1,716.232,556h.359a39.966,39.966,0,0,1,2.51-9.627L751.087,458Z" fill="#abb08c"/>
        <path id="Path_4998" data-name="Path 4998" d="M815,468H804v90h11v11H780V558h11V468H780V458h35Z" fill="#abb08c"/>
        <path id="Path_4999" data-name="Path 4999" d="M919,564q-12,6.6-30.376,6.6c-15.588,0-28.025-5.139-37.564-15.419S836.813,531.6,836.813,515.3q0-25.672,15.738-42.6c10.472-11.282,23.841-16.925,40.575-16.925,10.519,0,19.874,1.531,25.874,4.59v13.2c-7-4.4-16.535-6.6-26.146-6.6-13.194,0-23.6,4.446-31.466,13.339s-11.737,20.32-11.737,34.281q0,19.866,11.076,32.416c7.362,8.367,17,12.551,29.388,12.551,11.188,0,20.885-2.485,28.885-7.459Z" fill="#abb08c"/>
        <path id="Path_5000" data-name="Path 5000" d="M1012,569H953V458h56v11H966v38h40v11H966v40h46Z" fill="#abb08c"/>
      </g>
      <g id="Group_349" data-name="Group 349">
        <path id="Path_5001" data-name="Path 5001" d="M385,550.747c3,2.822,7.4,5.178,13.261,7.064a52.612,52.612,0,0,0,16.151,2.834c16.16,0,24.194-5.881,24.194-17.643a15.874,15.874,0,0,0-2.533-8.821,23.309,23.309,0,0,0-6.789-6.706q-4.268-2.832-16.823-9.287-18.074-9.252-22.881-16.136a26.545,26.545,0,0,1-4.806-15.564,25.318,25.318,0,0,1,10.9-21.443c7.266-5.355,16.567-8.032,27.564-8.032,11.091,0,18.762,1.315,23.762,3.944v14.128c-7-4.493-15.062-6.741-25.341-6.741-7.028,0-12.849,1.495-17.3,4.482a14.357,14.357,0,0,0-6.712,12.587,15.966,15.966,0,0,0,2.31,8.713,21.83,21.83,0,0,0,6.337,6.42,160.981,160.981,0,0,0,15.629,8.533q16.353,8.1,22.875,15.815a26.023,26.023,0,0,1,6.526,17.248q0,14.2-10.329,21.945t-28.9,7.746a75.023,75.023,0,0,1-14.553-1.865c-6.049-1.243-10.544-2.749-12.544-4.519Z" fill="#abb08c"/>
        <path id="Path_5002" data-name="Path 5002" d="M543,570H485V459h56v11H497v38h40v11H497v40h46Z" fill="#abb08c"/>
        <path id="Path_5003" data-name="Path 5003" d="M588,470v41h18.108c6.741,0,12.239-1.928,16.5-5.873s6.383-9.169,6.383-15.72c0-6.024-1.936-10.826-5.809-14.222S613.662,470,606.251,470Zm66.445,100h-14.63l-18.647-31.285c-3.969-6.692-7.578-11.3-10.829-13.378a20.849,20.849,0,0,0-11.4-3.337H588v48H576V459h32.474c10.184,0,18.289,2.557,24.313,7.792s8.924,12.436,8.924,21.663c0,15.348-7.711,25.286-24.711,29.876v.287a23.36,23.36,0,0,1,7.678,5.235c1.983,2.152,5.016,6.424,8.985,12.784Z" fill="#abb08c"/>
        <path id="Path_5004" data-name="Path 5004" d="M763,459,721.688,570H708.276L667.828,459h13.626l31.27,88.516A65.942,65.942,0,0,1,714.946,557h.359a40.057,40.057,0,0,1,2.51-9.627L749.8,459Z" fill="#abb08c"/>
        <path id="Path_5005" data-name="Path 5005" d="M813,470H802v89h11v11H779V559h11V470H779V459h34Z" fill="#abb08c"/>
        <path id="Path_5006" data-name="Path 5006" d="M918,565.235c-8,4.4-18.28,6.6-30.519,6.6-15.587,0-28.1-5.14-37.636-15.42s-14.282-23.57-14.282-39.875q0-25.674,15.72-42.6c10.471-11.283,23.975-16.925,40.71-16.925,10.518,0,19.007,1.53,26.007,4.59v13.2a53.426,53.426,0,0,0-26.288-6.6c-13.195,0-23.674,4.447-31.539,13.34S848.4,501.86,848.4,515.82q0,19.867,11.057,32.417c7.363,8.367,17.139,12.551,29.523,12.551,11.187,0,21.019-2.484,29.019-7.459Z" fill="#abb08c"/>
        <path id="Path_5007" data-name="Path 5007" d="M1010,570H952V459h56v11H964v38h41v11H964v40h46Z" fill="#abb08c"/>
      </g>
      <g id="Group_350" data-name="Group 350">
        <path id="Path_5008" data-name="Path 5008" d="M383,551.985c3,2.823,7.761,5.177,13.619,7.065a53.668,53.668,0,0,0,16.329,2.833c16.16,0,24.283-5.881,24.283-17.643a15.847,15.847,0,0,0-2.488-8.821,23.229,23.229,0,0,0-6.766-6.705q-4.268-2.833-16.812-9.288-18.075-9.252-22.877-16.137a26.541,26.541,0,0,1-4.8-15.562,25.327,25.327,0,0,1,10.9-21.445c7.267-5.353,16.209-8.031,27.207-8.031,11.091,0,19.406,1.315,23.406,3.944v14.128c-6-4.493-14.7-6.741-24.983-6.741-7.029,0-12.671,1.495-17.119,4.483a14.276,14.276,0,0,0-6.621,12.586,15.981,15.981,0,0,0,2.354,8.713,21.9,21.9,0,0,0,6.359,6.42,161,161,0,0,0,15.64,8.533q16.352,8.106,22.882,15.815a26.037,26.037,0,0,1,6.527,17.248q0,14.2-10.327,21.945t-28.9,7.746a78.122,78.122,0,0,1-14.908-1.865c-6.05-1.243-9.9-2.748-12.9-4.518Z" fill="#abb08c"/>
        <path id="Path_5009" data-name="Path 5009" d="M542,571H484V460h55v11H496v38h40v11H496v40h46Z" fill="#abb08c"/>
        <path id="Path_5010" data-name="Path 5010" d="M587,471v41h17.822c6.741,0,12.239-1.809,16.495-5.754s6.383-9.109,6.383-15.66c0-6.023-1.936-10.915-5.808-14.311S612.376,471,604.966,471Zm66.16,100H638.529l-18.646-31.166c-3.969-6.691-7.578-10.857-10.829-12.937a20.587,20.587,0,0,0-11.4-2.9H587v47H574V460h33.188c10.185,0,18.289,2.676,24.313,7.91s9.068,12.5,9.068,21.724c0,15.347-8.569,25.345-24.569,29.935v.287a22.726,22.726,0,0,1,7.536,5.236c1.983,2.151,4.944,6.3,8.913,12.664Z" fill="#abb08c"/>
        <path id="Path_5011" data-name="Path 5011" d="M761.712,460,720.4,571H706.991L666.542,460h13.627l31.269,89.016A49.824,49.824,0,0,1,713.661,559h.358a43.5,43.5,0,0,1,2.511-10.127L748.517,460Z" fill="#abb08c"/>
        <path id="Path_5012" data-name="Path 5012" d="M812,471H801v90h11v10H778V561h11V471H778V460h34Z" fill="#abb08c"/>
        <path id="Path_5013" data-name="Path 5013" d="M917,566.473c-8,4.4-18.423,6.6-30.661,6.6q-23.382,0-37.708-15.42-14.307-15.418-14.317-39.875,0-25.672,15.7-42.6t40.843-16.925c10.518,0,19.141,1.53,26.141,4.59v13.2a53.981,53.981,0,0,0-26.431-6.6q-19.792,0-31.61,13.339-11.8,13.339-11.807,34.281,0,19.867,11.039,32.417c7.363,8.367,17.272,12.55,29.656,12.55,11.188,0,21.153-2.485,29.153-7.459Z" fill="#abb08c"/>
        <path id="Path_5014" data-name="Path 5014" d="M1009,571H951V460h56v11H963v38h40v11H963v40h46Z" fill="#abb08c"/>
      </g>
      <g id="Group_351" data-name="Group 351">
        <path id="Path_5015" data-name="Path 5015" d="M382,553.224c3,2.822,7.619,5.176,13.475,7.064a53.25,53.25,0,0,0,16.258,2.833q24.242,0,24.249-17.643a15.855,15.855,0,0,0-2.507-8.821,23.243,23.243,0,0,0-6.776-6.7q-4.268-2.832-16.816-9.288-18.073-9.252-22.878-16.137a26.533,26.533,0,0,1-4.8-15.562,25.323,25.323,0,0,1,10.9-21.444c7.267-5.354,16.353-8.032,27.35-8.032,11.091,0,18.548,1.316,23.548,3.945v14.127c-6-4.493-14.847-6.741-25.127-6.741-7.028,0-12.742,1.495-17.188,4.483a14.307,14.307,0,0,0-6.659,12.587,15.983,15.983,0,0,0,2.337,8.713,21.888,21.888,0,0,0,6.35,6.419,160.853,160.853,0,0,0,15.636,8.534q16.352,8.1,22.878,15.814a26.027,26.027,0,0,1,6.527,17.248q0,14.2-10.326,21.946t-28.9,7.746a76.824,76.824,0,0,1-14.767-1.866C388.709,571.2,384,569.7,382,567.926Z" fill="#abb08c"/>
        <path id="Path_5016" data-name="Path 5016" d="M541,572H482V461h56v12H494v37h41v12H494v39h47Z" fill="#abb08c"/>
        <path id="Path_5017" data-name="Path 5017" d="M585,473v41h18.537a23.444,23.444,0,0,0,16.495-6.135c4.255-3.943,6.383-9.3,6.383-15.85,0-6.024-1.937-10.63-5.81-14.027S611.091,473,603.68,473Zm66.874,99h-14.63L618.6,540.953c-3.97-6.691-7.579-10.917-10.83-13a20.623,20.623,0,0,0-11.4-2.956H585v47H573V461h32.9c10.184,0,18.288,2.793,24.313,8.029s9.209,12.557,9.209,21.784c0,15.347-8.425,25.405-24.425,29.995v.287a22.084,22.084,0,0,1,7.392,5.235c1.983,2.151,4.874,6.186,8.843,12.545Z" fill="#abb08c"/>
        <path id="Path_5018" data-name="Path 5018" d="M760.426,461,719.117,572H705.705L665.257,461h13.626l31.269,89.016A49.824,49.824,0,0,1,712.375,560h.358a43.5,43.5,0,0,1,2.511-10.127L747.23,461Z" fill="#abb08c"/>
        <path id="Path_5019" data-name="Path 5019" d="M811,472H800v90h11v10H777V562h11V472H777V461h34Z" fill="#abb08c"/>
        <path id="Path_5020" data-name="Path 5020" d="M916,567.711c-9,4.4-18.566,6.6-30.8,6.6-15.588,0-28.24-5.14-37.779-15.42s-14.353-23.571-14.353-39.875q0-25.676,15.684-42.6c10.471-11.283,24.242-16.925,40.977-16.925q15.777,0,26.275,4.59v13.2a54.53,54.53,0,0,0-26.574-6.6c-13.2,0-23.817,4.446-31.681,13.34S845.9,504.337,845.9,518.3q0,19.867,11.021,32.417c7.362,8.367,17.406,12.551,29.79,12.551A57.788,57.788,0,0,0,916,555.806Z" fill="#abb08c"/>
        <path id="Path_5021" data-name="Path 5021" d="M1008,572H949V461h56v12H962v37h40v12H962v39h46Z" fill="#abb08c"/>
      </g>
      <g id="Group_352" data-name="Group 352">
        <path id="Path_5022" data-name="Path 5022" d="M381,554.462c3,2.822,7.476,5.178,13.333,7.064a52.817,52.817,0,0,0,16.187,2.833q24.24,0,24.211-17.642a15.873,15.873,0,0,0-2.524-8.821,23.277,23.277,0,0,0-6.784-6.706q-4.266-2.832-16.821-9.288-18.073-9.252-22.88-16.136a26.547,26.547,0,0,1-4.806-15.563,25.322,25.322,0,0,1,10.9-21.444c7.267-5.354,16.494-8.032,27.492-8.032,11.091,0,18.691,1.316,23.691,3.945V478.8c-7-4.493-14.99-6.741-25.269-6.741-7.028,0-12.814,1.495-17.26,4.481a14.341,14.341,0,0,0-6.694,12.588,15.972,15.972,0,0,0,2.318,8.713,21.854,21.854,0,0,0,6.341,6.419,160.684,160.684,0,0,0,15.631,8.534q16.353,8.1,22.878,15.814a26.031,26.031,0,0,1,6.526,17.248q0,14.2-10.328,21.946t-28.9,7.745a75.61,75.61,0,0,1-14.624-1.864c-6.05-1.243-10.616-2.749-12.616-4.519Z" fill="#abb08c"/>
        <path id="Path_5023" data-name="Path 5023" d="M539,574H481V463h56v11H493v38h41v11H493v39h46Z" fill="#abb08c"/>
        <path id="Path_5024" data-name="Path 5024" d="M584,474v41h18.251c6.741,0,12.239-2.07,16.495-6.016s6.383-9.24,6.383-15.791q0-9.036-5.809-14.115T602.394,474Zm66.589,100H635.958l-18.647-31.428c-3.968-6.693-7.578-11.226-10.829-13.306A20.783,20.783,0,0,0,595.08,526H584v48H572V463h32.617c10.185,0,18.289,2.414,24.313,7.649s8.853,12.367,8.853,21.593c0,15.348-7.783,25.214-24.783,29.8v.287a23.678,23.678,0,0,1,7.75,5.235c1.983,2.152,5.052,6.567,9.02,12.926Z" fill="#abb08c"/>
        <path id="Path_5025" data-name="Path 5025" d="M759.141,463,717.832,574H704.42L663.972,463H677.6l31.269,88.516A44.5,44.5,0,0,1,711.09,561h.358a40.017,40.017,0,0,1,2.511-9.627L745.945,463Z" fill="#abb08c"/>
        <path id="Path_5026" data-name="Path 5026" d="M809,473H798v90h11v11H775V563h11V473H775V463h34Z" fill="#abb08c"/>
        <path id="Path_5027" data-name="Path 5027" d="M914,568.95c-8,4.4-18.209,6.6-30.447,6.6-15.588,0-28.061-5.139-37.6-15.419s-14.264-23.57-14.264-39.875q0-25.674,15.728-42.6c10.472-11.282,23.908-16.925,40.643-16.925,10.518,0,18.94,1.531,25.94,4.59v13.2a53.153,53.153,0,0,0-26.216-6.6c-13.2,0-23.639,4.446-31.5,13.34s-11.754,20.32-11.754,34.28q0,19.868,11.066,32.417c7.363,8.367,17.071,12.551,29.455,12.551,11.187,0,20.952-2.484,28.952-7.459Z" fill="#abb08c"/>
        <path id="Path_5028" data-name="Path 5028" d="M1007,574H948V463h56v11H960v38h41v11H960v39h47Z" fill="#abb08c"/>
      </g>
      <g id="Group_353" data-name="Group 353">
        <path id="Path_5029" data-name="Path 5029" d="M379,555.7a47.17,47.17,0,0,0,13.69,7.064,53.887,53.887,0,0,0,16.365,2.834c16.16,0,24.3-5.881,24.3-17.643a15.831,15.831,0,0,0-2.48-8.821,23.193,23.193,0,0,0-6.762-6.706q-4.268-2.832-16.81-9.287Q389.232,513.889,384.431,507a26.535,26.535,0,0,1-4.8-15.563A25.322,25.322,0,0,1,390.53,470c7.267-5.355,16.638-8.032,27.636-8.032,11.091,0,18.834,1.315,23.834,3.944v14.128c-7-4.494-15.132-6.741-25.412-6.741-7.028,0-12.885,1.495-17.332,4.481a14.376,14.376,0,0,0-6.73,12.588,15.956,15.956,0,0,0,2.3,8.713,21.8,21.8,0,0,0,6.332,6.419,160.1,160.1,0,0,0,15.627,8.534q16.352,8.1,22.874,15.815a26.022,26.022,0,0,1,6.525,17.248q0,14.2-10.329,21.944t-28.9,7.746a78.734,78.734,0,0,1-14.981-1.864c-6.05-1.243-9.974-2.749-12.974-4.519Z" fill="#abb08c"/>
        <path id="Path_5030" data-name="Path 5030" d="M538,575H480V464h56v11H492v38h40v11H492v40h46Z" fill="#abb08c"/>
        <path id="Path_5031" data-name="Path 5031" d="M583,475v41h17.966c6.741,0,12.239-1.951,16.495-5.9s6.383-9.181,6.383-15.732c0-6.024-1.937-10.807-5.81-14.2S608.519,475,601.109,475Zm66.3,100h-14.63l-18.647-31.309c-3.969-6.693-7.578-11.286-10.83-13.366a20.826,20.826,0,0,0-11.4-3.325H583v48H571V464h32.332c10.184,0,18.288,2.532,24.312,7.769s9,12.424,9,21.651c0,15.348-8.64,25.274-24.64,29.864v.287a23.027,23.027,0,0,1,7.607,5.236c1.983,2.151,4.98,6.447,8.95,12.8Z" fill="#abb08c"/>
        <path id="Path_5032" data-name="Path 5032" d="M757.854,464,716.546,575H703.134L662.685,464h13.627l31.269,88.516A65.951,65.951,0,0,1,709.8,562h.359a40.011,40.011,0,0,1,2.51-9.627L744.66,464Z" fill="#abb08c"/>
        <path id="Path_5033" data-name="Path 5033" d="M808,475H797v89h11v11H774V564h11V475H774V464h34Z" fill="#abb08c"/>
        <path id="Path_5034" data-name="Path 5034" d="M913,570.188c-8,4.4-18.352,6.6-30.59,6.6q-23.382,0-37.671-15.42-14.307-15.417-14.3-39.875,0-25.672,15.71-42.6t40.777-16.925c10.518,0,19.074,1.53,26.074,4.59v13.2a53.7,53.7,0,0,0-26.359-6.6q-19.794,0-31.574,13.34-11.8,13.339-11.79,34.28,0,19.869,11.048,32.417t29.589,12.551c11.188,0,21.086-2.485,29.086-7.46Z" fill="#abb08c"/>
        <path id="Path_5035" data-name="Path 5035" d="M1005,575H947V464h56v11H959v38h40v11H959v40h46Z" fill="#abb08c"/>
      </g>
      <g id="Group_354" data-name="Group 354">
        <path id="Path_5036" data-name="Path 5036" d="M378,556.939c3,2.822,7.69,5.176,13.547,7.064a53.459,53.459,0,0,0,16.294,2.833q24.24,0,24.266-17.643a15.846,15.846,0,0,0-2.5-8.821,23.239,23.239,0,0,0-6.771-6.706q-4.266-2.832-16.814-9.287-18.072-9.252-22.877-16.137a26.542,26.542,0,0,1-4.8-15.562,25.323,25.323,0,0,1,10.9-21.444c7.267-5.354,16.281-8.033,27.278-8.033,11.092,0,19.477,1.317,23.477,3.944v14.129c-6-4.494-14.775-6.741-25.055-6.741-7.028,0-12.706,1.495-17.153,4.483a14.292,14.292,0,0,0-6.64,12.586,15.977,15.977,0,0,0,2.346,8.713,21.892,21.892,0,0,0,6.354,6.419,161.218,161.218,0,0,0,15.638,8.535q16.352,8.1,22.88,15.814a26.031,26.031,0,0,1,6.527,17.247q0,14.2-10.327,21.946t-28.9,7.745a77.427,77.427,0,0,1-14.838-1.865c-6.049-1.242-9.83-2.748-12.83-4.517Z" fill="#abb08c"/>
        <path id="Path_5037" data-name="Path 5037" d="M537,576H478V465h56v11H491v38h40v11H491v40h46Z" fill="#abb08c"/>
        <path id="Path_5038" data-name="Path 5038" d="M582,476v41h17.68c6.741,0,12.239-1.832,16.495-5.776s6.383-9.122,6.383-15.673c0-6.025-1.936-10.9-5.809-14.294S607.234,476,599.823,476Zm66.018,100H633.387l-18.646-31.189c-3.97-6.693-7.579-10.846-10.83-12.926a20.6,20.6,0,0,0-11.4-2.885H582v47H569V465h33.046c10.184,0,18.288,2.651,24.313,7.887S635.5,485.373,635.5,494.6c0,15.347-8.5,25.332-24.5,29.922v.288a22.393,22.393,0,0,1,7.464,5.235c1.983,2.15,4.909,6.328,8.878,12.686Z" fill="#abb08c"/>
        <path id="Path_5039" data-name="Path 5039" d="M756.569,465,715.261,576H701.849L661.4,465h13.626l31.27,89.017A49.952,49.952,0,0,1,708.519,564h.358a43.5,43.5,0,0,1,2.511-10.127L743.374,465Z" fill="#abb08c"/>
        <path id="Path_5040" data-name="Path 5040" d="M807,476H796v89h11v11H773V565h11V476H773V465h34Z" fill="#abb08c"/>
        <path id="Path_5041" data-name="Path 5041" d="M912,571.426c-8,4.4-18.494,6.6-30.732,6.6-15.588,0-28.205-5.138-37.744-15.419s-14.335-23.571-14.335-39.875q0-25.674,15.693-42.6c10.471-11.283,24.176-16.926,40.91-16.926,10.518,0,19.208,1.531,26.208,4.591v13.2a54.266,54.266,0,0,0-26.5-6.6c-13.2,0-23.781,4.446-31.646,13.339s-11.825,20.321-11.825,34.281q0,19.867,11.031,32.417c7.362,8.367,17.338,12.55,29.722,12.55,11.188,0,21.22-2.485,29.22-7.458Z" fill="#abb08c"/>
        <path id="Path_5042" data-name="Path 5042" d="M1004,576H946V465h55v11H958v38h40v11H958v40h46Z" fill="#abb08c"/>
      </g>
      <g id="Group_355" data-name="Group 355">
        <path id="Path_5043" data-name="Path 5043" d="M377,558.176c3,2.822,7.547,5.177,13.4,7.065a53.042,53.042,0,0,0,16.223,2.833q24.24,0,24.23-17.642a15.873,15.873,0,0,0-2.515-8.823,23.262,23.262,0,0,0-6.781-6.705q-4.266-2.83-16.818-9.287-18.074-9.252-22.879-16.137a26.536,26.536,0,0,1-4.805-15.562,25.322,25.322,0,0,1,10.9-21.444q10.9-8.031,27.422-8.033c11.091,0,18.619,1.317,23.619,3.945v14.129c-7-4.493-14.918-6.742-25.2-6.742q-10.544,0-17.225,4.482a14.323,14.323,0,0,0-6.676,12.587,15.977,15.977,0,0,0,2.327,8.714,21.885,21.885,0,0,0,6.346,6.419,160.9,160.9,0,0,0,15.634,8.533q16.351,8.106,22.878,15.814a26.036,26.036,0,0,1,6.526,17.249q0,14.2-10.328,21.946t-28.9,7.745a76.172,76.172,0,0,1-14.7-1.865c-6.049-1.243-10.687-2.749-12.687-4.518Z" fill="#abb08c"/>
        <path id="Path_5044" data-name="Path 5044" d="M535,577H477V466h56v11H489v38h41v11H489v40h46Z" fill="#abb08c"/>
        <path id="Path_5045" data-name="Path 5045" d="M580,478v41h18.394a23.461,23.461,0,0,0,16.5-6.158c4.254-3.945,6.382-9.313,6.382-15.864,0-6.023-1.936-10.611-5.808-14.006S605.948,478,598.538,478Zm66.732,99H632.1l-18.647-31.07c-3.969-6.694-7.579-10.907-10.829-12.987a20.627,20.627,0,0,0-11.4-2.943H580v47H568V466h32.761c10.184,0,18.288,2.772,24.312,8.006s9.281,12.545,9.281,21.771c0,15.348-8.354,25.393-24.354,29.983v.287a21.808,21.808,0,0,1,7.322,5.236c1.983,2.151,4.837,6.209,8.806,12.567Z" fill="#abb08c"/>
        <path id="Path_5046" data-name="Path 5046" d="M755.284,466,713.975,577H700.563L660.115,466h13.626l31.269,89.016A49.976,49.976,0,0,1,707.233,565h.359a43.442,43.442,0,0,1,2.51-10.127L742.088,466Z" fill="#abb08c"/>
        <path id="Path_5047" data-name="Path 5047" d="M806,477H795v90h11v10H771V567h11V477H771V466h35Z" fill="#abb08c"/>
        <path id="Path_5048" data-name="Path 5048" d="M910,572.664q-12,6.6-30.376,6.6c-15.587,0-28.025-5.139-37.564-15.42s-14.245-23.57-14.245-39.874q0-25.674,15.737-42.6c10.471-11.283,23.84-16.926,40.574-16.926,10.519,0,19.874,1.532,25.874,4.59v13.2c-7-4.4-16.534-6.6-26.145-6.6-13.2,0-23.6,4.447-31.467,13.34s-11.735,20.32-11.735,34.281q0,19.866,11.074,32.416c7.363,8.367,17,12.551,29.388,12.551,11.187,0,20.885-2.485,28.885-7.458Z" fill="#abb08c"/>
        <path id="Path_5049" data-name="Path 5049" d="M1003,577H944V466h56v11H957v38h40v11H957v40h46Z" fill="#abb08c"/>
      </g>
      <g id="Group_356" data-name="Group 356">
        <path id="Path_5050" data-name="Path 5050" d="M376,559.414c3,2.822,7.4,5.178,13.262,7.064a52.586,52.586,0,0,0,16.151,2.835c16.16,0,24.194-5.881,24.194-17.643a15.883,15.883,0,0,0-2.533-8.822,23.281,23.281,0,0,0-6.789-6.705q-4.268-2.832-16.823-9.288-18.074-9.25-22.881-16.136a26.541,26.541,0,0,1-4.807-15.563,25.323,25.323,0,0,1,10.9-21.444c7.266-5.355,16.566-8.032,27.564-8.032,11.091,0,18.761,1.315,23.761,3.945v14.127c-7-4.493-15.061-6.74-25.34-6.74-7.029,0-12.85,1.495-17.3,4.481a14.357,14.357,0,0,0-6.711,12.587,15.969,15.969,0,0,0,2.31,8.714,21.836,21.836,0,0,0,6.336,6.419,160.581,160.581,0,0,0,15.63,8.533q16.353,8.106,22.875,15.814a26.036,26.036,0,0,1,6.526,17.249q0,14.2-10.329,21.945T403.1,580.5a75,75,0,0,1-14.553-1.864C382.5,577.393,378,575.887,376,574.117Z" fill="#abb08c"/>
        <path id="Path_5051" data-name="Path 5051" d="M534,579H476V468h56v11H488v38h40v11H488v39h46Z" fill="#abb08c"/>
        <path id="Path_5052" data-name="Path 5052" d="M579,479v41h18.109c6.741,0,12.239-2.094,16.495-6.039s6.383-9.253,6.383-15.8c0-6.023-1.937-10.7-5.809-14.1S604.663,479,597.252,479Zm66.446,100h-14.63L612.17,547.549c-3.97-6.694-7.579-11.216-10.83-13.295a20.788,20.788,0,0,0-11.4-3.254H579v48H567V468h32.476c10.183,0,18.287,2.39,24.312,7.625s8.924,12.355,8.924,21.582c0,15.346-7.712,25.2-24.712,29.791v.287a23.371,23.371,0,0,1,7.679,5.237c1.983,2.15,5.016,6.589,8.986,12.947Z" fill="#abb08c"/>
        <path id="Path_5053" data-name="Path 5053" d="M754,468,712.689,579H699.277L658.83,468h13.625l31.27,88.516A44.441,44.441,0,0,1,705.947,566h.359a40.059,40.059,0,0,1,2.51-9.627L740.8,468Z" fill="#abb08c"/>
        <path id="Path_5054" data-name="Path 5054" d="M804,478H793v90h11v11H770V568h11V478H770V468h34Z" fill="#abb08c"/>
        <path id="Path_5055" data-name="Path 5055" d="M909,573.9c-8,4.4-18.28,6.6-30.518,6.6-15.588,0-28.1-5.139-37.636-15.42s-14.282-23.569-14.282-39.875q0-25.673,15.72-42.6c10.471-11.283,23.975-16.925,40.709-16.925,10.519,0,19.007,1.531,26.007,4.59v13.2a53.422,53.422,0,0,0-26.287-6.6c-13.2,0-23.675,4.447-31.539,13.339S839.4,510.527,839.4,524.488q0,19.867,11.057,32.416c7.363,8.368,17.139,12.551,29.522,12.551,11.188,0,21.019-2.484,29.019-7.459Z" fill="#abb08c"/>
        <path id="Path_5056" data-name="Path 5056" d="M1001,579H943V468h56v11H955v38h41v11H955v39h46Z" fill="#abb08c"/>
      </g>
      <g id="Group_357" data-name="Group 357">
        <path id="Path_5057" data-name="Path 5057" d="M374,560.652c3,2.823,7.762,5.178,13.618,7.065a53.693,53.693,0,0,0,16.331,2.834c16.16,0,24.283-5.881,24.283-17.643a15.85,15.85,0,0,0-2.488-8.822,23.209,23.209,0,0,0-6.767-6.705q-4.266-2.833-16.812-9.287-18.072-9.252-22.876-16.137a26.544,26.544,0,0,1-4.8-15.562,25.325,25.325,0,0,1,10.9-21.445c7.267-5.354,16.209-8.032,27.207-8.032,11.09,0,19.4,1.315,23.4,3.945V484.99c-6-4.493-14.7-6.74-24.983-6.74-7.029,0-12.671,1.494-17.118,4.481a14.279,14.279,0,0,0-6.621,12.587,15.991,15.991,0,0,0,2.354,8.714,21.9,21.9,0,0,0,6.359,6.419,160.777,160.777,0,0,0,15.64,8.533q16.352,8.107,22.881,15.815a26.037,26.037,0,0,1,6.528,17.248q0,14.2-10.327,21.945t-28.9,7.746a78.046,78.046,0,0,1-14.909-1.865c-6.05-1.242-9.9-2.748-12.9-4.518Z" fill="#abb08c"/>
        <path id="Path_5058" data-name="Path 5058" d="M533,580H475V469h55v11H487v38h40v11H487v40h46Z" fill="#abb08c"/>
        <path id="Path_5059" data-name="Path 5059" d="M578,480v41h17.824q10.11,0,16.494-5.92t6.383-15.744c0-6.023-1.936-10.789-5.809-14.186S603.377,480,595.967,480Zm66.161,100h-14.63l-18.647-31.331c-3.969-6.693-7.578-11.276-10.83-13.356a20.823,20.823,0,0,0-11.4-3.313H578v48H565V469h33.19c10.184,0,18.287,2.509,24.312,7.744s9.067,12.414,9.067,21.641c0,15.347-8.569,25.262-24.569,29.851v.287a22.718,22.718,0,0,1,7.536,5.237c1.983,2.15,4.945,6.47,8.914,12.829Z" fill="#abb08c"/>
        <path id="Path_5060" data-name="Path 5060" d="M752.713,469,711.4,580H697.992L657.544,469h13.625l31.27,88.516A65.951,65.951,0,0,1,704.662,567h.358a40,40,0,0,1,2.511-9.626L739.517,469Z" fill="#abb08c"/>
        <path id="Path_5061" data-name="Path 5061" d="M803,479H792v90h11v11H769V569h11V479H769V469h34Z" fill="#abb08c"/>
        <path id="Path_5062" data-name="Path 5062" d="M908,575.141c-8,4.4-18.423,6.6-30.661,6.6q-23.382,0-37.707-15.42-14.307-15.417-14.317-39.875,0-25.672,15.7-42.6t40.842-16.926c10.519,0,19.141,1.531,26.141,4.59v13.2a53.98,53.98,0,0,0-26.43-6.6q-19.794,0-31.61,13.34-11.8,13.34-11.807,34.282,0,19.866,11.039,32.416c7.363,8.367,17.272,12.55,29.656,12.55,11.187,0,21.152-2.484,29.152-7.459Z" fill="#abb08c"/>
        <path id="Path_5063" data-name="Path 5063" d="M1000,580H942V469h56v11H954v38h40v11H954v40h46Z" fill="#abb08c"/>
      </g>
      <g id="Group_358" data-name="Group 358">
        <path id="Path_5064" data-name="Path 5064" d="M373,561.891c3,2.822,7.619,5.177,13.476,7.064a53.228,53.228,0,0,0,16.259,2.834q24.24,0,24.247-17.642a15.874,15.874,0,0,0-2.505-8.823,23.255,23.255,0,0,0-6.776-6.7q-4.268-2.834-16.817-9.287Q382.81,520.08,378.006,513.2a26.545,26.545,0,0,1-4.805-15.562,25.319,25.319,0,0,1,10.9-21.444c7.267-5.355,16.352-8.033,27.35-8.033,11.091,0,18.547,1.316,23.547,3.945v14.127c-6-4.493-14.846-6.74-25.126-6.74-7.028,0-12.742,1.494-17.189,4.482a14.309,14.309,0,0,0-6.658,12.587,15.978,15.978,0,0,0,2.337,8.713,21.891,21.891,0,0,0,6.35,6.42,160.889,160.889,0,0,0,15.636,8.533q16.352,8.106,22.879,15.814a26.035,26.035,0,0,1,6.526,17.248q0,14.2-10.326,21.945t-28.9,7.747a76.818,76.818,0,0,1-14.767-1.866C379.71,579.869,375,578.363,373,576.594Z" fill="#abb08c"/>
        <path id="Path_5065" data-name="Path 5065" d="M532,581H473V470h56v11H485v38h41v11H485v40h47Z" fill="#abb08c"/>
        <path id="Path_5066" data-name="Path 5066" d="M576,481v41h18.538c6.741,0,12.239-1.855,16.495-5.8s6.382-9.134,6.382-15.684c0-6.024-1.936-10.88-5.808-14.275S602.092,481,594.681,481Zm66.875,100h-14.63L609.6,549.788c-3.969-6.693-7.578-10.835-10.829-12.915S591.716,534,587.366,534H576v47H564V470h32.9q15.276,0,24.312,7.863c6.025,5.236,9.21,12.473,9.21,21.7,0,15.347-8.426,25.322-24.426,29.912v.287A22.128,22.128,0,0,1,613.394,535c1.983,2.15,4.873,6.351,8.841,12.71Z" fill="#abb08c"/>
        <path id="Path_5067" data-name="Path 5067" d="M751.427,470,710.118,581H696.706L656.258,470h13.626l31.27,89.016A49.914,49.914,0,0,1,703.376,569h.359a43.491,43.491,0,0,1,2.51-10.127L738.232,470Z" fill="#abb08c"/>
        <path id="Path_5068" data-name="Path 5068" d="M802,481H791v89h11v11H768V570h11V481H768V470h34Z" fill="#abb08c"/>
        <path id="Path_5069" data-name="Path 5069" d="M907,576.379c-9,4.4-18.565,6.6-30.8,6.6-15.588,0-28.239-5.139-37.778-15.42s-14.353-23.571-14.353-39.875q0-25.674,15.683-42.6c10.472-11.283,24.243-16.926,40.978-16.926q15.777,0,26.274,4.59v13.2a54.529,54.529,0,0,0-26.573-6.6c-13.2,0-23.817,4.447-31.681,13.34S836.9,513,836.9,526.965q0,19.866,11.021,32.416c7.363,8.367,17.406,12.551,29.79,12.551A57.777,57.777,0,0,0,907,564.473Z" fill="#abb08c"/>
        <path id="Path_5070" data-name="Path 5070" d="M999,581H940V470h56v11H953v38h40v11H953v40h46Z" fill="#abb08c"/>
      </g>
      <g id="Group_359" data-name="Group 359">
        <path id="Path_5071" data-name="Path 5071" d="M372,563.129c3,2.822,7.476,5.178,13.333,7.064a52.8,52.8,0,0,0,16.187,2.834q24.242,0,24.213-17.642a15.869,15.869,0,0,0-2.525-8.822,23.264,23.264,0,0,0-6.784-6.706q-4.268-2.832-16.822-9.287-18.072-9.252-22.879-16.136a26.542,26.542,0,0,1-4.806-15.563,25.319,25.319,0,0,1,10.9-21.444c7.266-5.355,16.494-8.032,27.492-8.032,11.091,0,18.69,1.315,23.69,3.944v14.128c-7-4.493-14.989-6.74-25.269-6.74-7.028,0-12.813,1.494-17.26,4.481a14.338,14.338,0,0,0-6.693,12.587,15.967,15.967,0,0,0,2.318,8.713,21.845,21.845,0,0,0,6.341,6.42,160.784,160.784,0,0,0,15.632,8.533q16.352,8.106,22.877,15.814a26.035,26.035,0,0,1,6.526,17.248q0,14.2-10.328,21.946t-28.9,7.746a75.548,75.548,0,0,1-14.623-1.865C378.567,581.107,374,579.6,372,577.832Z" fill="#abb08c"/>
        <path id="Path_5072" data-name="Path 5072" d="M530,582H472V471h56v11H484v38h41v11H484v40h46Z" fill="#abb08c"/>
        <path id="Path_5073" data-name="Path 5073" d="M575,483v40h18.252c6.742,0,12.239-1.736,16.495-5.682s6.383-9.074,6.383-15.625c0-6.023-1.937-10.468-5.809-13.864S600.806,483,593.4,483Zm66.59,99H626.959l-18.647-31.093c-3.969-6.693-7.578-10.895-10.829-12.975a20.607,20.607,0,0,0-11.4-2.932H575v47H563V471h32.618c10.185,0,18.288,2.747,24.313,7.982s8.852,12.534,8.852,21.76c0,15.348-7.783,25.381-24.783,29.971V531a23.7,23.7,0,0,1,7.75,5.236,91.094,91.094,0,0,1,9.021,12.591Z" fill="#abb08c"/>
        <path id="Path_5074" data-name="Path 5074" d="M750.142,471,708.833,582H695.421L654.972,471H668.6l31.269,89.016A49.976,49.976,0,0,1,702.091,570h.358a43.543,43.543,0,0,1,2.51-10.127L736.946,471Z" fill="#abb08c"/>
        <path id="Path_5075" data-name="Path 5075" d="M800,482H789v90h11v10H766V572h11V482H766V471h34Z" fill="#abb08c"/>
        <path id="Path_5076" data-name="Path 5076" d="M905,577.617c-8,4.4-18.208,6.6-30.446,6.6-15.588,0-28.061-5.139-37.6-15.42s-14.264-23.57-14.264-39.875q0-25.672,15.728-42.6c10.472-11.283,23.908-16.925,40.642-16.925,10.518,0,18.94,1.531,25.94,4.589v13.2a53.153,53.153,0,0,0-26.216-6.6c-13.2,0-23.638,4.447-31.5,13.34s-11.754,20.32-11.754,34.281q0,19.866,11.066,32.416c7.362,8.367,17.071,12.551,29.454,12.551,11.187,0,20.952-2.485,28.952-7.459Z" fill="#abb08c"/>
        <path id="Path_5077" data-name="Path 5077" d="M998,582H939V471h56v11H951v38h41v11H951v40h47Z" fill="#abb08c"/>
      </g>
      <g id="Group_360" data-name="Group 360">
        <path id="Path_5078" data-name="Path 5078" d="M370,564.367a47.16,47.16,0,0,0,13.69,7.065,53.9,53.9,0,0,0,16.367,2.834c16.16,0,24.3-5.881,24.3-17.643a15.844,15.844,0,0,0-2.48-8.822,23.176,23.176,0,0,0-6.762-6.705q-4.268-2.834-16.81-9.287-18.074-9.252-22.874-16.137a26.538,26.538,0,0,1-4.8-15.563,25.325,25.325,0,0,1,10.9-21.444c7.267-5.355,16.638-8.032,27.635-8.032,11.092,0,18.834,1.315,23.834,3.944V488.7c-7-4.493-15.132-6.74-25.412-6.74-7.028,0-12.885,1.494-17.331,4.481a14.371,14.371,0,0,0-6.73,12.587,15.951,15.951,0,0,0,2.3,8.713,21.8,21.8,0,0,0,6.332,6.42,160.461,160.461,0,0,0,15.626,8.533q16.353,8.106,22.876,15.815a26.029,26.029,0,0,1,6.524,17.248q0,14.2-10.329,21.945t-28.9,7.746a78.688,78.688,0,0,1-14.982-1.865C376.925,582.346,373,580.84,370,579.07Z" fill="#abb08c"/>
        <path id="Path_5079" data-name="Path 5079" d="M529,584H471V472h56v12H483v37h40v12H483v39h46Z" fill="#abb08c"/>
        <path id="Path_5080" data-name="Path 5080" d="M574,484v41h17.967c6.74,0,12.239-2.117,16.495-6.062s6.383-9.265,6.383-15.816c0-6.023-1.937-10.682-5.809-14.079S599.52,484,592.11,484Zm66.3,100h-14.63l-18.647-31.474c-3.969-6.693-7.578-11.2-10.829-13.284a20.791,20.791,0,0,0-11.4-3.242H574v48H562V472h32.333c10.184,0,18.288,2.866,24.312,8.1s9,12.591,9,21.818c0,15.348-8.641,25.441-24.641,30.031v.287a23.036,23.036,0,0,1,7.607,5.237c1.984,2.15,4.981,6.612,8.951,12.971Z" fill="#abb08c"/>
        <path id="Path_5081" data-name="Path 5081" d="M748.855,472,707.547,584H694.135L653.687,472h13.626l31.269,89.016A49.836,49.836,0,0,1,700.8,571h.359a43.491,43.491,0,0,1,2.51-10.127L735.661,472Z" fill="#abb08c"/>
        <path id="Path_5082" data-name="Path 5082" d="M799,483H788v90h11v11H765V573h11V483H765V472h34Z" fill="#abb08c"/>
        <path id="Path_5083" data-name="Path 5083" d="M904,578.855c-8,4.4-18.351,6.6-30.589,6.6q-23.382,0-37.672-15.42-14.307-15.418-14.3-39.875,0-25.672,15.71-42.6t40.776-16.926c10.519,0,19.074,1.531,26.074,4.59v13.2a53.7,53.7,0,0,0-26.358-6.6q-19.8,0-31.575,13.34-11.8,13.34-11.789,34.281,0,19.866,11.048,32.416t29.589,12.551c11.187,0,21.085-2.484,29.085-7.459Z" fill="#abb08c"/>
        <path id="Path_5084" data-name="Path 5084" d="M996,584H938V472h56v12H950v37h40v12H950v39h46Z" fill="#abb08c"/>
      </g>
      <text id="SERVICE-2" data-name="SERVICE" transform="translate(359.663 584.827)" fill="#abb08c" font-size="146.878" font-family="MicrosoftJhengHeiRegular, Microsoft JhengHei" letter-spacing="0.075em"><tspan x="0" y="0">SERVICE</tspan></text>
    </g>
    <text id="SERVICE-3" data-name="SERVICE" transform="translate(386.66 558.824)" fill="#fff" font-size="146.878" font-family="MicrosoftJhengHeiRegular, Microsoft JhengHei" letter-spacing="0.075em"><tspan x="0" y="0">SERVICE</tspan></text>
    <text id="Make_with_Mano_Flavor" data-name="Make with Mano Flavor" transform="translate(719.193 651.928)" fill="#4d4d4d" font-size="18" font-family="MicrosoftJhengHeiRegular, Microsoft JhengHei" letter-spacing="0.1em"><tspan x="-116.67" y="0">Make with Mano Flavor</tspan></text>
    <g id="Group_362" data-name="Group 362">
      <rect id="Rectangle_115" data-name="Rectangle 115" width="182" height="55" rx="25" transform="translate(629.094 735.428)" fill="#abb08c"/>
      <text id="SHOP_-_" data-name="SHOP -&gt;" transform="translate(721.693 769.428)" fill="#fff" font-size="18" font-family="MicrosoftJhengHeiRegular, Microsoft JhengHei" letter-spacing="0.1em"><tspan x="-42.916" y="0">SHOP -&gt;</tspan></text>
    </g>
  </g>
</svg>
