<svg xmlns="http://www.w3.org/2000/svg" width="604.204" height="219.298" viewBox="0 0 604.204 219.298">
  <g id="Group_396" data-name="Group 396" transform="translate(-206.582 -149.28)">
    <path id="Path_1018" data-name="Path 1018" d="M294.6,366.038c-33.817-2.078-74.855-9.967-85.713-42.061-6.573-19.427,1.638-41.517,15.823-56.328s33.426-23.616,52.587-30.928c35.774-13.651,72.927-23.292,109.991-32.9,96.7-25.077,194.3-50.294,294.121-54.176,26.131-1.016,52.991-.437,77.35,9.073s46.009,29.559,50.958,55.237c5.259,27.286-9.4,55.442-30.673,73.319s-48.262,27.282-74.9,35.2C570.876,362.074,433.022,374.548,294.6,366.038Z" fill="#a8b38b"/>
    <text id="Mano" transform="translate(359.742 311.448) rotate(-3.774)" fill="#fff" font-size="106.709" font-family="ACaslonPro-Regular, Adobe Caslon Pro" letter-spacing="0.075em"><tspan x="0" y="0">Mano</tspan></text>
  </g>
</svg>
