<svg xmlns="http://www.w3.org/2000/svg" xmlns:xlink="http://www.w3.org/1999/xlink" width="1440" height="900" viewBox="0 0 1440 900">
  <defs>
    <clipPath id="clip-path">
      <rect id="Rectangle_113" data-name="Rectangle 113" width="1440" height="900" transform="translate(0.094)" fill="none"/>
    </clipPath>
  </defs>
  <g id="Group_339" data-name="Group 339" transform="translate(-0.094)" clip-path="url(#clip-path)">
    <g id="Group_338" data-name="Group 338">
      <rect id="Rectangle_112" data-name="Rectangle 112" width="1440" height="985.891" transform="translate(1.094 0.006)" fill="#f0f0f0"/>
      <g id="Group_337" data-name="Group 337">
        <path id="Path_4922" data-name="Path 4922" d="M341.138,995.022c4.725-37.68,9.094-186.516,50.053-257.821l40.959-71.3,16-43,2-11s-7.627-187.455-1.12-270.01c7.325-92.958,41.792-150.586,115.12-205.99-31.914,19.148-102.152,39.054-115,67-6.445-8.245-28.83,122.958-28.966,136-.816,78.513-.532,155.42-16.792,232.646-10.727,50.956-37.863,94.943-43.746,147.244-9.628,85.586-22.516,169.258-36.307,254.141" fill="none" stroke="#000" stroke-miterlimit="10" stroke-width="4"/>
        <path id="Path_4923" data-name="Path 4923" d="M599.15,393.9l-3-12c14.166,94.009-5.3,176.008-14.72,266.944q-16.474,159.008-32.952,318.014" fill="none" stroke="#000" stroke-miterlimit="10" stroke-width="4"/>
        <path id="Path_4924" data-name="Path 4924" d="M796.15,83.9c-7.085-.184-85.808,103.678-106.932,128.059-27.234,31.43-70.422,63.2-75.785,103.942-3.449,26.193-4.519,54.174-14.283,78" fill="none" stroke="#000" stroke-miterlimit="10" stroke-width="4"/>
        <path id="Path_4925" data-name="Path 4925" d="M724.429,8.9c.538,35.164,23.448,55.262,50.449,69.481C787.5,85.03,832.55,83.9,866.73,83.9" fill="none" stroke="#000" stroke-miterlimit="10" stroke-width="4"/>
        <path id="Path_4926" data-name="Path 4926" d="M844.15,147.9C833.529,105.726,830.874,35.564,805,.006L798.15,9.9c9.338,5.943,52.881,82.83,23.941,68.114" fill="none" stroke="#000" stroke-miterlimit="10" stroke-width="4"/>
        <path id="Path_4927" data-name="Path 4927" d="M897.15,355.9" fill="none" stroke="#000" stroke-miterlimit="10" stroke-width="4"/>
        <path id="Path_4928" data-name="Path 4928" d="M884.15,561.9c9.927-26.046,95.6-47.62,129.551-61.372,59.161-23.965,115.239-65.4,176.449-82.628-56.442,21.166-91.279-37.649-138.534-71.449-20.382-14.578-56.71-51.534-81.519-54.758-11.537-1.5-67.644,56.2-72.947,48.28" fill="none" stroke="#000" stroke-miterlimit="10" stroke-width="4"/>
        <path id="Path_4929" data-name="Path 4929" d="M993.623,130.171C929.431,84.958,874.114,62.862,851.456,97.1c-28.058,42.376,16.508,280.171,49.618,256.742-9.086,72.55-45.838,141.506-54.924,214.055-.367,7.076,32.1-7.082,38-6" fill="none" stroke="#000" stroke-miterlimit="10" stroke-width="4"/>
        <path id="Path_4930" data-name="Path 4930" d="M959.8,589.406c28.665-10.873,61.572-16.029,88.329-22.572,69.008-16.882,132.338-34.168,196.016-51.937,54.6-16.258,104.76-42.873,48.859-103.871-20.8-22.7-176.383-194.217-299.386-280.855" fill="none" stroke="#000" stroke-miterlimit="10" stroke-width="4"/>
        <path id="Path_4931" data-name="Path 4931" d="M887.15,811.9c0-58.76-10.16-106.735,9.916-166.028,9.875-29.154,34.205-45.641,62.739-56.463" fill="none" stroke="#000" stroke-miterlimit="10" stroke-width="4"/>
        <path id="Path_4932" data-name="Path 4932" d="M817.747,658.37c9.248-2.8,15.929.635,16.366,20.528.483,22.026,10.829,44.774,22.51,67.266,3.871,7.451,7.887,14.873,11.74,22.233" fill="none" stroke="#000" stroke-miterlimit="10" stroke-width="4"/>
        <path id="Path_4933" data-name="Path 4933" d="M775.722,678.536a34.851,34.851,0,0,0,10.115-3.251c10.741-5.01,22.62-14.1,31.91-16.915" fill="none" stroke="#000" stroke-miterlimit="10" stroke-width="4"/>
        <path id="Path_4934" data-name="Path 4934" d="M758.77,647.3" fill="none" stroke="#000" stroke-miterlimit="10" stroke-width="4"/>
        <path id="Path_4935" data-name="Path 4935" d="M776.139,677.873c-38.565,17.351-44.827-7.512-17.369-30.577l87.38-73.4c-10.264,4.277-15.477,6.114-16,18,4.691.1,3.868-9.059-1-9-6.557,2.413-19.342,22.815-27,29" fill="none" stroke="#000" stroke-miterlimit="10" stroke-width="4"/>
        <path id="Path_4936" data-name="Path 4936" d="M848.15,735.9" fill="none" stroke="#000" stroke-miterlimit="10" stroke-width="4"/>
        <path id="Path_4937" data-name="Path 4937" d="M862.268,879.284c-2.8-20.706-12.108-115.309-15.118-133.387" fill="none" stroke="#000" stroke-miterlimit="10" stroke-width="4"/>
        <path id="Path_4938" data-name="Path 4938" d="M859.65,866.9c3.844,23.062,27.894,99.361,15.5,119" fill="none" stroke="#000" stroke-miterlimit="10" stroke-width="4"/>
        <path id="Path_4939" data-name="Path 4939" d="M574.815,67.06c17.016,15.089,33.386,11.249,39.274,24.074,2.121,4.62-55.3,73.342-59.939,70.763.4,51.365,35.3,78.787,55,130" fill="none" stroke="#000" stroke-miterlimit="10" stroke-width="4"/>
        <path id="Path_4940" data-name="Path 4940" d="M651.283,51.417C618.892,77.712,608.1,92.85,574.815,67.06" fill="none" stroke="#000" stroke-miterlimit="10" stroke-width="4"/>
        <path id="Path_4941" data-name="Path 4941" d="M518.6,15.533c29.877,0,47.416,43.314,56.214,51.527" fill="none" stroke="#000" stroke-miterlimit="10" stroke-width="4"/>
        <path id="Path_4942" data-name="Path 4942" d="M574.462,150.541c18-12,21,0,42.005-12" fill="none" stroke="#000" stroke-miterlimit="10" stroke-width="4"/>
        <path id="Path_4943" data-name="Path 4943" d="M685.474,120.538c27-6,57.005-9,78.007-27" fill="none" stroke="#000" stroke-miterlimit="10" stroke-width="4"/>
        <path id="Path_4944" data-name="Path 4944" d="M699.4.006C691.273,22.8,697.65,41.3,674.379,93.535" fill="none" stroke="#000" stroke-miterlimit="10" stroke-width="4"/>
      </g>
      <g id="Group_396" data-name="Group 396">
        <path id="Path_4922-2" data-name="Path 4922" d="M341.138,995.022c4.725-37.68,9.094-186.516,50.053-257.821l40.959-71.3,16-43,2-11s-7.627-187.455-1.12-270.01c7.325-92.958,41.792-150.586,115.12-205.99-31.914,19.148-102.152,39.054-115,67-6.445-8.245-28.83,122.958-28.966,136-.816,78.513-.532,155.42-16.792,232.646-10.727,50.956-37.863,94.943-43.746,147.244-9.628,85.586-22.516,169.258-36.307,254.141" fill="none" stroke="#000" stroke-miterlimit="10" stroke-width="4"/>
        <path id="Path_4923-2" data-name="Path 4923" d="M599.15,393.9l-3-12c14.166,94.009-5.3,176.008-14.72,266.944q-16.474,159.008-32.952,318.014" fill="none" stroke="#000" stroke-miterlimit="10" stroke-width="4"/>
        <path id="Path_4924-2" data-name="Path 4924" d="M796.15,83.9c-7.085-.184-85.808,103.678-106.932,128.059-27.234,31.43-70.422,63.2-75.785,103.942-3.449,26.193-4.519,54.174-14.283,78" fill="none" stroke="#000" stroke-miterlimit="10" stroke-width="4"/>
        <path id="Path_4925-2" data-name="Path 4925" d="M724.429,8.9c.538,35.164,23.448,55.262,50.449,69.481C787.5,85.03,832.55,83.9,866.73,83.9" fill="none" stroke="#000" stroke-miterlimit="10" stroke-width="4"/>
        <path id="Path_4926-2" data-name="Path 4926" d="M844.15,147.9C833.529,105.726,830.874,35.564,805,.006L798.15,9.9c9.338,5.943,52.881,82.83,23.941,68.114" fill="none" stroke="#000" stroke-miterlimit="10" stroke-width="4"/>
        <path id="Path_4927-2" data-name="Path 4927" d="M897.15,355.9" fill="none" stroke="#000" stroke-miterlimit="10" stroke-width="4"/>
        <path id="Path_4928-2" data-name="Path 4928" d="M884.15,561.9c9.927-26.046,95.6-47.62,129.551-61.372,59.161-23.965,115.239-65.4,176.449-82.628-56.442,21.166-91.279-37.649-138.534-71.449-20.382-14.578-56.71-51.534-81.519-54.758-11.537-1.5-67.644,56.2-72.947,48.28" fill="none" stroke="#000" stroke-miterlimit="10" stroke-width="4"/>
        <path id="Path_4929-2" data-name="Path 4929" d="M993.623,130.171C929.431,84.958,874.114,62.862,851.456,97.1c-28.058,42.376,16.508,280.171,49.618,256.742-9.086,72.55-45.838,141.506-54.924,214.055-.367,7.076,32.1-7.082,38-6" fill="none" stroke="#000" stroke-miterlimit="10" stroke-width="4"/>
        <path id="Path_4930-2" data-name="Path 4930" d="M959.8,589.406c28.665-10.873,61.572-16.029,88.329-22.572,69.008-16.882,132.338-34.168,196.016-51.937,54.6-16.258,104.76-42.873,48.859-103.871-20.8-22.7-176.383-194.217-299.386-280.855" fill="none" stroke="#000" stroke-miterlimit="10" stroke-width="4"/>
        <path id="Path_4931-2" data-name="Path 4931" d="M887.15,811.9c0-58.76-10.16-106.735,9.916-166.028,9.875-29.154,34.205-45.641,62.739-56.463" fill="none" stroke="#000" stroke-miterlimit="10" stroke-width="4"/>
        <path id="Path_4932-2" data-name="Path 4932" d="M817.747,658.37c9.248-2.8,15.929.635,16.366,20.528.483,22.026,10.829,44.774,22.51,67.266,3.871,7.451,7.887,14.873,11.74,22.233" fill="none" stroke="#000" stroke-miterlimit="10" stroke-width="4"/>
        <path id="Path_4933-2" data-name="Path 4933" d="M775.722,678.536a34.851,34.851,0,0,0,10.115-3.251c10.741-5.01,22.62-14.1,31.91-16.915" fill="none" stroke="#000" stroke-miterlimit="10" stroke-width="4"/>
        <path id="Path_4934-2" data-name="Path 4934" d="M758.77,647.3" fill="none" stroke="#000" stroke-miterlimit="10" stroke-width="4"/>
        <path id="Path_4935-2" data-name="Path 4935" d="M776.139,677.873c-38.565,17.351-44.827-7.512-17.369-30.577l87.38-73.4c-10.264,4.277-15.477,6.114-16,18,4.691.1,3.868-9.059-1-9-6.557,2.413-19.342,22.815-27,29" fill="none" stroke="#000" stroke-miterlimit="10" stroke-width="4"/>
        <path id="Path_4936-2" data-name="Path 4936" d="M848.15,735.9" fill="none" stroke="#000" stroke-miterlimit="10" stroke-width="4"/>
        <path id="Path_4937-2" data-name="Path 4937" d="M862.268,879.284c-2.8-20.706-12.108-115.309-15.118-133.387" fill="none" stroke="#000" stroke-miterlimit="10" stroke-width="4"/>
        <path id="Path_4938-2" data-name="Path 4938" d="M859.65,866.9c3.844,23.062,27.894,99.361,15.5,119" fill="none" stroke="#000" stroke-miterlimit="10" stroke-width="4"/>
        <path id="Path_4939-2" data-name="Path 4939" d="M574.815,67.06c17.016,15.089,33.386,11.249,39.274,24.074,2.121,4.62-55.3,73.342-59.939,70.763.4,51.365,35.3,78.787,55,130" fill="none" stroke="#000" stroke-miterlimit="10" stroke-width="4"/>
        <path id="Path_4940-2" data-name="Path 4940" d="M651.283,51.417C618.892,77.712,608.1,92.85,574.815,67.06" fill="none" stroke="#000" stroke-miterlimit="10" stroke-width="4"/>
        <path id="Path_4941-2" data-name="Path 4941" d="M518.6,15.533c29.877,0,47.416,43.314,56.214,51.527" fill="none" stroke="#000" stroke-miterlimit="10" stroke-width="4"/>
        <path id="Path_4942-2" data-name="Path 4942" d="M574.462,150.541c18-12,21,0,42.005-12" fill="none" stroke="#000" stroke-miterlimit="10" stroke-width="4"/>
        <path id="Path_4943-2" data-name="Path 4943" d="M685.474,120.538c27-6,57.005-9,78.007-27" fill="none" stroke="#000" stroke-miterlimit="10" stroke-width="4"/>
        <path id="Path_4944-2" data-name="Path 4944" d="M699.4.006C691.273,22.8,697.65,41.3,674.379,93.535" fill="none" stroke="#000" stroke-miterlimit="10" stroke-width="4"/>
      </g>
    </g>
  </g>
</svg>
