<?xml version="1.0" encoding="utf-8"?>
<!-- Generator: Adobe Illustrator 16.0.0, SVG Export Plug-In . SVG Version: 6.00 Build 0)  -->
<!DOCTYPE svg PUBLIC "-//W3C//DTD SVG 1.1//EN" "http://www.w3.org/Graphics/SVG/1.1/DTD/svg11.dtd">
<svg version="1.1" id="圖層_1" xmlns="http://www.w3.org/2000/svg" xmlns:xlink="http://www.w3.org/1999/xlink" x="0px" y="0px"
	 width="122.035px" height="164.08px" viewBox="0 0 122.035 164.08" enable-background="new 0 0 122.035 164.08"
	 xml:space="preserve">
<g>
	<path fill-rule="evenodd" clip-rule="evenodd" fill="#596642" d="M36.823,89.686c0.285-0.51,0.57-1.021,0.99-1.771
		c-0.997-0.077-1.994-0.153-2.99-0.229c0-0.602,0-1.204,0-2.744c-1.032,1.416-1.516,2.08-2,2.744c-1,0-2,0-3,0
		c0.972-0.801,1.944-1.602,3.245-2.674c-0.94-0.137-1.592-0.231-2.245-0.326c-0.667-0.667-1.333-1.333-2-2
		c-0.652-2.314-3.043,0.02-4.052-1.613c0.589-0.191,1.159-0.376,2.24-0.728c-2.295-0.912-3.479-2.644-5.043-3.949
		c-0.538-0.449-1.42-0.485-2.145-0.71c0.303-1.637-0.364-2.303-2-2c0.302-0.522,0.604-1.045,1.059-1.83
		c-1.4-0.13-2.741-0.253-5.079-0.469c1.578-0.522,2.148-0.712,2.869-0.95c0-0.717,0-1.485,0-2.599
		c-1.257,0.006-2.731-0.95-3.85,0.848c-1.267,0-2.535,0-3.802,0c-0.036-0.21-0.072-0.421-0.107-0.631
		c0.908-0.215,1.816-0.43,2.769-0.655c-0.132-0.263-0.263-0.692-0.357-0.685c-2.753,0.234-5.076-1.088-7.502-2.029
		c-0.618-1.574-1.235-3.148-1.946-4.96c0.714-2.943,2.806-4.239,6.064-4.063c2.271,0.122,4.555,0.023,7.112,0.023
		c-1.357-3.299-2.791-6.05-3.636-8.97c-2.6-8.985-2.585-17.905,2.191-26.231c2.766-4.82,6.178-8.955,11.263-11.991
		c4.519-2.698,9.212-4.442,14.134-5.702c2.273-0.582,4.202-1.845,6.597-2.304c3.533-0.677,6.671-0.617,10.231-0.016
		c4.149,0.7,7.755,2.092,11.37,4.03c4.781,2.564,8.709,5.955,11.619,10.527c0.083,0.131,0.133,0.303,0.246,0.394
		c3.488,2.749,5.273,6.674,7.5,10.362c2.092,3.467,3.748,7.11,5.551,10.7c0.693,1.379,1.619,2.589,1.797,4.278
		c0.118,1.131,0.9,2.412,1.77,3.207c4.309,3.937,6.55,9.298,9.797,13.957c0.76,1.091,1.209,2.589,1.286,3.929
		c0.286,4.979,0.361,9.969-2.86,14.275c-0.164,0.219-0.066,0.633-0.094,1c1.59,0.517,3.151,1.223,4.788,1.521
		c6.991,1.273,12.096,9.771,13.167,15.438c0.957,5.063-0.821,9.748-3.088,14.164c-1.139,2.218-2.607,4.327-4.243,6.211
		c-1.231,1.419-2.966,2.4-4.557,3.641c0.28,0.34,0.558,0.678,0.882,1.071c-1.65,0.605-3.324,1.22-5.4,1.98
		c1.038,0.362,1.617,0.563,3.171,1.105c-1.822,0.212-2.745,0.236-3.626,0.442c-1.047,0.245-2.059,0.646-3.131,1.032
		c0.02-0.013,0.084-0.078,0.15-0.144c-0.232-0.272-0.465-0.545-0.697-0.816c-0.105,0.104-0.211,0.21-0.316,0.314
		c0.273,0.232,0.545,0.465,0.863,0.646c-1.759,1.512-4.184,1.774-6.205,2.908c-0.996,0.559-2.225,0.703-3.715,1.145
		c0.419-0.913,0.691-1.51,0.965-2.105c0.758-0.15,1.914,0.496,2-1c0.758-0.15,1.914,0.496,1.986-1.389
		c0.002-0.1,0.017,0.188,0.031,0.477c0.652-0.128,1.303-0.255,1.955-0.383c-0.029-0.215-0.059-0.431-0.088-0.646
		c-0.637,0.055-1.274,0.109-1.898,0.552c-0.744,0.539-1.9-0.107-1.986,1.389c-0.666,0-1.334,0-2,0c0-0.494,0-0.987,0-1.46
		c1.023-0.639,2.038-1.271,3.154-1.967c-2.107-1.529-3.654,0.026-4.883,0.821c-2.006,1.299-4.011,1.734-6.271,1.605
		c0-0.333,0-0.667,0-1c0.758-0.15,1.914,0.496,2-1c0.758-0.15,1.914,0.496,2-1c1.664,0.467,2.942-0.778,4.438-1.082
		c0.273-0.055,0.33-1.174,0.439-1.609c-1.771,0.614-3.324,1.152-4.877,1.691c0-0.333,0-0.667,0-1
		c0.947-0.887,1.894-1.772,2.86-2.678c-0.563-0.215-1.124-0.421-1.677-0.642c-0.618-0.247-1.23-0.508-2.354-0.974
		c0.558,1.072,0.789,1.517,1.193,2.293c-0.813,0-1.418,0-2.023,0c-0.334-0.333-0.666-0.667-1-1c0.277-0.503,0.556-1.005,0.963-1.74
		c-0.642-0.085-1.303-0.173-1.963-0.26c-0.086-1.496-1.242-0.85-2-1c-0.637-1.775-1.789-1.017-2.898-0.613
		c-0.685,0.249-1.4,0.412-2.102,0.613c-0.252-0.333-0.504-0.667-0.756-1c-0.415,0.333-0.83,0.667-1.244,1
		c-1.18,0.325-2.358,0.65-4.123,1.137c0.875-1.293,1.499-2.215,2.123-3.137c1.898,0.278,3.42-0.521,5.402-2
		c-1.504,0-2.453,0-3.402,0c-1.159-1.021-2.318-2.041-4-3.521c0,1.316,0,1.919,0,2.521c-0.666,0-1.334,0-2,0
		c-0.811-1.973-2.064-2.646-4.047-1.469c-1.293,0.77-2.623,0.645-4.349-0.038c0.968-0.324,1.539-0.516,2.312-0.774
		c-1.204-0.893-2.337-1.732-3.458-2.562c-0.413,0.239-0.935,0.541-1.458,0.844c-0.333-0.333-0.667-0.667-1-1
		c-0.151-0.758,0.496-1.915-1-2c-0.085-1.496-1.242-0.85-2-1c0-0.618,0-1.235,0-2.348c-1.146,0.505-1.815,0.799-2.619,1.152
		c-1.006-0.523-1.647-1.798-3.404-1.979c-1.4-0.146-3.489-0.728-3.977-2.825c0.667,0,1.333,0,2.045-0.053
		c-0.02,0.013-0.085,0.078-0.15,0.144c0.232,0.272,0.464,0.545,0.697,0.816c0.105-0.104,0.21-0.21,0.315-0.314
		c-0.272-0.232-0.545-0.465-0.862-0.646c-0.131-1.443-1.288-0.797-2.045-0.947c-0.252-0.333-0.504-0.667-0.756-1
		c-0.415,0.333-0.829,0.667-1.244,1c-0.605,0-1.209,0-2.015,0c0.399-0.776,0.629-1.223,1.029-2c-0.805,0-1.41,0-2.015,0
		C39.354,88.759,37.807,90.066,36.823,89.686z M64.913,28.581c-0.064,0.064-0.129,0.13-0.194,0.195
		c0.231,0.272,0.464,0.545,0.696,0.816c0.105-0.104,0.211-0.21,0.316-0.314c-0.273-0.232-0.545-0.465-0.998-0.488
		c0.064-0.064,0.129-0.13,0.195-0.195c-0.232-0.272-0.465-0.545-0.697-0.816c-0.105,0.104-0.211,0.21-0.316,0.314
		C64.188,28.325,64.459,28.558,64.913,28.581z M102.717,74.595c0.066,0.065,0.131,0.131,0.195,0.195
		c0.273-0.232,0.545-0.465,0.818-0.697c-0.105-0.104-0.211-0.21-0.316-0.314c-0.232,0.271-0.465,0.544-0.487,0.998
		c-0.065-0.065-0.13-0.131-0.194-0.195c-0.273,0.232-0.545,0.465-0.818,0.697c0.105,0.104,0.211,0.21,0.316,0.314
		C102.463,75.321,102.696,75.049,102.717,74.595z M75.823,15.686c0.334,0.333,0.666,0.667,1,1c0.111,0.612,0.027,1.378,0.366,1.812
		c3.724,4.773,7.649,9.382,9.718,15.249c0.415,1.176,1.916,1.969,3.692,2.912c-0.288,0.015-0.576,0.029-0.864,0.044
		c0.128,0.651,0.256,1.303,0.383,1.955c0.215-0.027,0.431-0.055,0.646-0.082c-0.055-0.64-0.11-1.278-0.941-1.891
		c-0.111-0.612-0.092-1.289-0.357-1.825c-1.635-3.306-3.559-6.444-5.451-9.61c-1.965-3.287-3.879-6.472-7.191-8.564
		C76.489,16.353,76.157,16.019,75.823,15.686s-0.666-0.667-1-1c0.15-2.196-1.395-3.121-3-4c-0.334-0.333-0.666-0.667-1-1
		c-0.086-1.496-1.242-0.85-2-1c-0.334-0.333-0.666-0.667-1-1s-0.666-0.667-1-1s-0.666-0.667-1.125-0.649
		c-2.307-1.814-4.447-4.24-8.164-2.89c2.987,1.057,5.576,1.973,8.289,2.539c0.334,0.333,0.666,0.667,1,1s0.666,0.667,1,1
		s0.666,0.667,1,1c0.086,1.496,1.242,0.85,2,1c0.334,0.333,0.666,0.667,1,1c-0.15,2.196,1.395,3.121,3,4
		C75.157,15.019,75.489,15.353,75.823,15.686z M59.796,89.909c0.015,0.288,0.03,0.576,0.044,0.864
		c0.652-0.128,1.303-0.255,1.955-0.383c-0.027-0.215-0.055-0.431-0.082-0.646c-0.639,0.056-1.278,0.11-1.786,1.032
		c-0.065-0.065-0.13-0.131-0.195-0.195c-0.272,0.232-0.545,0.465-0.817,0.697c0.105,0.104,0.21,0.21,0.315,0.314
		C59.463,91.321,59.695,91.049,59.796,89.909z M91.823,75.686c-0.758,0.15-1.914-0.496-2,1c-0.758,0.15-1.914-0.496-2.119,1.066
		c-2.914,1.314-5.676,3.075-7.941,5.51c0,1.423,0,2.734,0,4.191c-5.873,2.786-7.555,7.725-6.739,13.71
		c0.878,3.566,3.927,5.346,6.694,6.3c2.594,0.895,4.547,2.148,6.338,3.971c1.539,1.565,3.336,2.368,5.551,2.264
		c1.301-0.062,2.605-0.012,3.827-0.012c0.448-1.083,0.816-1.976,1.376-3.329c-2.825,0.396-5.17,0.724-7.838,1.098
		c-2.292-1.464-9.84-9.737-11.188-12.521c1.74-0.18,3.41-0.353,5.086-0.526c-0.077-0.687,0.008-1.136-0.171-1.299
		c-0.578-0.53-1.19-1.125-1.902-1.39c-1.929-0.715-2.368-1.979-1.749-3.79c0.49-0.126,0.947-0.223,1.388-0.369
		c0.141-0.047,0.238-0.224,0.55-0.535c-1.783-6.272,3.424-9.072,6.838-13.338c0.758-0.15,1.914,0.496,2-1
		c0.758-0.15,1.914,0.496,1.973-1.776c0.016,0.288,0.03,0.576,0.045,0.864c0.652-0.128,1.303-0.255,1.955-0.383
		c-0.027-0.215-0.055-0.431-0.082-0.646C93.074,74.8,92.435,74.854,91.823,75.686z M16.913,52.581
		c-0.065,0.064-0.13,0.13-0.195,0.195c0.232,0.272,0.465,0.545,0.697,0.816c0.105-0.104,0.21-0.21,0.315-0.314
		c-0.272-0.232-0.545-0.465-0.908-0.593c0.079-1.706-0.692-2.987-1.667-4.112c-0.542-1.598-1.083-3.195-1.868-5.513
		c-1.061,2.791,0.557,4.058,1.535,5.625C14.743,50.393,14.61,52.125,16.913,52.581z M95.77,48.87
		c0.111-2.514,0.058-3.712-1.877-2.902c0.517,0.798,0.975,1.507,1.252,1.283c1.375,2.659,2.235,4.842,3.537,6.717
		c2.051,2.953,3.221,6.083,3.146,9.683c-0.037,1.828-0.006,3.657-0.006,5.265c-1.355,1.905-2.607,3.664-3.855,5.417
		c0.859,0.411,1.674,0.801,2.192,1.049c3.083-2.387,2.503-6.222,3.465-9.421c0.98-3.263-0.825-6.876-2.187-9.917
		C100.102,53.062,99.334,49.34,95.77,48.87z M66.823,101.732c0.88,0.311,1.817,0.642,2.957,1.044
		c-0.465-1.215-0.758-1.98-1.228-3.209c1.046,0.515,1.502,0.738,2.394,1.178c-0.221-1.218-0.074-2.402-0.594-2.924
		c-2.203-2.215-4.021-4.966-6.977-5.837c-3.27,1.271-5.254,3.454-6.41,6.538c3.216,2.06,6.039,4.396,9.857,4.761
		C66.823,102.682,66.823,102.184,66.823,101.732z M82.502,101.363c4.59-2.341,1.436-5.235,2.534-7.586
		c-1.755,0.442-2.856-2.392-4.483-0.034c1.229,0.891,2.305,1.671,3.27,2.371c0,1.067,0.108,1.913-0.036,2.714
		C83.68,99.416,83.244,99.943,82.502,101.363z M69.321,91.133c1.561-0.371,2.484-0.592,3.41-0.812
		c-0.07-0.276-0.141-0.552-0.211-0.827c-2.238,0.47-4.477,0.938-7.761,1.627c2.814,0.688,4.601,1.143,6.401,1.535
		c0.148,0.032,0.389-0.354,0.659-0.616C71.186,91.81,70.608,91.601,69.321,91.133z M13.964,57.545
		c-0.164-0.269-0.328-0.538-0.491-0.807c-0.436,0.035-0.903-0.016-1.301,0.127c-0.557,0.198-1.072,0.523-1.586,0.827
		c-0.248,0.146-0.452,0.368-0.676,0.556c0.143,0.24,0.286,0.48,0.428,0.721C11.546,58.494,12.755,58.02,13.964,57.545z
		 M104.989,67.505c0.29-0.005,0.58-0.01,0.869-0.015c-0.083-1.226-0.166-2.451-0.25-3.676c-0.206,0.013-0.412,0.024-0.619,0.037
		C104.989,65.069,104.989,66.287,104.989,67.505z M14.046,58.315c2.714,0.165,2.714,0.165,2.463-0.883
		C16.175,57.553,15.442,57.815,14.046,58.315z M74.665,88.515c-0.036-0.288-0.072-0.576-0.108-0.863
		c-0.542,0.129-1.085,0.259-1.628,0.388c0.027,0.159,0.053,0.317,0.08,0.476C73.56,88.515,74.112,88.515,74.665,88.515z
		 M55.179,7.541c0.209-0.115,0.427-0.235,0.644-0.355c-0.111-0.111-0.247-0.331-0.329-0.312c-0.235,0.052-0.449,0.201-0.671,0.312
		C54.934,7.297,55.045,7.408,55.179,7.541z M31.323,11.686c-0.111,0.111-0.331,0.246-0.312,0.329
		c0.052,0.235,0.201,0.448,0.312,0.671c0.111-0.111,0.331-0.246,0.312-0.329C31.583,12.121,31.434,11.907,31.323,11.686z
		 M46.467,54.541c0.134-0.133,0.245-0.244,0.356-0.355c-0.222-0.111-0.436-0.261-0.671-0.312c-0.082-0.019-0.217,0.201-0.329,0.312
		C46.04,54.306,46.257,54.426,46.467,54.541z M19.179,59.83c-0.134,0.133-0.245,0.244-0.356,0.355
		c0.222,0.111,0.436,0.261,0.671,0.312c0.082,0.019,0.217-0.201,0.329-0.312C19.605,60.065,19.388,59.945,19.179,59.83z
		 M29.823,63.186c-0.111-0.111-0.247-0.331-0.329-0.312c-0.235,0.052-0.449,0.201-0.671,0.312c0.111,0.111,0.247,0.331,0.329,0.312
		C29.387,63.446,29.601,63.297,29.823,63.186z M61.679,64.33c-0.116-0.21-0.236-0.427-0.356-0.645
		c-0.111,0.111-0.331,0.246-0.312,0.329c0.052,0.235,0.201,0.448,0.312,0.671C61.434,64.574,61.545,64.463,61.679,64.33z
		 M84.967,71.041c0.115,0.21,0.235,0.427,0.355,0.645c0.111-0.111,0.331-0.246,0.312-0.329c-0.053-0.235-0.201-0.448-0.312-0.671
		C85.211,70.797,85.1,70.908,84.967,71.041z M39.967,74.041c0.116,0.21,0.236,0.427,0.356,0.645
		c0.111-0.111,0.331-0.246,0.312-0.329c-0.052-0.235-0.201-0.448-0.312-0.671C40.211,73.797,40.101,73.908,39.967,74.041z
		 M87.678,74.33c-0.115-0.21-0.235-0.427-0.355-0.645c-0.111,0.111-0.331,0.246-0.312,0.329c0.053,0.235,0.201,0.448,0.312,0.671
		C87.434,74.574,87.545,74.463,87.678,74.33z M64.467,84.541c0.133-0.133,0.244-0.244,0.355-0.355
		c-0.223-0.111-0.436-0.261-0.672-0.312c-0.082-0.019-0.217,0.201-0.328,0.312C64.04,84.306,64.257,84.426,64.467,84.541z
		 M75.823,85.186c-0.111-0.111-0.246-0.331-0.328-0.312c-0.236,0.052-0.449,0.201-0.672,0.312c0.111,0.111,0.246,0.331,0.328,0.312
		C75.387,85.446,75.6,85.297,75.823,85.186z M32.467,49.83c-0.209,0.115-0.427,0.235-0.644,0.355
		c0.111,0.111,0.247,0.331,0.329,0.312c0.235-0.052,0.449-0.201,0.671-0.312C32.711,50.074,32.601,49.963,32.467,49.83z"/>
	<path fill-rule="evenodd" clip-rule="evenodd" fill="#596642" d="M90.026,158.516c0.377,1.553,0.652,2.693,1.01,4.17
		c-1.103,0-1.737-0.039-2.366,0.006c-5.181,0.369-10.428-0.814-15.573,0.918c-1.479,0.497-3.266,0.076-5.09,0.076
		c0-0.914,0-1.695,0-3.003c2.329-0.436,4.931-0.921,7.914-1.479c-0.332-0.498-0.562-1.271-1.033-1.468
		c-1.276-0.535-2.654-0.825-4-1.214c1.07-2.21,2.758-3.16,6.154-2.927c-1.85-1.436-2.727-2.116-3.627-2.814
		c-1.055,0.608-2.106,1.213-3.17,1.826c-0.432-0.432-0.902-0.902-1.285-1.285c0.92-1.777,1.824-3.521,2.822-5.447
		c-0.859,0-1.639,0-2.482,0c-2.057,5.977-1.945,13.079-7.361,18.205c-0.747-0.622-1.227-1.022-1.964-1.638
		c2.486-5.869,4.702-11.915,4.972-18.747c2.981-1.854,6.887-0.573,9.872-2.503c-1.635-1.276-0.841-2.879-0.952-4.563
		c2.654,1.156,2.654,1.156,5.354,5.005c1.992,0,4.108,0,6.322,0c0.14,0.591,0.246,1.042,0.407,1.723
		c-0.991,0.176-1.896,0.337-2.777,0.494c-0.4,0.828-0.794,1.642-1.128,2.333c1.649,1.137,3.353,2.312,5.486,3.784
		c-3.301,1.576-5.812,0.02-8.534-0.555c0,1.207,0,1.99,0,3.119c1.379,0.081,2.955,0.173,5.086,0.298
		c-0.486,0.804-0.723,1.412-1.146,1.832c-0.429,0.426-1.017,0.723-1.583,0.964c-0.412,0.176-0.902,0.168-1.438,0.255
		c0,0.898,0,1.682,0,2.635C83.087,158.516,86.204,158.516,90.026,158.516z M74.235,148.457c1.443,0.117,2.336,0.189,3.156,0.256
		c0.601-1.3,1.099-2.375,1.869-4.041c-1.478,0.221-2.695,0.063-3.373,0.596C75.148,145.848,74.911,147.066,74.235,148.457z"/>
	<path fill-rule="evenodd" clip-rule="evenodd" fill="#596642" d="M18.996,156.304c4.002,0.492,7.802,0.96,11.702,1.44
		c0,0.974,0,1.758,0,2.556c-0.253,0.12-0.53,0.367-0.809,0.368c-3.827,0.025-7.662,0.181-11.478-0.025
		c-4.421-0.237-8.624,1.78-13.072,1.091c-0.293-0.045-0.693,0.602-1.039,0.922c-1.251-0.893-2.483-1.772-4.3-3.068
		c2.238-1.103,3.656-2.133,5.711-1.938c1.813,0.173,3.667,0.147,5.483-0.012c0.875-0.077,1.706-0.665,2.54-1.015
		c0-2.375,0-4.49,0-6.778c-2.183,0-4.304,0-6.303,0c-1.364-1.743-0.513-2.874,0.861-4.108c1.586,0,3.37,0,4.856,0
		c2.514-1.521,1.402-3.735,1.739-5.742c0.661-0.469,1.422-1.008,2.679-1.897c0.148,2.443,0.264,4.337,0.377,6.206
		c2.083,2.627,4.986,0.797,7.655,1.555c0.396,0.57,0.926,1.334,1.82,2.623c-3.135,0-5.692,0-8.422,0
		C18.996,151.275,18.996,153.729,18.996,156.304z"/>
	<path fill-rule="evenodd" clip-rule="evenodd" fill="#596642" d="M45.826,149.193c0,4.93,0,9.047,0,13.074
		c-1.783,0.941-2.955,0.293-4.105-1.246c0-4.883,0-9.998,0-15.458c-3.071,0-5.983,0-9.075,0c0.542-2.949,3.605-2.078,4.483-3.601
		c6.58,0,13.026-0.017,19.47,0.045c0.356,0.004,0.707,0.661,1.06,1.015c-0.501,1.436-1.58,1.722-2.98,1.686
		c-2.94-0.075-5.883-0.022-9.469-0.022c2.244,3.415,5.751,3.245,8.125,4.976c0.545,1.1,1.09,2.198,1.606,3.238
		c-0.327,0.345-0.536,0.757-0.747,0.758C50.34,153.681,50.34,153.671,45.826,149.193z"/>
	<path fill-rule="evenodd" clip-rule="evenodd" fill="#596642" d="M28.945,98.906c-1.608,0-3.044,0-4.48,0
		c-0.707-0.846-1.299-1.553-2.325-2.779c4.241-0.573,7.784-0.981,11.267,0.64c1.495,4.271,2.534,8.542-0.271,13.309
		c-1.052-2.171-1.966-4.058-3.003-6.198c-3.299,3.299-6.809,6.809-10.737,10.736c-0.904-2.827,0.264-4.099,1.37-5.36
		c2.575-2.937,5.189-5.839,7.745-8.791C28.777,100.152,28.762,99.598,28.945,98.906z"/>
	<path fill-rule="evenodd" clip-rule="evenodd" fill="#596642" d="M71.954,125.754c1.072-1.149,1.602-1.718,2.701-2.897
		c0.102,1.633,0.15,2.408,0.162,2.59c-1.915,2.08-3.535,3.841-5.218,5.668c1.698,0.822,3.036,1.47,4.657,2.255
		c-1.86,2.706-4.322,2.29-6.988,2.32c-0.682-0.78-1.53-1.75-2.535-2.897c0.553-1.076,1.188-2.309,1.869-3.637
		c-0.879-0.91-1.347-1.967,0.116-2.881c-0.37-0.678-0.73-1.338-1.382-2.531c1.436,0.08,2.554-0.189,3.176,0.248
		C69.702,124.828,70.55,126.194,71.954,125.754z"/>
	<path fill-rule="evenodd" clip-rule="evenodd" fill="#596642" d="M18.372,127.896c1.152-0.575,1.972-0.984,2.709-1.353
		c1.615,1.319,0.697,3.05-2.701,4.828c1.674,0.172,2.914,0.119,4.026,0.468c0.94,0.296,1.734,1.057,3.155,1.975
		c-1.909,0.776-3.329,1.887-4.584,1.726c-1.496-0.193-2.947-0.846-4.573-0.976c-0.901-0.072-2.198-1.426-1.513-2.63
		c0.97-1.705,0.462-3.091-0.012-4.704c-0.306-1.039-0.058-2.241-0.058-4.101c1.031,0.801,1.658,1.086,1.969,1.573
		C17.367,125.603,17.756,126.62,18.372,127.896z"/>
	<path fill-rule="evenodd" clip-rule="evenodd" fill="#596642" d="M43.994,134.594c-1.005-1.971-1.975-3.87-3.026-5.932
		c0.757-1.479,1.646-3.217,2.595-5.069c0.368,0.163,1.155,0.377,1.143,0.526c-0.19,2.331,1.095,3.463,3.577,4.167
		c-0.804,0.701-1.397,1.218-2.53,2.207C45.353,131.346,46.699,133.611,43.994,134.594z"/>
	<path fill-rule="evenodd" clip-rule="evenodd" fill="#596642" d="M36.14,126.492c3.855,1.137,2.417,3.806,2.624,6.037
		C35.734,131.752,35.734,131.752,36.14,126.492z"/>
	<path fill-rule="evenodd" clip-rule="evenodd" fill="#596642" d="M25.462,126.819c-2.508-0.541-2.908-1.919-2.522-3.751
		c1.468-0.464,2.935-0.928,4.735-1.497c0.062,1.025,0.117,1.929,0.203,3.362c-0.742-0.551-1.054-0.782-1.67-1.239
		C25.968,124.702,25.747,125.627,25.462,126.819z"/>
	<path fill-rule="evenodd" clip-rule="evenodd" fill="#596642" d="M58.823,103.686c-0.012,1.368-1.079,0.825-1.775,1.02
		c-0.675,0.188-1.306,0.535-2.276,0.949c0.175-2.178,1.131-3.056,3.051-2.969C58.156,103.019,58.489,103.353,58.823,103.686z"/>
	<path fill-rule="evenodd" clip-rule="evenodd" fill="#596642" d="M50.662,126.215c-0.954-1.314-1.516-2.087-2.315-3.188
		c1.006-0.177,1.562-0.274,2.315-0.406C50.662,123.745,50.662,124.626,50.662,126.215z"/>
	<path fill-rule="evenodd" clip-rule="evenodd" fill="#596642" d="M69.823,108.686c-0.937,0-1.873,0-2.904,0
		c0-0.752,0-1.195,0-1.666c0.999,0.229,1.951,0.447,2.904,0.666C69.823,108.019,69.823,108.353,69.823,108.686z"/>
	<path fill-rule="evenodd" clip-rule="evenodd" fill="#596642" d="M84.823,117.686c-0.277-0.503-0.556-1.005-0.963-1.74
		c0.642-0.085,1.303-0.173,1.963-0.26c0.334,0.333,0.666,0.667,1,1c0,0.333,0,0.667,0,1
		C86.157,117.686,85.489,117.686,84.823,117.686z"/>
	<path fill-rule="evenodd" clip-rule="evenodd" fill="#596642" d="M81.071,118.304c0.91,0.592,1.821,1.183,3.079,2
		C81.837,121.139,81.403,119.798,81.071,118.304z"/>
	<path fill-rule="evenodd" clip-rule="evenodd" fill="#596642" d="M47.573,123.686c0,1,0,2,0,3c-0.167,0-0.333,0-0.5,0c0-1,0-2,0-3
		C47.239,123.686,47.406,123.686,47.573,123.686z"/>
	<path fill-rule="evenodd" clip-rule="evenodd" fill="#596642" d="M77.415,125.562c-1.615,0.435-1.881-0.268-1.099-2.371
		C76.792,124.215,77.108,124.898,77.415,125.562z"/>
	<path fill-rule="evenodd" clip-rule="evenodd" fill="#596642" d="M12.823,68.686c0.942,0,1.885,0,2.827,0
		c0.024,0.236,0.049,0.473,0.074,0.709c-0.967,0.097-1.934,0.194-2.901,0.291C12.823,69.353,12.823,69.019,12.823,68.686z"/>
	<path fill-rule="evenodd" clip-rule="evenodd" fill="#596642" d="M29.85,88.462c-0.639,0.055-1.278,0.109-1.917,0.165
		c-0.027-0.216-0.055-0.432-0.082-0.646c0.651-0.128,1.303-0.255,1.955-0.383C29.82,87.886,29.834,88.174,29.85,88.462z"/>
	<path fill-rule="evenodd" clip-rule="evenodd" fill="#596642" d="M32.823,88.686c0-0.333,0-0.667,0-1c0.667,0,1.333,0,2,0
		C34.737,89.182,33.581,88.535,32.823,88.686z"/>
	<path fill-rule="evenodd" clip-rule="evenodd" fill="#596642" d="M54.823,101.686c0-0.333,0-0.667,0-1c0.667,0,1.333,0,2,0
		C56.737,102.182,55.581,101.535,54.823,101.686z"/>
	<path fill-rule="evenodd" clip-rule="evenodd" fill="#596642" d="M19.85,76.462c-0.639,0.055-1.278,0.109-1.917,0.165
		c-0.027-0.216-0.055-0.432-0.082-0.646c0.651-0.128,1.303-0.255,1.955-0.383C19.82,75.886,19.834,76.174,19.85,76.462z"/>
	<path fill-rule="evenodd" clip-rule="evenodd" fill="#596642" d="M44.823,93.686c-0.758-0.15-1.915,0.496-2-1c0.667,0,1.333,0,2,0
		C44.823,93.019,44.823,93.353,44.823,93.686z"/>
	<path fill-rule="evenodd" clip-rule="evenodd" fill="#596642" d="M17.85,74.462c-0.639,0.055-1.278,0.109-1.917,0.165
		c-0.027-0.216-0.055-0.432-0.082-0.646c0.651-0.128,1.303-0.255,1.955-0.383C17.82,73.886,17.834,74.174,17.85,74.462z"/>
	<path fill-rule="evenodd" clip-rule="evenodd" fill="#596642" d="M34.981,91.856c0.552,0,1.104,0,1.657,0
		c0.026,0.158,0.053,0.316,0.079,0.476c-0.542,0.129-1.085,0.259-1.627,0.388C35.053,92.433,35.017,92.145,34.981,91.856z"/>
	<path fill-rule="evenodd" clip-rule="evenodd" fill="#596642" d="M39.85,91.462c-0.639,0.055-1.278,0.109-1.917,0.165
		c-0.027-0.216-0.055-0.432-0.082-0.646c0.651-0.128,1.303-0.255,1.955-0.383C39.82,90.886,39.834,91.174,39.85,91.462z"/>
	<path fill-rule="evenodd" clip-rule="evenodd" fill="#596642" d="M3.85,65.462c-0.639,0.055-1.278,0.109-1.917,0.165
		c-0.027-0.216-0.055-0.432-0.082-0.646c0.651-0.128,1.303-0.255,1.955-0.383C3.82,64.886,3.834,65.174,3.85,65.462z"/>
	<path fill-rule="evenodd" clip-rule="evenodd" fill="#596642" d="M36.85,90.462c-0.639,0.055-1.278,0.109-1.917,0.165
		c-0.027-0.216-0.055-0.432-0.082-0.646c0.651-0.128,1.303-0.255,1.955-0.383C36.82,89.886,36.834,90.174,36.85,90.462z"/>
	<path fill-rule="evenodd" clip-rule="evenodd" fill="#596642" d="M54.823,100.686c-0.609,0-1.219,0-1.828,0
		c-0.024-0.221-0.048-0.44-0.072-0.661c0.633-0.113,1.267-0.226,1.9-0.339C54.823,100.019,54.823,100.353,54.823,100.686z"/>
	<path fill-rule="evenodd" clip-rule="evenodd" fill="#596642" d="M30.823,84.686c-0.085,1.496-1.242,0.85-2,1
		C28.908,84.189,30.065,84.836,30.823,84.686z"/>
	<path fill-rule="evenodd" clip-rule="evenodd" fill="#596642" d="M84.823,122.686c-0.609,0-1.219,0-1.828,0
		c-0.023-0.221-0.048-0.44-0.072-0.661c0.634-0.113,1.268-0.226,1.9-0.339C84.823,122.019,84.823,122.353,84.823,122.686z"/>
	<path fill-rule="evenodd" clip-rule="evenodd" fill="#596642" d="M84.823,121.686c0.086-1.496,1.242-0.85,2-1c0,0.333,0,0.667,0,1
		C86.157,121.686,85.489,121.686,84.823,121.686z"/>
	<path fill-rule="evenodd" clip-rule="evenodd" fill="#596642" d="M86.823,120.686c0-0.333,0-0.667,0-1c0.666,0,1.334,0,2,0
		c0,0.333,0,0.667,0,1C88.157,120.686,87.489,120.686,86.823,120.686z"/>
	<path fill-rule="evenodd" clip-rule="evenodd" fill="#596642" d="M86.823,119.686c-0.758-0.15-1.914,0.496-2-1c0.666,0,1.334,0,2,0
		C86.823,119.019,86.823,119.353,86.823,119.686z"/>
	<path fill-rule="evenodd" clip-rule="evenodd" fill="#596642" d="M111.981,117.856c0.553,0,1.105,0,1.658,0
		c0.025,0.158,0.052,0.316,0.078,0.476c-0.543,0.129-1.086,0.259-1.628,0.388C112.053,118.433,112.017,118.145,111.981,117.856z"/>
	<path fill-rule="evenodd" clip-rule="evenodd" fill="#596642" d="M92.823,125.686c-0.758-0.15-1.914,0.496-2-1c0.666,0,1.334,0,2,0
		C92.823,125.019,92.823,125.353,92.823,125.686z"/>
	<path fill-rule="evenodd" clip-rule="evenodd" fill="#596642" d="M84.849,124.462c-0.637,0.055-1.274,0.109-1.911,0.164
		c-0.029-0.215-0.059-0.431-0.088-0.646c0.652-0.128,1.303-0.255,1.955-0.383C84.82,123.886,84.834,124.174,84.849,124.462z"/>
	<path fill-rule="evenodd" clip-rule="evenodd" fill="#596642" d="M73.823,110.686c-0.758-0.15-1.914,0.496-2-1c0.666,0,1.334,0,2,0
		C73.823,110.019,73.823,110.353,73.823,110.686z"/>
	<path fill-rule="evenodd" clip-rule="evenodd" fill="#596642" d="M71.823,109.686c-0.758-0.15-1.914,0.496-2-1c0.666,0,1.334,0,2,0
		C71.823,109.019,71.823,109.353,71.823,109.686z"/>
	<path fill-rule="evenodd" clip-rule="evenodd" fill="#596642" d="M80.849,116.462c-0.637,0.055-1.274,0.109-1.911,0.164
		c-0.029-0.215-0.059-0.431-0.088-0.646c0.652-0.128,1.303-0.255,1.955-0.383C80.82,115.886,80.834,116.174,80.849,116.462z"/>
	<path fill-rule="evenodd" clip-rule="evenodd" fill="#596642" d="M80.823,115.686c0.086-1.496,1.242-0.85,2-1
		C82.737,116.182,81.581,115.535,80.823,115.686z"/>
	<path fill-rule="evenodd" clip-rule="evenodd" fill="#596642" d="M77.849,115.462c-0.637,0.055-1.274,0.109-1.911,0.164
		c-0.029-0.215-0.059-0.431-0.088-0.646c0.652-0.128,1.303-0.255,1.955-0.383C77.82,114.886,77.834,115.174,77.849,115.462z"/>
	<path fill-rule="evenodd" clip-rule="evenodd" fill="#596642" d="M84.823,113.686c-0.086,1.496-1.242,0.85-2,1c0-0.333,0-0.667,0-1
		C83.489,113.686,84.157,113.686,84.823,113.686z"/>
	<path fill-rule="evenodd" clip-rule="evenodd" fill="#596642" d="M77.823,113.686c0.609,0,1.219,0,1.828,0
		c0.023,0.221,0.048,0.44,0.072,0.661c-0.634,0.113-1.268,0.226-1.9,0.339C77.823,114.353,77.823,114.019,77.823,113.686z"/>
	<path fill-rule="evenodd" clip-rule="evenodd" fill="#596642" d="M78.4,117.53c1.218,0.347,1.82,0.519,2.423,0.689
		c-0.466,0.155-0.924,0.365-1.401,0.433C79.279,118.673,79.081,118.296,78.4,117.53z"/>
	<path fill-rule="evenodd" clip-rule="evenodd" fill="#596642" d="M82.823,113.686c-0.609,0-1.219,0-1.828,0
		c-0.023-0.221-0.048-0.44-0.072-0.661c0.634-0.113,1.268-0.226,1.9-0.339C82.823,113.019,82.823,113.353,82.823,113.686z"/>
	<path fill-rule="evenodd" clip-rule="evenodd" fill="#596642" d="M77.823,113.686c-0.758-0.15-1.914,0.496-2-1c0.666,0,1.334,0,2,0
		C77.823,113.019,77.823,113.353,77.823,113.686z"/>
	<path fill-rule="evenodd" clip-rule="evenodd" fill="#596642" d="M82.678,117.041c-0.115,0.21-0.235,0.427-0.355,0.645
		c-0.111-0.111-0.331-0.246-0.312-0.329c0.053-0.235,0.201-0.448,0.312-0.671C82.434,116.797,82.545,116.908,82.678,117.041z"/>
	<path fill-rule="evenodd" clip-rule="evenodd" fill="#596642" d="M54.928,101.776c-0.232,0.272-0.465,0.545-0.697,0.816
		c-0.105-0.104-0.21-0.21-0.315-0.314c0.272-0.232,0.545-0.465,0.817-0.697C54.797,101.646,54.862,101.711,54.928,101.776z"/>
	<path fill-rule="evenodd" clip-rule="evenodd" fill="#596642" d="M84.823,118.686c-0.276-0.224-0.553-0.447-0.829-0.671
		c0.276-0.109,0.553-0.22,0.829-0.329C84.823,118.019,84.823,118.353,84.823,118.686z"/>
	<path fill-rule="evenodd" clip-rule="evenodd" fill="#596642" d="M32.928,88.776c-0.232,0.272-0.465,0.545-0.697,0.816
		c-0.105-0.104-0.21-0.21-0.315-0.314c0.272-0.232,0.545-0.465,0.817-0.697C32.797,88.646,32.862,88.711,32.928,88.776z"/>
	<path fill-rule="evenodd" clip-rule="evenodd" fill="#596642" d="M89.678,126.33c-0.133,0.133-0.244,0.244-0.355,0.355
		c-0.111-0.223-0.26-0.436-0.312-0.671c-0.019-0.083,0.201-0.218,0.312-0.329C89.443,125.903,89.563,126.12,89.678,126.33z"/>
	<path fill-rule="evenodd" clip-rule="evenodd" fill="#596642" d="M76.967,117.041c0.133-0.133,0.244-0.244,0.355-0.355
		c0.111,0.223,0.26,0.436,0.312,0.671c0.019,0.083-0.201,0.218-0.312,0.329C77.203,117.468,77.083,117.251,76.967,117.041z"/>
	<path fill-rule="evenodd" clip-rule="evenodd" fill="#596642" d="M60.679,105.041c-0.116,0.21-0.236,0.427-0.356,0.645
		c-0.111-0.111-0.331-0.246-0.312-0.329c0.052-0.235,0.201-0.448,0.312-0.671C60.434,104.797,60.545,104.908,60.679,105.041z"/>
	<path fill-rule="evenodd" clip-rule="evenodd" fill="#596642" d="M90.733,124.79c-0.273-0.232-0.545-0.465-0.818-0.697
		c0.105-0.104,0.211-0.21,0.316-0.314c0.232,0.271,0.465,0.544,0.697,0.816C90.862,124.66,90.797,124.726,90.733,124.79z"/>
	<path fill-rule="evenodd" clip-rule="evenodd" fill="#596642" d="M77.678,119.33c-0.133,0.133-0.244,0.244-0.355,0.355
		c-0.111-0.223-0.26-0.436-0.312-0.671c-0.019-0.083,0.201-0.218,0.312-0.329C77.443,118.903,77.563,119.12,77.678,119.33z"/>
	<path fill-rule="evenodd" clip-rule="evenodd" fill="#596642" d="M79.678,120.041c-0.115,0.21-0.235,0.427-0.355,0.645
		c-0.111-0.111-0.331-0.246-0.312-0.329c0.053-0.235,0.201-0.448,0.312-0.671C79.434,119.797,79.545,119.908,79.678,120.041z"/>
	<path fill-rule="evenodd" clip-rule="evenodd" fill="#596642" d="M12.928,69.776c-0.232,0.272-0.465,0.545-0.697,0.816
		c-0.105-0.104-0.21-0.21-0.315-0.314c0.272-0.232,0.545-0.465,0.817-0.697C12.797,69.646,12.862,69.711,12.928,69.776z"/>
	<path fill-rule="evenodd" clip-rule="evenodd" fill="#596642" d="M28.823,82.686c-0.333,0.333-0.667,0.667-1,1
		C28.156,83.353,28.489,83.019,28.823,82.686z"/>
	<path fill-rule="evenodd" clip-rule="evenodd" fill="#596642" d="M27.927,83.776c-0.232,0.272-0.464,0.545-0.697,0.816
		c-0.105-0.104-0.21-0.21-0.315-0.314c0.272-0.232,0.545-0.465,0.817-0.697C27.797,83.646,27.862,83.711,27.927,83.776z"/>
	<path fill-rule="evenodd" clip-rule="evenodd" fill="#596642" d="M28.927,85.776c-0.232,0.272-0.464,0.545-0.697,0.816
		c-0.105-0.104-0.21-0.21-0.315-0.314c0.272-0.232,0.545-0.465,0.817-0.697C28.797,85.646,28.862,85.711,28.927,85.776z"/>
	<path fill-rule="evenodd" clip-rule="evenodd" fill="#596642" d="M75.163,98.343c0.752,1.51,1.299,2.611,1.953,3.925
		C75.026,101.437,75.026,101.437,75.163,98.343z"/>
	<path fill-rule="evenodd" clip-rule="evenodd" fill="#596642" d="M64.4,100.53c1.218,0.347,1.82,0.519,2.423,0.689
		c-0.466,0.155-0.924,0.365-1.401,0.433C65.279,101.673,65.081,101.296,64.4,100.53z"/>
	<path fill-rule="evenodd" clip-rule="evenodd" fill="#596642" d="M86.823,118.686c0-0.333,0-0.667,0-1c0.758,0.15,1.914-0.496,2,1
		C88.157,118.686,87.489,118.686,86.823,118.686z"/>
	<path fill-rule="evenodd" clip-rule="evenodd" fill="#596642" d="M73.823,109.686c0-0.333,0-0.667,0-1c0.666,0,1.334,0,2,0
		C75.737,110.182,74.581,109.535,73.823,109.686z"/>
	<path fill-rule="evenodd" clip-rule="evenodd" fill="#596642" d="M73.823,108.686c-0.666,0-1.334,0-2,0c0-0.333,0-0.667,0-1
		C72.581,107.836,73.737,107.189,73.823,108.686z"/>
</g>
</svg>
