<?xml version="1.0" encoding="utf-8"?>
<!-- Generator: Adobe Illustrator 16.0.0, SVG Export Plug-In . SVG Version: 6.00 Build 0)  -->
<!DOCTYPE svg PUBLIC "-//W3C//DTD SVG 1.1//EN" "http://www.w3.org/Graphics/SVG/1.1/DTD/svg11.dtd">
<svg version="1.1" id="圖層_1" xmlns="http://www.w3.org/2000/svg" xmlns:xlink="http://www.w3.org/1999/xlink" x="0px" y="0px"
	 width="127.687px" height="172.659px" viewBox="0 0 127.687 172.659" enable-background="new 0 0 127.687 172.659"
	 xml:space="preserve">
<g>
	<path fill-rule="evenodd" clip-rule="evenodd" fill="#596642" d="M121.845,97.947c-0.912,0.882-1.822,1.763-2.854,2.761
		c0.876,0.073,1.865,0.156,2.854,0.239c0.229,1.905,1.921,0.497,2.85,1.334c-0.236,0.391-0.798,1.13-0.716,1.21
		c1.429,1.391,1.007,2.854,0.415,4.438c-0.643,1.716-1.598,2.934-3.453,3.477c-1.008,0.294-1.838,1.309-2.838,1.484
		c-2.809,0.495-5.688,0.602-8.492,1.112c-1.252,0.228-2.996-1.198-3.766,0.944c-2.152,0.477-4.545-0.959-6.583,0.937
		c-0.358,0.332-1.692,0.082-2.235-0.339c-1.703-1.318-3.388-0.117-5.121,0.114c1.292,0.181,2.584,0.361,3.875,0.542
		c-3.23,0.495-6.223,1.444-9.129,3.427c1.1,0.195,2.01,0.355,3.73,0.66c-2.846,0.951-4.992,1.669-7.242,2.421
		c-0.102-0.303-0.293-0.878-0.588-1.762c-2.158,0-4.433,0-6.707,0c-0.412-0.333-0.813-0.94-1.236-0.955
		c-2.585-0.09-5.176-0.045-7.764-0.045c-0.469-1.927-2.016-0.619-3-1c-1-0.667-2-1.333-3-2c-0.086-1.496-1.242-0.85-2.045-0.947
		c0.02-0.013,0.084-0.078,0.15-0.144c-0.232-0.272-0.465-0.545-0.697-0.816c-0.105,0.104-0.211,0.21-0.316,0.314
		c0.273,0.232,0.545,0.465,0.863,0.646c0.131,1.443,1.287,0.797,2.045,0.947c-0.667,0.522-1.334,1.045-2,1.567
		c1.068,2.848,1.068,2.848-0.612,8.883c-0.582-0.715-1.051-1.17-1.374-1.711c-0.711-1.188-1.356-2.417-2.006-3.641
		c-0.143-0.267-0.191-0.582-0.322-1.001c-3.364,3.691-6.689,7.34-10.1,11.081c-0.54-0.638-0.959-1.131-1.365-1.609
		c2.957-4.821,7.215-8.865,10.43-14.341c-2.115,0-3.545,0-5.121,0c-0.611-0.952-1.16-1.807-2.074-3.229
		c2.432,0,4.223,0.129,5.986-0.039c1.535-0.146,3.04-0.628,4.585-1.553c-0.085,1.921-0.031,3.119,1.903,2.31
		c-0.517-0.798-0.975-1.507-1.903-2.31c-0.026,0.112-0.026-0.366-0.026-1.283c-1.646-0.041-3.322-0.083-5-0.125
		c0.629-2.345,2.979,0.061,3.963-1.694c-0.016-0.169-0.057-0.606-0.121-1.306c-0.995,0-1.918,0-2.842,0
		c0.611-0.52,1.223-1.039,1.84-1.563c-0.689-1.72-2.299-1.49-3.84-1.437c0.661-0.521,1.322-1.041,2.012-1.583
		c0.27-0.991-1.488-1.953-0.046-3.081c-0.618-0.222-1.188-0.427-2.25-0.808c0.802-0.312,1.243-0.485,1.948-0.761
		c0.393-1.295,0.863-2.85,1.445-4.768c-1.564,0-2.837,0-4.109,0c0.008-1.346,1.055-0.829,1.75-1.017
		c1.131-0.305,2.232-0.716,3.227-1.784c-1.318-0.145-2.636-0.289-3.953-0.434c0.006-0.205,0.013-0.411,0.02-0.616
		c1.23-0.085,2.463-0.17,3.561-0.246c0.481-0.941,1.421-1.978,1.191-2.471c-0.932-2.001,0.934-3.787,0.178-5.651
		c-0.137-0.336-0.639-0.524-0.973-0.781c-0.398-0.333-0.771-0.91-1.2-0.954c-1.255-0.129-2.532-0.046-3.8-0.046
		c0.156-2.071,2.447-0.121,3.059-1.914c-2.34,0-4.59,0-6.841,0c-0.03-0.24-0.06-0.48-0.091-0.722
		c0.779-0.121,1.554-0.29,2.337-0.351c0.788-0.062,1.585-0.014,2.392-0.364c-2.057-1.037-4.272-0.416-6.934-0.772
		c0.408-0.588,0.682-0.98,0.961-1.38c-0.156-0.13-0.42-0.505-0.596-0.468c-2.066,0.44-4.021,0.615-6.205,0.086
		c-2.171-0.526-4.568-0.115-6.988-0.735c0.918-0.224,1.835-0.447,3.589-0.875c-1.192-0.318-1.845-0.493-2.497-0.667
		c0.188-0.313,0.377-0.627,0.565-0.94c-1.571,0-3.144,0-4.716,0c-0.012-0.203-0.023-0.406-0.035-0.609
		c0.889-0.148,1.775-0.296,2.852-0.476c-0.801-1.302-1.534-2.577-2.353-3.797c-0.884-1.316-1.847-2.579-2.767-3.852
		c-1.279-0.142-2.51-0.277-3.74-0.413c0-0.156,0-0.312,0-0.469c0.915-0.161,1.83-0.323,3.322-0.587
		c-0.988-0.725-1.651-1.21-2.314-1.695c-1-1-2-2-3-3c-1.266-0.957-1.312-0.979-2.67-1.171c-0.22-0.565-0.44-1.13-0.781-2.002
		c-2.123,0-4.341,0-6.559,0c-0.003-0.21-0.006-0.421-0.01-0.631c1.353-0.129,2.706-0.258,4.059-0.387
		c-0.011-0.271-0.021-0.54-0.032-0.81c-1.412,0-2.828,0.054-4.232-0.045c-0.279-0.02-0.517-0.622-0.774-0.955
		c0.939,0,1.878,0,2.956,0c-0.5-1.097-0.856-1.879-1.209-2.65c-2.506-0.497-5.07-1.006-7.634-1.515
		c-0.007-0.222-0.014-0.443-0.02-0.665c1.302-0.057,2.605-0.113,5.119,0.407c0.531-0.188,0.333-0.564,0.19-0.544
		c-0.478,0.067-0.936,0.277-1.401,0.433c0.603,0.171,1.205,0.343,1.211,0.111c-0.904-1.101-0.598-1.625-0.091-2.488
		c-2.077,0-3.983,0-5.89,0c-0.034-0.236-0.068-0.472-0.103-0.708c0.609-0.127,1.214-0.304,1.83-0.367
		c0.618-0.063,1.247-0.014,1.953-0.014c0-0.772,0-1.223,0-2.026c-1.645,0-3.241,0-4.836,0c-0.004-0.229-0.008-0.458-0.011-0.688
		c1.299-0.181,2.599-0.361,3.925-0.546C3.438,32.945,3.463,26.861,5.15,21.018c1.453-5.03,4.782-8.24,8.928-10.635
		c2.256-1.304,5.063-2.009,8.144-1.274c2.233-2.66,4.503-5.362,7.092-8.444c2.972-0.229,6.156-0.777,9.311-0.644
		c4.223,0.18,8.285,1.36,12.268,2.88c3.598,1.373,7.131,2.943,10.643,4.458c4.265,1.838,8.031,4.83,12.365,7.542
		c4.921-0.458,9.959,1.551,14.18,4.253c4.326,2.771,8.328,6.63,8.857,12.617c0.133,1.491,1.539,3.057,0.826,4.551
		c-0.73,1.533,1.457,2.298,0.496,3.9c-0.429,0.717,0.102,2.465,0.762,3.294c2.27,2.847,3.598,6.205,5.127,9.396
		c1.229,2.564,3.523,3.54,5.467,4.958c2.74,1.999,5.932,3.369,8.808,5.199c3.155,2.007,4.41,5.403,5.366,8.74
		c1.595,5.569,1.268,11.363,0.9,17.045c-0.104,1.604-0.888,3.324-0.844,5.092c-0.633,0.113-1.267,0.226-1.9,0.339
		c0.024,0.221,0.049,0.44,0.072,0.661c0.609,0,1.219,0,1.828,0c0,0.333,0,0.667,0,1c-0.758,0.15-1.914-0.496-2,1
		c-0.276,0.109-0.553,0.22-0.829,0.329C121.292,97.5,121.569,97.723,121.845,97.947z M28.935,47.842
		c-0.064,0.064-0.129,0.13-0.194,0.195c0.231,0.272,0.464,0.545,0.696,0.816c0.105-0.104,0.211-0.21,0.316-0.314
		c-0.273-0.232-0.545-0.465-0.998-0.488c0.064-0.064,0.129-0.13,0.195-0.195c-0.232-0.272-0.465-0.545-0.697-0.816
		c-0.105,0.104-0.211,0.21-0.316,0.314C28.21,47.586,28.482,47.819,28.935,47.842z M11.936,43.842
		c-0.065,0.064-0.13,0.13-0.195,0.195c0.232,0.272,0.464,0.545,0.697,0.816c0.105-0.104,0.21-0.21,0.315-0.314
		c-0.272-0.232-0.545-0.465-0.908-0.593c0-0.333,0-0.667,0-1c1.496-0.085,0.849-1.242,0.896-2.091
		c0.065,0.065,0.13,0.131,0.195,0.195c0.272-0.232,0.545-0.465,0.817-0.697c-0.105-0.104-0.21-0.21-0.315-0.314
		c-0.232,0.271-0.465,0.544-0.592,0.907c-1.496,0.085-0.849,1.242-1,2c-0.276,0.109-0.553,0.22-0.829,0.329
		C11.292,43.5,11.569,43.723,11.936,43.842z M8.845,34.947c0.333,0.333,0.667,0.667,1,1c0,0.667,0,1.333-0.122,1.973
		c-0.479,0.037-1.076,0.084-1.846,0.144c0.55,1.08,0.991,1.946,1.846,3.627c0-1.913,0-2.828,0.122-3.743
		c0.333-0.252,0.667-0.504,1-0.756c-0.333-0.415-0.667-0.829-1-1.244c-0.333-0.333-0.667-0.667-1.09-0.896
		c0.065-0.064,0.13-0.13,0.195-0.195c-0.232-0.272-0.464-0.545-0.697-0.816c-0.105,0.104-0.21,0.21-0.315,0.314
		C8.21,34.586,8.482,34.819,8.845,34.947z M30.935,18.842c-0.064,0.064-0.129,0.13-0.194,0.195c0.231,0.272,0.464,0.545,0.696,0.816
		c0.105-0.104,0.211-0.21,0.316-0.314c-0.273-0.232-0.545-0.465-0.908-0.593c0-0.333,0-0.667-0.104-1.091
		c0.065,0.065,0.13,0.131,0.194,0.195c0.273-0.232,0.545-0.465,0.818-0.697c-0.105-0.104-0.211-0.21-0.316-0.314
		c-0.232,0.271-0.465,0.544-0.592,0.907c-0.334,0-0.666,0-1,0c-0.086-1.496-1.242-0.85-2-1c-0.086-1.496-1.242-0.85-2.09-0.896
		c0.064-0.064,0.129-0.13,0.195-0.195c-0.232-0.272-0.465-0.545-0.697-0.816c-0.105,0.104-0.211,0.21-0.316,0.314
		c0.273,0.232,0.545,0.465,0.908,0.593c0.086,1.496,1.242,0.85,2,1c0,0.333,0,0.667,0.104,1.091
		c-0.065-0.065-0.13-0.131-0.194-0.195c-0.273,0.232-0.545,0.465-0.818,0.697c0.105,0.104,0.211,0.21,0.316,0.314
		c0.232-0.271,0.465-0.544,0.592-0.907c0.666,0,1.334,0,2,0C30.179,18.28,30.511,18.614,30.935,18.842z M57.741,17.856
		c0.065,0.065,0.13,0.131,0.194,0.195c0.273-0.232,0.545-0.465,0.818-0.697c-0.105-0.104-0.211-0.21-0.316-0.314
		c-0.232,0.271-0.465,0.544-0.487,0.998c-0.065-0.065-0.13-0.131-0.194-0.195c-0.273,0.232-0.545,0.465-0.818,0.697
		c0.105,0.104,0.211,0.21,0.316,0.314C57.486,18.583,57.718,18.31,57.741,17.856z M56.741,15.856
		c0.065,0.065,0.13,0.131,0.194,0.195c0.273-0.232,0.545-0.465,0.818-0.697c-0.105-0.104-0.211-0.21-0.316-0.314
		c-0.232,0.271-0.465,0.544-0.487,0.998c-0.065-0.065-0.13-0.131-0.194-0.195c-0.273,0.232-0.545,0.465-0.818,0.697
		c0.105,0.104,0.211,0.21,0.316,0.314C56.486,16.583,56.718,16.31,56.741,15.856z M51.845,21.947
		c0.276-0.109,0.553-0.22,0.829-0.329c-0.276-0.224-0.553-0.447-0.829-0.671c-0.109-0.276-0.22-0.553-0.329-0.829
		c-0.224,0.276-0.447,0.553-0.671,0.829c-0.758,0.15-1.914-0.496-2,1c-0.276,0.109-0.553,0.22-0.829,0.329
		c0.276,0.224,0.553,0.447,0.829,0.671c0,0.333,0,0.667,0.104,1.091c-0.065-0.065-0.13-0.131-0.194-0.195
		c-0.273,0.232-0.545,0.465-0.818,0.697c0.105,0.104,0.211,0.21,0.316,0.314c0.232-0.271,0.465-0.544,0.592-0.907
		c0.758-0.15,1.914,0.496,2-1C51.179,22.614,51.511,22.28,51.845,21.947z M46.741,20.856c0.065,0.065,0.13,0.131,0.194,0.195
		c0.273-0.232,0.545-0.465,0.818-0.697c-0.105-0.104-0.211-0.21-0.316-0.314c-0.232,0.271-0.465,0.544-0.592,0.907
		c-0.334,0.333-0.666,0.667-1,1c-0.666,0-1.334,0-2,0c-0.655-1.174-1.19-2.585-3.156-1.611c0.489,0.445,0.838,0.763,1.082,0.985
		c-0.332,0.584-0.629,1.104-0.899,2.402c-0.015-0.288-0.029-0.576-0.044-0.864c-0.652,0.128-1.303,0.255-1.955,0.383
		c0.029,0.215,0.059,0.431,0.088,0.646c0.637-0.055,1.274-0.109,1.885-0.94c0.666,0.667,1.334,1.333,2.104,2.091
		c-0.065-0.065-0.13-0.131-0.194-0.195c-0.273,0.232-0.545,0.465-0.818,0.697c0.105,0.104,0.211,0.21,0.316,0.314
		c0.232-0.271,0.465-0.544,0.592-0.907c0.666,0,1.334,0,2,0c0.15,0.758-0.496,1.915,1.09,1.896c-0.064,0.064-0.129,0.13-0.194,0.195
		c0.231,0.272,0.464,0.545,0.696,0.816c0.105-0.104,0.211-0.21,0.316-0.314c-0.273-0.232-0.545-0.465-0.908-0.593
		c-0.15-0.758,0.496-1.915-1-2c-0.334-0.667-0.666-1.333-1-2c0.758-0.15,1.914,0.496,2-1C46.179,21.614,46.511,21.28,46.741,20.856z
		 M21.845,33.947c0.334-0.252,0.666-0.504,1-0.756c-0.334-0.415-0.666-0.829-1.09-1.14c0.064-0.064,0.129-0.13,0.194-0.195
		c-0.231-0.272-0.464-0.545-0.696-0.816c-0.105,0.104-0.211,0.21-0.316,0.314c0.273,0.232,0.545,0.465,0.908,0.593
		c0,0.667,0,1.333,0.104,2.091c-0.065-0.065-0.13-0.131-0.194-0.195c-0.273,0.232-0.545,0.465-0.818,0.697
		c0.105,0.104,0.211,0.21,0.316,0.314C21.486,34.583,21.718,34.31,21.845,33.947z M15.935,40.842
		c-0.064,0.064-0.129,0.13-0.194,0.195c0.231,0.272,0.464,0.545,0.696,0.816c0.105-0.104,0.211-0.21,0.316-0.314
		c-0.273-0.232-0.545-0.465-1.685-0.566c0.288-0.015,0.576-0.029,0.864-0.044c-0.128-0.651-0.256-1.303-0.383-1.955
		c-0.215,0.029-0.43,0.059-0.646,0.088C14.959,39.699,15.014,40.336,15.935,40.842z M41,35.524c-0.765,0.68-1.141,0.879-1.121,1.021
		c0.068,0.478,0.277,0.936,0.433,1.401c0.171-0.603,0.343-1.205-1.62,2.423c0.765-0.68,1.141-0.879,1.121-1.021
		c-0.068-0.478-0.277-0.936-0.433-1.401C39.208,38.549,39.037,39.152,41,35.524z M53.755,19.051c0.064-0.064,0.129-0.13,0.194-0.195
		c-0.231-0.272-0.464-0.545-0.696-0.816c-0.105,0.104-0.211,0.21-0.316,0.314c0.273,0.232,0.545,0.465,3.331,1.748
		c-0.681-0.766-0.879-1.143-1.021-1.122c-0.478,0.067-0.936,0.277-1.401,0.433C54.448,19.583,55.05,19.755,53.755,19.051z
		 M42.755,17.051c0.064-0.064,0.129-0.13,0.194-0.195c-0.231-0.272-0.464-0.545-0.696-0.816c-0.105,0.104-0.211,0.21-0.316,0.314
		c0.273,0.232,0.545,0.465,0.908,0.593c0.086,1.496,1.242,0.85,2.09,0.896c-0.064,0.064-0.129,0.13-0.195,0.195
		c0.232,0.272,0.465,0.545,0.697,0.816c0.105-0.104,0.211-0.21,0.316-0.314c-0.273-0.232-0.545-0.465-0.908-0.593
		C44.759,16.451,43.603,17.097,42.755,17.051z M20.845,11.947c0.666,0,1.334,0,4.279,0.385c-2.064-0.19-2.064-0.19-3.174,2.146
		c1.293-0.875,2.094-1.415,0.895-2.53c-0.252-0.333-0.504-0.667-0.756-1c-0.415,0.333-0.83,0.667-1.14,1.091
		c-0.065-0.065-0.13-0.131-0.194-0.195c-0.273,0.232-0.545,0.465-0.818,0.697c0.105,0.104,0.211,0.21,0.316,0.314
		C20.486,12.583,20.718,12.31,20.845,11.947z M46.935,6.842c-0.064,0.064-0.129,0.13-0.194,0.195
		c0.231,0.272,0.464,0.545,0.696,0.816c0.105-0.104,0.211-0.21,0.316-0.314c-0.273-0.232-0.545-0.465-0.908-0.593
		c-0.086-1.496-1.242-0.85-2.09-0.896c0.064-0.064,0.129-0.13,0.194-0.195c-0.231-0.272-0.464-0.545-0.696-0.816
		c-0.105,0.104-0.211,0.21-0.316,0.314c0.273,0.232,0.545,0.465,0.908,0.593C44.931,7.443,46.087,6.796,46.935,6.842z M42.268,9.102
		c-0.681-0.766-0.879-1.143-1.021-1.122c-0.478,0.067-0.936,0.277-1.401,0.433c0.603,0.171,1.205,0.343-0.776-0.439
		c0.288-0.018,0.575-0.035,0.862-0.053c-0.127-0.648-0.254-1.297-0.381-1.945c-0.215,0.028-0.43,0.058-0.646,0.087
		C38.959,6.699,39.014,7.336,42.268,9.102z M41.935,3.842c-0.064,0.064-0.129,0.13-0.195,0.195c0.232,0.272,0.465,0.545,0.697,0.816
		c0.105-0.104,0.211-0.21,0.316-0.314c-0.273-0.232-0.545-0.465-3.331-1.748c0.681,0.766,0.879,1.143,1.021,1.122
		c0.478-0.067,0.936-0.277,1.401-0.433C41.243,3.31,40.64,3.138,41.935,3.842z M37.819,21.17c0.015,0.288,0.029,0.576,0.044,0.864
		c0.652-0.128,1.303-0.255,1.955-0.383c-0.029-0.215-0.059-0.431-0.088-0.646c-0.637,0.055-1.274,0.109-1.858,1.717
		c-0.015-0.288-0.029-0.576-0.044-0.864c-0.652,0.128-1.303,0.255-1.955,0.383c0.029,0.215,0.059,0.431,0.088,0.646
		C36.597,22.833,37.235,22.778,37.819,21.17z M82.845,95.947c0.334-0.333,0.666-0.667,1-1c1.674-0.179,0.941-1.487,0.961-2.292
		c0.045-1.823,0.879-2.642,3.008-2.756c0,2.72,0,5.309,0,7.979c4.637,1.563,8.584,3.782,11.621,7.132
		c1.27-0.406,2.282-0.804,3.331-1.048c1.681-0.392,3.494-0.415,5.06-1.062c7.416-3.061,10.785-8.376,9.898-15.814
		c-0.197-1.656-1.203-3.361-0.832-5.086c0.699-3.252,0.834-6.437-0.03-8.729c-1.857-2.182-3.249-3.816-4.364-5.126
		c-3.746-0.412-7.04-2.358-10.442-0.499c1.104-4.548,0.852-5.747-0.038-10.122c-0.66-3.245-1.174-6.464-2.625-9.624
		c-0.512,0.512-0.747,0.747-1.176,1.176c-0.662-1.782-1.287-3.467-1.865-5.026c-0.549-0.146-0.997-0.267-1.506-0.402
		c0-0.76-0.272-1.626,0.045-2.031c1.991-2.546,1.354-5.67,0.732-8.056c-0.783-3.009-2-6.125-4.254-8.729
		c-2.836-3.277-6.537-5.086-10.242-6.761c-2.223-1.005-5.18-1.527-7.482-0.957c-3.84,0.951-7.748,1.296-11.691,2.139
		c0,1.762,0,3.546,0,5.365c0.848,0.775,1.646,1.617,2.556,2.317c2.39,1.84,4.901,3.524,7.227,5.439
		c3.907,3.22,6.567,7.518,9.503,11.554c0.531,0.732,0.395,1.95,0.567,2.943c-0.204,0.063-0.407,0.126-0.61,0.189
		c-3.002-3.984-6.002-7.968-9.041-12.002c-0.497,1.68-1.089,3.223-3.236,2.876c-1.252-0.203-2.05-0.958-2.055-2.293
		c-0.003-0.581,0.18-1.162,0.41-2.517c1.076,1.319,1.639,2.008,2.189,2.684c0.406-0.816,0.815-1.639,1.215-2.44
		c-2.189-0.667-3.303-2.892-5.145-4.149c-1.9-1.298-4.007-2.359-6.145-3.224c-1.975-0.799-4.109-1.198-6.195-1.78
		c-3.698,3.127-6.26,7.288-8.918,11.532c-2.453,3.916-4.04,8.01-5.391,12.286c-0.565,1.787-1.023,3.725-0.929,5.563
		c0.064,1.252,0.185,2.394,0.013,3.689c-0.168,1.267,0.67,2.667,1.039,3.912c0.996,1.474,1.865,3.008,2.98,4.334
		c1.053,1.252,2.177,2.73,3.598,3.329c3.775,1.588,7.038,3.961,10.549,6.351c0.299-0.533,0.506-0.898,0.711-1.265
		c0.527,0.667,1.056,1.334,1.666,2.104c0.712-0.163,1.473-0.384,2.248-0.506c1.229-0.194,2.762-0.867,3.655-0.388
		c4.505,2.42,9.243,4.724,11.157,10.043c0.311,0.863,0.363,1.82,0.458,2.323c1.901-1.708,3.858-3.467,5.815-5.227
		c-0.521-2.513,1.801-3.283,2.859-4.719c0-7.515,0-14.964,0-22.355c-1.111-0.438-1.916-0.754-3.218-1.265
		c0.414,1.031,0.58,1.463,0.761,1.889c0.132,0.312,0.283,0.617,0.854,1.852c-1.653-1.035-2.428-1.521-3.338-2.09
		c1.357-0.549,0.318-2.718,2.279-2.736c0.299-0.003,0.588-1.015,0.934-1.656c-3.238,0.508-4.836,3.725-8.248,3.638
		c0.503-0.858,0.811-1.382,1.117-1.906c0.758-0.15,1.914,0.496,2-1c1.344-1.138,3.655-0.895,4.16-3.414
		c0.154-0.767,2.221-1.148,3.41-1.707c0.127,0.15,0.254,0.302,0.381,0.452c-0.734,0.909-1.471,1.819-2.286,2.828
		c1.346,1.351,2.472,2.481,3.511,3.523c0,1.289,0,2.229,0,2.584c3.767,2.479,7.14,4.701,10.514,6.922
		c-0.272,2.209,4.106,2.972,1.813,5.812c-2.001,0-3.995,0-4.789,0c-4.278,1.4-5.776,4.004-6.753,7.08
		c-0.227,0.711-0.929,1.279-1.438,1.892c-1.828,2.2-3.119,4.549-3.635,7.496c-0.385,2.2-0.746,4.726-3.272,6.324
		c1.474,1.179-1.063,3.276,1.384,4.208c0.252,0.333,0.504,0.667,0.756,1C82.016,96.614,82.431,96.28,82.845,95.947z M53.268,7.102
		c-0.681-0.766-0.879-1.143-1.021-1.122c-0.478,0.067-0.936,0.277-1.401,0.433c0.603,0.171,1.205,0.343-2.423-1.621
		c0.681,0.766,0.879,1.143,1.021,1.122c0.478-0.067,0.936-0.277,1.401-0.433C50.243,5.31,49.64,5.138,53.268,7.102z M38.935,65.842
		c-0.064,0.064-0.129,0.13-0.194,0.195c0.231,0.272,0.464,0.545,0.696,0.816c0.105-0.104,0.211-0.21,0.316-0.314
		c-0.273-0.232-0.545-0.465-3.331-1.748c0.681,0.766,0.879,1.143,1.021,1.122c0.478-0.067,0.936-0.277,1.401-0.433
		C38.243,65.31,37.64,65.138,38.935,65.842z M93.755,64.051c0.064-0.064,0.129-0.13,0.194-0.195
		c-0.231-0.272-0.464-0.545-0.696-0.816c-0.105,0.104-0.211,0.21-0.316,0.314c0.273,0.232,0.545,0.465-0.276,0.646
		c1.396,0.902,2.104,1.36,2.901,1.876C96.373,63.942,95.174,63.887,93.755,64.051z M73.884,99.684
		c-0.019-0.283-0.036-0.566-0.055-0.851c-0.982,0.129-1.965,0.257-2.946,0.386c0.442,0.535,0.87,0.713,1.295,0.708
		c0.569-0.008,1.138-0.155,1.667-0.98c0.633-0.113,1.267-0.226,1.9-0.339c-0.024-0.221-0.049-0.44-0.072-0.661
		c-0.609,0-1.219,0-3.668,0.385c1.477-0.646,2.483-1.064,3.461-1.539c0.121-0.059,0.092-0.422,0.133-0.647c-1.264,0-2.461,0-3.734,0
		c0.041,0.641,0.069,1.077,1.98,1.802C73.845,98.28,73.845,98.614,73.884,99.684z M74.755,104.051
		c0.064-0.064,0.129-0.13,0.195-0.195c-0.232-0.272-0.465-0.545-0.697-0.816c-0.105,0.104-0.211,0.21-0.316,0.314
		c0.273,0.232,0.545,0.465,0.908,0.593c0.086,1.496,1.242,0.85,2.091,0.896c-0.065,0.064-0.13,0.13-0.195,0.195
		c0.231,0.272,0.464,0.545,0.696,0.816c0.105-0.104,0.211-0.21,0.316-0.314c-0.273-0.232-0.545-0.465-0.908-0.593
		c-0.088-0.66-0.175-1.321-0.26-1.962C75.851,103.391,75.347,103.668,74.755,104.051z M86.722,73.1c-0.93,1.154-0.93,1.154,0,2.813
		c0-1.136,0-2.051,1.277-5.39c-0.765,0.68-1.141,0.879-1.121,1.021c0.068,0.478,0.277,0.936,0.433,1.401
		C87.482,72.344,87.654,71.742,86.722,73.1z M10.936,17.842c-0.065,0.064-0.13,0.13-0.195,0.195
		c0.232,0.272,0.465,0.545,0.697,0.816c0.105-0.104,0.21-0.21,0.315-0.314c-0.272-0.232-0.545-0.465-0.807-0.552
		c-0.141-0.71-0.269-1.359-0.285-1.439c-0.606,0.23-1.29,0.491-1.973,0.751c0.129,0.184,0.257,0.368,0.386,0.552
		C9.663,17.894,10.252,17.938,10.936,17.842z M53.845,7.947c-1.637-0.303-2.303,0.363-1.896,2.091
		c-0.065-0.065-0.13-0.131-0.194-0.195c-0.273,0.232-0.545,0.465-0.818,0.697c0.105,0.104,0.211,0.21,0.316,0.314
		c0.232-0.271,0.465-0.544,0.592-0.907c1.328-0.063,2.656-0.126,4.152-0.197C55.087,8.988,54.466,8.467,53.845,7.947c1,0,2,0,3,0
		c0.354,1.438,1.624,1.687,2.707,2.324c0.957,0.563,1.543,1.759,2.293,2.676c0,0.667,0,1.333,0.104,2.091
		c-0.065-0.065-0.13-0.131-0.194-0.195c-0.273,0.232-0.545,0.465-0.818,0.697c0.105,0.104,0.211,0.21,0.316,0.314
		c0.232-0.271,0.465-0.544,0.592-0.907c1.502-0.332,3.141-1.195,4.468-0.853c1.462,0.378,2.606,1.953,5.112,1.68
		c-1.795-1.269-2.961-2.274-4.284-2.991c-3.336-1.807-6.517-3.967-10.296-4.836C55.839,6.577,54.851,6.577,53.845,7.947z
		 M77.164,116.86c2.547-0.696,4.461-3.447,4.396-6.805c-0.771,0-1.547,0-2.131,0c-0.786,2.362-1.555,4.67-2.479,6.982
		c-0.066-0.065-0.131-0.131-0.195-0.195c-0.273,0.232-0.545,0.465-0.818,0.697c0.105,0.104,0.211,0.21,0.316,0.314
		C76.486,117.583,76.718,117.31,77.164,116.86z M64.564,100.121c2.373-1.19,3.688-1.85,5.143-2.58
		c1.045-3.746,4.581-7.114,2.516-11.716c-1.847-4.116-4.162-7.746-8.949-9.137c-0.669,2.994-0.669,2.994-4.466,5.741
		c0.606,5.194-1.177,10.22-2.402,15.258c-0.564,2.321-0.183,4.51-0.56,6.723c2.061,2.384,2.272,5.94,4.918,7.925
		c2.137,1.604,4.386,3.055,6.631,4.605c1.93,0,3.922,0,5.971,0c1.126-1.157,2.283-2.346,3.48-3.574c0-1.249,0-2.579,0-3.971
		c-2.736-2.199-4.16-5.815-7.164-7.12c-1.181,0.229-1.952,0.38-2.724,0.529c-0.128-0.233-0.255-0.468-0.384-0.701
		c0.795-0.515,1.59-1.029,3.062-1.982C67.744,100.121,66.794,100.121,64.564,100.121z M121.607,90.912
		c0.416-1.337,1.217-2.671,1.168-3.974c-0.168-4.519,0.588-9.031-0.82-13.576c-1.21-3.905-2.598-7.241-6.307-9.47
		c-3.961-2.38-7.662-5.192-11.582-7.888c0,3.436,0,6.665,0,9.691c4.1-1.921,7.584-0.042,10.659,1.816
		c2.779,1.679,4.561,4.509,4.144,8.176c-0.148,1.312,0.022,2.657-0.032,3.983C118.677,83.54,118.605,87.379,121.607,90.912z
		 M83.414,111.682c-0.645,1.339-1.053,2.329-1.583,3.249c-0.558,0.966-1.231,1.862-1.854,2.789c3.99,1.3,6.499-1.847,10.795-2.163
		C87.791,113.987,85.761,112.918,83.414,111.682z M115.425,100.47c3.338-1.825,3.338-1.825,2.876-4.874
		C117.421,97.088,116.685,98.336,115.425,100.47z M58.515,20.626c-1.377,0.679-2.489,1.227-4.377,2.156c2.111,0,3.322,0,4.782,0
		C58.777,22.022,58.673,21.463,58.515,20.626z M36.949,62.197c-1.098,0-2.094,0-3.361,0C36.059,64.338,36.059,64.338,36.949,62.197z
		 M72.033,101.258c-0.011,0.172-0.022,0.344-0.033,0.516c1.212,0,2.425,0,3.881,0c-0.104-0.711-0.187-1.269-0.227-1.543
		C74.32,100.61,73.176,100.934,72.033,101.258z M34.376,60.16c-0.697-0.651-1.107-1.222-1.279-1.157
		c-0.471,0.176-0.906,0.573-1.204,0.991c-0.069,0.097,0.466,0.896,0.72,0.895C33.083,60.884,33.551,60.528,34.376,60.16z
		 M41.998,14.005c-0.412-3.149-1.964-1.789-3.754-1.837C39.738,12.899,40.629,13.335,41.998,14.005z M19.556,51.903
		c1.135-0.611,1.785-0.962,3.062-1.65c-1.376-0.187-2.021-0.453-2.217-0.261C20.04,50.347,19.939,50.97,19.556,51.903z
		 M50.214,17.468c-0.314,1.261-0.314,1.261,2.435,1.128C51.316,17.979,50.632,17.662,50.214,17.468z M25.845,12.197
		c0,0.167,0,0.333,0,0.5c1,0,2,0,3,0c0-0.167,0-0.333,0-0.5C27.845,12.197,26.845,12.197,25.845,12.197z M20.8,49.235
		c-0.611-1.134-0.961-1.784-1.65-3.062c-0.186,1.38-0.451,2.023-0.26,2.217C19.248,48.751,19.869,48.853,20.8,49.235z
		 M31.291,15.011c0.576-0.592,1.068-1.099,1.99-2.047C31.127,12.925,30.307,13.186,31.291,15.011z M13,15.12
		c0.029,0.295,0.059,0.59,0.088,0.886c0.874-0.127,1.747-0.253,2.62-0.379c-0.018-0.169-0.035-0.338-0.053-0.507
		C14.771,15.12,13.885,15.12,13,15.12z M6.595,27.947c-0.167,0-0.333,0-0.5,0c0,1,0,2,0,3c0.167,0,0.333,0,0.5,0
		C6.595,29.947,6.595,28.947,6.595,27.947z M120.382,94.91c0.113-0.113,0.318-0.223,0.323-0.341c0.02-0.435,0.134-1.016-0.093-1.271
		c-0.244-0.275-0.83-0.247-1.268-0.351c0.119,0.453,0.186,0.931,0.379,1.349C119.839,94.548,120.154,94.709,120.382,94.91z
		 M55.214,11.468c-0.314,1.261-0.314,1.261,2.435,1.128C56.316,11.979,55.632,11.662,55.214,11.468z M34.662,5.776
		c-0.018-0.285-0.037-0.57-0.055-0.856c-0.557,0.122-1.114,0.243-1.671,0.364c0.022,0.164,0.045,0.328,0.067,0.492
		C33.556,5.776,34.109,5.776,34.662,5.776z M87.595,66.947c-0.166,0-0.334,0-0.5,0c0,0.667,0,1.333,0,2c0.166,0,0.334,0,0.5,0
		C87.595,68.28,87.595,67.614,87.595,66.947z M73.003,94.118c0.036,0.288,0.072,0.576,0.108,0.863
		c0.542-0.129,1.085-0.259,1.628-0.388c-0.026-0.159-0.053-0.317-0.078-0.476C74.109,94.118,73.556,94.118,73.003,94.118z
		 M27.662,8.776c-0.018-0.285-0.037-0.57-0.055-0.856c-0.557,0.122-1.114,0.243-1.671,0.364c0.022,0.164,0.045,0.328,0.067,0.492
		C26.556,8.776,27.109,8.776,27.662,8.776z M44.662,9.776c-0.018-0.285-0.037-0.57-0.055-0.856
		c-0.557,0.122-1.114,0.243-1.671,0.364c0.022,0.164,0.045,0.328,0.067,0.492C43.556,9.776,44.109,9.776,44.662,9.776z
		 M26.845,6.197c0,0.167,0,0.333,0,0.5c0.666,0,1.334,0,2,0c0-0.167,0-0.333,0-0.5C28.179,6.197,27.511,6.197,26.845,6.197z
		 M53.003,15.118c0.036,0.288,0.072,0.576,0.108,0.863c0.542-0.129,1.085-0.259,1.628-0.388c-0.026-0.159-0.053-0.317-0.078-0.476
		C54.109,15.118,53.556,15.118,53.003,15.118z M22.674,36.105c-0.288,0.036-0.575,0.072-0.864,0.108
		c0.13,0.542,0.26,1.085,0.389,1.627c0.158-0.025,0.317-0.051,0.476-0.077C22.674,37.21,22.674,36.658,22.674,36.105z
		 M14.674,44.105c-0.288,0.036-0.576,0.072-0.864,0.108c0.129,0.542,0.259,1.085,0.388,1.627c0.159-0.025,0.317-0.051,0.476-0.077
		C14.674,45.21,14.674,44.658,14.674,44.105z M27.662,49.776c-0.013-0.286-0.025-0.573-0.039-0.859
		c-0.562,0.122-1.125,0.245-1.688,0.367c0.022,0.164,0.045,0.328,0.066,0.492C26.555,49.776,27.109,49.776,27.662,49.776z
		 M8.595,30.947c-0.167,0-0.333,0-0.5,0c0,0.667,0,1.333,0,2c0.167,0,0.333,0,0.5,0C8.595,32.28,8.595,31.614,8.595,30.947z
		 M29.345,3.947c-0.111,0.111-0.331,0.246-0.312,0.329c0.053,0.235,0.201,0.448,0.312,0.671c0.111-0.111,0.331-0.246,0.312-0.329
		C29.605,4.382,29.457,4.168,29.345,3.947z M77.99,107.591c0.133,0.133,0.244,0.244,0.355,0.355c0.111-0.223,0.26-0.436,0.312-0.671
		c0.019-0.083-0.201-0.218-0.312-0.329C78.225,107.165,78.105,107.381,77.99,107.591z M115.845,102.447
		c-0.111-0.111-0.246-0.331-0.328-0.312c-0.236,0.052-0.449,0.201-0.672,0.312c0.111,0.111,0.246,0.331,0.328,0.312
		C115.41,102.708,115.623,102.558,115.845,102.447z M33.99,20.591c0.133,0.133,0.244,0.244,0.355,0.355
		c0.111-0.223,0.26-0.436,0.312-0.671c0.019-0.083-0.201-0.218-0.312-0.329C34.225,20.165,34.105,20.381,33.99,20.591z
		 M8.345,20.947c-0.111,0.111-0.331,0.246-0.312,0.329c0.052,0.235,0.201,0.448,0.312,0.671c0.111-0.111,0.331-0.246,0.312-0.329
		C8.605,21.382,8.457,21.168,8.345,20.947z M13.201,21.802c0.209-0.115,0.427-0.235,0.644-0.355
		c-0.111-0.111-0.247-0.331-0.329-0.312c-0.235,0.052-0.449,0.201-0.671,0.312C12.957,21.558,13.067,21.669,13.201,21.802z
		 M27.201,21.802c0.21-0.115,0.428-0.235,0.645-0.355c-0.111-0.111-0.246-0.331-0.328-0.312c-0.236,0.052-0.449,0.201-0.672,0.312
		C26.957,21.558,27.068,21.669,27.201,21.802z M36.845,26.447c-0.111-0.111-0.246-0.331-0.328-0.312
		c-0.236,0.052-0.449,0.201-0.672,0.312c0.111,0.111,0.246,0.331,0.328,0.312C36.41,26.708,36.623,26.558,36.845,26.447z
		 M31.701,29.591c-0.115-0.21-0.235-0.427-0.355-0.645c-0.111,0.111-0.331,0.246-0.312,0.329c0.053,0.235,0.201,0.448,0.312,0.671
		C31.457,29.835,31.568,29.724,31.701,29.591z M38.49,29.802c0.133-0.133,0.244-0.244,0.355-0.355
		c-0.223-0.111-0.436-0.261-0.672-0.312c-0.082-0.019-0.217,0.201-0.328,0.312C38.062,29.567,38.28,29.687,38.49,29.802z
		 M44.49,29.802c0.133-0.133,0.244-0.244,0.355-0.355c-0.223-0.111-0.436-0.261-0.672-0.312c-0.082-0.019-0.217,0.201-0.328,0.312
		C44.062,29.567,44.28,29.687,44.49,29.802z M6.201,32.091c-0.134,0.133-0.245,0.244-0.356,0.355
		c0.222,0.111,0.436,0.261,0.671,0.312c0.082,0.019,0.217-0.201,0.329-0.312C6.628,32.327,6.411,32.207,6.201,32.091z M31.345,5.947
		c-0.111,0.111-0.331,0.246-0.312,0.329c0.053,0.235,0.201,0.448,0.312,0.671c0.111-0.111,0.331-0.246,0.312-0.329
		C31.605,6.382,31.457,6.168,31.345,5.947z M30.49,9.802c0.133-0.133,0.244-0.244,0.355-0.355c-0.223-0.111-0.436-0.261-0.672-0.312
		c-0.082-0.019-0.217,0.201-0.328,0.312C30.062,9.567,30.28,9.687,30.49,9.802z M38.49,10.802c0.133-0.133,0.244-0.244,0.355-0.355
		c-0.223-0.111-0.436-0.26-0.672-0.312c-0.082-0.019-0.217,0.201-0.328,0.312C38.062,10.567,38.28,10.687,38.49,10.802z
		 M46.49,10.802c0.133-0.133,0.244-0.244,0.355-0.355c-0.223-0.111-0.436-0.261-0.672-0.312c-0.082-0.019-0.217,0.201-0.328,0.312
		C46.062,10.567,46.28,10.687,46.49,10.802z M58.49,11.091c-0.21,0.115-0.428,0.235-0.645,0.355
		c0.111,0.111,0.246,0.331,0.328,0.312c0.236-0.052,0.449-0.201,0.672-0.312C58.734,11.335,58.623,11.224,58.49,11.091z
		 M16.701,12.591c-0.115-0.21-0.235-0.427-0.355-0.645c-0.111,0.111-0.331,0.246-0.312,0.329c0.053,0.235,0.201,0.448,0.312,0.671
		C16.457,12.835,16.568,12.724,16.701,12.591z M49.701,13.591c-0.115-0.21-0.235-0.427-0.355-0.645
		c-0.111,0.111-0.331,0.246-0.312,0.329c0.053,0.235,0.201,0.448,0.312,0.671C49.457,13.835,49.568,13.724,49.701,13.591z
		 M27.701,14.302c-0.133-0.133-0.244-0.244-0.355-0.355c-0.111,0.223-0.26,0.436-0.312,0.671c-0.019,0.083,0.201,0.218,0.312,0.329
		C27.465,14.729,27.585,14.512,27.701,14.302z M22.845,15.447c-0.111-0.111-0.246-0.331-0.328-0.312
		c-0.236,0.052-0.449,0.201-0.672,0.312c0.111,0.111,0.246,0.331,0.328,0.312C22.41,15.708,22.623,15.558,22.845,15.447z
		 M47.99,16.591c0.133,0.133,0.244,0.244,0.355,0.355c0.111-0.223,0.26-0.436,0.312-0.671c0.019-0.083-0.201-0.218-0.312-0.329
		C48.225,16.165,48.105,16.381,47.99,16.591z M60.701,17.302c-0.133-0.133-0.244-0.244-0.355-0.355
		c-0.111,0.223-0.26,0.436-0.312,0.671c-0.019,0.083,0.201,0.218,0.312,0.329C60.465,17.729,60.585,17.512,60.701,17.302z
		 M74.345,91.947c-0.111,0.111-0.331,0.246-0.312,0.329c0.053,0.235,0.201,0.448,0.312,0.671c0.111-0.111,0.331-0.246,0.312-0.329
		C74.605,92.382,74.457,92.168,74.345,91.947z M12.201,32.091c-0.134,0.133-0.245,0.244-0.356,0.355
		c0.222,0.111,0.436,0.261,0.671,0.312c0.082,0.019,0.217-0.201,0.329-0.312C12.628,32.327,12.411,32.207,12.201,32.091z
		 M5.989,34.591c0.134,0.133,0.245,0.244,0.356,0.355c0.111-0.223,0.26-0.436,0.312-0.671c0.019-0.083-0.201-0.218-0.312-0.329
		C6.225,34.165,6.105,34.381,5.989,34.591z M15.701,34.591c-0.115-0.21-0.235-0.427-0.355-0.645
		c-0.111,0.111-0.331,0.246-0.312,0.329c0.053,0.235,0.201,0.448,0.312,0.671C15.457,34.835,15.568,34.724,15.701,34.591z
		 M17.345,35.947c-0.111,0.111-0.331,0.246-0.312,0.329c0.053,0.235,0.201,0.448,0.312,0.671c0.111-0.111,0.331-0.246,0.312-0.329
		C17.605,36.382,17.457,36.168,17.345,35.947z M11.989,38.591c0.134,0.133,0.245,0.244,0.356,0.355
		c0.111-0.223,0.26-0.436,0.312-0.671c0.019-0.083-0.201-0.218-0.312-0.329C12.225,38.165,12.105,38.381,11.989,38.591z
		 M21.99,39.591c0.133,0.133,0.244,0.244,0.355,0.355c0.111-0.223,0.26-0.436,0.312-0.671c0.019-0.083-0.201-0.218-0.312-0.329
		C22.225,39.165,22.105,39.381,21.99,39.591z M32.701,39.591c-0.115-0.21-0.235-0.427-0.355-0.645
		c-0.111,0.111-0.331,0.246-0.312,0.329c0.053,0.235,0.201,0.448,0.312,0.671C32.457,39.835,32.568,39.724,32.701,39.591z
		 M14.701,42.302c-0.134-0.133-0.245-0.244-0.356-0.355c-0.111,0.223-0.26,0.436-0.312,0.671c-0.019,0.083,0.201,0.218,0.312,0.329
		C14.465,42.729,14.585,42.512,14.701,42.302z M17.49,43.091c-0.21,0.115-0.428,0.235-0.645,0.355
		c0.111,0.111,0.246,0.331,0.328,0.312c0.236-0.052,0.449-0.201,0.672-0.312C17.734,43.335,17.623,43.224,17.49,43.091z
		 M34.49,43.091c-0.21,0.115-0.428,0.235-0.645,0.355c0.111,0.111,0.246,0.331,0.328,0.312c0.236-0.052,0.449-0.201,0.672-0.312
		C34.734,43.335,34.623,43.224,34.49,43.091z M17.345,48.947c-0.111,0.111-0.331,0.246-0.312,0.329
		c0.053,0.235,0.201,0.448,0.312,0.671c0.111-0.111,0.331-0.246,0.312-0.329C17.605,49.382,17.457,49.168,17.345,48.947z
		 M23.701,52.302c-0.133-0.133-0.244-0.244-0.355-0.355c-0.111,0.223-0.26,0.436-0.312,0.671c-0.019,0.083,0.201,0.218,0.312,0.329
		C23.465,52.729,23.585,52.512,23.701,52.302z M33.701,53.591c-0.115-0.21-0.235-0.427-0.355-0.645
		c-0.111,0.111-0.331,0.246-0.312,0.329c0.053,0.235,0.201,0.448,0.312,0.671C33.457,53.835,33.568,53.724,33.701,53.591z
		 M32.701,55.302c-0.133-0.133-0.244-0.244-0.355-0.355c-0.111,0.223-0.26,0.436-0.312,0.671c-0.019,0.083,0.201,0.218,0.312,0.329
		C32.465,55.729,32.585,55.512,32.701,55.302z M97.701,66.591c-0.115-0.21-0.235-0.427-0.355-0.645
		c-0.111,0.111-0.331,0.246-0.312,0.329c0.053,0.235,0.201,0.448,0.312,0.671C97.457,66.835,97.568,66.724,97.701,66.591z"/>
	<path fill-rule="evenodd" clip-rule="evenodd" fill="#596642" d="M91.949,155.92c-0.915,0.116-1.67,0.043-1.756,0.25
		c-0.533,1.275-1.439,2.697-1.246,3.916c0.517,3.272-1.391,5.795-2.125,8.66c-0.341,1.329-0.457,1.3-3.459,3.353
		c-0.855-1.359-0.624-2.678-0.137-4.037c1.483-4.147,3.016-8.287,2.61-12.48c2.438-3.143,5.649-2.618,8.994-2.634
		c-0.37-1.725-0.702-3.269-1.109-5.169c2.954,0.444,3.645,2.912,5.407,4.307c1.912,0,3.824,0,6.738,0
		c-1.865,1.54-2.943,2.432-4.082,3.372c1.814,1.339,3.48,2.568,5.561,4.102c-1.473,0.7-2.572,1.223-3.814,1.814
		c-0.744-1.094-1.306-1.918-1.971-2.894c-0.854,1.164-1.406,1.915-2.219,3.022c1.469,0.307,2.49,0.52,3.937,0.821
		c-0.739,1.021-1.383,1.709-1.782,2.518c-0.398,0.809-0.554,1.738-0.984,3.178c3.558-0.474,6.66-0.888,9.704-1.293
		c0.612,0.648,1.265,1.059,1.472,1.631c0.254,0.703,0.138,1.54,0.195,2.569c-7.007,0.152-13.854-0.596-20.599,1.732
		c-0.671-0.346-1.573-0.81-2.921-1.505c0.954-0.847,1.615-1.848,2.507-2.14c1.776-0.58,3.689-0.724,5.517-1.17
		c0.273-0.066,0.387-0.791,0.751-1.607c-1.928-0.19-3.601-0.354-6.132-0.604c2.331-1.312,3.931-2.213,5.914-3.33
		c-0.916-0.473-1.765-1.248-2.631-1.268c-0.977-0.023-1.971,0.634-3.537,1.207C91.195,159.902,91.55,158.028,91.949,155.92z
		 M96.438,159.04c0.968-1.199,1.841-2.279,2.712-3.36c-0.186-0.211-0.373-0.422-0.56-0.633c-1.257,0.741-2.513,1.482-3.865,2.28
		C95.391,157.993,95.742,158.343,96.438,159.04z"/>
	<path fill-rule="evenodd" clip-rule="evenodd" fill="#596642" d="M39.724,167.001c0.268-3.984,0.21-3.98-1.32-6.04
		c-1.652,0-3.435,0-5.387,0c0-0.947,0-1.726,0-2.755c2.05-0.496,4.312-1.043,6.697-1.62c0.615-1.766-0.9-4.317,1.678-5.538
		c2.333,1.29,1.133,3.754,1.535,5.841c2.299,0,4.418,0,6.235,0c0.732,0.659,1.22,1.097,1.706,1.534
		c-0.518,0.518-0.988,0.987-1.629,1.63c-1.613,0-3.398,0-5.283,0c0,2.282,0,4.396,0,6.703c3.438,0,6.881,0,9.533,0
		c1.273,0.832,1.953,1.276,2.889,1.888c-0.887,1.02-1.49,1.712-1.775,2.04c-3.445-0.268-6.47-0.646-9.497-0.677
		c-1.521-0.015-3.042,0.636-4.574,0.931c-1.38,0.266-2.749,0.323-4.163,0.722c-2.577,0.726-5.505,0.206-8.402,0.206
		c0-0.958,0-1.741,0-2.533c2.797-1.443,5.822-1.437,8.883-1.438C37.863,167.894,38.876,167.28,39.724,167.001z"/>
	<path fill-rule="evenodd" clip-rule="evenodd" fill="#596642" d="M60.005,170.681c-0.5-0.59-0.907-1.069-1.823-2.149
		c0.964-0.322,1.788-0.599,2.612-0.875c-0.192-0.252-0.385-0.504-0.578-0.756c1.45,0,2.9,0,4.137,0
		c2.678-2.118,0.984-4.828,1.492-7.133c-1.924-2.674-0.572-5.664-1.064-8.47c1.959-0.87,2.554,0.35,3.047,1.572
		c0.396,0.986,0.637,2.035,0.968,3.129c2.929-0.667,5.534-2.373,7.882,0.224c-0.482,1.491-1.57,1.668-2.941,1.793
		c-1.173,0.107-2.291,0.815-3.71,1.365c0,1.804,0,3.924,0,6.225c2.927,1.585,7.073-1.466,9.921,1.962
		c-0.457,1.624-1.289,2.452-3.109,2.412c-4.657-0.101-9.318-0.067-13.979-0.003C61.98,169.99,61.105,170.398,60.005,170.681z"/>
	<path fill-rule="evenodd" clip-rule="evenodd" fill="#596642" d="M85.56,143.723c0.867-0.857,1.455-1.438,2.039-2.016
		c-1.045-1.88-0.873-3.804-0.477-6.325c1.401,1.04,2.391,1.775,3.629,2.695c1.084-0.33,2.385-0.727,3.847-1.173
		c0.099,0.599,0.401,1.267,0.21,1.47c-1.342,1.424-2.785,2.753-4.194,4.109c0.505,2.037,3.687,1.448,3.135,4.191
		c-2.041,0.658-4.306-0.016-6.793,0.439C86.437,145.856,85.972,144.724,85.56,143.723z"/>
	<path fill-rule="evenodd" clip-rule="evenodd" fill="#596642" d="M49.044,147.826c-2.9,0-5.348,0-7.824,0
		c-1.631-1.308-2.092-2.764-0.436-4.439c-2.871-3.23-2.799-3.829,0.83-5.443c0.15,0.968,0.291,1.883,0.457,2.958
		c1.502,0,2.951,0,4.843,0c-0.784,1.688-2.327,2.357-3.062,4.016C45.835,145.105,48.405,144.31,49.044,147.826z"/>
	<path fill-rule="evenodd" clip-rule="evenodd" fill="#596642" d="M68.445,143.572c1.139,1.14,2.141,2.142,3.374,3.375
		c-1.038,0-1.997-0.134-2.897,0.042c-0.714,0.14-1.354,0.658-2.036,1.013c-1.914-0.65-2.409-1.935-1.846-3.751
		c0.408-1.315,0.802-2.635,1.312-4.318c1.639,0.261,3.11,1.237,4.654,2.478C70.17,142.789,69.498,143.094,68.445,143.572z"/>
	<path fill-rule="evenodd" clip-rule="evenodd" fill="#596642" d="M58.305,146.951c-1.909-3.188-1.96-5.998-0.132-8.862
		c2.667,1.143,1.334,3.531,1.729,5.396c0.896,0.513,1.838,1.052,2.805,1.605c-0.144,0.363-0.201,0.611-0.329,0.815
		C61.367,147.523,59.744,146.806,58.305,146.951z"/>
	<path fill-rule="evenodd" clip-rule="evenodd" fill="#596642" d="M74.322,147.57c-0.529-2.901-0.915-5.01-1.302-7.127
		c1.935-0.337,1.935-0.337,3.665,0.787c0,1.303,0,2.733,0,4.405C76.194,146.038,75.489,146.615,74.322,147.57z"/>
	<path fill-rule="evenodd" clip-rule="evenodd" fill="#596642" d="M46.838,137.347c1.544-0.465,3.089-0.93,4.843-1.458
		c0,0.994,0,1.759,0,2.647c-0.89,0.439-1.959,0.967-2.977,1.469c-0.857-0.562-1.621-1.062-2.387-1.562
		C46.492,138.078,46.666,137.712,46.838,137.347z"/>
	<path fill-rule="evenodd" clip-rule="evenodd" fill="#596642" d="M60.736,136.645c1.439-0.189,2.018-0.266,2.91-0.384
		c0.061,0.567,0.152,1.427,0.346,3.222c-0.94-0.861-1.297-1.188-1.649-1.511c-0.345,0.313-0.688,0.627-1.032,0.939
		c-0.489-0.489-0.954-0.954-1.509-1.509C60.298,137,60.794,136.598,60.736,136.645z"/>
	<path fill-rule="evenodd" clip-rule="evenodd" fill="#596642" d="M66.845,119.947c-1.089,1.623-2.508,1.135-3.908,0.579
		c-0.684-0.272-1.328-0.646-2.57-1.26c1.521-0.14,2.5-0.229,3.479-0.319C64.314,120.874,65.861,119.566,66.845,119.947z"/>
	<path fill-rule="evenodd" clip-rule="evenodd" fill="#596642" d="M49.845,83.947c-0.398,0.333-0.771,0.91-1.2,0.954
		c-1.255,0.129-2.532,0.046-3.8,0.046c0.398-0.333,0.771-0.91,1.2-0.954C47.3,83.864,48.578,83.947,49.845,83.947z"/>
	<path fill-rule="evenodd" clip-rule="evenodd" fill="#596642" d="M49.807,83.338c0.422-0.13,0.839-0.356,1.266-0.374
		c1.231-0.051,2.467-0.018,4.725-0.018C53.148,84.528,51.487,83.507,49.807,83.338z"/>
	<path fill-rule="evenodd" clip-rule="evenodd" fill="#596642" d="M19.849,55.689c-1.639,0-3.277,0-5.522,0
		C16.542,54.365,18.204,55.386,19.849,55.689z"/>
	<path fill-rule="evenodd" clip-rule="evenodd" fill="#596642" d="M40.019,77.11c1.551,0,3.102,0,5.826,0
		C43.187,78.268,41.593,77.808,40.019,77.11z"/>
	<path fill-rule="evenodd" clip-rule="evenodd" fill="#596642" d="M75.85,121.689c-1.64,0-3.279,0-4.919,0
		C72.55,120.76,74.191,120.753,75.85,121.689z"/>
	<path fill-rule="evenodd" clip-rule="evenodd" fill="#596642" d="M49.845,78.947c-0.398,0.333-0.771,0.91-1.2,0.954
		c-1.255,0.129-2.532,0.046-3.8,0.046c0.398-0.333,0.771-0.91,1.2-0.954C47.3,78.864,48.578,78.947,49.845,78.947z"/>
	<path fill-rule="evenodd" clip-rule="evenodd" fill="#596642" d="M44.845,79.947c0,0.333,0,0.667,0,1c-1.615,0-3.23,0-4.846,0
		C41.523,79.637,43.226,80.098,44.845,79.947z"/>
	<path fill-rule="evenodd" clip-rule="evenodd" fill="#596642" d="M71.742,138.697c0.89-2.142,0.89-2.142,3.361,0
		C73.835,138.697,72.84,138.697,71.742,138.697z"/>
	<path fill-rule="evenodd" clip-rule="evenodd" fill="#596642" d="M45.039,81.065c1.39,0,2.973,0,4.847,0
		C46.931,82.221,46.931,82.221,45.039,81.065z"/>
	<path fill-rule="evenodd" clip-rule="evenodd" fill="#596642" d="M106.876,116.237c-1.41,0.446-1.821,0.664-2.246,0.692
		c-0.898,0.059-1.804,0.018-2.711-0.692C103.223,116.237,104.527,116.237,106.876,116.237z"/>
	<path fill-rule="evenodd" clip-rule="evenodd" fill="#596642" d="M55.876,80.237c-1.41,0.446-1.821,0.664-2.246,0.692
		c-0.898,0.059-1.804,0.018-2.711-0.692C52.223,80.237,53.527,80.237,55.876,80.237z"/>
	<path fill-rule="evenodd" clip-rule="evenodd" fill="#596642" d="M93.845,118.947c0.393-0.333,0.748-0.885,1.184-0.955
		c0.917-0.148,1.875-0.045,2.816-0.045c-0.393,0.333-0.748,0.885-1.184,0.955C95.745,119.05,94.787,118.947,93.845,118.947z"/>
	<path fill-rule="evenodd" clip-rule="evenodd" fill="#596642" d="M22.847,58.687c-1.305,0-2.608,0-3.912,0
		c-0.005-0.15-0.01-0.3-0.016-0.45c1.305,0,2.607,0,3.91,0C22.835,58.387,22.841,58.537,22.847,58.687z"/>
	<path fill-rule="evenodd" clip-rule="evenodd" fill="#596642" d="M105.845,115.947c0-0.333,0-0.667,0-1c1.277,0,2.555,0,4.816,0
		C108.552,116.386,107.121,115.725,105.845,115.947z"/>
	<path fill-rule="evenodd" clip-rule="evenodd" fill="#596642" d="M0,33.12c0.883,0,1.767,0,2.65,0
		c0.02,0.169,0.04,0.338,0.059,0.507c-0.874,0.126-1.747,0.252-2.621,0.379C0.059,33.709,0.03,33.415,0,33.12z"/>
	<path fill-rule="evenodd" clip-rule="evenodd" fill="#596642" d="M97.83,117.144c0.974-0.046,1.947-0.092,2.921-0.138
		c0.019,0.223,0.038,0.445,0.057,0.668c-0.981,0.129-1.964,0.257-2.946,0.386C97.85,117.754,97.839,117.45,97.83,117.144z"/>
	<path fill-rule="evenodd" clip-rule="evenodd" fill="#596642" d="M42.69,75.774c-0.885,0-1.771,0-2.655,0
		c-0.018-0.169-0.035-0.338-0.053-0.507c0.873-0.126,1.746-0.252,2.62-0.379C42.631,75.184,42.661,75.479,42.69,75.774z"/>
	<path fill-rule="evenodd" clip-rule="evenodd" fill="#596642" d="M93.861,119.75c-0.974,0.046-1.947,0.092-2.921,0.138
		c-0.019-0.223-0.038-0.445-0.057-0.668c0.981-0.129,1.964-0.257,2.946-0.386C93.84,119.139,93.851,119.444,93.861,119.75z"/>
	<path fill-rule="evenodd" clip-rule="evenodd" fill="#596642" d="M49.845,86.947c-0.469,1.927-2.016,0.619-3,1
		C47.314,86.02,48.861,87.328,49.845,86.947z"/>
	<path fill-rule="evenodd" clip-rule="evenodd" fill="#596642" d="M49.83,86.144c0.974-0.046,1.947-0.092,2.921-0.138
		c0.019,0.223,0.038,0.445,0.057,0.668c-0.981,0.129-1.964,0.257-2.946,0.386C49.85,86.754,49.839,86.45,49.83,86.144z"/>
	<path fill-rule="evenodd" clip-rule="evenodd" fill="#596642" d="M124.845,99.947c-0.469,1.927-2.016,0.619-3,1
		C122.314,99.02,123.861,100.328,124.845,99.947z"/>
	<path fill-rule="evenodd" clip-rule="evenodd" fill="#596642" d="M52.861,107.75c-0.974,0.046-1.947,0.092-2.921,0.138
		c-0.019-0.223-0.038-0.445-0.057-0.668c0.981-0.129,1.964-0.257,2.946-0.386C52.84,107.139,52.851,107.444,52.861,107.75z"/>
	<path fill-rule="evenodd" clip-rule="evenodd" fill="#596642" d="M49.861,93.75c-0.974,0.046-1.947,0.092-2.921,0.138
		c-0.019-0.223-0.038-0.445-0.057-0.668c0.981-0.129,1.964-0.257,2.946-0.386C49.84,93.139,49.851,93.444,49.861,93.75z"/>
	<path fill-rule="evenodd" clip-rule="evenodd" fill="#596642" d="M23.017,63.111c0.886,0,1.771,0,2.656,0
		c0.016,0.174,0.031,0.349,0.047,0.523c-0.883,0.123-1.766,0.246-2.648,0.37C23.054,63.707,23.036,63.409,23.017,63.111z"/>
	<path fill-rule="evenodd" clip-rule="evenodd" fill="#596642" d="M127.687,101.776c-0.553,0-1.105,0-1.658,0
		c-0.025-0.158-0.052-0.316-0.078-0.476c0.543-0.129,1.086-0.259,1.628-0.388C127.615,101.2,127.651,101.488,127.687,101.776z"/>
	<path fill-rule="evenodd" clip-rule="evenodd" fill="#596642" d="M48.845,101.197c0.666,0,1.334,0,2,0c0,0.167,0,0.333,0,0.5
		c-0.666,0-1.334,0-2,0C48.845,101.53,48.845,101.364,48.845,101.197z"/>
	<path fill-rule="evenodd" clip-rule="evenodd" fill="#596642" d="M27.845,67.697c-0.666,0-1.334,0-2,0c0-0.167,0-0.333,0-0.5
		c0.666,0,1.334,0,2,0C27.845,67.364,27.845,67.53,27.845,67.697z"/>
	<path fill-rule="evenodd" clip-rule="evenodd" fill="#596642" d="M124.819,99.17c0.637-0.055,1.274-0.109,1.911-0.164
		c0.029,0.215,0.059,0.431,0.088,0.646c-0.652,0.128-1.303,0.255-1.955,0.383C124.848,99.747,124.833,99.458,124.819,99.17z"/>
	<path fill-rule="evenodd" clip-rule="evenodd" fill="#596642" d="M47.845,90.197c0.666,0,1.334,0,2,0c0,0.167,0,0.333,0,0.5
		c-0.666,0-1.334,0-2,0C47.845,90.53,47.845,90.364,47.845,90.197z"/>
	<path fill-rule="evenodd" clip-rule="evenodd" fill="#596642" d="M44.872,85.723c-0.637,0.055-1.274,0.109-1.911,0.164
		c-0.029-0.215-0.059-0.431-0.088-0.646c0.652-0.128,1.303-0.255,1.955-0.383C44.842,85.147,44.857,85.435,44.872,85.723z"/>
	<path fill-rule="evenodd" clip-rule="evenodd" fill="#596642" d="M50.872,104.723c-0.637,0.055-1.274,0.109-1.911,0.164
		c-0.029-0.215-0.059-0.431-0.088-0.646c0.652-0.128,1.303-0.255,1.955-0.383C50.842,104.147,50.857,104.435,50.872,104.723z"/>
	<path fill-rule="evenodd" clip-rule="evenodd" fill="#596642" d="M51.872,110.723c-0.637,0.055-1.274,0.109-1.911,0.164
		c-0.029-0.215-0.059-0.431-0.088-0.646c0.652-0.128,1.303-0.255,1.955-0.383C51.842,110.147,51.857,110.435,51.872,110.723z"/>
	<path fill-rule="evenodd" clip-rule="evenodd" fill="#596642" d="M49.845,96.197c0.666,0,1.334,0,2,0c0,0.167,0,0.333,0,0.5
		c-0.666,0-1.334,0-2,0C49.845,96.53,49.845,96.364,49.845,96.197z"/>
	<path fill-rule="evenodd" clip-rule="evenodd" fill="#596642" d="M123.845,96.947c-0.086,1.496-1.242,0.85-2,1c0-0.333,0-0.667,0-1
		C122.511,96.947,123.179,96.947,123.845,96.947z"/>
	<path fill-rule="evenodd" clip-rule="evenodd" fill="#596642" d="M96.674,137.105c0,0.553,0,1.105,0,1.658
		c-0.158,0.026-0.317,0.052-0.476,0.077c-0.129-0.542-0.259-1.085-0.389-1.627C96.099,137.177,96.386,137.141,96.674,137.105z"/>
	<path fill-rule="evenodd" clip-rule="evenodd" fill="#596642" d="M103.687,118.776c-0.553,0-1.105,0-1.658,0
		c-0.025-0.158-0.052-0.316-0.078-0.476c0.543-0.129,1.086-0.259,1.628-0.388C103.615,118.2,103.651,118.488,103.687,118.776z"/>
	<path fill-rule="evenodd" clip-rule="evenodd" fill="#596642" d="M38.701,81.302c-0.115,0.21-0.235,0.427-0.355,0.645
		c-0.111-0.111-0.331-0.246-0.312-0.329c0.053-0.235,0.201-0.448,0.312-0.671C38.457,81.058,38.568,81.169,38.701,81.302z"/>
	<path fill-rule="evenodd" clip-rule="evenodd" fill="#596642" d="M46.95,88.038c-0.231,0.272-0.464,0.545-0.696,0.816
		c-0.105-0.104-0.211-0.21-0.316-0.314c0.273-0.232,0.545-0.465,0.818-0.697C46.82,87.907,46.884,87.972,46.95,88.038z"/>
	<path fill-rule="evenodd" clip-rule="evenodd" fill="#596642" d="M46.49,91.802c-0.21-0.115-0.428-0.235-0.645-0.355
		c0.111-0.111,0.246-0.331,0.328-0.312c0.236,0.052,0.449,0.201,0.672,0.312C46.734,91.558,46.623,91.669,46.49,91.802z"/>
	<path fill-rule="evenodd" clip-rule="evenodd" fill="#596642" d="M123.845,93.947c0.334,0.333,0.666,0.667,1,1
		c-0.334,0-0.666,0-1,0C123.845,94.614,123.845,94.28,123.845,93.947z"/>
	<path fill-rule="evenodd" clip-rule="evenodd" fill="#596642" d="M124.845,94.947c0.276,0.224,0.553,0.447,0.829,0.671
		c-0.276,0.109-0.553,0.22-0.829,0.329C124.845,95.614,124.845,95.28,124.845,94.947z"/>
	<path fill-rule="evenodd" clip-rule="evenodd" fill="#596642" d="M124.845,95.947c-0.334,0.333-0.666,0.667-1,1
		c0-0.333,0-0.667,0-1C124.179,95.947,124.511,95.947,124.845,95.947z"/>
	<path fill-rule="evenodd" clip-rule="evenodd" fill="#596642" d="M8.755,49.051c-0.272-0.232-0.545-0.465-0.817-0.697
		c0.105-0.104,0.21-0.21,0.315-0.314c0.232,0.271,0.465,0.544,0.697,0.816C8.885,48.921,8.82,48.987,8.755,49.051z"/>
	<path fill-rule="evenodd" clip-rule="evenodd" fill="#596642" d="M98.066,84.668c-0.334-0.335-0.686-0.688-1.01-1.011
		c0.309-0.775,0.61-1.536,1.024-2.577c-1.231-0.09-2.019-0.147-3.021-0.22c0-1.541,0-3.106,0-4.644
		c1.846-1.844,3.916-2.777,6.913-1.983c0.403,1.105,0.875,2.398,1.495,4.098c1.039-1.292,1.961-2.438,2.782-3.461
		c1.075,0.103,1.847,0.177,3.03,0.29c-0.529,0.929-0.744,1.537-1.152,1.956c-0.428,0.44-1.043,0.699-1.934,1.265
		c1.299,0.46,1.877,0.664,2.553,0.904c0,0.747,0,1.529,0,2.289c-0.711,0.305-1.369,0.588-2.578,1.107
		c1.734,1.254,3.02,2.184,4.318,3.122c0.609-0.609,1.195-1.196,2.086-2.086c0.125,1.113,0.221,1.961,0.344,3.041
		c-1.302,0-2.406,0-3.527,0c-0.169,1.862-1.736,2.116-2.9,2.988c-0.554-0.242-1.173-0.589-1.837-0.78
		c-0.579-0.168-1.21-0.162-2.223-0.279c3.601-2.082,1.632-6.31,5.021-8.698c-1.582,0-2.369-0.056-3.146,0.011
		c-1.778,0.151-0.532,2.896-2.668,3.029C100.492,83.101,99.402,84.023,98.066,84.668z M97.345,75.947
		c-0.111,0.111-0.331,0.246-0.312,0.329c0.053,0.235,0.201,0.448,0.312,0.671c0.111-0.111,0.331-0.246,0.312-0.329
		C97.605,76.382,97.457,76.168,97.345,75.947z M98.99,77.591c0.133,0.133,0.244,0.244,0.355,0.355
		c0.111-0.223,0.26-0.436,0.312-0.671c0.019-0.083-0.201-0.218-0.312-0.329C99.225,77.165,99.105,77.381,98.99,77.591z"/>
	<path fill-rule="evenodd" clip-rule="evenodd" fill="#596642" d="M77.845,51.947c-0.758,0.15-1.914-0.496-2,1
		c-1.628,0.461-3.427,0.633-4.838,1.463c-1.496,0.881-2.729,0.195-4.973,0.771c2.658-1.984,5.292-1.33,6.811-3.233
		c1.588-0.554,3.176-1.107,5-1.743C77.845,50.765,77.845,51.356,77.845,51.947z"/>
	<path fill-rule="evenodd" clip-rule="evenodd" fill="#596642" d="M91.87,76.603c-0.09-4.271,3.274-3.152,4.271-4.928
		C96.246,74.796,93.488,74.417,91.87,76.603z"/>
	<path fill-rule="evenodd" clip-rule="evenodd" fill="#596642" d="M97.938,92.548c0-1.362,0-1.808,0-2.428c1.278,0,2.499,0,3.927,0
		C101.572,93.689,99.112,90.835,97.938,92.548z"/>
	<path fill-rule="evenodd" clip-rule="evenodd" fill="#596642" d="M94.902,82.723c-1.914,0.271-3.639,0.775-4.869-1.092
		C91.89,81.026,91.89,81.026,94.902,82.723z"/>
	<path fill-rule="evenodd" clip-rule="evenodd" fill="#596642" d="M83.845,94.947c-0.334,0.333-0.666,0.667-1,1
		c-0.666,0-1.334,0-2,0c0.771-1.343,1.543-2.687,2.314-4.029c0.229,0.079,0.457,0.159,0.686,0.239
		C83.845,93.086,83.845,94.017,83.845,94.947z"/>
	<path fill-rule="evenodd" clip-rule="evenodd" fill="#596642" d="M104.095,70.502c0.874,1.11,1.436,1.824,2.235,2.84
		c-0.903,0.352-1.419,0.553-2.235,0.87C104.095,72.937,104.095,71.941,104.095,70.502z"/>
	<path fill-rule="evenodd" clip-rule="evenodd" fill="#596642" d="M101.69,97.774c-0.885,0-1.771,0-2.655,0
		c-0.018-0.169-0.035-0.338-0.053-0.507c0.873-0.126,1.746-0.252,2.62-0.379C101.631,97.184,101.661,97.479,101.69,97.774z"/>
	<path fill-rule="evenodd" clip-rule="evenodd" fill="#596642" d="M115.095,91.947c0-0.667,0-1.333,0-2c0.166,0,0.334,0,0.5,0
		c0,0.667,0,1.333,0,2C115.429,91.947,115.261,91.947,115.095,91.947z"/>
	<path fill-rule="evenodd" clip-rule="evenodd" fill="#596642" d="M56.069,73.973c-0.055-0.637-0.109-1.274-0.164-1.911
		c0.216-0.029,0.431-0.059,0.646-0.088c0.127,0.652,0.255,1.304,0.383,1.955C56.644,73.944,56.357,73.958,56.069,73.973z"/>
	<path fill-rule="evenodd" clip-rule="evenodd" fill="#596642" d="M82.201,20.802c-0.133-0.133-0.244-0.244-0.355-0.355
		c0.223-0.111,0.436-0.261,0.672-0.312c0.082-0.019,0.217,0.201,0.328,0.312C82.628,20.567,82.411,20.687,82.201,20.802z"/>
	<path fill-rule="evenodd" clip-rule="evenodd" fill="#596642" d="M55.701,27.591c-0.133,0.133-0.244,0.244-0.355,0.355
		c-0.111-0.223-0.26-0.436-0.312-0.671c-0.019-0.083,0.201-0.218,0.312-0.329C55.465,27.165,55.585,27.381,55.701,27.591z"/>
	<path fill-rule="evenodd" clip-rule="evenodd" fill="#596642" d="M72.755,52.051c-0.273-0.232-0.545-0.465-0.818-0.697
		c0.105-0.104,0.211-0.21,0.316-0.314c0.232,0.271,0.465,0.544,0.696,0.816C72.884,51.921,72.82,51.987,72.755,52.051z"/>
	<path fill-rule="evenodd" clip-rule="evenodd" fill="#596642" d="M65.95,100.038c-0.231,0.272-0.464,0.545-0.696,0.816
		c-0.105-0.104-0.211-0.21-0.316-0.314c0.273-0.232,0.545-0.465,0.818-0.697C65.82,99.907,65.884,99.972,65.95,100.038z"/>
	<path fill-rule="evenodd" clip-rule="evenodd" fill="#596642" d="M61.741,12.856c0.231-0.272,0.464-0.545,0.696-0.816
		c0.105,0.104,0.211,0.21,0.316,0.314c-0.273,0.232-0.545,0.465-0.818,0.697C61.871,12.987,61.806,12.921,61.741,12.856z"/>
	<path fill-rule="evenodd" clip-rule="evenodd" fill="#596642" d="M43.845,21.947c0,0.333,0,0.667,0,1
		c-0.276-0.224-0.553-0.447-0.829-0.671C43.292,22.167,43.569,22.056,43.845,21.947z"/>
	<path fill-rule="evenodd" clip-rule="evenodd" fill="#596642" d="M50.845,21.947c0,0.333,0,0.667,0,1c-0.666,0-1.334,0-2,0
		c0-0.333,0-0.667,0-1C49.511,21.947,50.179,21.947,50.845,21.947z"/>
	<path fill-rule="evenodd" clip-rule="evenodd" fill="#596642" d="M51.845,21.947c-0.334,0-0.666,0-1,0c0-0.333,0-0.667,0-1
		c0.334,0,0.666,0,1,0C51.845,21.28,51.845,21.614,51.845,21.947z"/>
</g>
</svg>
